<svg width="23" height="23" viewBox="0 0 23 23" fill="none" xmlns="http://www.w3.org/2000/svg">
<path d="M19.4064 12.0461V10.9464L20.7864 9.7389C21.0408 9.51468 21.2077 9.20776 21.2577 8.87237C21.3077 8.53698 21.2375 8.19473 21.0595 7.90608L19.3633 5.03108C19.2372 4.81277 19.056 4.63145 18.8378 4.50529C18.6195 4.37914 18.3719 4.31259 18.1198 4.31233C17.9636 4.31114 17.8082 4.33541 17.6598 4.38421L15.9133 4.97358C15.6117 4.7732 15.2972 4.59312 14.9717 4.43452L14.6052 2.62327C14.5394 2.29236 14.3594 1.99511 14.0966 1.78356C13.8338 1.572 13.505 1.45962 13.1677 1.46608H9.8039C9.46659 1.45962 9.13775 1.572 8.87495 1.78356C8.61215 1.99511 8.43213 2.29236 8.3664 2.62327L7.99984 4.43452C7.67204 4.59308 7.3551 4.77316 7.05109 4.97358L5.34046 4.35546C5.19046 4.31638 5.03512 4.30181 4.88046 4.31233C4.62838 4.31259 4.3808 4.37914 4.16255 4.50529C3.9443 4.63145 3.76307 4.81277 3.63703 5.03108L1.94078 7.90608C1.77301 8.1943 1.71067 8.53187 1.76443 8.86099C1.81819 9.19011 1.98471 9.4903 2.23546 9.71015L3.5939 10.9536V12.0533L2.23546 13.2608C1.97763 13.4821 1.80655 13.7877 1.75261 14.1232C1.69866 14.4588 1.76533 14.8025 1.94078 15.0936L3.63703 17.9686C3.76307 18.1869 3.9443 18.3682 4.16255 18.4944C4.3808 18.6205 4.62838 18.6871 4.88046 18.6873C5.03668 18.6885 5.19205 18.6643 5.34046 18.6155L7.08703 18.0261C7.38857 18.2265 7.70312 18.4066 8.02859 18.5651L8.39515 20.3764C8.46088 20.7073 8.6409 21.0046 8.9037 21.2161C9.1665 21.4277 9.49534 21.54 9.83265 21.5336H13.2252C13.5625 21.54 13.8913 21.4277 14.1541 21.2161C14.4169 21.0046 14.5969 20.7073 14.6627 20.3764L15.0292 18.5651C15.357 18.4066 15.674 18.2265 15.978 18.0261L17.7173 18.6155C17.8657 18.6643 18.0211 18.6885 18.1773 18.6873C18.4294 18.6871 18.677 18.6205 18.8953 18.4944C19.1135 18.3682 19.2947 18.1869 19.4208 17.9686L21.0595 15.0936C21.2273 14.8054 21.2896 14.4678 21.2359 14.1387C21.1821 13.8096 21.0156 13.5094 20.7648 13.2895L19.4064 12.0461ZM18.1198 17.2498L15.6545 16.4161C15.0774 16.9049 14.4178 17.287 13.7067 17.5445L13.1964 20.1248H9.8039L9.29359 17.5733C8.58808 17.3085 7.93207 16.927 7.35296 16.4448L4.88046 17.2498L3.18421 14.3748L5.13921 12.6498C5.00631 11.9058 5.00631 11.1442 5.13921 10.4001L3.18421 8.62484L4.88046 5.74984L7.34578 6.58358C7.92289 6.09476 8.58246 5.71264 9.29359 5.45515L9.8039 2.87483H13.1964L13.7067 5.4264C14.4122 5.6912 15.0682 6.07266 15.6473 6.55483L18.1198 5.74984L19.8161 8.62484L17.8611 10.3498C17.994 11.0938 17.994 11.8555 17.8611 12.5995L19.8161 14.3748L18.1198 17.2498Z" fill="#1F2C56"/>
<path d="M11.5 15.8125C10.6471 15.8125 9.81329 15.5596 9.1041 15.0857C8.39492 14.6119 7.84217 13.9383 7.51577 13.1503C7.18937 12.3623 7.10397 11.4952 7.27037 10.6587C7.43676 9.82213 7.84749 9.05372 8.4506 8.4506C9.05372 7.84749 9.82213 7.43676 10.6587 7.27037C11.4952 7.10397 12.3623 7.18937 13.1503 7.51577C13.9383 7.84217 14.6119 8.39492 15.0857 9.1041C15.5596 9.81329 15.8125 10.6471 15.8125 11.5C15.8183 12.0679 15.7107 12.6313 15.496 13.1571C15.2813 13.6829 14.9639 14.1606 14.5623 14.5623C14.1606 14.9639 13.6829 15.2813 13.1571 15.496C12.6313 15.7107 12.0679 15.8183 11.5 15.8125ZM11.5 8.625C11.12 8.61615 10.7422 8.68446 10.3894 8.82581C10.0366 8.96716 9.71611 9.17861 9.44736 9.44736C9.17861 9.71611 8.96716 10.0366 8.82581 10.3894C8.68446 10.7422 8.61615 11.12 8.625 11.5C8.61615 11.88 8.68446 12.2578 8.82581 12.6106C8.96716 12.9634 9.17861 13.2839 9.44736 13.5526C9.71611 13.8214 10.0366 14.0328 10.3894 14.1742C10.7422 14.3155 11.12 14.3839 11.5 14.375C11.88 14.3839 12.2578 14.3155 12.6106 14.1742C12.9634 14.0328 13.2839 13.8214 13.5526 13.5526C13.8214 13.2839 14.0328 12.9634 14.1742 12.6106C14.3155 12.2578 14.3839 11.88 14.375 11.5C14.3839 11.12 14.3155 10.7422 14.1742 10.3894C14.0328 10.0366 13.8214 9.71611 13.5526 9.44736C13.2839 9.17861 12.9634 8.96716 12.6106 8.82581C12.2578 8.68446 11.88 8.61615 11.5 8.625Z" fill="#1F2C56"/>
</svg>
