<svg width="23" height="23" viewBox="0 0 23 23" fill="none" xmlns="http://www.w3.org/2000/svg">
<path fill-rule="evenodd" clip-rule="evenodd" d="M4.75 1C2.67893 1 1 2.67893 1 4.75V12.75V18.75C1 20.8211 2.67893 22.5 4.75 22.5H9.25C9.28582 22.5 9.32106 22.4975 9.35554 22.4926C9.4682 22.4975 9.599 22.5 9.75039 22.5C10.1646 22.5 10.5004 22.1642 10.5004 21.75V17.75C10.5004 17.3358 10.1646 17 9.75039 17C9.33617 17 9.00039 17.3358 9.00039 17.75V21H4.75C3.50736 21 2.5 19.9926 2.5 18.75V13.5H9.25C9.66421 13.5 10 13.1642 10 12.75C10 12.3358 9.66421 12 9.25 12H2.5V4.75C2.5 3.50736 3.50736 2.5 4.75 2.5H18.75C19.9926 2.5 21 3.50736 21 4.75V8H13.75C13.3358 8 13 8.33579 13 8.75C13 9.16421 13.3358 9.5 13.75 9.5H21V18.75C21 19.9926 19.9926 21 18.75 21H15.25C14.8358 21 14.5 21.3358 14.5 21.75C14.5 22.1642 14.8358 22.5 15.25 22.5H18.75C20.8211 22.5 22.5 20.8211 22.5 18.75V4.75C22.5 2.67893 20.8211 1 18.75 1H4.75Z" fill="#1F2C56"/>
</svg>
