<svg width="418" height="562" viewBox="0 0 418 562" fill="none" xmlns="http://www.w3.org/2000/svg">
<path d="M225.663 561.998C225.588 561.998 225.521 561.981 225.455 561.939L0.392351 431.861C0.191991 431.744 0.125205 431.494 0.242081 431.294C0.358957 431.093 0.609407 431.027 0.809766 431.143L225.663 561.105L417.374 449.571C417.574 449.454 417.825 449.521 417.942 449.721C418.058 449.922 417.992 450.172 417.791 450.289L225.872 561.939C225.805 561.981 225.738 561.998 225.663 561.998Z" fill="white"/>
<path d="M0.601562 424.859L225.664 554.937L417.583 443.287V443.278L192.521 313.192L0.601562 424.851" fill="#57E79B"/>
<path d="M225.663 555.354C225.588 555.354 225.521 555.338 225.454 555.296L0.392302 425.218C0.258729 425.143 0.183594 425.001 0.183594 424.85C0.183594 424.709 0.258729 424.567 0.392302 424.483L192.312 312.833C192.437 312.758 192.604 312.758 192.729 312.833L417.791 442.919C417.916 442.994 418 443.128 418 443.278C418 443.428 417.925 443.57 417.791 443.645L225.872 555.296C225.805 555.338 225.738 555.354 225.663 555.354ZM1.42749 424.85L225.663 554.461L416.756 443.286L192.52 313.676L1.42749 424.85Z" fill="white"/>
<path d="M67.7129 386.685L228.109 479.399L353.325 406.557L192.921 313.843L67.7129 386.685Z" fill="#2ACE6F"/>
<path d="M417.582 450.347C417.349 450.347 417.165 450.163 417.165 449.93V443.286C417.165 443.053 417.349 442.869 417.582 442.869C417.816 442.869 418 443.053 418 443.286V449.93C418 450.163 417.816 450.347 417.582 450.347Z" fill="white"/>
<path d="M0.601009 431.911C0.367257 431.911 0.183594 431.728 0.183594 431.494V424.851C0.183594 424.617 0.367257 424.434 0.601009 424.434C0.834762 424.434 1.01842 424.617 1.01842 424.851V431.494C1.01842 431.728 0.834762 431.911 0.601009 431.911Z" fill="white"/>
<path d="M204.717 162.391L6.03516 277.68L213.132 396.975L411.596 282.529L204.717 162.391Z" fill="#8DAEFF"/>
<path d="M213.132 397.393C213.057 397.393 212.99 397.376 212.923 397.334L5.82687 278.039C5.70165 277.964 5.61816 277.83 5.61816 277.68C5.61816 277.53 5.6933 277.396 5.82687 277.321L204.508 162.032C204.642 161.957 204.801 161.957 204.926 162.032L411.805 282.179C411.93 282.254 412.014 282.387 412.014 282.537C412.014 282.688 411.93 282.821 411.805 282.896L213.341 397.343C213.274 397.376 213.207 397.401 213.132 397.401V397.393ZM6.87041 277.68L213.132 396.491L410.762 282.529L204.717 162.875L6.87041 277.68Z" fill="white"/>
<path d="M411.597 282.396C411.53 282.396 411.455 282.379 411.388 282.337L204.717 162.875L6.24434 278.039C6.04398 278.156 5.79353 278.089 5.67665 277.889C5.55977 277.688 5.62656 277.438 5.82692 277.321L204.508 162.032C204.634 161.957 204.801 161.957 204.926 162.032L411.805 281.619C412.006 281.736 412.072 281.987 411.956 282.187C411.88 282.32 411.739 282.396 411.597 282.396Z" fill="white"/>
<path d="M213.132 416.655C213.057 416.655 212.99 416.638 212.924 416.597L0.208708 293.646C0.0834831 293.571 0 293.437 0 293.287V118.525C0 118.375 0.0751348 118.242 0.208708 118.167L203.482 0.0563344C203.607 -0.0187781 203.774 -0.0187781 203.899 0.0563344L417.791 123.508C417.917 123.583 418 123.717 418 123.867V297.101C418 297.251 417.925 297.385 417.791 297.46L213.341 416.588C213.274 416.63 213.199 416.647 213.132 416.647V416.655ZM0.834831 293.045L213.132 415.754L417.165 296.867V124.109L203.69 0.899263L0.834831 118.759V293.045Z" fill="white"/>
<path d="M213.132 397.393C212.99 397.393 212.848 397.318 212.773 397.184C212.656 396.984 212.723 396.734 212.924 396.617L417.374 278.54C417.574 278.423 417.825 278.49 417.941 278.69C418.058 278.89 417.992 279.141 417.791 279.258L213.341 397.334C213.274 397.376 213.207 397.393 213.132 397.393Z" fill="white"/>
<path d="M74.9848 200.189C74.8429 200.189 74.701 200.114 74.6259 199.981C74.509 199.78 74.5758 199.53 74.7761 199.413L164.312 147.569C164.512 147.452 164.763 147.519 164.879 147.719C164.996 147.919 164.93 148.17 164.729 148.286L75.1936 200.131C75.1268 200.173 75.0516 200.189 74.9848 200.189Z" fill="white"/>
<path d="M74.9848 111.356C74.8429 111.356 74.701 111.281 74.6259 111.148C74.509 110.947 74.5758 110.697 74.7761 110.58L164.312 58.7357C164.512 58.6189 164.763 58.6856 164.879 58.8859C164.996 59.0862 164.93 59.3366 164.729 59.4535L75.1936 111.298C75.1268 111.339 75.0516 111.356 74.9848 111.356Z" fill="white"/>
<path d="M119.749 168.333C119.607 168.333 119.465 168.258 119.39 168.125C119.273 167.924 119.339 167.674 119.54 167.557L158.777 144.84C158.977 144.723 159.228 144.79 159.345 144.99C159.461 145.19 159.395 145.441 159.194 145.557L119.957 168.275C119.89 168.317 119.815 168.333 119.749 168.333Z" fill="white"/>
<path d="M213.132 397.393C213.065 397.393 212.99 397.376 212.924 397.334L0.500749 274.734C0.300389 274.617 0.233603 274.367 0.350479 274.167C0.467356 273.966 0.717805 273.9 0.918165 274.016L213.341 396.625C213.541 396.742 213.608 396.992 213.491 397.193C213.416 397.326 213.274 397.401 213.132 397.401V397.393Z" fill="white"/>
<path d="M411.822 127.063C411.755 127.063 411.68 127.047 411.613 127.005L198.289 3.87875C198.088 3.76191 198.022 3.51153 198.139 3.31123C198.255 3.11093 198.506 3.04417 198.706 3.16101L412.031 126.287C412.231 126.404 412.298 126.654 412.181 126.855C412.106 126.988 411.964 127.063 411.822 127.063Z" fill="white"/>
<path d="M74.9848 200.189C74.751 200.189 74.5674 200.006 74.5674 199.772V110.48C74.5674 110.246 74.751 110.062 74.9848 110.062C75.2186 110.062 75.4022 110.246 75.4022 110.48V199.772C75.4022 200.006 75.2186 200.189 74.9848 200.189Z" fill="white"/>
<path d="M164.52 148.345C164.286 148.345 164.103 148.161 164.103 147.928V59.0945C164.103 58.8609 164.286 58.6772 164.52 58.6772C164.754 58.6772 164.937 58.8609 164.937 59.0945V147.928C164.937 148.161 164.754 148.345 164.52 148.345Z" fill="white"/>
<path d="M159.377 145.941C159.144 145.941 158.96 145.758 158.96 145.524V62.0408C158.96 61.8071 159.144 61.6235 159.377 61.6235C159.611 61.6235 159.795 61.8071 159.795 62.0408V145.524C159.795 145.758 159.611 145.941 159.377 145.941Z" fill="white"/>
<path d="M119.748 174.267C119.515 174.267 119.331 174.084 119.331 173.85V85.0169C119.331 84.7832 119.515 84.5996 119.748 84.5996C119.982 84.5996 120.166 84.7832 120.166 85.0169V173.85C120.166 174.084 119.982 174.267 119.748 174.267Z" fill="white"/>
<path d="M114.372 171.479C114.138 171.479 113.954 171.296 113.954 171.062V88.138C113.954 87.9043 114.138 87.7207 114.372 87.7207C114.605 87.7207 114.789 87.9043 114.789 88.138V171.062C114.789 171.296 114.605 171.479 114.372 171.479Z" fill="white"/>
<path d="M164.52 148.345C164.453 148.345 164.378 148.328 164.311 148.286L159.477 145.491C159.277 145.374 159.21 145.123 159.327 144.923C159.444 144.723 159.694 144.656 159.895 144.773L164.728 147.569C164.929 147.686 164.996 147.936 164.879 148.136C164.804 148.27 164.662 148.345 164.52 148.345Z" fill="white"/>
<path d="M119.089 174.267C119.022 174.267 118.947 174.251 118.88 174.209L114.047 171.413C113.846 171.296 113.779 171.046 113.896 170.845C114.013 170.645 114.264 170.578 114.464 170.695L119.298 173.491C119.498 173.608 119.565 173.858 119.448 174.059C119.373 174.192 119.231 174.267 119.089 174.267Z" fill="white"/>
<path d="M411.797 281.853C411.564 281.853 411.38 281.67 411.38 281.436V126.646C411.38 126.412 411.564 126.229 411.797 126.229C412.031 126.229 412.215 126.412 412.215 126.646V281.444C412.215 281.678 412.031 281.862 411.797 281.862V281.853Z" fill="white"/>
<path d="M6.03558 278.323C5.80183 278.323 5.61816 278.139 5.61816 277.906V122.097C5.62651 121.947 5.71 121.814 5.83522 121.738L208.115 2.72693C208.315 2.61009 208.566 2.67685 208.683 2.87715C208.799 3.07745 208.733 3.32783 208.532 3.44467L6.46134 122.331V277.897C6.453 278.131 6.26098 278.315 6.03558 278.315V278.323Z" fill="white"/>
<path d="M411.822 127.063C411.664 127.063 411.522 126.98 411.447 126.829C411.346 126.621 411.43 126.37 411.639 126.27L417.399 123.499C417.608 123.399 417.858 123.491 417.958 123.691C418.058 123.9 417.975 124.15 417.766 124.25L412.006 127.021C411.947 127.046 411.889 127.063 411.822 127.063Z" fill="white"/>
<path d="M74.9682 193.98C74.8263 193.98 74.6844 193.905 74.6093 193.771C74.4924 193.571 74.5592 193.32 74.7595 193.204L113.997 170.486C114.197 170.369 114.447 170.436 114.564 170.636C114.681 170.837 114.614 171.087 114.414 171.204L75.177 193.921C75.1102 193.963 75.035 193.98 74.9682 193.98Z" fill="white"/>
<path d="M213.132 396.975V416.237L417.582 297.101V278.898L213.132 396.975Z" fill="#FCE72D"/>
<path d="M213.132 416.655C213.057 416.655 212.99 416.638 212.924 416.597C212.79 416.521 212.715 416.388 212.715 416.238V396.975C212.715 396.825 212.798 396.692 212.924 396.617L417.374 278.54C417.499 278.465 417.658 278.465 417.791 278.54C417.916 278.615 418 278.748 418 278.899V297.109C418 297.259 417.925 297.393 417.791 297.468L213.341 416.597C213.274 416.638 213.199 416.655 213.132 416.655ZM213.55 397.217V415.512L417.165 296.867V279.625L213.55 397.226V397.217Z" fill="white"/>
<path d="M0.709183 274.367L213.132 396.975V416.237L0.416992 293.287L0.709183 274.367Z" fill="#FCE72D"/>
<path d="M213.132 416.655C213.057 416.655 212.99 416.638 212.924 416.597L0.208708 293.646C0.0751348 293.571 0 293.429 0 293.279L0.292191 274.359C0.292191 274.208 0.375674 274.075 0.500899 274C0.626123 273.925 0.784741 273.925 0.918314 274L213.341 396.608C213.466 396.683 213.55 396.817 213.55 396.967V416.229C213.55 416.38 213.466 416.513 213.341 416.588C213.274 416.622 213.208 416.647 213.132 416.647V416.655ZM0.834831 293.045L212.707 415.512V397.218L1.11033 275.085L0.834831 293.045Z" fill="white"/>
<path d="M119.748 85.0166L114.372 88.1379V171.062L119.748 173.85V85.0166Z" fill="#2ACE6F"/>
<path d="M119.748 174.267C119.682 174.267 119.615 174.25 119.556 174.217L114.172 171.429C114.03 171.354 113.946 171.212 113.946 171.062V88.1381C113.946 87.9878 114.03 87.8543 114.155 87.7792L119.54 84.6662C119.665 84.5911 119.832 84.5911 119.957 84.6662C120.091 84.7413 120.166 84.8748 120.166 85.0251V173.858C120.166 174 120.091 174.142 119.965 174.217C119.899 174.259 119.823 174.275 119.748 174.275V174.267ZM114.781 170.804L119.331 173.165V85.7428L114.781 88.3801V170.812V170.804Z" fill="white"/>
<path d="M164.519 59.0942L159.135 62.2156V145.14L164.519 147.927V59.0942Z" fill="#2ACE6F"/>
<path d="M164.52 148.345C164.453 148.345 164.386 148.328 164.328 148.295L158.943 145.507C158.801 145.432 158.718 145.29 158.718 145.14V62.2157C158.718 62.0655 158.801 61.9319 158.926 61.8568L164.311 58.7438C164.436 58.6687 164.603 58.6687 164.729 58.7438C164.862 58.8189 164.937 58.9525 164.937 59.1027V147.936C164.937 148.078 164.862 148.22 164.737 148.295C164.67 148.336 164.595 148.353 164.52 148.353V148.345ZM159.553 144.881L164.102 147.243V59.8204L159.553 62.4577V144.89V144.881Z" fill="white"/>
<path d="M74.9683 193.563L114.364 171.062L119.749 173.85C119.749 173.85 74.9767 199.705 74.9767 199.505C74.9767 199.305 74.96 193.563 74.96 193.563H74.9683Z" fill="#2ACE6F"/>
<path d="M74.8597 199.897C74.8597 199.897 74.8012 199.889 74.7762 199.872C74.651 199.797 74.5675 199.655 74.5675 199.513C74.5675 199.322 74.5508 193.571 74.5508 193.571C74.5508 193.421 74.6343 193.279 74.7595 193.204L114.155 170.704C114.28 170.637 114.431 170.629 114.556 170.704L119.941 173.491C120.074 173.558 120.166 173.7 120.166 173.85C120.166 174 120.091 174.142 119.957 174.217C78.5663 198.12 75.3355 199.897 74.8513 199.897H74.8597ZM75.394 193.805C75.394 194.656 75.4023 197.502 75.4023 198.829C79.518 196.576 104.713 182.062 118.889 173.875L114.381 171.538L75.394 193.805Z" fill="white"/>
<path d="M119.748 167.916L159.135 145.14L164.52 147.928L119.748 173.85V167.916Z" fill="#2ACE6F"/>
<path d="M119.748 174.267C119.673 174.267 119.607 174.25 119.54 174.208C119.406 174.133 119.331 174 119.331 173.85V167.916C119.331 167.765 119.415 167.632 119.54 167.557L158.927 144.781C159.052 144.706 159.203 144.706 159.328 144.773L164.712 147.56C164.846 147.627 164.938 147.769 164.938 147.919C164.938 148.069 164.863 148.211 164.729 148.286L119.957 174.208C119.89 174.242 119.824 174.267 119.748 174.267ZM120.166 168.158V173.132L163.652 147.952L159.144 145.616L120.166 168.158Z" fill="white"/>
<path d="M6.1611 122.356C6.09432 122.356 6.01918 122.339 5.9524 122.298L0.208757 118.984C0.00839729 118.867 -0.0583892 118.617 0.0584872 118.417C0.175364 118.216 0.425813 118.15 0.626172 118.266L6.36981 121.58C6.57017 121.697 6.63696 121.947 6.52008 122.147C6.44495 122.281 6.30302 122.356 6.1611 122.356Z" fill="white"/>
<path d="M342.724 207.851C342.649 207.851 342.582 207.834 342.515 207.792L259.216 159.712C259.09 159.637 259.007 159.503 259.007 159.353V74.9017C259.007 74.668 259.19 74.4844 259.424 74.4844C259.658 74.4844 259.842 74.668 259.842 74.9017V159.111L342.306 206.707V122.982C342.306 122.748 342.49 122.565 342.724 122.565C342.957 122.565 343.141 122.748 343.141 122.982V207.433C343.141 207.584 343.058 207.717 342.932 207.792C342.866 207.826 342.799 207.851 342.724 207.851Z" fill="white"/>
<path d="M347.173 116.08C347.106 116.08 347.031 116.063 346.964 116.021L256.01 63.3509C255.809 63.2341 255.742 62.9837 255.859 62.7834C255.976 62.5831 256.227 62.5163 256.427 62.6332L347.382 115.304C347.582 115.421 347.649 115.671 347.532 115.871C347.457 116.005 347.315 116.08 347.173 116.08Z" fill="white"/>
<path d="M345.637 125.077C345.57 125.077 345.495 125.06 345.428 125.018L254.123 72.3226C253.922 72.2058 253.856 71.9554 253.973 71.7551C254.089 71.5548 254.34 71.488 254.54 71.6049L345.846 124.3C346.046 124.417 346.113 124.668 345.996 124.868C345.921 125.001 345.779 125.077 345.637 125.077Z" fill="white"/>
<path d="M346.372 125.252C346.047 125.252 345.729 125.152 345.437 124.943C344.569 124.334 344.043 122.898 344.043 121.096C344.043 118.4 345.203 115.88 346.681 115.354C347.215 115.162 347.741 115.237 348.2 115.562C349.069 116.172 349.586 117.607 349.586 119.402C349.586 122.089 348.434 124.609 346.957 125.143C346.756 125.219 346.564 125.252 346.372 125.252ZM347.249 116.088C347.157 116.088 347.057 116.105 346.957 116.138C345.955 116.497 344.878 118.575 344.878 121.096C344.878 122.573 345.287 123.816 345.913 124.259C346.155 124.426 346.397 124.459 346.673 124.359C347.675 123.992 348.751 121.914 348.751 119.402C348.751 117.924 348.342 116.689 347.716 116.247C347.566 116.138 347.416 116.088 347.249 116.088Z" fill="white"/>
<path d="M254.382 72.3728C254.323 72.3728 254.265 72.3644 254.215 72.3394C253.171 71.872 252.528 70.3364 252.528 68.3251C252.528 65.6294 253.689 63.1089 255.166 62.5831C255.584 62.4329 256.01 62.4496 256.394 62.6249C256.602 62.7167 256.694 62.967 256.602 63.1757C256.51 63.3843 256.26 63.4761 256.051 63.3843C255.859 63.3009 255.659 63.2925 255.45 63.3676C254.448 63.7265 253.372 65.8046 253.372 68.3251C253.372 70.1945 253.989 71.3212 254.565 71.5716C254.774 71.6634 254.874 71.9138 254.774 72.1224C254.707 72.281 254.549 72.3728 254.39 72.3728H254.382Z" fill="white"/>
<path d="M107.301 272.522C106.858 272.522 106.433 272.289 106.207 271.871C105.873 271.262 106.09 270.503 106.7 270.169L142.99 250.139C143.599 249.805 144.359 250.022 144.693 250.631C145.027 251.241 144.81 252 144.2 252.334L107.91 272.364C107.718 272.472 107.51 272.522 107.309 272.522H107.301Z" fill="white"/>
<path d="M142.239 272.238C142.038 272.238 141.838 272.188 141.654 272.088L105.055 252.626C104.446 252.3 104.212 251.541 104.538 250.932C104.863 250.322 105.623 250.089 106.232 250.414L142.831 269.877C143.441 270.202 143.675 270.962 143.349 271.571C143.124 271.996 142.689 272.238 142.239 272.238Z" fill="white"/>
<path d="M111.499 221.654C111.499 221.654 111.499 231.277 111.499 231.027C111.499 230.776 116.717 227.605 116.717 227.605V220.102L111.499 221.654Z" fill="#1F2C56"/>
<path d="M111.499 231.453C111.266 231.453 111.082 231.269 111.082 231.035V221.655C111.082 221.471 111.207 221.304 111.383 221.254L116.6 219.702C116.725 219.668 116.859 219.685 116.968 219.768C117.076 219.844 117.135 219.969 117.135 220.102V227.605C117.135 227.747 117.059 227.889 116.934 227.964C114.689 229.333 112.234 230.893 111.867 231.236C111.8 231.369 111.658 231.453 111.499 231.453ZM111.917 221.963V230.159C112.618 229.658 113.912 228.824 116.3 227.371V220.661L111.917 221.963Z" fill="white"/>
<path d="M104.295 234.424L125.667 223.95C126.752 223.324 128.079 223.324 129.165 223.942L149.443 235.501C151.822 236.853 151.805 240.291 149.409 241.618L129.148 252.885C128.071 253.486 126.752 253.478 125.683 252.86L105.898 241.443C103.552 240.091 103.869 235.768 104.287 234.432L104.295 234.424Z" fill="#1F2C56"/>
<path d="M127.445 253.736C126.76 253.736 126.084 253.561 125.483 253.21L105.698 241.793C103.193 240.349 103.394 235.901 103.894 234.29C103.928 234.182 104.003 234.09 104.112 234.04L125.483 223.566C126.66 222.882 128.163 222.882 129.374 223.566L149.652 235.125C150.904 235.834 151.638 237.12 151.638 238.555C151.638 239.991 150.879 241.268 149.618 241.969L129.357 253.227C128.764 253.553 128.105 253.719 127.445 253.719V253.736ZM104.646 234.716C104.262 236.185 104.162 239.949 106.115 241.076L125.901 252.493C126.836 253.035 128.004 253.043 128.956 252.518L149.217 241.259C150.211 240.708 150.804 239.707 150.812 238.572C150.812 237.437 150.236 236.427 149.251 235.868L128.973 224.309C128.021 223.766 126.844 223.766 125.892 224.309L104.663 234.716H104.646Z" fill="white"/>
<path d="M105.906 232.379L125.667 220.97C126.752 220.344 128.08 220.344 129.165 220.962L149.443 232.521C151.822 233.873 151.805 237.311 149.409 238.638L129.148 249.905C128.071 250.506 126.752 250.498 125.684 249.88L105.898 238.463C103.552 237.111 103.552 233.731 105.898 232.379H105.906Z" fill="#1F2C56"/>
<path d="M127.446 250.765C126.761 250.765 126.085 250.589 125.484 250.239L105.698 238.822C104.471 238.112 103.736 236.835 103.736 235.417C103.736 233.998 104.471 232.721 105.698 232.012L125.459 220.603C126.661 219.91 128.163 219.902 129.374 220.594L149.652 232.153C150.904 232.863 151.647 234.148 151.639 235.592C151.639 237.027 150.879 238.304 149.619 239.005L129.357 250.272C128.765 250.598 128.105 250.765 127.446 250.765ZM106.116 232.738C105.147 233.297 104.571 234.298 104.571 235.417C104.571 236.535 105.147 237.537 106.116 238.096L125.901 249.513C126.836 250.055 128.005 250.064 128.957 249.538L149.218 238.271C150.211 237.72 150.804 236.719 150.812 235.584C150.812 234.449 150.236 233.439 149.251 232.88L128.973 221.321C128.022 220.778 126.844 220.778 125.893 221.321L106.132 232.729L106.116 232.738Z" fill="white"/>
<path d="M125.875 214.085V191.201C125.875 183.189 117.552 177.898 110.289 181.294C103.811 184.332 99.6699 190.834 99.6699 197.986V225.444C99.6699 228.423 102.851 230.334 105.48 228.932L123.095 218.692C124.798 217.782 125.867 216.013 125.867 214.077L125.875 214.085Z" fill="#1F2C56"/>
<path d="M103.619 229.825C102.843 229.825 102.066 229.616 101.373 229.199C100.046 228.398 99.2529 227.004 99.2529 225.452V197.994C99.2529 190.708 103.519 184.015 110.114 180.927C113.654 179.266 117.728 179.533 121.025 181.628C124.323 183.723 126.293 187.303 126.293 191.209V214.093C126.293 216.18 125.149 218.091 123.296 219.076L105.689 229.308C105.03 229.658 104.32 229.833 103.619 229.833V229.825ZM114.939 180.677C113.42 180.677 111.901 181.01 110.473 181.678C104.17 184.632 100.096 191.034 100.096 197.994V225.452C100.096 226.704 100.739 227.839 101.808 228.481C102.876 229.124 104.187 229.157 105.289 228.573L122.895 218.341C124.482 217.498 125.458 215.871 125.458 214.093V191.209C125.458 187.595 123.638 184.274 120.583 182.329C118.863 181.236 116.91 180.677 114.939 180.677Z" fill="white"/>
<path d="M173.527 234.274C173.085 234.274 172.659 234.04 172.434 233.623C172.1 233.014 172.317 232.254 172.926 231.92L209.217 211.89C209.826 211.557 210.586 211.774 210.92 212.383C211.254 212.992 211.036 213.751 210.427 214.085L174.137 234.115C173.945 234.224 173.736 234.274 173.536 234.274H173.527Z" fill="white"/>
<path d="M208.474 233.99C208.274 233.99 208.073 233.94 207.89 233.84L171.291 214.377C170.681 214.052 170.447 213.292 170.773 212.683C171.099 212.074 171.858 211.84 172.468 212.166L209.067 231.628C209.676 231.954 209.91 232.713 209.584 233.322C209.359 233.748 208.925 233.99 208.474 233.99Z" fill="white"/>
<path d="M177.734 183.406C177.734 183.406 177.734 193.029 177.734 192.778C177.734 192.528 182.952 189.356 182.952 189.356V181.854L177.734 183.406Z" fill="#1F2C56"/>
<path d="M177.735 193.204C177.501 193.204 177.317 193.02 177.317 192.787V183.406C177.317 183.222 177.443 183.056 177.618 183.005L182.836 181.453C182.961 181.42 183.094 181.436 183.203 181.52C183.311 181.595 183.37 181.72 183.37 181.854V189.357C183.37 189.499 183.295 189.64 183.17 189.716C180.924 191.084 178.469 192.645 178.102 192.987C178.035 193.121 177.893 193.204 177.735 193.204ZM178.152 183.715V191.91C178.853 191.41 180.147 190.575 182.535 189.123V182.413L178.152 183.715Z" fill="white"/>
<path d="M170.53 196.175L191.902 185.701C192.987 185.075 194.315 185.075 195.4 185.693L215.678 197.252C218.057 198.604 218.04 202.042 215.645 203.369L195.383 214.636C194.306 215.237 192.987 215.229 191.919 214.611L172.133 203.194C169.787 201.842 170.104 197.519 170.522 196.183L170.53 196.175Z" fill="#1F2C56"/>
<path d="M193.68 215.495C192.996 215.495 192.32 215.32 191.719 214.97L171.933 203.553C169.429 202.109 169.629 197.66 170.13 196.05C170.163 195.941 170.238 195.849 170.347 195.799L191.719 185.325C192.896 184.641 194.398 184.641 195.609 185.325L215.887 196.884C217.139 197.594 217.874 198.879 217.874 200.314C217.874 201.75 217.114 203.027 215.854 203.728L195.592 214.986C194.999 215.312 194.34 215.479 193.68 215.479V215.495ZM170.881 196.475C170.497 197.944 170.397 201.708 172.35 202.835L192.136 214.252C193.071 214.794 194.24 214.803 195.191 214.277L215.453 203.018C216.446 202.468 217.039 201.466 217.047 200.331C217.056 199.196 216.471 198.186 215.486 197.627L195.208 186.068C194.256 185.526 193.071 185.526 192.128 186.068L170.898 196.475H170.881Z" fill="white"/>
<path d="M172.142 194.13L191.902 182.721C192.988 182.096 194.315 182.096 195.4 182.713L215.678 194.272C218.057 195.624 218.041 199.063 215.645 200.39L195.383 211.656C194.307 212.257 192.988 212.249 191.919 211.631L172.133 200.214C169.788 198.862 169.788 195.482 172.133 194.13H172.142Z" fill="#1F2C56"/>
<path d="M193.681 212.516C192.996 212.516 192.32 212.341 191.719 211.99L171.934 200.573C170.706 199.864 169.972 198.587 169.972 197.168C169.972 195.749 170.706 194.472 171.934 193.763L191.694 182.354C192.896 181.662 194.399 181.653 195.609 182.346L215.887 193.905C217.14 194.614 217.874 195.9 217.874 197.343C217.874 198.787 217.115 200.056 215.854 200.757L195.593 212.024C195 212.349 194.34 212.516 193.681 212.516ZM172.142 194.13L172.351 194.489C171.383 195.048 170.807 196.05 170.807 197.168C170.807 198.286 171.383 199.288 172.351 199.847L192.136 211.264C193.071 211.807 194.24 211.815 195.192 211.289L215.453 200.022C216.447 199.472 217.039 198.47 217.048 197.335C217.048 196.2 216.472 195.19 215.487 194.631L195.209 183.072C194.257 182.53 193.071 182.53 192.128 183.072L172.368 194.481L172.159 194.122L172.142 194.13Z" fill="white"/>
<path d="M192.111 175.845V152.961C192.111 144.949 183.787 139.657 176.524 143.054C170.046 146.092 165.905 152.593 165.905 159.746V187.204C165.905 190.183 169.086 192.094 171.716 190.692L189.331 180.452C191.034 179.542 192.102 177.773 192.102 175.837L192.111 175.845Z" fill="#1F2C56"/>
<path d="M169.854 191.577C169.078 191.577 168.302 191.368 167.609 190.951C166.281 190.149 165.488 188.756 165.488 187.203V159.746C165.488 152.468 169.754 145.766 176.349 142.678C179.889 141.026 183.963 141.285 187.261 143.379C190.558 145.474 192.528 149.055 192.528 152.96V175.845C192.528 177.939 191.385 179.842 189.531 180.827L171.925 191.059C171.265 191.41 170.556 191.585 169.854 191.585V191.577ZM181.175 142.428C179.655 142.428 178.136 142.762 176.708 143.429C170.405 146.384 166.331 152.785 166.331 159.746V187.203C166.331 188.455 166.974 189.59 168.043 190.233C169.12 190.875 170.422 190.909 171.524 190.325L189.131 180.093C190.717 179.25 191.694 177.622 191.694 175.845V152.96C191.694 149.347 189.874 146.025 186.818 144.08C185.098 142.987 183.145 142.428 181.175 142.428Z" fill="white"/>
<path d="M201.553 352.642L331.119 277.53C333.59 276.119 333.59 272.556 331.127 271.137L263.64 232.296C261.436 231.027 258.723 231.019 256.51 232.279L125.65 307.825C123.371 309.127 123.38 312.407 125.659 313.701L194.466 352.659C196.67 353.903 199.366 353.903 201.562 352.642H201.553Z" fill="#5B80FF"/>
<path d="M132.404 313.284V270.745L129.732 268.959V311.498L132.404 313.284Z" fill="white"/>
<path d="M132.404 313.701C132.321 313.701 132.246 313.676 132.171 313.634L129.499 311.848C129.382 311.773 129.315 311.64 129.315 311.498V268.959C129.315 268.809 129.399 268.667 129.532 268.592C129.666 268.517 129.833 268.525 129.958 268.617L132.63 270.403C132.747 270.478 132.813 270.611 132.813 270.753V313.292C132.813 313.442 132.73 313.584 132.596 313.659C132.538 313.693 132.471 313.709 132.396 313.709L132.404 313.701ZM130.15 311.272L131.987 312.499V270.97L130.15 269.743V311.272Z" fill="white"/>
<path d="M140.218 318.408C139.943 318.408 139.659 318.341 139.4 318.191L120.683 307.709C119.882 307.258 119.59 306.24 120.04 305.439C120.491 304.638 121.51 304.345 122.311 304.796L141.028 315.278C141.829 315.729 142.122 316.747 141.671 317.549C141.362 318.091 140.794 318.4 140.21 318.4L140.218 318.408Z" fill="white"/>
<path d="M173.887 337.169V294.631L171.216 292.845V335.383L173.887 337.169Z" fill="white"/>
<path d="M173.888 337.587C173.804 337.587 173.729 337.562 173.654 337.52L170.982 335.734C170.866 335.659 170.799 335.525 170.799 335.383V292.845C170.799 292.694 170.882 292.553 171.016 292.477C171.149 292.402 171.316 292.411 171.442 292.502L174.113 294.288C174.23 294.364 174.297 294.497 174.297 294.639V337.178C174.297 337.328 174.213 337.47 174.08 337.545C174.021 337.578 173.954 337.595 173.879 337.595L173.888 337.587ZM171.634 335.158L173.47 336.385V294.856L171.634 293.629V335.158Z" fill="white"/>
<path d="M181.702 342.294C181.426 342.294 181.142 342.227 180.883 342.077L162.167 331.595C161.365 331.144 161.073 330.126 161.524 329.324C161.975 328.523 162.993 328.231 163.794 328.682L182.511 339.164C183.313 339.615 183.605 340.633 183.154 341.434C182.845 341.977 182.278 342.286 181.693 342.286L181.702 342.294Z" fill="white"/>
<path d="M299.137 273.241V230.71L296.474 228.916V271.455L299.137 273.241Z" fill="white"/>
<path d="M299.137 273.658C299.053 273.658 298.978 273.633 298.903 273.591L296.232 271.805C296.115 271.73 296.048 271.597 296.048 271.455V228.916C296.048 228.766 296.131 228.624 296.265 228.549C296.398 228.474 296.565 228.482 296.691 228.574L299.362 230.36C299.479 230.435 299.546 230.568 299.546 230.71V273.249C299.546 273.399 299.462 273.541 299.329 273.616C299.27 273.65 299.204 273.666 299.128 273.666L299.137 273.658ZM296.883 271.229L298.719 272.456V230.927L296.883 229.7V271.229Z" fill="white"/>
<path d="M306.959 278.365C306.684 278.365 306.4 278.298 306.141 278.148L287.424 267.666C286.623 267.215 286.331 266.197 286.782 265.396C287.232 264.595 288.251 264.302 289.052 264.753L307.769 275.236C308.571 275.686 308.863 276.704 308.412 277.506C308.103 278.048 307.535 278.357 306.951 278.357L306.959 278.365Z" fill="white"/>
<path d="M321.593 223.057L186.209 301.558L106.391 255.489L241.925 177.08L321.593 223.057Z" fill="#1F2C56"/>
<path d="M186.209 301.975C186.134 301.975 186.067 301.958 186.001 301.917L106.182 255.848C106.057 255.773 105.974 255.639 105.974 255.489C105.974 255.339 106.057 255.205 106.182 255.13L241.726 176.721C241.859 176.646 242.018 176.646 242.143 176.721L321.811 222.698C321.936 222.773 322.02 222.907 322.02 223.057C322.02 223.207 321.944 223.341 321.811 223.416L186.426 301.917C186.36 301.95 186.293 301.975 186.218 301.975H186.209ZM107.226 255.489L186.209 301.074L320.759 223.057L241.926 177.555L107.218 255.481L107.226 255.489Z" fill="white"/>
<path d="M146.212 278.974C146.07 278.974 145.929 278.899 145.853 278.765C145.737 278.565 145.803 278.315 146.004 278.198L281.555 199.714C281.756 199.597 282.006 199.664 282.123 199.864C282.24 200.064 282.173 200.315 281.973 200.431L146.421 278.916C146.354 278.957 146.279 278.974 146.212 278.974Z" fill="white"/>
<path d="M295.656 282.429C294.963 282.429 294.403 281.87 294.403 281.177V274.492C294.403 273.799 294.963 273.24 295.656 273.24C296.348 273.24 296.908 273.799 296.908 274.492V281.177C296.908 281.87 296.348 282.429 295.656 282.429Z" fill="white"/>
<path d="M321.169 256.598C321.511 260.521 321.252 261.923 318.856 263.258L298.595 274.525C297.518 275.126 296.199 275.118 295.13 274.5L275.345 263.083C272.999 261.731 273.792 258.401 274.259 256.089" fill="#1F2C56"/>
<path d="M296.891 275.377C296.207 275.377 295.53 275.202 294.929 274.851L275.144 263.434C272.639 261.99 273.307 258.685 273.8 256.273L273.858 255.989C273.9 255.764 274.125 255.614 274.351 255.664C274.576 255.706 274.726 255.931 274.676 256.156L274.618 256.44C274.176 258.602 273.574 261.564 275.561 262.708L295.347 274.125C296.282 274.667 297.451 274.676 298.402 274.15L318.664 262.883C320.868 261.656 321.093 260.446 320.759 256.624C320.742 256.398 320.909 256.19 321.143 256.173C321.377 256.148 321.577 256.323 321.594 256.557C321.945 260.605 321.627 262.19 319.073 263.618L298.811 274.884C298.219 275.21 297.559 275.377 296.9 275.377H296.891Z" fill="white"/>
<path d="M275.903 253.945L295.664 242.536C296.749 241.91 298.077 241.91 299.162 242.528L319.44 254.087C321.819 255.439 321.803 258.877 319.407 260.204L299.145 271.471C298.068 272.072 296.749 272.063 295.681 271.446L275.895 260.029C273.549 258.677 273.549 255.297 275.895 253.945H275.903Z" fill="#1F2C56"/>
<path d="M297.443 272.331C296.758 272.331 296.082 272.155 295.481 271.805L275.695 260.388C274.468 259.678 273.733 258.401 273.733 256.983C273.733 255.564 274.468 254.287 275.695 253.577L295.456 242.169C296.658 241.476 298.161 241.468 299.371 242.16L319.649 253.719C320.901 254.429 321.636 255.714 321.636 257.149C321.636 258.585 320.876 259.862 319.616 260.563L299.354 271.821C298.762 272.147 298.102 272.314 297.443 272.314V272.331ZM275.904 253.945L276.113 254.304C275.144 254.863 274.568 255.864 274.568 256.983C274.568 258.101 275.144 259.102 276.113 259.662L295.898 271.079C296.833 271.621 298.002 271.63 298.954 271.104L319.215 259.845C320.208 259.294 320.801 258.293 320.81 257.158C320.81 256.023 320.233 255.013 319.248 254.454L298.97 242.895C298.019 242.352 296.842 242.352 295.89 242.895L276.129 254.304L275.921 253.945H275.904Z" fill="white"/>
<path d="M278.099 294.706C277.656 294.706 277.231 294.472 277.005 294.055C276.671 293.445 276.888 292.686 277.498 292.352L313.788 272.322C314.397 271.988 315.157 272.205 315.491 272.814C315.825 273.424 315.608 274.183 314.998 274.517L278.708 294.547C278.516 294.655 278.307 294.706 278.107 294.706H278.099Z" fill="white"/>
<path d="M313.036 294.422C312.836 294.422 312.636 294.372 312.452 294.272L275.853 274.801C275.244 274.476 275.01 273.716 275.336 273.107C275.661 272.498 276.421 272.264 277.03 272.589L313.629 292.06C314.239 292.386 314.472 293.145 314.147 293.754C313.921 294.18 313.487 294.422 313.036 294.422Z" fill="white"/>
<path d="M308.036 257.684V266.413L313.212 263.484V255.313" fill="#1F2C56"/>
<path d="M308.037 266.83C307.961 266.83 307.895 266.814 307.828 266.772C307.703 266.697 307.619 266.563 307.619 266.413V257.692C307.619 257.458 307.803 257.275 308.037 257.275C308.27 257.275 308.454 257.458 308.454 257.692V265.695L312.795 263.242V255.322C312.795 255.088 312.979 254.904 313.212 254.904C313.446 254.904 313.63 255.088 313.63 255.322V263.484C313.63 263.634 313.546 263.776 313.421 263.851L308.245 266.78C308.178 266.814 308.112 266.83 308.037 266.83Z" fill="white"/>
<path d="M321.861 248.403V224.642C321.861 216.63 313.537 211.339 306.274 214.736C299.796 217.774 295.655 224.275 295.655 231.427V258.885C295.655 261.865 298.836 263.776 301.466 262.374L319.081 253.01C320.784 252.1 321.852 250.331 321.852 248.395L321.861 248.403Z" fill="#1F2C56"/>
<path d="M299.604 263.267C298.828 263.267 298.052 263.058 297.359 262.641C296.031 261.84 295.238 260.446 295.238 258.894V231.436C295.238 224.15 299.504 217.457 306.099 214.369C309.639 212.716 313.713 212.975 317.011 215.07C320.308 217.165 322.278 220.745 322.278 224.651V248.411C322.278 250.498 321.135 252.409 319.281 253.394L301.666 262.758C301.015 263.1 300.314 263.275 299.613 263.275L299.604 263.267ZM310.916 214.118C309.397 214.118 307.878 214.452 306.442 215.12C300.139 218.074 296.065 224.476 296.065 231.436V258.894C296.065 260.146 296.708 261.281 297.776 261.923C298.853 262.566 300.147 262.599 301.257 262.015L318.872 252.651C320.442 251.817 321.427 250.189 321.427 248.411V224.651C321.427 221.037 319.607 217.715 316.552 215.771C314.832 214.678 312.878 214.118 310.908 214.118H310.916Z" fill="white"/>
<path d="M233.728 321.696C233.035 321.696 232.476 321.137 232.476 320.444V313.759C232.476 313.066 233.035 312.507 233.728 312.507C234.421 312.507 234.98 313.066 234.98 313.759V320.444C234.98 321.137 234.421 321.696 233.728 321.696Z" fill="white"/>
<path d="M259.241 295.866C259.583 299.788 259.324 301.19 256.928 302.526L236.667 313.792C235.59 314.393 234.271 314.385 233.202 313.767L213.417 302.35C211.071 300.998 211.864 297.668 212.332 295.356" fill="#1F2C56"/>
<path d="M234.964 314.644C234.279 314.644 233.603 314.469 233.002 314.118L213.216 302.701C210.712 301.257 211.38 297.952 211.872 295.54L211.931 295.257C211.972 295.031 212.198 294.881 212.423 294.931C212.648 294.973 212.799 295.198 212.749 295.423L212.69 295.707C212.248 297.869 211.647 300.832 213.634 301.975L233.419 313.392C234.354 313.934 235.523 313.943 236.475 313.417L256.736 302.15C258.94 300.923 259.165 299.713 258.831 295.891C258.815 295.665 258.982 295.457 259.215 295.44C259.441 295.415 259.65 295.59 259.666 295.824C260.017 299.872 259.7 301.457 257.145 302.885L236.884 314.151C236.291 314.477 235.631 314.644 234.972 314.644H234.964Z" fill="white"/>
<path d="M213.976 293.212L233.736 281.803C234.822 281.177 236.149 281.177 237.234 281.795L257.512 293.354C259.891 294.706 259.875 298.144 257.479 299.471L237.217 310.738C236.141 311.339 234.822 311.331 233.753 310.713L213.967 299.296C211.622 297.944 211.622 294.564 213.967 293.212H213.976Z" fill="#1F2C56"/>
<path d="M235.515 311.598C234.83 311.598 234.154 311.422 233.553 311.072L213.768 299.655C212.54 298.945 211.806 297.668 211.806 296.25C211.806 294.831 212.54 293.554 213.768 292.845L233.528 281.436C234.73 280.743 236.233 280.735 237.443 281.427L257.721 292.986C258.974 293.696 259.708 294.981 259.708 296.417C259.708 297.852 258.949 299.129 257.688 299.83L237.427 311.097C236.834 311.422 236.174 311.589 235.515 311.589V311.598ZM214.185 293.571C213.217 294.13 212.64 295.131 212.64 296.25C212.64 297.368 213.217 298.37 214.185 298.929L233.97 310.346C234.905 310.888 236.074 310.897 237.026 310.371L257.287 299.104C258.281 298.553 258.873 297.552 258.882 296.417C258.882 295.282 258.306 294.272 257.321 293.713L237.043 282.154C236.091 281.611 234.914 281.611 233.962 282.154L214.202 293.562L214.185 293.571Z" fill="white"/>
<path d="M216.171 333.973C215.729 333.973 215.303 333.739 215.077 333.322C214.743 332.712 214.961 331.953 215.57 331.619L251.86 311.589C252.47 311.255 253.229 311.472 253.563 312.081C253.897 312.691 253.68 313.45 253.071 313.784L216.78 333.814C216.588 333.923 216.38 333.973 216.179 333.973H216.171Z" fill="white"/>
<path d="M251.109 333.689C250.908 333.689 250.708 333.639 250.524 333.539L213.925 314.068C213.316 313.743 213.082 312.983 213.408 312.374C213.733 311.765 214.493 311.531 215.102 311.856L251.701 331.327C252.311 331.653 252.545 332.412 252.219 333.021C251.994 333.447 251.56 333.689 251.109 333.689Z" fill="white"/>
<path d="M246.108 296.951V305.672L251.276 302.751V294.581" fill="#1F2C56"/>
<path d="M246.109 306.089C246.034 306.089 245.967 306.073 245.9 306.031C245.775 305.956 245.691 305.822 245.691 305.672V296.951C245.691 296.717 245.875 296.533 246.109 296.533C246.343 296.533 246.526 296.717 246.526 296.951V304.954L250.867 302.501V294.58C250.867 294.347 251.051 294.163 251.285 294.163C251.519 294.163 251.702 294.347 251.702 294.58V302.743C251.702 302.893 251.619 303.035 251.493 303.11L246.318 306.039C246.251 306.073 246.184 306.089 246.109 306.089Z" fill="white"/>
<path d="M259.925 287.67V263.909C259.925 255.897 251.602 250.606 244.339 254.003C237.86 257.041 233.72 263.542 233.72 270.694V298.152C233.72 301.132 236.9 303.043 239.53 301.641L257.145 292.277C258.848 291.367 259.917 289.598 259.917 287.662L259.925 287.67Z" fill="#1F2C56"/>
<path d="M237.677 302.534C236.9 302.534 236.124 302.325 235.431 301.908C234.104 301.107 233.311 299.713 233.311 298.161V270.703C233.311 263.417 237.577 256.724 244.172 253.636C247.711 251.983 251.785 252.242 255.083 254.337C258.381 256.432 260.351 260.012 260.351 263.918V287.678C260.351 289.765 259.207 291.676 257.354 292.661L239.739 302.025C239.088 302.367 238.386 302.542 237.685 302.542L237.677 302.534ZM248.989 253.385C247.469 253.385 245.95 253.719 244.522 254.387C238.219 257.341 234.145 263.743 234.145 270.703V298.161C234.145 299.413 234.788 300.548 235.857 301.19C236.934 301.833 238.228 301.866 239.338 301.282L256.953 291.918C258.522 291.084 259.508 289.456 259.508 287.678V263.918C259.508 260.304 257.688 256.983 254.632 255.038C252.912 253.945 250.959 253.385 248.989 253.385Z" fill="white"/>
</svg>
