<?xml version="1.0" standalone="no"?>
<!DOCTYPE svg PUBLIC "-//W3C//DTD SVG 20010904//EN"
 "http://www.w3.org/TR/2001/REC-SVG-20010904/DTD/svg10.dtd">
<svg version="1.0" xmlns="http://www.w3.org/2000/svg"
 width="75" height="75" viewBox="0 0 512.000000 512.000000"
 preserveAspectRatio="xMidYMid meet">

<g transform="translate(0.000000,512.000000) scale(0.100000,-0.100000)"
fill="#ffffff" stroke="none">
<path d="M2396 5024 c-145 -26 -311 -109 -427 -212 -64 -57 -150 -173 -193
-258 -37 -75 -86 -229 -86 -273 0 -64 15 -54 -731 -472 l-719 -402 0 -223 0
-224 120 0 120 0 0 -799 0 -798 -82 -5 c-99 -6 -164 -34 -223 -93 -65 -65 -89
-125 -89 -225 0 -73 4 -92 26 -136 39 -75 70 -107 136 -142 95 -51 188 -52
300 -6 9 5 12 -66 12 -335 l0 -341 2000 0 2000 0 0 341 c0 269 3 340 13 335
111 -46 204 -45 299 6 66 35 97 67 136 142 22 43 26 64 26 136 0 72 -4 93 -26
136 -39 75 -70 107 -139 144 -51 27 -75 33 -145 38 l-84 5 0 798 0 799 120 0
120 0 0 224 0 223 -720 403 -720 403 -5 36 c-15 100 -49 215 -86 291 -172 360
-557 555 -953 484z m379 -178 c113 -36 198 -89 290 -181 91 -91 144 -175 182
-290 23 -71 26 -96 26 -215 0 -119 -3 -144 -26 -215 -38 -115 -91 -199 -182
-290 -91 -91 -175 -144 -290 -182 -71 -23 -96 -26 -215 -26 -119 0 -144 3
-215 26 -114 38 -198 90 -290 182 -91 91 -144 175 -182 290 -23 71 -26 96 -26
215 0 119 3 144 26 215 38 114 90 198 182 291 109 110 234 177 380 204 88 16
250 4 340 -24z m-1062 -911 c49 -176 151 -339 274 -439 l62 -51 -349 -3 c-192
-1 -510 -1 -707 0 l-358 3 520 292 c286 160 522 292 525 292 4 1 18 -42 33
-94z m2249 -197 l523 -293 -352 -3 c-193 -1 -512 -1 -707 0 l-356 3 56 44
c138 108 254 306 298 514 4 15 9 27 11 27 3 0 240 -132 527 -292z m758 -538
l0 -80 -2160 0 -2160 0 0 80 0 80 2160 0 2160 0 0 -80z m-3760 -1040 l0 -800
-160 0 -160 0 0 800 0 800 160 0 160 0 0 -800z m1280 0 l0 -800 -560 0 -560 0
0 800 0 800 560 0 560 0 0 -800z m480 0 l0 -800 -160 0 -160 0 0 800 0 800
160 0 160 0 0 -800z m1280 0 l0 -800 -560 0 -560 0 0 800 0 800 560 0 560 0 0
-800z m480 0 l0 -800 -160 0 -160 0 0 800 0 800 160 0 160 0 0 -800z m303
-974 c103 -43 128 -177 48 -257 -86 -87 -232 -49 -263 67 l-12 44 -78 0 -78 0
0 -400 0 -400 -159 0 -159 0 -4 248 -3 247 -32 67 c-44 93 -100 151 -191 196
-72 35 -81 37 -172 37 -91 0 -100 -2 -172 -37 -91 -45 -147 -103 -191 -196
l-32 -67 -3 -247 -4 -248 -158 0 -158 0 -4 248 -3 248 -37 76 c-45 91 -103
147 -196 191 -61 29 -76 32 -162 32 -86 0 -101 -3 -162 -32 -93 -44 -151 -100
-196 -191 l-37 -76 -3 -248 -4 -248 -158 0 -158 0 -4 248 -3 248 -37 76 c-45
91 -103 147 -196 191 -61 29 -76 32 -163 32 -90 0 -99 -2 -171 -37 -91 -45
-147 -103 -191 -196 l-32 -67 -3 -247 -4 -248 -159 0 -159 0 0 400 0 400 -78
0 -78 0 -12 -44 c-31 -116 -177 -154 -263 -67 -79 79 -55 213 46 257 46 20
4400 20 4448 0z m-3269 -318 c55 -16 138 -99 154 -154 8 -27 12 -117 12 -258
l0 -216 -240 0 -240 0 0 216 c0 257 5 279 75 349 70 71 145 90 239 63z m1120
0 c55 -16 138 -99 154 -154 8 -27 12 -117 12 -258 l0 -216 -240 0 -240 0 0
216 c0 257 5 279 75 349 70 71 145 90 239 63z m1120 0 c55 -16 138 -99 154
-154 8 -27 12 -117 12 -258 l0 -216 -240 0 -240 0 0 216 c0 257 5 279 75 349
70 71 145 90 239 63z"/>
<path d="M2480 4640 l0 -80 -120 0 -120 0 0 -136 c0 -170 9 -204 75 -269 63
-64 100 -75 244 -75 105 0 113 -1 136 -25 21 -20 25 -34 25 -80 l0 -55 -135 0
c-131 0 -137 1 -160 25 -14 13 -25 31 -25 40 0 12 -15 15 -80 15 -67 0 -80 -3
-80 -16 0 -100 124 -224 224 -224 13 0 16 -13 16 -80 l0 -80 80 0 80 0 0 80 0
80 120 0 120 0 0 136 c0 170 -9 204 -75 269 -63 64 -100 75 -244 75 -105 0
-113 1 -136 25 -21 20 -25 34 -25 80 l0 55 135 0 c131 0 137 -1 160 -25 14
-13 25 -31 25 -40 0 -12 15 -15 80 -15 67 0 80 3 80 16 0 76 -80 182 -157 208
-26 9 -55 16 -65 16 -16 0 -18 9 -18 80 l0 80 -80 0 -80 0 0 -80z"/>
<path d="M1280 2160 l0 -640 400 0 400 0 0 640 0 640 -400 0 -400 0 0 -640z
m640 0 l0 -480 -240 0 -240 0 0 480 0 480 240 0 240 0 0 -480z"/>
<path d="M3040 2160 l0 -640 400 0 400 0 0 640 0 640 -400 0 -400 0 0 -640z
m640 0 l0 -480 -240 0 -240 0 0 480 0 480 240 0 240 0 0 -480z"/>
</g>
</svg>
