<svg width="37" height="40" viewBox="0 0 37 40" fill="none" xmlns="http://www.w3.org/2000/svg">
<g clip-path="url(#clip0_640_7917)">
<path d="M18.8001 0H4.18873C1.87899 0 0 1.80265 0 4.01855V35.9815C0 38.1973 1.87899 40 4.18873 40H26.8113C29.121 40 31 38.1973 31 35.9815V10.4189L18.8001 0ZM19.431 3.15301L27.3098 9.88205H21.5847C20.3976 9.88205 19.431 8.95469 19.431 7.81583V3.15301ZM26.8113 38.0477H4.18873C3.00164 38.0477 2.03501 37.1203 2.03501 35.9815V4.01855C2.03501 2.87969 3.00164 1.95233 4.18873 1.95233H17.396V7.81583C17.396 10.0317 19.2749 11.8344 21.5847 11.8344H28.965V35.9815C28.965 37.1203 27.9984 38.0477 26.8113 38.0477Z" fill="white"/>
</g>
<path d="M17 23.3305L23.6973 29L36 16" stroke="#FCE72D" stroke-width="2" stroke-linecap="round" stroke-linejoin="round"/>
<defs>
<clipPath id="clip0_640_7917">
<rect width="31" height="40" fill="white"/>
</clipPath>
</defs>
</svg>
