<svg width="157" height="156" viewBox="0 0 157 156" fill="none" xmlns="http://www.w3.org/2000/svg">
<path d="M76.4014 60.8071L2.27075 103.962L79.5431 148.618L153.593 105.779L76.4014 60.8071Z" fill="#8DAEFF"/>
<path d="M79.5429 148.793C79.5114 148.793 79.4835 148.786 79.4555 148.769L2.18317 104.112C2.13069 104.081 2.0957 104.025 2.0957 103.962C2.0957 103.898 2.12719 103.842 2.18317 103.811L76.3138 60.6563C76.3663 60.6247 76.4362 60.6247 76.4887 60.6563L153.677 105.628C153.73 105.66 153.765 105.716 153.765 105.779C153.765 105.842 153.73 105.898 153.677 105.93L79.6269 148.769C79.5989 148.783 79.5709 148.793 79.5394 148.793H79.5429ZM2.62048 103.962L79.5429 148.414L153.243 105.779L76.4047 61.0106L2.62048 103.962Z" fill="white"/>
<path d="M153.593 105.747C153.565 105.747 153.533 105.74 153.505 105.723L76.4046 61.0106L2.35795 104.112C2.27398 104.162 2.16903 104.133 2.12005 104.049C2.07107 103.965 2.09906 103.86 2.18302 103.811L76.3136 60.6563C76.3661 60.6247 76.4361 60.6247 76.4886 60.6563L153.677 105.421C153.761 105.47 153.789 105.576 153.74 105.66C153.708 105.716 153.649 105.747 153.589 105.747H153.593Z" fill="white"/>
<path d="M79.5429 156C79.5114 156 79.4834 155.993 79.4554 155.976L0.0874636 109.954C0.0314869 109.923 0 109.867 0 109.804V44.3861C0 44.3229 0.0314869 44.2668 0.0874636 44.2352L75.9324 0.0246608C75.9848 -0.00691817 76.0548 -0.00691817 76.1073 0.0246608L155.913 46.2352C155.965 46.2668 156 46.3229 156 46.3861V111.232C156 111.295 155.969 111.351 155.913 111.383L79.6268 155.976C79.5988 155.993 79.5674 156 79.5394 156H79.5429ZM0.349854 109.702L79.5429 155.621L155.654 111.13V46.4878L76.0198 0.379047L0.349854 44.4878V109.705V109.702Z" fill="white"/>
<path d="M79.5429 148.793C79.4835 148.793 79.424 148.762 79.3925 148.705C79.3435 148.621 79.3715 148.516 79.4555 148.467L155.741 104.267C155.825 104.218 155.93 104.246 155.979 104.33C156.028 104.414 156 104.519 155.916 104.569L79.6304 148.769C79.6024 148.786 79.5709 148.793 79.5429 148.793Z" fill="white"/>
<path d="M27.9953 74.9755C27.9359 74.9755 27.8764 74.9439 27.8449 74.8878C27.7959 74.8036 27.8239 74.6983 27.9079 74.6492L61.3155 55.2422C61.3994 55.1931 61.5044 55.2211 61.5534 55.3053C61.6023 55.3896 61.5743 55.4948 61.4904 55.5439L28.0828 74.951C28.0548 74.9685 28.0233 74.9755 27.9953 74.9755Z" fill="white"/>
<path d="M27.9953 41.7228C27.9359 41.7228 27.8764 41.6913 27.8449 41.6351C27.7959 41.5509 27.8239 41.4456 27.9079 41.3965L61.3155 21.9895C61.3994 21.9404 61.5044 21.9685 61.5534 22.0527C61.6023 22.1369 61.5743 22.2421 61.4904 22.2913L28.0828 41.6983C28.0548 41.7158 28.0233 41.7228 27.9953 41.7228Z" fill="white"/>
<path d="M44.7009 63.0491C44.6414 63.0491 44.582 63.0175 44.5505 62.9614C44.5015 62.8772 44.5295 62.7719 44.6134 62.7228L59.2513 54.2175C59.3353 54.1684 59.4403 54.1965 59.4892 54.2807C59.5382 54.3649 59.5102 54.4702 59.4263 54.5193L44.7884 63.0245C44.7604 63.0421 44.7289 63.0491 44.7009 63.0491Z" fill="white"/>
<path d="M79.5429 148.793C79.5149 148.793 79.4834 148.786 79.4554 148.769L0.195962 102.874C0.111997 102.825 0.0840082 102.719 0.132988 102.635C0.181967 102.551 0.290422 102.523 0.370889 102.572L79.6304 148.467C79.7143 148.516 79.7423 148.621 79.6933 148.705C79.6618 148.762 79.6024 148.793 79.5429 148.793Z" fill="white"/>
<path d="M153.677 47.6001C153.649 47.6001 153.617 47.593 153.589 47.5755L73.9941 1.48779C73.9101 1.43867 73.8821 1.33341 73.9311 1.24919C73.9801 1.16498 74.0885 1.13691 74.169 1.18604L153.764 47.2738C153.848 47.3229 153.876 47.4281 153.827 47.5124C153.796 47.5685 153.736 47.6001 153.677 47.6001Z" fill="white"/>
<path d="M27.9952 74.9756C27.8973 74.9756 27.8203 74.8984 27.8203 74.8002V41.3756C27.8203 41.2774 27.8973 41.2002 27.9952 41.2002C28.0932 41.2002 28.1702 41.2774 28.1702 41.3756V74.7967C28.1702 74.8949 28.0932 74.9721 27.9952 74.9721V74.9756Z" fill="white"/>
<path d="M61.403 55.5686C61.305 55.5686 61.228 55.4914 61.228 55.3932V22.1405C61.228 22.0423 61.305 21.9651 61.403 21.9651C61.5009 21.9651 61.5779 22.0423 61.5779 22.1405V55.3932C61.5779 55.4914 61.5009 55.5686 61.403 55.5686Z" fill="white"/>
<path d="M59.4857 54.6702C59.3878 54.6702 59.3108 54.593 59.3108 54.4947V23.2421C59.3108 23.1438 59.3878 23.0667 59.4857 23.0667C59.5837 23.0667 59.6606 23.1438 59.6606 23.2421V54.4912C59.6606 54.5895 59.5837 54.6666 59.4857 54.6666V54.6702Z" fill="white"/>
<path d="M44.7008 65.2703C44.6028 65.2703 44.5259 65.1931 44.5259 65.0948V31.8422C44.5259 31.7439 44.6028 31.6667 44.7008 31.6667C44.7988 31.6667 44.8757 31.7439 44.8757 31.8422V65.0948C44.8757 65.1931 44.7988 65.2703 44.7008 65.2703Z" fill="white"/>
<path d="M42.6927 64.2247C42.5948 64.2247 42.5178 64.1475 42.5178 64.0492V33.0106C42.5178 32.9124 42.5948 32.8352 42.6927 32.8352C42.7907 32.8352 42.8677 32.9124 42.8677 33.0106V64.0492C42.8677 64.1475 42.7907 64.2247 42.6927 64.2247Z" fill="white"/>
<path d="M61.4029 55.5685C61.3749 55.5685 61.3434 55.5614 61.3154 55.5439L59.5102 54.4983C59.4262 54.4492 59.3982 54.3439 59.4472 54.2597C59.4962 54.1755 59.6046 54.1474 59.6851 54.1965L61.4903 55.2421C61.5743 55.2913 61.6023 55.3965 61.5533 55.4807C61.5218 55.5369 61.4624 55.5685 61.4029 55.5685Z" fill="white"/>
<path d="M44.4524 65.2704C44.4245 65.2704 44.393 65.2634 44.365 65.2458L42.5597 64.2002C42.4758 64.1511 42.4478 64.0458 42.4968 63.9616C42.5457 63.8774 42.6542 63.8493 42.7347 63.8984L44.5399 64.9441C44.6239 64.9932 44.6519 65.0984 44.6029 65.1827C44.5714 65.2388 44.5119 65.2704 44.4524 65.2704Z" fill="white"/>
<path d="M153.67 105.544C153.572 105.544 153.495 105.467 153.495 105.369V47.4247C153.495 47.3265 153.572 47.2493 153.67 47.2493C153.768 47.2493 153.845 47.3265 153.845 47.4247V105.369C153.845 105.467 153.768 105.544 153.67 105.544Z" fill="white"/>
<path d="M2.27063 104.221C2.17267 104.221 2.0957 104.144 2.0957 104.046V45.7229C2.0992 45.6597 2.13069 45.6036 2.18667 45.572L77.6607 1.02466C77.7447 0.975537 77.8496 1.00361 77.8986 1.08782C77.9476 1.17203 77.9196 1.27729 77.8356 1.32641L2.44906 45.8247V104.046C2.44556 104.144 2.36859 104.221 2.27063 104.221Z" fill="white"/>
<path d="M153.677 47.6001C153.611 47.6001 153.551 47.5651 153.52 47.5019C153.478 47.4142 153.513 47.3089 153.6 47.2668L155.752 46.2282C155.839 46.1861 155.944 46.2212 155.986 46.3089C156.028 46.3966 155.993 46.5019 155.906 46.544L153.754 47.5826C153.73 47.5931 153.705 47.6001 153.677 47.6001Z" fill="white"/>
<path d="M27.9919 72.6492C27.9324 72.6492 27.873 72.6176 27.8415 72.5615C27.7925 72.4773 27.8205 72.372 27.9045 72.3229L42.5424 63.8176C42.6263 63.7685 42.7313 63.7966 42.7803 63.8808C42.8292 63.965 42.8012 64.0703 42.7173 64.1194L28.0794 72.6246C28.0514 72.6422 28.0199 72.6492 27.9919 72.6492Z" fill="white"/>
<path d="M79.543 148.618V155.825L155.825 111.232V104.418L79.543 148.618Z" fill="#FCE72D"/>
<path d="M79.5428 156C79.5114 156 79.4834 155.993 79.4554 155.976C79.3994 155.944 79.3679 155.888 79.3679 155.825V148.618C79.3679 148.555 79.4029 148.498 79.4554 148.467L155.741 104.267C155.794 104.235 155.864 104.235 155.916 104.267C155.968 104.298 156.003 104.355 156.003 104.418V111.232C156.003 111.295 155.972 111.351 155.916 111.383L79.6303 155.976C79.6023 155.993 79.5708 156 79.5428 156ZM79.7178 148.716V155.519L155.654 111.13V104.719L79.7178 148.716Z" fill="white"/>
<path d="M0.283504 102.723L79.543 148.618V155.825L0.175049 109.804L0.283504 102.723Z" fill="#FCE72D"/>
<path d="M79.5429 156C79.5114 156 79.4834 155.993 79.4554 155.976L0.0874636 109.955C0.0314869 109.923 0 109.863 0 109.8L0.108455 102.719C0.108455 102.656 0.14344 102.6 0.195918 102.569C0.251895 102.537 0.314869 102.537 0.370845 102.569L79.6303 148.463C79.6828 148.495 79.7178 148.551 79.7178 148.614V155.821C79.7178 155.884 79.6828 155.941 79.6303 155.972C79.6023 155.986 79.5743 155.997 79.5429 155.997V156ZM0.349854 109.702L79.3644 155.519V148.716L0.45481 103.025L0.353353 109.705L0.349854 109.702Z" fill="white"/>
<path d="M44.701 31.8423L42.6929 33.0107V64.0493L44.701 65.0949V31.8423Z" fill="#2ACE6F"/>
<path d="M44.7009 65.2704C44.6729 65.2704 44.6449 65.2633 44.6204 65.2493L42.6123 64.2037C42.5528 64.1721 42.5178 64.1125 42.5178 64.0493V33.0107C42.5178 32.9476 42.5493 32.8914 42.6053 32.8598L44.6134 31.6914C44.6694 31.6598 44.7359 31.6598 44.7884 31.6914C44.8409 31.723 44.8758 31.7791 44.8758 31.8423V65.0949C44.8758 65.1546 44.8444 65.2142 44.7919 65.2458C44.7639 65.2633 44.7324 65.2704 44.7009 65.2704ZM42.8677 63.944L44.526 64.8072V32.1476L42.8677 33.1125V63.944Z" fill="white"/>
<path d="M61.4027 22.1404L59.3945 23.3088V54.3474L61.4027 55.393V22.1404Z" fill="#2ACE6F"/>
<path d="M61.4028 55.5685C61.3748 55.5685 61.3468 55.5615 61.3223 55.5475L59.3142 54.5019C59.2547 54.4703 59.2197 54.4106 59.2197 54.3475V23.3054C59.2197 23.2422 59.2512 23.1861 59.3072 23.1545L61.3154 21.9861C61.3713 21.9545 61.4378 21.9545 61.4903 21.9861C61.5428 22.0177 61.5777 22.0738 61.5777 22.137V55.3896C61.5777 55.4492 61.5463 55.5089 61.4938 55.5405C61.4658 55.558 61.4343 55.565 61.4028 55.565V55.5685ZM59.5696 54.2422L61.2279 55.1054V22.4457L59.5696 23.4106V54.2422Z" fill="white"/>
<path d="M27.9917 72.4738L42.6926 64.0527L44.7007 65.0983C44.7007 65.0983 27.9952 74.7755 27.9952 74.7019C27.9952 74.6282 27.9917 72.4773 27.9917 72.4773V72.4738Z" fill="#2ACE6F"/>
<path d="M27.9463 74.8632C27.9463 74.8632 27.9183 74.8597 27.9113 74.8527C27.8553 74.8211 27.8238 74.7649 27.8238 74.7018C27.8238 74.6281 27.8203 72.4772 27.8203 72.4772C27.8203 72.4141 27.8553 72.3544 27.9078 72.3228L42.6087 63.9018C42.6611 63.8737 42.7241 63.8702 42.7766 63.9018L44.7847 64.9474C44.8407 64.9755 44.8792 65.0351 44.8792 65.0983C44.8792 65.1614 44.8477 65.2211 44.7917 65.2527C29.4017 74.1685 28.1457 74.8667 27.9498 74.8667L27.9463 74.8632ZM28.1667 72.5755C28.1667 72.8983 28.1667 73.9088 28.1702 74.4106C29.783 73.5193 39.0751 68.1509 44.3369 65.1018L42.6961 64.2492L28.1667 72.5755Z" fill="white"/>
<path d="M44.7009 62.8737L59.3948 54.3474L61.403 55.393L44.7009 65.0948V62.8737Z" fill="#2ACE6F"/>
<path d="M44.7008 65.2702C44.6693 65.2702 44.6413 65.2632 44.6133 65.2456C44.5609 65.214 44.5259 65.1579 44.5259 65.0948V62.8737C44.5259 62.8105 44.5574 62.7544 44.6133 62.7228L59.3072 54.1965C59.3597 54.1649 59.4227 54.1649 59.4752 54.193L61.4833 55.2386C61.5393 55.2667 61.5743 55.3263 61.5778 55.3895C61.5778 55.4526 61.5463 55.5123 61.4903 55.5439L44.7848 65.2491C44.7568 65.2632 44.7288 65.2737 44.6973 65.2737L44.7008 65.2702ZM44.8757 62.9755V64.793L61.0425 55.4035L59.4017 54.5509L44.8757 62.979V62.9755Z" fill="white"/>
<path d="M2.31613 45.8387C2.28815 45.8387 2.25666 45.8317 2.22867 45.8141L0.0875631 44.572C0.0035981 44.5229 -0.0243902 44.4176 0.0245894 44.3334C0.0735689 44.2492 0.178525 44.2211 0.26249 44.2703L2.4036 45.5124C2.48756 45.5615 2.51555 45.6668 2.46657 45.751C2.43509 45.8071 2.37561 45.8387 2.31613 45.8387Z" fill="white"/>
</svg>
