<svg width="163" height="149" viewBox="0 0 163 149" fill="none" xmlns="http://www.w3.org/2000/svg">
<path d="M92.95 52.3135L2.02979 104.299L69.1888 142.646L159.912 91.0044L92.95 52.3135Z" fill="#8DAEFF"/>
<path d="M69.1887 142.797C69.1614 142.797 69.1371 142.791 69.1128 142.775L1.95381 104.429C1.90524 104.402 1.87793 104.353 1.87793 104.299C1.87793 104.245 1.90828 104.196 1.95381 104.169L92.874 52.1808C92.9226 52.1536 92.9802 52.1536 93.0258 52.1808L159.988 90.8717C160.033 90.8988 160.063 90.9471 160.063 91.0015C160.063 91.0558 160.033 91.1041 159.988 91.1313L69.2646 142.775C69.2403 142.788 69.216 142.797 69.1887 142.797ZM2.33622 104.299L69.1887 142.471L159.608 91.0015L92.9499 52.4857L2.33622 104.299Z" fill="white"/>
<path d="M2.15441 104.377C2.10282 104.377 2.05122 104.35 2.02391 104.302C1.98142 104.229 2.00873 104.139 2.07854 104.097L92.8743 52.1808C92.9229 52.1536 92.9805 52.1536 93.0261 52.1808L159.988 90.6935C160.061 90.7358 160.085 90.8264 160.042 90.8988C160 90.9713 159.906 90.9954 159.836 90.9532L92.9502 52.4857L2.23029 104.359C2.20601 104.371 2.18173 104.38 2.15441 104.38V104.377Z" fill="white"/>
<path d="M69.1889 148.997C69.1616 148.997 69.1373 148.991 69.113 148.976L0.260446 109.382C0.211886 109.355 0.18457 109.307 0.18457 109.253V52.9716C0.18457 52.9173 0.214921 52.869 0.260446 52.8418L92.5434 0.0203763C92.5889 -0.00679211 92.6466 -0.00679211 92.6951 0.0203763L161.927 39.7769C161.973 39.804 162.003 39.8523 162.003 39.9067V95.6955C162.003 95.7499 161.973 95.7982 161.927 95.8253L69.2648 148.979C69.2405 148.991 69.2162 149 69.1889 149V148.997ZM0.488073 109.165L69.1889 148.671L161.699 95.608V39.9942L92.6193 0.325267L0.488073 53.0592V109.165Z" fill="white"/>
<path d="M69.1888 142.796C69.1372 142.796 69.0856 142.769 69.0583 142.721C69.0158 142.649 69.0432 142.558 69.113 142.516L161.775 89.7033C161.848 89.661 161.939 89.6852 161.982 89.7607C162.024 89.8331 161.997 89.9237 161.927 89.9659L69.2647 142.775C69.2404 142.787 69.2162 142.796 69.1888 142.796Z" fill="white"/>
<path d="M69.1887 142.797C69.1644 142.797 69.1371 142.791 69.1128 142.775L0.354347 103.291C0.281506 103.248 0.257226 103.158 0.299717 103.085C0.342207 103.013 0.436293 102.989 0.506098 103.031L69.2646 142.516C69.3374 142.558 69.3617 142.649 69.3192 142.721C69.2919 142.769 69.2403 142.797 69.1887 142.797Z" fill="white"/>
<path d="M159.985 40.9511C159.961 40.9511 159.933 40.9451 159.909 40.93L90.8592 1.27918C90.7864 1.23692 90.7621 1.14636 90.8046 1.07391C90.8471 1.00146 90.9412 0.977313 91.011 1.01957L160.061 40.6704C160.134 40.7127 160.158 40.8032 160.115 40.8757C160.088 40.924 160.037 40.9511 159.985 40.9511Z" fill="white"/>
<path d="M159.978 90.8023C159.893 90.8023 159.827 90.7359 159.827 90.6514V40.8003C159.827 40.7158 159.893 40.6494 159.978 40.6494C160.063 40.6494 160.13 40.7158 160.13 40.8003V90.6514C160.13 90.7359 160.063 90.8023 159.978 90.8023Z" fill="white"/>
<path d="M2.15444 104.45C2.06946 104.45 2.00269 104.383 2.00269 104.299V54.1215C2.00572 54.0672 2.03607 54.0189 2.0816 53.9917L94.0428 0.880415C94.1157 0.838153 94.2067 0.862303 94.2492 0.934752C94.2917 1.0072 94.2674 1.09776 94.1946 1.14002L2.30922 54.209V104.299C2.30619 104.383 2.23638 104.45 2.15444 104.45Z" fill="white"/>
<path d="M159.984 40.9512C159.927 40.9512 159.875 40.921 159.848 40.8667C159.811 40.7912 159.842 40.7007 159.918 40.6644L161.784 39.7709C161.86 39.7347 161.951 39.7649 161.988 39.8403C162.024 39.9158 161.994 40.0064 161.918 40.0426L160.051 40.9361C160.03 40.9452 160.009 40.9512 159.984 40.9512Z" fill="white"/>
<path d="M69.1892 142.646V148.846L161.852 95.6958V89.8335L69.1892 142.646Z" fill="#FCE72D"/>
<path d="M69.1889 148.997C69.1615 148.997 69.1373 148.991 69.113 148.976C69.0675 148.949 69.0371 148.901 69.0371 148.846V142.643C69.0371 142.588 69.0675 142.54 69.113 142.513L161.775 89.7006C161.824 89.6734 161.882 89.6734 161.927 89.7006C161.973 89.7277 162.003 89.776 162.003 89.8304V95.6927C162.003 95.747 161.973 95.7953 161.927 95.8225L69.2647 148.979C69.2405 148.991 69.2162 149 69.1889 149V148.997ZM69.3406 142.73V148.584L161.699 95.6082V90.093L69.3406 142.733V142.73Z" fill="white"/>
<path d="M0.430512 103.161L69.189 142.646V148.846L0.336426 109.253L0.430512 103.161Z" fill="#FCE72D"/>
<path d="M69.1889 148.997C69.1616 148.997 69.1373 148.991 69.113 148.976L0.260446 109.383C0.211886 109.355 0.18457 109.304 0.18457 109.25L0.278656 103.158C0.278656 103.104 0.309006 103.055 0.354532 103.028C0.403092 103.001 0.457722 103.001 0.506283 103.028L69.2648 142.513C69.3103 142.54 69.3406 142.588 69.3406 142.643V148.846C69.3406 148.901 69.3103 148.949 69.2648 148.976C69.2405 148.988 69.2162 148.997 69.1889 148.997ZM0.488073 109.168L69.0341 148.587V142.733L0.579123 103.421L0.491108 109.168H0.488073Z" fill="white"/>
<path d="M40.7381 71.407C40.6865 71.407 40.6349 71.3798 40.6076 71.3315C40.5651 71.2591 40.5894 71.1685 40.6622 71.1262L69.6437 54.4297C69.7165 54.3875 69.8075 54.4116 69.85 54.4841C69.8925 54.5565 69.8682 54.6471 69.7954 54.6893L40.814 71.3859C40.7897 71.4009 40.7624 71.407 40.7381 71.407Z" fill="white"/>
<path d="M40.7386 42.7993C40.687 42.7993 40.6354 42.7722 40.6081 42.7239C40.5656 42.6514 40.5899 42.5608 40.6627 42.5186L69.6441 25.8221C69.717 25.7798 69.808 25.804 69.8505 25.8764C69.893 25.9489 69.8687 26.0394 69.7959 26.0817L40.8144 42.7782C40.7902 42.7933 40.7629 42.7993 40.7386 42.7993Z" fill="white"/>
<path d="M55.2273 61.1465C55.1757 61.1465 55.1242 61.1193 55.0968 61.071C55.0543 60.9986 55.0786 60.908 55.1515 60.8658L67.85 53.5484C67.9228 53.5061 68.0139 53.5303 68.0564 53.6027C68.0989 53.6752 68.0746 53.7657 68.0018 53.808L55.3032 61.1254C55.2789 61.1405 55.2516 61.1465 55.2273 61.1465Z" fill="white"/>
<path d="M40.7384 71.4071C40.6534 71.4071 40.5867 71.3407 40.5867 71.2561V42.6478C40.5867 42.5632 40.6534 42.4968 40.7384 42.4968C40.8234 42.4968 40.8902 42.5632 40.8902 42.6478V71.2561C40.8902 71.3407 40.8234 71.4071 40.7384 71.4071Z" fill="white"/>
<path d="M69.7194 54.711C69.6344 54.711 69.5676 54.6446 69.5676 54.5601V25.9517C69.5676 25.8672 69.6344 25.8008 69.7194 25.8008C69.8044 25.8008 69.8711 25.8672 69.8711 25.9517V54.5601C69.8711 54.6446 69.8044 54.711 69.7194 54.711Z" fill="white"/>
<path d="M68.0531 53.9383C67.9681 53.9383 67.9014 53.8719 67.9014 53.7874V26.8997C67.9014 26.8152 67.9681 26.7488 68.0531 26.7488C68.1381 26.7488 68.2049 26.8152 68.2049 26.8997V53.7844C68.2049 53.8689 68.1381 53.9353 68.0531 53.9353V53.9383Z" fill="white"/>
<path d="M55.2272 63.0575C55.1422 63.0575 55.0754 62.991 55.0754 62.9065V34.2982C55.0754 34.2136 55.1422 34.1472 55.2272 34.1472C55.3122 34.1472 55.3789 34.2136 55.3789 34.2982V62.9065C55.3789 62.991 55.3122 63.0575 55.2272 63.0575Z" fill="white"/>
<path d="M53.4855 62.1607C53.4005 62.1607 53.3337 62.0943 53.3337 62.0098V35.3062C53.3337 35.2217 53.4005 35.1553 53.4855 35.1553C53.5705 35.1553 53.6372 35.2217 53.6372 35.3062V62.0098C53.6372 62.0943 53.5705 62.1607 53.4855 62.1607Z" fill="white"/>
<path d="M55.0119 63.0571C54.9876 63.0571 54.9603 63.051 54.936 63.0359L53.37 62.1364C53.2971 62.0941 53.2729 62.0035 53.3153 61.9311C53.3578 61.8586 53.4519 61.8345 53.5217 61.8768L55.0878 62.7763C55.1606 62.8186 55.1849 62.9092 55.1424 62.9816C55.1151 63.0299 55.0635 63.0571 55.0119 63.0571Z" fill="white"/>
<path d="M40.7322 69.4053C40.6806 69.4053 40.629 69.3781 40.6017 69.3298C40.5592 69.2574 40.5835 69.1668 40.6564 69.1245L53.3549 61.8072C53.4277 61.7649 53.5188 61.7891 53.5613 61.8615C53.6038 61.934 53.5795 62.0245 53.5066 62.0668L40.8081 69.3841C40.7838 69.3992 40.7565 69.4053 40.7322 69.4053Z" fill="white"/>
<path d="M55.2277 34.301L53.4856 35.3032V62.0098L55.2277 62.9064V34.301Z" fill="#2ACE6F"/>
<path d="M55.2276 63.0572C55.2033 63.0572 55.179 63.0511 55.1578 63.0391L53.4157 62.1395C53.3641 62.1123 53.3337 62.061 53.3337 62.0067V35.3031C53.3337 35.2488 53.3611 35.2005 53.4096 35.1733L55.1517 34.1681C55.2003 34.1409 55.2579 34.1409 55.3035 34.1681C55.349 34.1952 55.3793 34.2435 55.3793 34.2979V62.9062C55.3793 62.9576 55.352 63.0089 55.3065 63.0361C55.2822 63.0511 55.2549 63.0572 55.2276 63.0572ZM53.6372 61.9161L55.0758 62.6587V34.5605L53.6372 35.3907V61.9161Z" fill="white"/>
<path d="M69.7201 25.9514L67.978 26.9566V53.6602L69.7201 54.5598V25.9514Z" fill="#2ACE6F"/>
<path d="M69.7198 54.7112C69.6955 54.7112 69.6712 54.7052 69.65 54.6931L67.9079 53.7935C67.8563 53.7664 67.8259 53.7151 67.8259 53.6607V26.9572C67.8259 26.9028 67.8532 26.8545 67.9018 26.8274L69.6439 25.8221C69.6925 25.795 69.7501 25.795 69.7957 25.8221C69.8412 25.8493 69.8715 25.8976 69.8715 25.9519V54.5603C69.8715 54.6116 69.8442 54.6629 69.7987 54.6901C69.7744 54.7052 69.7471 54.7112 69.7198 54.7112ZM68.1294 53.5702L69.568 54.3128V26.2146L68.1294 27.0447V53.5702Z" fill="white"/>
<path d="M40.7322 69.2544L53.4853 62.0095L55.2274 62.9091C55.2274 62.9091 40.7352 71.2347 40.7352 71.1713C40.7352 71.1079 40.7322 69.2575 40.7322 69.2575V69.2544Z" fill="#2ACE6F"/>
<path d="M40.6925 71.3103C40.6925 71.3103 40.6682 71.3073 40.6622 71.3013C40.6136 71.2741 40.5863 71.2228 40.5863 71.1715C40.5863 71.1081 40.5833 69.2576 40.5833 69.2576C40.5833 69.2033 40.6136 69.1519 40.6591 69.1248L53.4123 61.8799C53.4578 61.8557 53.5125 61.8527 53.558 61.8799L55.3001 62.7794C55.3486 62.8036 55.382 62.8549 55.382 62.9092C55.382 62.9636 55.3547 63.0149 55.3062 63.0421C41.9551 70.7126 40.8655 71.3133 40.6955 71.3133L40.6925 71.3103ZM40.8837 69.3421C40.8837 69.6198 40.8837 70.4892 40.8868 70.9209C42.2859 70.1542 50.3469 65.5355 54.9116 62.9123L53.4882 62.1787L40.8837 69.3421Z" fill="white"/>
<path d="M55.2273 60.9954L67.9774 53.6599L69.7195 54.5595L55.2273 62.9062V60.9954Z" fill="#2ACE6F"/>
<path d="M55.2272 63.0571C55.1999 63.0571 55.1756 63.0511 55.1513 63.036C55.1058 63.0088 55.0754 62.9605 55.0754 62.9062V60.9953C55.0754 60.941 55.1028 60.8927 55.1513 60.8655L67.8984 53.53C67.9439 53.5029 67.9986 53.5029 68.0441 53.527L69.7862 54.4266C69.8348 54.4508 69.8681 54.5021 69.8681 54.5564C69.8681 54.6107 69.8408 54.6621 69.7923 54.6892L55.3 63.036C55.2758 63.0481 55.2515 63.0571 55.2242 63.0571H55.2272ZM55.3789 61.0829V62.6466L69.4038 54.5685L67.9804 53.8349L55.3789 61.0859V61.0829Z" fill="white"/>
<path d="M2.19391 54.2217C2.16963 54.2217 2.14231 54.2157 2.11803 54.2006L0.260597 53.132C0.187756 53.0897 0.163476 52.9991 0.205967 52.9267C0.248457 52.8542 0.342543 52.8301 0.412348 52.8724L2.26978 53.941C2.34262 53.9832 2.3669 54.0738 2.32441 54.1463C2.2971 54.1946 2.2455 54.2217 2.19391 54.2217Z" fill="white"/>
<path d="M137.62 66.9695C137.592 66.9695 137.568 66.9634 137.544 66.9483L110.581 51.4654C110.535 51.4382 110.505 51.3899 110.505 51.3356V24.1399C110.505 24.0554 110.572 23.989 110.657 23.989C110.742 23.989 110.808 24.0554 110.808 24.1399V51.251L137.468 66.5589V39.6229C137.468 39.5384 137.535 39.472 137.62 39.472C137.705 39.472 137.772 39.5384 137.772 39.6229V66.8185C137.772 66.8729 137.741 66.9212 137.696 66.9483C137.671 66.9604 137.647 66.9695 137.62 66.9695Z" fill="white"/>
<path d="M139.061 37.4168C139.034 37.4168 139.01 37.4107 138.985 37.3956L109.543 20.4335C109.47 20.3912 109.445 20.3007 109.488 20.2282C109.53 20.1558 109.625 20.1316 109.694 20.1739L139.137 37.136C139.21 37.1783 139.234 37.2689 139.192 37.3413C139.164 37.3896 139.113 37.4168 139.061 37.4168Z" fill="white"/>
<path d="M138.563 40.3143C138.539 40.3143 138.512 40.3082 138.488 40.2931L108.932 23.3219C108.86 23.2796 108.835 23.1891 108.878 23.1166C108.92 23.0442 109.011 23.02 109.084 23.0623L138.639 40.0335C138.712 40.0758 138.736 40.1663 138.694 40.2388C138.667 40.2871 138.615 40.3143 138.563 40.3143Z" fill="white"/>
<path d="M138.803 40.3686C138.694 40.3686 138.585 40.3354 138.488 40.2659C138.202 40.0667 138.029 39.5988 138.029 39.0132C138.029 38.1378 138.409 37.3197 138.894 37.1476C139.07 37.0842 139.249 37.1084 139.401 37.217C139.686 37.4163 139.856 37.8842 139.856 38.4668C139.856 39.3392 139.477 40.1573 138.994 40.3324C138.931 40.3565 138.864 40.3686 138.8 40.3686H138.803ZM139.085 37.4163C139.055 37.4163 139.028 37.4223 138.997 37.4314C138.679 37.5461 138.336 38.2072 138.336 39.0132C138.336 39.4841 138.463 39.8795 138.664 40.0184C138.736 40.0697 138.812 40.0788 138.894 40.0486C139.213 39.9339 139.556 39.2698 139.556 38.4668C139.556 37.9959 139.428 37.6034 139.228 37.4616C139.183 37.4284 139.137 37.4133 139.089 37.4133L139.085 37.4163Z" fill="white"/>
<path d="M109.027 23.3401C109.006 23.3401 108.984 23.3371 108.966 23.328C108.623 23.1771 108.411 22.676 108.411 22.0209C108.411 21.1455 108.79 20.3274 109.276 20.1554C109.415 20.104 109.555 20.1101 109.685 20.1674C109.761 20.2006 109.795 20.2912 109.761 20.3667C109.728 20.4421 109.637 20.4753 109.561 20.4421C109.503 20.415 109.443 20.415 109.379 20.4391C109.06 20.5538 108.717 21.2149 108.717 22.0209C108.717 22.6156 108.911 22.9718 109.094 23.0533C109.169 23.0865 109.206 23.1771 109.169 23.2526C109.145 23.3099 109.087 23.3431 109.03 23.3431L109.027 23.3401Z" fill="white"/>
</svg>
