<svg width="151" height="149" viewBox="0 0 151 149" fill="none" xmlns="http://www.w3.org/2000/svg">
<path d="M74.7063 57.5833L2.02344 99.7994L75.547 142.006L148.223 100.055L74.7063 57.5833Z" fill="#8DAEFF"/>
<path d="M75.547 142.172C75.5171 142.172 75.4905 142.165 75.4639 142.148L1.93707 99.939C1.88391 99.9091 1.854 99.8559 1.854 99.7961C1.854 99.7363 1.88391 99.6831 1.93707 99.6532L74.6199 57.4404C74.6698 57.4105 74.7362 57.4105 74.7861 57.4404L148.303 99.9091C148.353 99.939 148.386 99.9921 148.386 100.052C148.386 100.112 148.353 100.165 148.303 100.195L75.6301 142.148C75.6035 142.162 75.5769 142.172 75.547 142.172V142.172ZM2.35242 99.7961L75.5437 141.813L147.884 100.052L74.6997 57.7727L2.3491 99.7928L2.35242 99.7961Z" fill="white"/>
<path d="M148.017 100.142C147.991 100.142 147.961 100.135 147.934 100.118L74.7065 57.776L2.24298 99.8625C2.16323 99.9091 2.06355 99.8825 2.01703 99.8027C1.97051 99.723 1.99709 99.6233 2.07684 99.5768L74.6235 57.4404C74.6733 57.4105 74.7398 57.4105 74.7896 57.4404L148.1 99.8326C148.18 99.8791 148.207 99.9788 148.16 100.059C148.13 100.112 148.074 100.142 148.017 100.142Z" fill="white"/>
<path d="M75.5471 149C75.5172 149 75.4906 148.993 75.464 148.977L0.0830699 105.395C0.0299052 105.365 0 105.312 0 105.252V43.3019C0 43.242 0.0299052 43.1889 0.0830699 43.159L74.2612 0.0224289C74.311 -0.00747629 74.3775 -0.00747629 74.4273 0.0224289L150.224 43.7837C150.273 43.8136 150.307 43.8667 150.307 43.9265V105.335C150.307 105.395 150.277 105.448 150.224 105.478L75.6302 148.973C75.6036 148.99 75.5737 148.997 75.5471 148.997V149ZM0.33228 105.156L75.5471 148.641L149.974 105.242V44.0229L74.3442 0.358032L0.33228 43.3949V105.156Z" fill="white"/>
<path d="M75.5471 142.172C75.4906 142.172 75.4341 142.142 75.4042 142.089C75.3577 142.009 75.3843 141.909 75.4641 141.863L150.058 98.7397C150.137 98.6932 150.237 98.7197 150.283 98.7995C150.33 98.8792 150.303 98.9789 150.224 99.0254L75.6302 142.149C75.6036 142.165 75.5737 142.172 75.5471 142.172V142.172Z" fill="white"/>
<path d="M28.7322 71.0008C28.6757 71.0008 28.6192 70.9709 28.5893 70.9178C28.5428 70.838 28.5694 70.7383 28.6491 70.6918L60.3785 52.3134C60.4582 52.2669 60.5579 52.2935 60.6044 52.3732C60.651 52.453 60.6244 52.5527 60.5446 52.5992L28.8152 70.9776C28.7887 70.9942 28.7588 71.0008 28.7322 71.0008Z" fill="white"/>
<path d="M28.7322 39.5106C28.6757 39.5106 28.6192 39.4807 28.5893 39.4275C28.5428 39.3478 28.5694 39.2481 28.6491 39.2016L60.3785 20.8232C60.4582 20.7767 60.5579 20.8032 60.6044 20.883C60.651 20.9627 60.6244 21.0624 60.5446 21.1089L28.8152 39.4873C28.7887 39.5039 28.7588 39.5106 28.7322 39.5106Z" fill="white"/>
<path d="M44.5952 59.7067C44.5387 59.7067 44.4822 59.6768 44.4523 59.6236C44.4058 59.5439 44.4324 59.4442 44.5121 59.3977L58.4147 51.3432C58.4945 51.2967 58.5942 51.3233 58.6407 51.403C58.6872 51.4828 58.6606 51.5824 58.5809 51.629L44.6783 59.6834C44.6517 59.7 44.6218 59.7067 44.5952 59.7067Z" fill="white"/>
<path d="M75.5472 142.172C75.5207 142.172 75.4908 142.165 75.4642 142.148L0.186216 98.6895C0.106469 98.643 0.0798868 98.5433 0.126406 98.4636C0.172925 98.3838 0.275932 98.3572 0.352356 98.4038L75.6303 141.866C75.7101 141.912 75.7366 142.012 75.6901 142.092C75.6602 142.145 75.6037 142.175 75.5472 142.175V142.172Z" fill="white"/>
<path d="M148.097 45.0796C148.071 45.0796 148.041 45.073 148.014 45.0564L72.4172 1.41143C72.3374 1.36492 72.3108 1.26523 72.3574 1.18548C72.4039 1.10574 72.5069 1.07915 72.5833 1.12567L148.18 44.7706C148.26 44.8171 148.287 44.9168 148.24 44.9966C148.21 45.0497 148.154 45.0796 148.097 45.0796V45.0796Z" fill="white"/>
<path d="M28.7323 71.001C28.6393 71.001 28.5662 70.9279 28.5662 70.8348V39.1852C28.5662 39.0921 28.6393 39.019 28.7323 39.019C28.8253 39.019 28.8984 39.0921 28.8984 39.1852V70.8348C28.8984 70.9279 28.8253 71.001 28.7323 71.001Z" fill="white"/>
<path d="M60.4615 52.6222C60.3685 52.6222 60.2954 52.5491 60.2954 52.4561V20.9659C60.2954 20.8729 60.3685 20.7998 60.4615 20.7998C60.5546 20.7998 60.6277 20.8729 60.6277 20.9659V52.4561C60.6277 52.5491 60.5546 52.6222 60.4615 52.6222Z" fill="white"/>
<path d="M58.6376 51.7715C58.5445 51.7715 58.4714 51.6984 58.4714 51.6054V22.0126C58.4714 21.9195 58.5445 21.8464 58.6376 21.8464C58.7306 21.8464 58.8037 21.9195 58.8037 22.0126V51.6054C58.8037 51.6984 58.7306 51.7715 58.6376 51.7715Z" fill="white"/>
<path d="M44.5953 61.8131C44.5023 61.8131 44.4292 61.74 44.4292 61.647V30.1569C44.4292 30.0638 44.5023 29.9907 44.5953 29.9907C44.6884 29.9907 44.7615 30.0638 44.7615 30.1569V61.647C44.7615 61.74 44.6884 61.8131 44.5953 61.8131Z" fill="white"/>
<path d="M42.6881 60.8229C42.5951 60.8229 42.522 60.7498 42.522 60.6568V31.2633C42.522 31.1703 42.5951 31.0972 42.6881 31.0972C42.7812 31.0972 42.8543 31.1703 42.8543 31.2633V60.6568C42.8543 60.7498 42.7812 60.8229 42.6881 60.8229V60.8229Z" fill="white"/>
<path d="M60.4616 52.6222C60.435 52.6222 60.4051 52.6155 60.3786 52.5989L58.664 51.6087C58.5843 51.5622 58.5577 51.4625 58.6042 51.3828C58.6507 51.303 58.7504 51.2764 58.8301 51.3229L60.5447 52.3131C60.6244 52.3597 60.651 52.4593 60.6045 52.5391C60.5746 52.5922 60.5181 52.6222 60.4616 52.6222Z" fill="white"/>
<path d="M44.3593 61.8131C44.3328 61.8131 44.3028 61.8064 44.2763 61.7898L42.5617 60.7996C42.482 60.7531 42.4554 60.6534 42.5019 60.5737C42.5484 60.4939 42.6514 60.4673 42.7278 60.5139L44.4424 61.504C44.5222 61.5506 44.5487 61.6503 44.5022 61.73C44.4723 61.7832 44.4158 61.8131 44.3593 61.8131Z" fill="white"/>
<path d="M148.09 99.9487C147.997 99.9487 147.924 99.8756 147.924 99.7825V44.9132C147.924 44.8202 147.997 44.7471 148.09 44.7471C148.183 44.7471 148.257 44.8202 148.257 44.9132V99.7859C148.257 99.8789 148.183 99.952 148.09 99.952V99.9487Z" fill="white"/>
<path d="M2.15979 99.9656C2.06675 99.9656 1.99365 99.8925 1.99365 99.7994V44.5679C1.99698 44.5081 2.02688 44.455 2.08005 44.425L75.8993 0.972842C75.979 0.926322 76.0787 0.952905 76.1252 1.03265C76.1718 1.1124 76.1452 1.21208 76.0654 1.2586L2.32926 44.661V99.7961C2.32593 99.8892 2.25283 99.9623 2.15979 99.9623V99.9656Z" fill="white"/>
<path d="M148.097 45.0795C148.034 45.0795 147.978 45.0462 147.948 44.9864C147.908 44.9034 147.941 44.8037 148.024 44.7638L150.068 43.7802C150.151 43.7404 150.25 43.7736 150.29 43.8567C150.33 43.9397 150.297 44.0394 150.214 44.0793L148.17 45.0628C148.147 45.0728 148.124 45.0795 148.097 45.0795V45.0795Z" fill="white"/>
<path d="M28.7256 68.7977C28.6691 68.7977 28.6126 68.7678 28.5827 68.7147C28.5362 68.6349 28.5628 68.5352 28.6425 68.4887L42.5451 60.4343C42.6248 60.3877 42.7245 60.4143 42.771 60.4941C42.8176 60.5738 42.791 60.6735 42.7112 60.72L28.8087 68.7745C28.7821 68.7911 28.7522 68.7977 28.7256 68.7977Z" fill="white"/>
<path d="M75.5471 142.006V148.834L150.141 105.339V98.8823L75.5471 142.006Z" fill="#FCE72D"/>
<path d="M75.547 149C75.5171 149 75.4905 148.993 75.4639 148.977C75.4108 148.947 75.3809 148.894 75.3809 148.834V142.006C75.3809 141.946 75.4108 141.893 75.4639 141.863L150.057 98.7395C150.107 98.7096 150.174 98.7096 150.224 98.7395C150.273 98.7694 150.307 98.8225 150.307 98.8823V105.335C150.307 105.395 150.277 105.448 150.224 105.478L75.6301 148.974C75.6035 148.99 75.5736 148.997 75.547 148.997V149ZM75.7131 142.102V148.545L149.974 105.242V99.1714L75.7131 142.102V142.102Z" fill="white"/>
<path d="M0.269024 98.5464L75.547 142.005V148.834L0.166016 105.252L0.269024 98.5464Z" fill="#FCE72D"/>
<path d="M75.5471 149C75.5172 149 75.4906 148.993 75.464 148.977L0.0830699 105.395C0.0299052 105.365 0 105.308 0 105.249L0.103008 98.5432C0.103008 98.4834 0.136236 98.4303 0.186078 98.4004C0.239243 98.3705 0.299053 98.3705 0.352218 98.4004L75.6302 141.863C75.68 141.892 75.7132 141.946 75.7132 142.005V148.834C75.7132 148.894 75.68 148.947 75.6302 148.977C75.6036 148.99 75.577 149 75.5471 149V149ZM0.335603 105.156L75.381 148.545V142.102L0.431965 98.829L0.335603 105.156Z" fill="white"/>
<path d="M44.5953 30.1567L42.688 31.2599V60.6567L44.5953 61.6469V30.1567Z" fill="#2ACE6F"/>
<path d="M44.5954 61.813C44.5688 61.813 44.5422 61.8064 44.519 61.7931L42.6117 60.8029C42.5552 60.773 42.522 60.7165 42.522 60.6567V31.2633C42.522 31.2034 42.5519 31.1503 42.605 31.1204L44.5123 30.0139C44.5655 29.984 44.6286 29.984 44.6785 30.0139C44.7283 30.0438 44.7615 30.097 44.7615 30.1568V61.6469C44.7615 61.7034 44.7316 61.7599 44.6818 61.7898C44.6552 61.8064 44.6253 61.813 44.5954 61.813ZM42.8543 60.557L44.4293 61.3744V30.4458L42.8543 31.3596V60.557V60.557Z" fill="white"/>
<path d="M60.4615 20.9658L58.5542 22.0723V51.4658L60.4615 52.456V20.9658Z" fill="#2ACE6F"/>
<path d="M60.4616 52.6221C60.435 52.6221 60.4084 52.6155 60.3852 52.6022L58.4779 51.612C58.4214 51.5821 58.3882 51.5256 58.3882 51.4658V22.0723C58.3882 22.0125 58.4181 21.9594 58.4713 21.9295L60.3785 20.823C60.4317 20.7931 60.4948 20.7931 60.5447 20.823C60.5945 20.8529 60.6278 20.906 60.6278 20.9658V52.456C60.6278 52.5125 60.5978 52.569 60.548 52.5989C60.5214 52.6155 60.4915 52.6221 60.4616 52.6221ZM58.7205 51.3661L60.2955 52.1835V21.2549L58.7205 22.1687V51.3661Z" fill="white"/>
<path d="M28.7256 68.6314L42.688 60.6567L44.5953 61.6469C44.5953 61.6469 28.7289 70.8112 28.7289 70.7414C28.7289 70.6716 28.7256 68.6348 28.7256 68.6348V68.6314Z" fill="#2ACE6F"/>
<path d="M28.6824 70.8943C28.6824 70.8943 28.6558 70.891 28.6491 70.8843C28.596 70.8544 28.5661 70.7979 28.5661 70.7414C28.5661 70.6717 28.5627 68.6348 28.5627 68.6348C28.5627 68.575 28.596 68.5185 28.6458 68.4886L42.6082 60.5139C42.658 60.4873 42.7179 60.484 42.7677 60.5139L44.675 61.5041C44.7281 61.5307 44.7647 61.5871 44.7647 61.647C44.7647 61.7068 44.7348 61.7633 44.6816 61.7932C30.0646 70.2364 28.8718 70.8976 28.6857 70.8976L28.6824 70.8943ZM28.8917 68.7278C28.8917 69.0335 28.8917 69.9905 28.895 70.4657C30.4302 69.6217 39.2522 64.5378 44.2497 61.6503L42.6913 60.8428L28.8917 68.7278V68.7278Z" fill="white"/>
<path d="M44.5952 59.5402L58.5543 51.4658L60.4616 52.456L44.5952 61.6469V59.5402Z" fill="#2ACE6F"/>
<path d="M44.5953 61.8133C44.5654 61.8133 44.5389 61.8067 44.5123 61.7901C44.4624 61.7602 44.4292 61.707 44.4292 61.6472V59.5438C44.4292 59.484 44.4591 59.4309 44.5123 59.401L58.468 51.3266C58.5179 51.2967 58.5777 51.2967 58.6275 51.3232L60.5348 52.3134C60.588 52.34 60.6212 52.3965 60.6245 52.4563C60.6245 52.5161 60.5946 52.5726 60.5414 52.6025L44.6751 61.7901C44.6485 61.8033 44.6219 61.8133 44.592 61.8133H44.5953ZM44.7615 59.6402V61.3614L60.1161 52.4696L58.5577 51.6622L44.7615 59.6435V59.6402Z" fill="white"/>
<path d="M2.20298 44.6774C2.1764 44.6774 2.1465 44.6707 2.11992 44.6541L0.0863629 43.4778C0.00661578 43.4313 -0.0199667 43.3316 0.0265525 43.2519C0.0730716 43.1721 0.172756 43.1456 0.252503 43.1921L2.28605 44.3684C2.3658 44.4149 2.39238 44.5146 2.34587 44.5943C2.31596 44.6475 2.25947 44.6774 2.20298 44.6774Z" fill="white"/>
<path d="M123.611 73.7155C123.581 73.7155 123.555 73.7088 123.528 73.6922L94.0086 56.6496C93.9588 56.6197 93.9255 56.5665 93.9255 56.5067V26.5717C93.9255 26.4786 93.9986 26.4055 94.0917 26.4055C94.1847 26.4055 94.2578 26.4786 94.2578 26.5717V56.4104L123.445 73.2603V43.611C123.445 43.5179 123.518 43.4448 123.611 43.4448C123.704 43.4448 123.778 43.5179 123.778 43.611V73.546C123.778 73.6058 123.744 73.659 123.694 73.6889C123.668 73.7022 123.641 73.7122 123.611 73.7122V73.7155Z" fill="white"/>
<path d="M125.19 41.1887C125.16 41.1887 125.133 41.1821 125.107 41.1655L92.8722 22.4947C92.7925 22.4482 92.7659 22.3485 92.8124 22.2687C92.859 22.189 92.962 22.1624 93.0384 22.2089L125.273 40.8797C125.353 40.9262 125.379 41.0259 125.333 41.1057C125.303 41.1588 125.246 41.1887 125.19 41.1887Z" fill="white"/>
<path d="M124.645 44.375C124.618 44.375 124.588 44.3683 124.562 44.3517L92.2043 25.671C92.1245 25.6244 92.098 25.5248 92.1445 25.445C92.191 25.3653 92.2907 25.3387 92.3704 25.3852L124.728 44.066C124.808 44.1125 124.834 44.2122 124.788 44.2919C124.758 44.3451 124.701 44.375 124.645 44.375Z" fill="white"/>
<path d="M124.907 44.4348C124.788 44.4348 124.668 44.3982 124.562 44.3218C124.249 44.1025 124.06 43.5875 124.06 42.9429C124.06 41.9792 124.475 41.0788 125.007 40.8894C125.2 40.8196 125.396 40.8462 125.562 40.9658C125.874 41.1851 126.06 41.7001 126.06 42.3414C126.06 43.3017 125.645 44.2022 125.117 44.3949C125.047 44.4215 124.974 44.4348 124.904 44.4348H124.907ZM125.216 41.1851C125.183 41.1851 125.153 41.1918 125.12 41.2017C124.771 41.328 124.396 42.0557 124.396 42.9429C124.396 43.4612 124.535 43.8965 124.755 44.0494C124.834 44.1058 124.917 44.1158 125.007 44.0826C125.356 43.9563 125.731 43.2253 125.731 42.3414C125.731 41.8231 125.592 41.3911 125.373 41.2349C125.323 41.1984 125.273 41.1818 125.22 41.1818L125.216 41.1851Z" fill="white"/>
<path d="M92.3073 25.6943C92.2841 25.6943 92.2608 25.691 92.2409 25.6811C91.8654 25.5149 91.6328 24.9633 91.6328 24.2423C91.6328 23.2787 92.0482 22.3782 92.5798 22.1888C92.7327 22.1356 92.8855 22.139 93.0284 22.2021C93.1115 22.2386 93.148 22.3383 93.1115 22.4214C93.0749 22.5045 92.9752 22.541 92.8922 22.5045C92.829 22.4746 92.7626 22.4746 92.6928 22.5011C92.3439 22.6274 91.9684 23.3551 91.9684 24.2423C91.9684 24.8969 92.1811 25.289 92.3804 25.3787C92.4635 25.4152 92.5034 25.5149 92.4635 25.598C92.4369 25.6611 92.3738 25.6977 92.3107 25.6977L92.3073 25.6943Z" fill="white"/>
<path d="M49.8185 81.8494L49.7986 72.1103C49.7986 71.4624 50.1475 70.8643 50.709 70.542L57.8929 66.4815C58.4777 66.1525 59.1988 66.5812 59.1888 67.2524L59.0094 76.4931L49.8152 81.8494H49.8185Z" fill="#2F3C63"/>
<path d="M49.8186 82.0156C49.7887 82.0156 49.7622 82.0089 49.7356 81.9923C49.6824 81.9624 49.6525 81.9092 49.6525 81.8494L49.6326 72.1103C49.6326 71.4026 50.0114 70.748 50.6294 70.3991L57.8133 66.3386C58.1389 66.1525 58.5277 66.1592 58.85 66.3519C59.1723 66.5446 59.3617 66.8836 59.3551 67.259L59.1756 76.4997C59.1756 76.5562 59.1424 76.6094 59.0926 76.6393L49.8984 81.9956C49.8718 82.0123 49.8419 82.0189 49.8153 82.0189L49.8186 82.0156ZM58.3217 66.5347C58.2021 66.5347 58.0858 66.5646 57.9761 66.6277L50.7922 70.6882C50.2805 70.9772 49.9615 71.5222 49.9648 72.1103L49.9848 81.5637L58.8467 76.4001L59.0228 67.2524C59.0261 66.9965 58.8998 66.7673 58.6805 66.6377C58.5676 66.5712 58.4446 66.538 58.3217 66.538V66.5347Z" fill="white"/>
<path d="M71.1942 122.055L117.109 95.4296C117.982 94.9278 117.986 93.6685 117.109 93.1634L93.1911 79.3938C92.4102 78.9452 91.4466 78.9419 90.6624 79.3904L44.2895 106.169C43.482 106.631 43.4854 107.794 44.2928 108.252L68.6755 122.062C69.4563 122.504 70.41 122.5 71.1908 122.055H71.1942Z" fill="#5B80FF"/>
<path d="M67.1835 71.7813L67.1636 61.896C67.1636 61.248 67.5125 60.6499 68.074 60.3276L75.2579 56.2671C75.8427 55.9382 76.5638 56.3668 76.5538 57.038L76.3744 66.4282L67.1802 71.7779L67.1835 71.7813Z" fill="#2F3C63"/>
<path d="M67.1836 71.9474C67.1537 71.9474 67.1271 71.9408 67.1006 71.9242C67.0474 71.8943 67.0175 71.8411 67.0175 71.7813L66.9976 61.896C66.9976 61.1882 67.3764 60.5336 67.9944 60.1847L75.1783 56.1243C75.5039 55.9382 75.8927 55.9448 76.215 56.1376C76.5373 56.3303 76.7267 56.6692 76.7201 57.0447L76.5406 66.4349C76.5406 66.4914 76.5074 66.5446 76.4576 66.5745L67.2634 71.9242C67.2368 71.9408 67.2069 71.9474 67.1803 71.9474H67.1836ZM75.6867 56.3236C75.567 56.3236 75.4507 56.3535 75.3411 56.4167L68.1572 60.4771C67.6455 60.7662 67.3265 61.3112 67.3298 61.8993L67.3498 71.4955L76.2117 66.3385L76.3878 57.0414C76.3911 56.7855 76.2648 56.5562 76.0455 56.4266C75.9326 56.3602 75.8096 56.327 75.6867 56.327V56.3236Z" fill="white"/>
<path d="M43.532 86.7339H44.7249V104.464C44.7249 104.783 44.4657 105.042 44.1467 105.042H44.1101C43.7912 105.042 43.532 104.783 43.532 104.464V86.7339V86.7339Z" fill="white"/>
<path d="M44.1468 105.212H44.1103C43.6982 105.212 43.366 104.877 43.366 104.468V86.7374C43.366 86.6444 43.4391 86.5713 43.5321 86.5713H44.725C44.818 86.5713 44.8911 86.6444 44.8911 86.7374V104.468C44.8911 104.88 44.5555 105.212 44.1468 105.212V105.212ZM43.6982 86.9002V104.465C43.6982 104.694 43.8843 104.877 44.1103 104.877H44.1468C44.3728 104.877 44.5588 104.69 44.5588 104.465V86.9002H43.6982V86.9002Z" fill="white"/>
<path d="M64.1333 97.2236H65.3262V116.416C65.3262 116.735 65.067 116.994 64.748 116.994H64.7115C64.3925 116.994 64.1333 116.735 64.1333 116.416V97.2236V97.2236Z" fill="white"/>
<path d="M64.7481 117.164H64.7116C64.2996 117.164 63.9673 116.828 63.9673 116.42V97.2272C63.9673 97.1341 64.0404 97.061 64.1334 97.061H65.3263C65.4193 97.061 65.4924 97.1341 65.4924 97.2272V116.42C65.4924 116.832 65.1568 117.164 64.7481 117.164V117.164ZM64.2996 97.39V116.416C64.2996 116.646 64.4856 116.828 64.7116 116.828H64.7481C64.9741 116.828 65.1602 116.642 65.1602 116.416V97.39H64.2996V97.39Z" fill="white"/>
<path d="M107.462 77.5764H108.655V94.0774C108.655 94.3964 108.396 94.6556 108.077 94.6556H108.041C107.722 94.6556 107.462 94.3964 107.462 94.0774V77.5764V77.5764Z" fill="white"/>
<path d="M108.077 94.825H108.041C107.629 94.825 107.296 94.4894 107.296 94.0807V77.5797C107.296 77.4867 107.369 77.4136 107.463 77.4136H108.655C108.748 77.4136 108.822 77.4867 108.822 77.5797V94.0807C108.822 94.4927 108.486 94.825 108.077 94.825V94.825ZM107.629 77.7425V94.0774C107.629 94.3067 107.815 94.4894 108.041 94.4894H108.077C108.303 94.4894 108.489 94.3033 108.489 94.0774V77.7425H107.629V77.7425Z" fill="white"/>
<path d="M88.7551 86.4513H88.7119C88.147 86.4513 87.6885 85.9928 87.6885 85.4279V69.4353C87.6885 69.2526 87.838 69.103 88.0208 69.103H89.4429C89.6257 69.103 89.7752 69.2526 89.7752 69.4353V85.4279C89.7752 85.9928 89.3167 86.4513 88.7518 86.4513H88.7551ZM88.3564 69.7709V85.4312C88.3564 85.6273 88.5159 85.7901 88.7152 85.7901H88.7584C88.9545 85.7901 89.1173 85.6306 89.1173 85.4312V69.7709H88.3597H88.3564Z" fill="#2F3C63"/>
<path d="M66.9943 102.8L113.593 75.7686L86.4426 60.1382L39.5181 87.2389L66.9943 102.8Z" fill="#2F3C63"/>
<path d="M66.9944 102.966C66.9678 102.966 66.9379 102.959 66.9113 102.946L39.4351 87.3853C39.382 87.3554 39.3521 87.3022 39.3521 87.2424C39.3521 87.1826 39.382 87.1261 39.4351 87.0962L86.3596 59.9922C86.4095 59.9623 86.4726 59.9623 86.5258 59.9922L113.676 75.6226C113.73 75.6525 113.759 75.7057 113.759 75.7655C113.759 75.8253 113.73 75.8784 113.676 75.9083L67.0775 102.939C67.0509 102.953 67.0243 102.963 66.9944 102.963V102.966ZM39.8538 87.2391L66.9944 102.61L113.261 75.7721L86.4427 60.3311L39.8538 87.2424V87.2391Z" fill="white"/>
<path d="M101.259 109.967C101.076 109.967 100.927 109.817 100.927 109.634V100.221C100.927 100.038 101.076 99.8887 101.259 99.8887C101.442 99.8887 101.591 100.038 101.591 100.221V109.634C101.591 109.817 101.442 109.967 101.259 109.967Z" fill="white"/>
<path d="M111.885 104.657C111.702 104.657 111.553 104.507 111.553 104.325V94.0606C111.553 93.8778 111.702 93.7283 111.885 93.7283C112.068 93.7283 112.217 93.8778 112.217 94.0606V104.325C112.217 104.507 112.068 104.657 111.885 104.657Z" fill="white"/>
<path d="M92.7393 104.085C92.5565 104.085 92.407 103.936 92.407 103.753V94.7283C92.407 94.5455 92.5565 94.396 92.7393 94.396C92.922 94.396 93.0715 94.5455 93.0715 94.7283V103.753C93.0715 103.936 92.922 104.085 92.7393 104.085Z" fill="white"/>
<path d="M101.345 100.231C101.345 100.231 94.9122 96.6259 92.8687 95.2868C92.45 95.011 92.4533 94.3996 92.8687 94.1271L101.166 89.2293C101.624 88.9303 102.212 88.9203 102.684 89.2027L102.674 88.2856" fill="#2F3C63"/>
<path d="M101.345 100.397C101.319 100.397 101.289 100.391 101.266 100.377C101.202 100.341 94.806 96.7555 92.7791 95.4264C92.5366 95.2669 92.3904 94.9978 92.3904 94.7087C92.3904 94.4163 92.5366 94.1471 92.7791 93.991L101.083 89.0898C101.505 88.814 102.046 88.7609 102.515 88.9403L102.508 88.2924C102.508 88.1993 102.581 88.1262 102.674 88.1262C102.764 88.1262 102.841 88.1993 102.841 88.2924L102.851 89.2095C102.851 89.2693 102.821 89.3257 102.767 89.3556C102.714 89.3856 102.651 89.3856 102.598 89.3556C102.186 89.1098 101.661 89.1164 101.256 89.3789L92.9519 94.28C92.8057 94.3764 92.7193 94.5359 92.7193 94.7186C92.7193 94.8981 92.8057 95.0609 92.9553 95.1606C94.9722 96.483 101.359 100.065 101.422 100.102C101.501 100.145 101.531 100.248 101.485 100.328C101.455 100.381 101.398 100.414 101.339 100.414L101.345 100.397Z" fill="white"/>
<path d="M101.345 100.231L102.95 85.8498C102.987 85.5175 103.18 85.2218 103.469 85.0523L113.683 79.0946C114.181 78.8022 114.793 79.2341 114.686 79.8023L112.032 94.0006L101.345 100.234V100.231Z" fill="#2F3C63"/>
<path d="M101.345 100.397C101.315 100.397 101.282 100.387 101.256 100.371C101.203 100.337 101.173 100.274 101.183 100.214L102.787 85.8333C102.831 85.4479 103.057 85.1056 103.389 84.9096L113.603 78.9518C113.889 78.7857 114.238 78.799 114.51 78.9917C114.783 79.1844 114.912 79.5067 114.853 79.8323L112.198 94.0306C112.188 94.0772 112.161 94.1204 112.118 94.1436L101.432 100.377C101.405 100.394 101.375 100.4 101.349 100.4L101.345 100.397ZM114.025 79.1645C113.939 79.1645 113.849 79.1877 113.769 79.2342L103.555 85.192C103.312 85.3349 103.15 85.5841 103.116 85.8665L101.548 99.9186L111.885 93.8878L114.527 79.7626C114.563 79.5632 114.487 79.3705 114.321 79.2542C114.231 79.191 114.132 79.1578 114.028 79.1578L114.025 79.1645Z" fill="white"/>
<path d="M80.7307 121.923C80.548 121.923 80.3984 121.773 80.3984 121.59V112.177C80.3984 111.994 80.548 111.845 80.7307 111.845C80.9135 111.845 81.063 111.994 81.063 112.177V121.59C81.063 121.773 80.9135 121.923 80.7307 121.923Z" fill="white"/>
<path d="M91.3569 116.613C91.1742 116.613 91.0247 116.463 91.0247 116.28V106.016C91.0247 105.834 91.1742 105.684 91.3569 105.684C91.5397 105.684 91.6892 105.834 91.6892 106.016V116.28C91.6892 116.463 91.5397 116.613 91.3569 116.613Z" fill="white"/>
<path d="M72.2075 116.041C72.0248 116.041 71.8752 115.892 71.8752 115.709V106.684C71.8752 106.502 72.0248 106.352 72.2075 106.352C72.3903 106.352 72.5398 106.502 72.5398 106.684V115.709C72.5398 115.892 72.3903 116.041 72.2075 116.041Z" fill="white"/>
<path d="M80.817 112.187C80.817 112.187 74.3841 108.582 72.3406 107.243C71.9219 106.967 71.9252 106.356 72.3406 106.083L80.6376 101.185C81.0962 100.886 81.6843 100.876 82.1561 101.159L82.1462 100.242" fill="#2F3C63"/>
<path d="M80.817 112.353C80.7904 112.353 80.7605 112.347 80.7373 112.333C80.6741 112.297 74.2777 108.712 72.2508 107.382C72.0083 107.223 71.8621 106.954 71.8621 106.665C71.8621 106.372 72.0083 106.107 72.2542 105.947L80.5578 101.046C80.9798 100.77 81.5181 100.717 81.9899 100.896L81.9833 100.248C81.9833 100.155 82.0564 100.082 82.1494 100.082C82.2392 100.082 82.3156 100.155 82.3156 100.248L82.3256 101.166C82.3256 101.225 82.2956 101.282 82.2425 101.312C82.1893 101.342 82.1262 101.342 82.073 101.312C81.661 101.063 81.136 101.072 80.7306 101.335L72.4269 106.236C72.2807 106.332 72.1943 106.492 72.1943 106.671C72.1943 106.851 72.2807 107.014 72.4303 107.113C74.4472 108.436 80.8336 112.018 80.8967 112.054C80.9765 112.098 81.0064 112.201 80.9599 112.28C80.93 112.333 80.8735 112.367 80.8137 112.367L80.817 112.353Z" fill="white"/>
<path d="M80.8171 112.187L82.4221 97.8061C82.4586 97.4738 82.6513 97.1781 82.9404 97.0086L93.1547 91.0509C93.6531 90.7585 94.2645 91.1904 94.1582 91.7586L91.5033 105.957L80.8171 112.19V112.187Z" fill="#2F3C63"/>
<path d="M80.8171 112.353C80.7872 112.353 80.7539 112.343 80.7273 112.327C80.6742 112.293 80.6443 112.23 80.6542 112.17L82.2592 97.7894C82.3023 97.4039 82.5283 97.0617 82.8606 96.8656L93.0749 90.9079C93.3639 90.7417 93.7095 90.755 93.982 90.9477C94.2544 91.1405 94.384 91.4628 94.3242 91.7884L91.6693 105.987C91.6593 106.033 91.6328 106.076 91.5896 106.1L80.9035 112.333C80.8769 112.35 80.847 112.357 80.8204 112.357L80.8171 112.353ZM93.4969 91.1205C93.4105 91.1205 93.3207 91.1438 93.241 91.1936L83.0267 97.1514C82.7842 97.2943 82.6213 97.5435 82.5881 97.8259L81.0198 111.878L91.357 105.847L93.9986 91.7219C94.0351 91.5226 93.9587 91.3299 93.7926 91.2136C93.7029 91.1504 93.6032 91.1172 93.5002 91.1172L93.4969 91.1205Z" fill="white"/>
<path d="M51.3503 121.075C51.1676 121.075 51.0181 120.925 51.0181 120.743V111.329C51.0181 111.146 51.1676 110.997 51.3503 110.997C51.5331 110.997 51.6826 111.146 51.6826 111.329V120.743C51.6826 120.925 51.5331 121.075 51.3503 121.075Z" fill="white"/>
<path d="M40.7239 115.765C40.5411 115.765 40.3916 115.616 40.3916 115.433V105.169C40.3916 104.986 40.5411 104.837 40.7239 104.837C40.9066 104.837 41.0562 104.986 41.0562 105.169V115.433C41.0562 115.616 40.9066 115.765 40.7239 115.765Z" fill="white"/>
<path d="M59.8701 115.194C59.6874 115.194 59.5378 115.044 59.5378 114.862V105.837C59.5378 105.654 59.6874 105.505 59.8701 105.505C60.0529 105.505 60.2024 105.654 60.2024 105.837V114.862C60.2024 115.044 60.0529 115.194 59.8701 115.194Z" fill="white"/>
<path d="M51.2639 111.339C51.2639 111.339 57.6968 107.734 59.7403 106.395C60.159 106.119 60.1557 105.508 59.7403 105.236L51.4433 100.338C50.9848 100.039 50.3966 100.029 49.9248 100.311L49.9348 99.394" fill="#2F3C63"/>
<path d="M51.2639 111.505C51.2074 111.505 51.1509 111.476 51.1177 111.419C51.0745 111.339 51.1011 111.236 51.1808 111.193C51.244 111.157 57.6304 107.578 59.6473 106.252C59.8002 106.152 59.8833 105.993 59.8833 105.81C59.8833 105.631 59.7969 105.468 59.644 105.368L51.3536 100.474C50.9449 100.208 50.4199 100.198 50.0079 100.447C49.9581 100.477 49.8916 100.48 49.8384 100.447C49.7853 100.417 49.7554 100.361 49.7554 100.301L49.762 99.3839C49.762 99.2942 49.8384 99.2178 49.9282 99.2178C50.0212 99.2178 50.0943 99.2942 50.0943 99.3839L50.0877 100.032C50.5595 99.8524 51.0978 99.9056 51.5264 100.185L59.8168 105.079C60.066 105.242 60.2122 105.511 60.2122 105.8C60.2122 106.093 60.0693 106.358 59.8234 106.521C57.7965 107.85 51.4035 111.436 51.337 111.472C51.3104 111.486 51.2839 111.492 51.2573 111.492L51.2639 111.505Z" fill="white"/>
<path d="M51.2638 111.34L49.6589 96.9584C49.6224 96.6262 49.4297 96.3304 49.1406 96.161L38.9263 90.2032C38.4279 89.9108 37.8165 90.3428 37.9228 90.911L40.5777 105.109L51.2638 111.343V111.34Z" fill="#2F3C63"/>
<path d="M51.264 111.505C51.2341 111.505 51.2076 111.499 51.181 111.482L40.4949 105.249C40.455 105.225 40.4251 105.182 40.4151 105.136L37.7602 90.9373C37.7004 90.6084 37.83 90.2861 38.1025 90.0967C38.3749 89.9039 38.7238 89.8906 39.0096 90.0568L49.2239 96.0146C49.5561 96.2106 49.7821 96.5562 49.8253 96.9383L51.4302 111.319C51.4368 111.382 51.4069 111.442 51.3571 111.476C51.3305 111.492 51.2973 111.502 51.2674 111.502L51.264 111.505ZM40.7275 104.999L51.0647 111.03L49.4963 96.9782C49.4664 96.699 49.3003 96.4465 49.0577 96.3036L38.8434 90.3459C38.6673 90.2429 38.4613 90.2495 38.2952 90.3691C38.129 90.4854 38.0493 90.6781 38.0892 90.8775L40.7308 105.003L40.7275 104.999Z" fill="white"/>
</svg>
