<svg width="151" height="154" viewBox="0 0 151 154" fill="none" xmlns="http://www.w3.org/2000/svg">
<path d="M69.289 61.9565L2.17407 100.828L81.2918 146.245L148.174 107.782L69.289 61.9565Z" fill="#8DAEFF"/>
<path d="M81.2919 146.424C81.2597 146.424 81.2311 146.417 81.2025 146.399L2.08475 100.985C2.03112 100.953 1.99536 100.895 1.99536 100.831C1.99536 100.767 2.02754 100.709 2.08475 100.677L69.1997 61.8061C69.2533 61.7739 69.3248 61.7739 69.3784 61.8061L148.264 107.631C148.317 107.663 148.353 107.721 148.353 107.785C148.353 107.849 148.317 107.907 148.264 107.939L81.3813 146.402C81.3526 146.417 81.324 146.427 81.2919 146.427V146.424ZM2.53168 100.827L81.2919 146.038L147.817 107.781L69.2891 62.1636L2.53168 100.827Z" fill="white"/>
<path d="M148.174 107.749C148.146 107.749 148.113 107.742 148.085 107.724L69.2888 62.1636L2.40985 100.899C2.32404 100.949 2.21678 100.92 2.16672 100.835C2.11666 100.749 2.14527 100.641 2.23108 100.591L69.1958 61.8061C69.2495 61.7739 69.321 61.7739 69.3746 61.8061L148.26 107.42C148.346 107.47 148.374 107.578 148.324 107.663C148.292 107.721 148.231 107.753 148.171 107.753L148.174 107.749Z" fill="white"/>
<path d="M81.2916 153.771C81.2594 153.771 81.2308 153.764 81.2022 153.746L0.0893864 106.852C0.0357546 106.82 0 106.762 0 106.698V40.0358C0 39.9714 0.0321791 39.9142 0.0893864 39.882L68.8061 0.0241335C68.8633 -0.00804451 68.9313 -0.00804451 68.9849 0.0241335L150.545 47.1114C150.598 47.1435 150.634 47.2007 150.634 47.2651V113.341C150.634 113.405 150.602 113.463 150.545 113.495L81.3774 153.746C81.3488 153.76 81.3202 153.771 81.288 153.771H81.2916ZM0.357546 106.594L81.2916 153.385L150.28 113.237V47.3688L68.8955 0.385243L0.357546 40.1394V106.594Z" fill="white"/>
<path d="M81.2917 146.423C81.2309 146.423 81.1701 146.391 81.1379 146.334C81.0879 146.248 81.1165 146.141 81.2023 146.091L150.37 106.24C150.455 106.19 150.563 106.219 150.613 106.305C150.663 106.39 150.634 106.498 150.548 106.548L81.381 146.398C81.3524 146.413 81.3238 146.423 81.2917 146.423Z" fill="white"/>
<path d="M81.2917 146.423C81.2631 146.423 81.2309 146.416 81.2023 146.398L0.200317 99.6363C0.114506 99.5862 0.0859026 99.479 0.135959 99.3932C0.186015 99.3074 0.293279 99.2788 0.37909 99.3288L81.3811 146.094C81.4669 146.144 81.4955 146.252 81.4454 146.337C81.4133 146.395 81.3525 146.427 81.2917 146.427V146.423Z" fill="white"/>
<path d="M148.26 48.5021C148.231 48.5021 148.199 48.4949 148.171 48.4771L66.8253 1.51497C66.7395 1.46492 66.7109 1.35766 66.761 1.27185C66.811 1.18604 66.9183 1.15744 67.0041 1.20749L148.349 48.1696C148.435 48.2196 148.464 48.3269 148.414 48.4127C148.382 48.4699 148.321 48.5021 148.26 48.5021Z" fill="white"/>
<path d="M148.253 107.545C148.153 107.545 148.074 107.467 148.074 107.366V48.3233C148.074 48.2232 148.153 48.1445 148.253 48.1445C148.353 48.1445 148.432 48.2232 148.432 48.3233V107.366C148.432 107.467 148.353 107.545 148.253 107.545Z" fill="white"/>
<path d="M2.32062 101.006C2.22051 101.006 2.14185 100.927 2.14185 100.827V41.4014C2.14542 41.337 2.1776 41.2798 2.23481 41.2476L70.5725 1.04294C70.6583 0.992886 70.7656 1.02149 70.8157 1.1073C70.8657 1.1931 70.8371 1.30036 70.7513 1.35042L2.50297 41.5015V100.827C2.49939 100.927 2.41716 101.006 2.32062 101.006Z" fill="white"/>
<path d="M148.26 48.5022C148.192 48.5022 148.131 48.4665 148.099 48.4021C148.056 48.3127 148.092 48.2055 148.181 48.1626L150.38 47.1043C150.469 47.0614 150.577 47.0971 150.62 47.1865C150.663 47.2759 150.627 47.3832 150.537 47.4261L148.338 48.4844C148.313 48.4951 148.288 48.5022 148.26 48.5022Z" fill="white"/>
<path d="M81.2917 146.245V153.592L150.459 113.341V106.397L81.2917 146.245Z" fill="#FCE72D"/>
<path d="M81.2916 153.771C81.2594 153.771 81.2308 153.764 81.2022 153.746C81.145 153.714 81.1128 153.656 81.1128 153.592V146.245C81.1128 146.18 81.1485 146.123 81.2022 146.091L150.369 106.24C150.427 106.208 150.495 106.208 150.548 106.24C150.605 106.272 150.638 106.33 150.638 106.394V113.337C150.638 113.402 150.605 113.459 150.548 113.491L81.381 153.742C81.3523 153.756 81.3237 153.767 81.2916 153.767V153.771ZM81.4703 146.348V153.281L150.28 113.237V106.705L81.4703 146.348Z" fill="white"/>
<path d="M0.28955 99.479L81.2915 146.244V153.592L0.178711 106.698L0.28955 99.479Z" fill="#FCE72D"/>
<path d="M81.2916 153.771C81.2594 153.771 81.2308 153.764 81.2022 153.746L0.0893864 106.851C0.0321791 106.819 0 106.759 0 106.694L0.110839 99.4791C0.110839 99.4148 0.146594 99.3576 0.200226 99.3254C0.253858 99.2932 0.321791 99.2932 0.378999 99.3254L81.381 146.091C81.4346 146.123 81.4704 146.18 81.4704 146.245V153.592C81.4704 153.656 81.4346 153.713 81.381 153.746C81.3524 153.76 81.3238 153.771 81.2916 153.771ZM0.357546 106.594L81.1093 153.281V146.348L0.46481 99.7866L0.361121 106.594H0.357546Z" fill="white"/>
<path d="M2.36704 41.519C2.33844 41.519 2.30626 41.5119 2.27766 41.494L0.0894775 40.2283C0.00366647 40.1783 -0.0249372 40.071 0.0251192 39.9852C0.0751756 39.8994 0.182439 39.8708 0.26825 39.9209L2.45643 41.1865C2.54224 41.2366 2.57085 41.3439 2.52079 41.4297C2.48861 41.4869 2.42783 41.519 2.36704 41.519Z" fill="white"/>
<path d="M65.7954 77.4518L87.6021 90.0406V44.3549L65.7954 31.7661V77.4518Z" fill="#2F3C63"/>
<path d="M87.6022 90.2187C87.57 90.2187 87.5414 90.2116 87.5128 90.1937L65.7061 77.6049C65.6525 77.5728 65.6167 77.5156 65.6167 77.4512V31.7655C65.6167 31.7012 65.6525 31.644 65.7061 31.6118C65.7597 31.5796 65.8312 31.5796 65.8849 31.6118L87.6916 44.2006C87.7452 44.2327 87.781 44.2899 87.781 44.3543V90.04C87.781 90.1043 87.7452 90.1615 87.6916 90.1937C87.663 90.208 87.6344 90.2187 87.6022 90.2187ZM65.9742 77.3475L87.4234 89.7325V44.458L65.9742 32.073V77.3475Z" fill="white"/>
<path d="M87.6023 44.3547L100.789 36.7393V82.3677L87.6023 90.0404V44.3547Z" fill="#2F3C63"/>
<path d="M87.6024 90.2191C87.5702 90.2191 87.5416 90.2119 87.513 90.194C87.4593 90.1619 87.4236 90.1047 87.4236 90.0403V44.3546C87.4236 44.2903 87.4593 44.2331 87.513 44.2009L100.703 36.5854C100.756 36.5532 100.828 36.5532 100.882 36.5854C100.935 36.6176 100.971 36.6748 100.971 36.7392V82.3676C100.971 82.432 100.939 82.4892 100.882 82.5214L87.6917 90.194C87.6631 90.2083 87.6345 90.2191 87.6024 90.2191ZM87.7811 44.4583V89.7293L100.613 82.2639V37.0502L87.7811 44.4583Z" fill="white"/>
<path d="M65.7954 31.7657L79.6718 24.6079L100.788 36.739L87.6021 44.3545L65.7954 31.7657Z" fill="#2F3C63"/>
<path d="M87.6024 44.5336C87.5702 44.5336 87.5416 44.5264 87.513 44.5086L65.7063 31.9198C65.6491 31.8876 65.6169 31.8268 65.6169 31.7625C65.6169 31.6981 65.6563 31.6373 65.7135 31.6087L79.5898 24.4509C79.6435 24.4223 79.7078 24.4259 79.7615 24.4545L100.878 36.5856C100.935 36.6178 100.967 36.675 100.967 36.7393C100.967 36.8037 100.932 36.8609 100.878 36.8931L87.6882 44.5086C87.6596 44.5229 87.631 44.5336 87.5989 44.5336H87.6024ZM66.1676 31.7732L87.6024 44.1474L100.435 36.7393L79.6721 24.812L66.1711 31.7732H66.1676Z" fill="white"/>
<path d="M87.6021 55.777L65.7954 43.5064L76.2894 37.8252L87.6021 44.3538V55.777Z" fill="#2F3C63"/>
<path d="M87.6022 55.9567C87.5736 55.9567 87.5414 55.9495 87.5128 55.9352L65.7061 43.6647C65.6489 43.6325 65.6131 43.5717 65.6167 43.5074C65.6167 43.443 65.6525 43.3822 65.7097 43.35L76.2072 37.6653C76.2608 37.6366 76.3288 37.6366 76.3824 37.6653L87.6916 44.1938C87.7452 44.226 87.781 44.2832 87.781 44.3476V55.7708C87.781 55.8351 87.7488 55.8923 87.6916 55.9245C87.663 55.9424 87.6308 55.9495 87.6022 55.9495V55.9567ZM66.1637 43.5109L87.4234 55.4704V44.4584L76.2894 38.0299L66.1673 43.5109H66.1637Z" fill="white"/>
<path d="M87.6021 67.1542L65.7954 54.9302L76.4324 49.5171L87.6021 55.7775V67.1542Z" fill="#2F3C63"/>
<path d="M87.6022 67.3331C87.5736 67.3331 87.5414 67.326 87.5164 67.3117L65.7097 55.0876C65.6525 55.0554 65.6167 54.9946 65.6167 54.9267C65.6167 54.8623 65.656 54.8016 65.7132 54.7694L76.3538 49.3563C76.4074 49.3277 76.4682 49.3313 76.5218 49.3563L87.688 55.6167C87.7452 55.6489 87.781 55.7097 87.781 55.774V67.1508C87.781 67.2151 87.7488 67.2723 87.6916 67.3045C87.663 67.3224 87.6308 67.3295 87.6022 67.3295V67.3331ZM66.1745 54.9374L87.4234 66.8504V55.8813L76.4289 49.7174L66.1745 54.9338V54.9374Z" fill="white"/>
<path d="M87.6021 77.8375L65.7954 66.307L76.4467 60.9011L87.6021 67.1544V77.8375Z" fill="#2F3C63"/>
<path d="M87.6022 78.0161C87.5736 78.0161 87.545 78.009 87.52 77.9947L65.7132 66.4642C65.6524 66.432 65.6167 66.3713 65.6167 66.3033C65.6167 66.2354 65.656 66.1746 65.7132 66.146L76.3681 60.7401C76.4217 60.7115 76.4825 60.7151 76.5361 60.7401L87.688 66.9934C87.7452 67.0256 87.781 67.0863 87.781 67.1507V77.8338C87.781 77.8982 87.7488 77.9554 87.6952 77.9875C87.6665 78.0054 87.6344 78.0126 87.6022 78.0126V78.0161ZM66.1852 66.3105L87.4234 77.5406V67.2579L76.4468 61.1048L66.1852 66.3105Z" fill="white"/>
<path d="M65.7956 77.6298C65.7312 77.6298 65.6704 77.5977 65.6382 77.5369C65.5918 77.4511 65.6204 77.3402 65.7097 77.2938L75.7568 71.7413C75.8426 71.6948 75.9534 71.7234 75.9999 71.8128C76.0464 71.8986 76.0178 72.0094 75.9284 72.0559L65.8814 77.6084C65.8528 77.6227 65.8242 77.6298 65.7956 77.6298Z" fill="white"/>
<path d="M87.6023 89.4967L109.409 102.089V56.3998L87.6023 43.811V89.4967Z" fill="#2F3C63"/>
<path d="M109.409 102.268C109.377 102.268 109.348 102.26 109.32 102.243L87.513 89.6538C87.4593 89.6216 87.4236 89.5644 87.4236 89.5V43.8144C87.4236 43.75 87.4593 43.6928 87.513 43.6606C87.5666 43.6284 87.6381 43.6284 87.6917 43.6606L109.498 56.2494C109.552 56.2816 109.588 56.3388 109.588 56.4031V102.089C109.588 102.153 109.552 102.21 109.498 102.243C109.47 102.257 109.441 102.268 109.409 102.268ZM87.7811 89.3964L109.23 101.781V56.5068L87.7811 44.1218V89.3964Z" fill="white"/>
<path d="M109.409 56.4L122.595 48.7881V94.4166L109.409 102.089V56.4Z" fill="#2F3C63"/>
<path d="M109.409 102.268C109.377 102.268 109.348 102.261 109.32 102.243C109.266 102.211 109.23 102.153 109.23 102.089V56.4035C109.23 56.3391 109.266 56.2819 109.32 56.2497L122.509 48.6342C122.563 48.6021 122.635 48.6021 122.688 48.6342C122.742 48.6664 122.778 48.7236 122.778 48.788V94.4165C122.778 94.4808 122.745 94.538 122.688 94.5702L109.498 102.243C109.47 102.257 109.441 102.268 109.409 102.268ZM109.588 56.5071V101.778L122.42 94.3128V49.0955L109.588 56.5036V56.5071Z" fill="white"/>
<path d="M87.6023 43.8111L101.479 36.6533L122.595 48.788L109.409 56.3999L87.6023 43.8111Z" fill="#2F3C63"/>
<path d="M109.409 56.5785C109.377 56.5785 109.349 56.5714 109.32 56.5535L87.5132 43.9647C87.456 43.9325 87.4238 43.8717 87.4238 43.8074C87.4238 43.743 87.4632 43.6823 87.5204 43.6537L101.397 36.4958C101.45 36.4672 101.515 36.4708 101.568 36.4994L122.685 48.6305C122.742 48.6627 122.774 48.7199 122.774 48.7843C122.774 48.8486 122.739 48.9058 122.685 48.938L109.495 56.5535C109.467 56.5678 109.438 56.5785 109.406 56.5785H109.409ZM87.9745 43.8181L109.409 56.1924L122.242 48.7843L101.479 36.8534L87.978 43.8145L87.9745 43.8181Z" fill="white"/>
<path d="M109.409 67.8226L87.6021 55.5521L98.096 49.8708L109.409 56.3994V67.8226Z" fill="#2F3C63"/>
<path d="M109.409 68.0014C109.38 68.0014 109.348 67.9943 109.32 67.98L87.513 55.7094C87.4558 55.6773 87.42 55.6165 87.4236 55.5521C87.4236 55.4878 87.4593 55.427 87.5166 55.3948L98.0141 49.7136C98.0677 49.685 98.1357 49.685 98.1893 49.7136L109.498 56.2422C109.552 56.2743 109.588 56.3315 109.588 56.3959V67.8191C109.588 67.8835 109.556 67.9407 109.498 67.9728C109.47 67.9907 109.438 67.9979 109.409 67.9979V68.0014ZM87.9706 55.5557L109.23 67.5152V56.5032L98.0963 50.0747L87.9742 55.5557H87.9706Z" fill="white"/>
<path d="M109.409 79.1996L87.6023 66.9756L98.2393 61.5625L109.409 67.8229V79.1996Z" fill="#2F3C63"/>
<path d="M109.409 79.3785C109.38 79.3785 109.348 79.3714 109.323 79.3571L87.5165 67.133C87.4593 67.1008 87.4236 67.04 87.4236 66.9721C87.4236 66.9077 87.4629 66.847 87.5201 66.8148L98.1571 61.4017C98.2107 61.3731 98.2715 61.3767 98.3252 61.4017L109.495 67.6621C109.552 67.6943 109.588 67.7551 109.588 67.8195V79.1962C109.588 79.2605 109.556 79.3178 109.498 79.3499C109.47 79.3678 109.438 79.375 109.409 79.375V79.3785ZM87.9814 66.9828L109.23 78.8959V67.9267L98.2358 61.7628L87.9814 66.9828Z" fill="white"/>
<path d="M109.409 89.8861L87.6023 78.3556L98.2536 72.9497L109.409 79.1994V89.8861Z" fill="#2F3C63"/>
<path d="M109.409 90.0652C109.38 90.0652 109.352 90.0581 109.327 90.0438L87.5201 78.5133C87.4593 78.4811 87.4236 78.4203 87.4236 78.3524C87.4236 78.2845 87.4629 78.2237 87.5201 78.1951L98.175 72.7892C98.2286 72.7606 98.2894 72.7641 98.343 72.7892L109.495 79.0424C109.552 79.0746 109.588 79.1354 109.588 79.1998V89.8829C109.588 89.9472 109.556 90.0044 109.502 90.0366C109.473 90.0545 109.441 90.0616 109.409 90.0616V90.0652ZM87.9921 78.3596L109.23 89.5897V79.307L98.2536 73.1539L87.9921 78.3596Z" fill="white"/>
<path d="M87.6024 89.6755C87.5381 89.6755 87.4773 89.6433 87.4451 89.5825C87.3986 89.4967 87.4272 89.3859 87.5166 89.3394L97.5637 83.7869C97.6495 83.7404 97.7603 83.769 97.8068 83.8584C97.8533 83.9442 97.8247 84.0551 97.7353 84.1015L87.6882 89.654C87.6596 89.6684 87.631 89.6755 87.6024 89.6755Z" fill="white"/>
</svg>
