<svg width="174" height="154" viewBox="0 0 174 154" fill="none" xmlns="http://www.w3.org/2000/svg">
<path d="M106.977 50.4753L1.78052 110.872L66.5799 147.872L171.589 87.8068L106.977 50.4753Z" fill="#8DAEFF"/>
<path d="M66.5799 148.017C66.5535 148.017 66.5301 148.012 66.5066 147.997L1.70724 110.998C1.66039 110.971 1.63403 110.925 1.63403 110.872C1.63403 110.82 1.66039 110.773 1.70724 110.747L106.904 50.3502C106.951 50.324 107.006 50.324 107.05 50.3502L171.659 87.6817C171.703 87.7079 171.732 87.7545 171.732 87.807C171.732 87.8594 171.703 87.906 171.659 87.9322L66.6501 147.997C66.6267 148.009 66.6033 148.017 66.5769 148.017H66.5799ZM2.07622 110.872L66.5799 147.703L171.296 87.804L106.98 50.6415L2.07622 110.869V110.872Z" fill="white"/>
<path d="M1.90073 110.948C1.85095 110.948 1.80117 110.922 1.77481 110.875C1.73382 110.806 1.75724 110.718 1.82752 110.677L106.904 50.3475C106.951 50.3213 107.007 50.3213 107.05 50.3475L171.659 87.5072C171.73 87.548 171.753 87.6353 171.712 87.7052C171.671 87.7751 171.58 87.7984 171.513 87.7577L106.977 50.6417L1.97394 110.928C1.95051 110.942 1.92416 110.948 1.90073 110.948Z" fill="white"/>
<path d="M66.5799 154C66.5535 154 66.5301 153.994 66.5067 153.98L0.0732097 115.777C0.0263555 115.751 0 115.704 0 115.652V61.3485C0 61.2961 0.0292839 61.2495 0.0732097 61.2233L106.585 0.0196604C106.629 -0.00655347 106.687 -0.00655347 106.731 0.0196604L173.531 38.3793C173.574 38.4055 173.604 38.4521 173.604 38.5046V92.3333C173.604 92.3857 173.577 92.4323 173.531 92.4585L66.6501 153.98C66.6267 153.991 66.6033 154 66.5769 154H66.5799ZM0.292839 115.568L66.5799 153.685L173.314 92.2488V38.589L106.658 0.313838L0.292839 61.433V115.568Z" fill="white"/>
<path d="M66.5799 148.018C66.5301 148.018 66.4804 147.991 66.454 147.945C66.413 147.875 66.4364 147.787 66.5067 147.747L173.387 86.5518C173.457 86.511 173.545 86.5343 173.586 86.6042C173.627 86.6741 173.604 86.7615 173.533 86.8023L66.6531 147.997C66.6297 148.009 66.6063 148.018 66.5799 148.018Z" fill="white"/>
<path d="M66.5801 148.018C66.5566 148.018 66.5303 148.012 66.5069 147.997L0.164191 109.9C0.09391 109.859 0.070485 109.772 0.111483 109.702C0.15248 109.632 0.24033 109.608 0.310611 109.649L66.6533 147.747C66.7236 147.788 66.747 147.875 66.706 147.945C66.6796 147.991 66.6298 148.018 66.5801 148.018Z" fill="white"/>
<path d="M171.659 39.5123C171.636 39.5123 171.609 39.5064 171.586 39.4919L104.962 1.23418C104.892 1.1934 104.869 1.10602 104.91 1.03612C104.951 0.966212 105.041 0.942911 105.109 0.983688L171.732 39.2414C171.803 39.2822 171.826 39.3695 171.785 39.4395C171.759 39.4861 171.709 39.5123 171.659 39.5123Z" fill="white"/>
<path d="M171.653 87.612C171.572 87.612 171.507 87.5479 171.507 87.4664V39.3668C171.507 39.2853 171.572 39.2212 171.653 39.2212C171.735 39.2212 171.8 39.2853 171.8 39.3668V87.4664C171.8 87.5479 171.735 87.612 171.653 87.612Z" fill="white"/>
<path d="M1.90057 111.018C1.81857 111.018 1.75415 110.954 1.75415 110.872V62.4581C1.75708 62.4057 1.78637 62.3591 1.83029 62.3329L108.031 0.849655C108.102 0.808878 108.189 0.832179 108.23 0.902083C108.271 0.971986 108.248 1.05937 108.178 1.10014L2.04992 62.5397V110.869C2.04699 110.951 1.98256 111.015 1.90057 111.015V111.018Z" fill="white"/>
<path d="M171.659 39.5125C171.604 39.5125 171.554 39.4834 171.528 39.4309C171.492 39.3581 171.522 39.2707 171.595 39.2358L173.396 38.3736C173.469 38.3387 173.557 38.3678 173.592 38.4406C173.627 38.5134 173.598 38.6008 173.525 38.6358L171.724 39.4979C171.703 39.5067 171.683 39.5125 171.659 39.5125Z" fill="white"/>
<path d="M66.5798 147.872V153.855L173.457 92.3336V86.6772L66.5798 147.872Z" fill="#FCE72D"/>
<path d="M66.58 154C66.5537 154 66.5302 153.994 66.5068 153.98C66.4629 153.954 66.4336 153.907 66.4336 153.855V147.869C66.4336 147.817 66.4629 147.77 66.5068 147.744L173.387 86.549C173.434 86.5227 173.49 86.5227 173.534 86.549C173.58 86.5752 173.607 86.6218 173.607 86.6742V92.3306C173.607 92.383 173.58 92.4296 173.534 92.4558L66.6532 153.977C66.6298 153.989 66.6064 153.997 66.58 153.997V154ZM66.7264 147.954V153.601L173.314 92.249V86.9276L66.7264 147.954Z" fill="white"/>
<path d="M0.237264 109.774L66.5799 147.871V153.854L0.146484 115.652L0.237264 109.774Z" fill="#FCE72D"/>
<path d="M66.5799 154C66.5535 154 66.5301 153.994 66.5067 153.979L0.0732097 115.777C0.0263555 115.751 0 115.701 0 115.649L0.0907794 109.771C0.0907794 109.719 0.120063 109.672 0.163989 109.646C0.207915 109.62 0.263554 109.62 0.310409 109.646L66.6531 147.743C66.697 147.77 66.7263 147.816 66.7263 147.869V153.854C66.7263 153.907 66.697 153.953 66.6531 153.979C66.6296 153.991 66.6062 154 66.5799 154ZM0.29577 115.567L66.4334 153.601V147.953L0.380687 110.022L0.29577 115.567Z" fill="white"/>
<path d="M43.932 77.1755C43.8822 77.1755 43.8324 77.1493 43.8061 77.1027C43.7651 77.0328 43.7885 76.9454 43.8588 76.9046L71.822 60.7947C71.8922 60.7539 71.9801 60.7772 72.0211 60.8472C72.0621 60.9171 72.0387 61.0044 71.9684 61.0452L44.0052 77.1551C43.9818 77.1697 43.9554 77.1755 43.932 77.1755Z" fill="white"/>
<path d="M43.9322 49.5727C43.8824 49.5727 43.8327 49.5465 43.8063 49.4999C43.7653 49.43 43.7887 49.3426 43.859 49.3018L71.8222 33.1919C71.8925 33.1512 71.9803 33.1745 72.0213 33.2444C72.0623 33.3143 72.0389 33.4017 71.9686 33.4424L44.0054 49.5523C43.982 49.5669 43.9557 49.5727 43.9322 49.5727Z" fill="white"/>
<path d="M57.9149 67.2755C57.8651 67.2755 57.8153 67.2493 57.789 67.2027C57.748 67.1328 57.7714 67.0454 57.8417 67.0047L70.0941 59.9444C70.1643 59.9036 70.2522 59.9269 70.2932 59.9968C70.3342 60.0667 70.3108 60.1541 70.2405 60.1949L57.9881 67.2551C57.9647 67.2697 57.9383 67.2755 57.9149 67.2755Z" fill="white"/>
<path d="M43.9318 77.1757C43.8498 77.1757 43.7854 77.1117 43.7854 77.0301V49.4269C43.7854 49.3453 43.8498 49.2812 43.9318 49.2812C44.0138 49.2812 44.0782 49.3453 44.0782 49.4269V77.0301C44.0782 77.1117 44.0138 77.1757 43.9318 77.1757Z" fill="white"/>
<path d="M71.895 61.0659C71.813 61.0659 71.7485 61.0018 71.7485 60.9202V33.317C71.7485 33.2355 71.813 33.1714 71.895 33.1714C71.9769 33.1714 72.0414 33.2355 72.0414 33.317V60.9202C72.0414 61.0018 71.9769 61.0659 71.895 61.0659Z" fill="white"/>
<path d="M70.2873 60.3202C70.2053 60.3202 70.1409 60.2561 70.1409 60.1746V34.2345C70.1409 34.1529 70.2053 34.0889 70.2873 34.0889C70.3693 34.0889 70.4337 34.1529 70.4337 34.2345V60.1746C70.4337 60.2561 70.3693 60.3202 70.2873 60.3202Z" fill="white"/>
<path d="M57.9147 69.1223C57.8327 69.1223 57.7683 69.0582 57.7683 68.9766V41.3734C57.7683 41.2919 57.8327 41.2278 57.9147 41.2278C57.9967 41.2278 58.0611 41.2919 58.0611 41.3734V68.9766C58.0611 69.0582 57.9967 69.1223 57.9147 69.1223Z" fill="white"/>
<path d="M56.2311 68.2541C56.1491 68.2541 56.0847 68.19 56.0847 68.1085V42.3431C56.0847 42.2616 56.1491 42.1975 56.2311 42.1975C56.3131 42.1975 56.3776 42.2616 56.3776 42.3431V68.1085C56.3776 68.19 56.3131 68.2541 56.2311 68.2541Z" fill="white"/>
<path d="M57.7043 69.122C57.6808 69.122 57.6545 69.1162 57.631 69.1017L56.12 68.2337C56.0497 68.1929 56.0263 68.1055 56.0673 68.0356C56.1083 67.9657 56.1991 67.9424 56.2664 67.9832L57.7775 68.8512C57.8477 68.8919 57.8712 68.9793 57.8302 69.0492C57.8038 69.0958 57.754 69.122 57.7043 69.122Z" fill="white"/>
<path d="M43.9288 75.2443C43.879 75.2443 43.8292 75.2181 43.8029 75.1715C43.7619 75.1016 43.7853 75.0142 43.8556 74.9734L56.108 67.9131C56.1783 67.8724 56.2661 67.8957 56.3071 67.9656C56.3481 68.0355 56.3247 68.1228 56.2544 68.1636L44.002 75.2239C43.9786 75.2385 43.9522 75.2443 43.9288 75.2443Z" fill="white"/>
<path d="M57.915 41.3735L56.2312 42.3405V68.1088L57.915 68.9768V41.3735Z" fill="#2ACE6F"/>
<path d="M57.915 69.1225C57.8915 69.1225 57.8681 69.1167 57.8476 69.105L56.1667 68.2371C56.1169 68.2109 56.0876 68.1613 56.0876 68.1089V42.3436C56.0876 42.2912 56.114 42.2445 56.1609 42.2183L57.8417 41.2484C57.8886 41.2222 57.9442 41.2222 57.9882 41.2484C58.0321 41.2746 58.0614 41.3212 58.0614 41.3737V68.9769C58.0614 69.0264 58.035 69.0759 57.9911 69.1021C57.9677 69.1167 57.9413 69.1225 57.915 69.1225ZM56.3805 68.0215L57.7685 68.738V41.6271L56.3805 42.428V68.0215Z" fill="white"/>
<path d="M71.895 33.3167L70.2141 34.2866V60.0519L71.895 60.9199V33.3167Z" fill="#2ACE6F"/>
<path d="M71.8949 61.0659C71.8715 61.0659 71.8481 61.06 71.8276 61.0484L70.1467 60.1804C70.0969 60.1542 70.0676 60.1047 70.0676 60.0523V34.2869C70.0676 34.2345 70.094 34.1879 70.1408 34.1617L71.8217 33.1918C71.8686 33.1656 71.9242 33.1656 71.9681 33.1918C72.0121 33.218 72.0414 33.2646 72.0414 33.317V60.9202C72.0414 60.9698 72.015 61.0193 71.9711 61.0455C71.9477 61.06 71.9213 61.0659 71.8949 61.0659ZM70.3605 59.9649L71.7485 60.6814V33.5704L70.3605 34.3714V59.9649Z" fill="white"/>
<path d="M43.929 75.0988L56.2341 68.1084L57.9149 68.9764C57.9149 68.9764 43.9319 77.0095 43.9319 76.9483C43.9319 76.8871 43.929 75.1017 43.929 75.1017V75.0988Z" fill="#2ACE6F"/>
<path d="M43.8879 77.0823C43.8879 77.0823 43.8645 77.0794 43.8586 77.0736C43.8118 77.0474 43.7854 77.0008 43.7854 76.9483C43.7854 76.8872 43.7825 75.1017 43.7825 75.1017C43.7825 75.0493 43.8118 74.9998 43.8557 74.9736L56.1608 67.9832C56.2047 67.9599 56.2574 67.957 56.3013 67.9832L57.9822 68.8512C58.0291 68.8745 58.0613 68.924 58.0613 68.9764C58.0613 69.0288 58.0349 69.0783 57.9881 69.1046C45.1061 76.5056 44.0548 77.0852 43.8908 77.0852L43.8879 77.0823ZM44.0724 75.1833C44.0724 75.4512 44.0724 76.2901 44.0753 76.7066C45.4253 75.9668 53.2031 71.5104 57.6074 68.9793L56.234 68.2715L44.0724 75.1833Z" fill="white"/>
<path d="M57.9148 67.1297L70.214 60.052L71.8949 60.92L57.9148 68.9764V67.1297Z" fill="#2ACE6F"/>
<path d="M57.9147 69.1223C57.8884 69.1223 57.8649 69.1165 57.8415 69.1019C57.7976 69.0757 57.7683 69.0291 57.7683 68.9767V67.1329C57.7683 67.0805 57.7947 67.0339 57.8415 67.0077L70.1408 59.93C70.1847 59.9037 70.2374 59.9037 70.2813 59.927L71.9622 60.795C72.0091 60.8183 72.0384 60.8678 72.0413 60.9203C72.0413 60.9727 72.0149 61.0222 71.9681 61.0484L57.985 69.1048C57.9616 69.1165 57.9382 69.1252 57.9118 69.1252L57.9147 69.1223ZM58.0611 67.2174V68.7262L71.5932 60.9319L70.2198 60.2241L58.0611 67.2203V67.2174Z" fill="white"/>
<path d="M1.93851 62.5542C1.91508 62.5542 1.88873 62.5484 1.8653 62.5338L0.0731269 61.5027C0.00284556 61.462 -0.0205794 61.3746 0.020418 61.3047C0.0614155 61.2348 0.149265 61.2115 0.219546 61.2522L2.01172 62.2833C2.082 62.3241 2.10543 62.4115 2.06443 62.4814C2.03807 62.528 1.98829 62.5542 1.93851 62.5542Z" fill="white"/>
<path d="M150.08 64.6166C150.054 64.6166 150.03 64.6108 150.007 64.5962L123.991 49.6572C123.947 49.631 123.918 49.5844 123.918 49.532V23.2919C123.918 23.2103 123.982 23.1462 124.064 23.1462C124.146 23.1462 124.211 23.2103 124.211 23.2919V49.4475L149.934 64.2176V38.228C149.934 38.1464 149.998 38.0823 150.08 38.0823C150.162 38.0823 150.227 38.1464 150.227 38.228V64.4681C150.227 64.5205 150.197 64.5671 150.153 64.5933C150.13 64.605 150.107 64.6137 150.08 64.6137V64.6166Z" fill="white"/>
<path d="M151.471 36.1017C151.445 36.1017 151.421 36.0959 151.398 36.0813L122.99 19.7151C122.919 19.6744 122.896 19.587 122.937 19.5171C122.978 19.4472 123.069 19.4239 123.136 19.4646L151.544 35.8308C151.615 35.8716 151.638 35.959 151.597 36.0289C151.571 36.0755 151.521 36.1017 151.471 36.1017Z" fill="white"/>
<path d="M150.988 38.8978C150.965 38.8978 150.938 38.892 150.915 38.8774L122.398 22.5025C122.328 22.4617 122.304 22.3743 122.345 22.3044C122.386 22.2345 122.474 22.2112 122.544 22.252L151.061 38.6269C151.131 38.6677 151.155 38.7551 151.114 38.825C151.088 38.8716 151.038 38.8978 150.988 38.8978Z" fill="white"/>
<path d="M151.219 38.9505C151.114 38.9505 151.009 38.9185 150.915 38.8515C150.64 38.6592 150.473 38.2078 150.473 37.6427C150.473 36.798 150.839 36.0087 151.307 35.8427C151.477 35.7815 151.65 35.8077 151.796 35.9097C152.072 36.1019 152.236 36.5534 152.236 37.1155C152.236 37.9573 151.87 38.7466 151.404 38.9155C151.342 38.9388 151.278 38.9505 151.216 38.9505H151.219ZM151.492 36.1019C151.462 36.1019 151.436 36.1077 151.407 36.1165C151.099 36.2272 150.768 36.865 150.768 37.6427C150.768 38.0971 150.891 38.4786 151.085 38.6126C151.155 38.6621 151.228 38.6709 151.307 38.6417C151.615 38.5311 151.946 37.8903 151.946 37.1155C151.946 36.6611 151.823 36.2825 151.629 36.1456C151.585 36.1136 151.542 36.099 151.495 36.099L151.492 36.1019Z" fill="white"/>
<path d="M122.489 22.5198C122.468 22.5198 122.448 22.5168 122.43 22.5081C122.099 22.3625 121.894 21.879 121.894 21.2469C121.894 20.4023 122.26 19.6129 122.729 19.4469C122.864 19.4003 122.998 19.4032 123.124 19.4586C123.197 19.4906 123.23 19.578 123.197 19.6508C123.165 19.7236 123.077 19.7556 123.004 19.7236C122.949 19.7003 122.89 19.6974 122.828 19.7207C122.521 19.8314 122.19 20.4692 122.19 21.2469C122.19 21.8207 122.377 22.1644 122.553 22.2431C122.626 22.2751 122.662 22.3625 122.626 22.4353C122.603 22.4906 122.547 22.5227 122.492 22.5227L122.489 22.5198Z" fill="white"/>
<path d="M55.27 87.7096L55.2524 79.1726C55.2524 78.6046 55.5599 78.0803 56.0548 77.7978L62.386 74.2385C62.9014 73.9502 63.5369 74.3259 63.5281 74.9143L63.3699 83.0144L55.2671 87.7096H55.27Z" fill="#2F3C63"/>
<path d="M55.2702 87.8556C55.2438 87.8556 55.2204 87.8497 55.197 87.8352C55.1501 87.8089 55.1238 87.7623 55.1238 87.7099L55.1062 79.1729C55.1062 78.5525 55.44 77.9787 55.9847 77.6729L62.3159 74.1137C62.6029 73.9505 62.9455 73.9564 63.2296 74.1253C63.5136 74.2942 63.6805 74.5913 63.6747 74.9205L63.5165 83.0205C63.5165 83.0701 63.4873 83.1167 63.4433 83.1429L55.3405 87.8381C55.317 87.8526 55.2907 87.8585 55.2673 87.8585L55.2702 87.8556ZM62.7639 74.2855C62.6585 74.2855 62.556 74.3117 62.4594 74.3671L56.1282 77.9263C55.6772 78.1797 55.399 78.6574 55.399 79.1729L55.4166 87.4594L63.2266 82.9332L63.3818 74.9146C63.3848 74.6904 63.2735 74.4894 63.0802 74.3758C62.9806 74.3175 62.8723 74.2884 62.7639 74.2884V74.2855Z" fill="white"/>
<path d="M42.0864 95.3001L42.0688 86.7631C42.0688 86.1952 42.3763 85.6709 42.8712 85.3884L49.2024 81.8291C49.7178 81.5408 50.3533 81.9165 50.3445 82.5048L50.1864 90.6049L42.0835 95.3001H42.0864Z" fill="#2F3C63"/>
<path d="M42.0866 95.4461C42.0602 95.4461 42.0368 95.4403 42.0134 95.4257C41.9665 95.3995 41.9402 95.3529 41.9402 95.3005L41.9226 86.7635C41.9226 86.1431 42.2564 85.5693 42.8011 85.2635L49.1323 81.7042C49.4193 81.5411 49.7619 81.5469 50.046 81.7159C50.33 81.8848 50.4969 82.1819 50.4911 82.511L50.333 90.6111C50.333 90.6606 50.3037 90.7072 50.2597 90.7335L42.1569 95.4287C42.1335 95.4432 42.1071 95.449 42.0837 95.449L42.0866 95.4461ZM49.5804 81.8761C49.4749 81.8761 49.3724 81.9023 49.2758 81.9576L42.9446 85.5169C42.4937 85.7703 42.2125 86.248 42.2154 86.7635L42.233 95.05L50.043 90.5237L50.1982 82.5052C50.2012 82.2809 50.0899 82.08 49.8966 81.9664C49.7971 81.9081 49.6887 81.879 49.5804 81.879V81.8761Z" fill="white"/>
<path d="M68.126 80.4603L68.1084 71.7951C68.1084 71.2272 68.4159 70.7029 68.9108 70.4204L75.242 66.8611C75.7573 66.5727 76.3928 66.9485 76.384 67.5368L76.2259 75.768L68.123 80.4574L68.126 80.4603Z" fill="#2F3C63"/>
<path d="M68.1259 80.606C68.0995 80.606 68.0761 80.6002 68.0527 80.5856C68.0058 80.5594 67.9795 80.5128 67.9795 80.4604L67.9619 71.7952C67.9619 71.1748 68.2958 70.6011 68.8404 70.2952L75.1716 66.736C75.4586 66.5729 75.8012 66.5787 76.0853 66.7476C76.3693 66.9165 76.5362 67.2136 76.5304 67.5428L76.3722 75.7739C76.3722 75.8234 76.343 75.87 76.299 75.8963L68.1962 80.5856C68.1728 80.5973 68.1464 80.606 68.123 80.606H68.1259ZM75.6196 66.9107C75.5142 66.9107 75.4117 66.9369 75.3151 66.9923L68.9839 70.5515C68.5329 70.8049 68.2518 71.2826 68.2548 71.7982L68.2723 80.2099L76.0823 75.6895L76.2375 67.5399C76.2405 67.3156 76.1292 67.1146 75.9359 67.001C75.8363 66.9428 75.728 66.9136 75.6196 66.9136V66.9107Z" fill="white"/>
<path d="M81.8364 72.6048L81.8188 64.0678C81.8188 63.4999 82.1263 62.9756 82.6212 62.6931L88.9524 59.1338C89.4678 58.8454 90.1032 59.2212 90.0945 59.8095L89.9363 67.9096L81.8335 72.6048H81.8364Z" fill="#2F3C63"/>
<path d="M81.8366 72.7508C81.8102 72.7508 81.7868 72.745 81.7634 72.7304C81.7165 72.7042 81.6902 72.6576 81.6902 72.6052L81.6726 64.0682C81.6726 63.4478 82.0064 62.874 82.5511 62.5682L88.8823 59.0089C89.1693 58.8458 89.5119 58.8516 89.796 59.0206C90.08 59.1895 90.2469 59.4866 90.2411 59.8157L90.0829 67.9158C90.0829 67.9653 90.0536 68.0119 90.0097 68.0381L81.9069 72.7333C81.8834 72.7479 81.8571 72.7537 81.8337 72.7537L81.8366 72.7508ZM89.3303 59.1808C89.2249 59.1808 89.1224 59.207 89.0258 59.2623L82.6946 62.8216C82.2436 63.075 81.9625 63.5527 81.9654 64.0682L81.983 72.3547L89.793 67.8284L89.9482 59.8099C89.9511 59.5856 89.8399 59.3846 89.6466 59.2711C89.547 59.2128 89.4387 59.1837 89.3303 59.1837V59.1808Z" fill="white"/>
<path d="M95.5735 64.784L95.5559 56.1189C95.5559 55.5509 95.8634 55.0266 96.3583 54.7441L102.689 51.1848C103.205 50.8965 103.84 51.2722 103.832 51.8606L103.673 60.0917L95.5705 64.7811L95.5735 64.784Z" fill="#2F3C63"/>
<path d="M95.5736 64.93C95.5473 64.93 95.5239 64.9242 95.5004 64.9096C95.4536 64.8834 95.4272 64.8368 95.4272 64.7844L95.4097 56.1192C95.4097 55.4988 95.7435 54.925 96.2882 54.6192L102.619 51.0599C102.906 50.8968 103.249 50.9027 103.533 51.0716C103.817 51.2405 103.984 51.5376 103.978 51.8667L103.82 60.0979C103.82 60.1474 103.791 60.194 103.747 60.2202L95.6439 64.9096C95.6205 64.9213 95.5941 64.93 95.5707 64.93H95.5736ZM103.067 51.2347C102.962 51.2347 102.859 51.2609 102.763 51.3163L96.4317 54.8755C95.9807 55.1289 95.7025 55.6066 95.7025 56.1221L95.7201 64.5339L103.53 60.0134L103.685 51.8638C103.688 51.6396 103.577 51.4386 103.384 51.325C103.284 51.2667 103.176 51.2376 103.067 51.2376V51.2347Z" fill="white"/>
<path d="M62.1609 129.88L133.388 88.9073C134.158 88.4675 134.161 87.3636 133.388 86.9208L112.31 74.8508C111.621 74.4576 110.772 74.4547 110.081 74.8479L38.4497 115.954C37.7381 116.359 37.741 117.378 38.4526 117.78L59.9412 129.885C60.6293 130.273 61.4698 130.27 62.158 129.88H62.1609Z" fill="#5B80FF"/>
<path d="M126.506 66.1275L126.524 57.4624C126.524 56.8944 126.216 56.3701 125.722 56.0876L119.39 52.5283C118.875 52.24 118.24 52.6157 118.248 53.2041L118.406 61.4352L126.509 66.1246L126.506 66.1275Z" fill="#2F3C63"/>
<path d="M126.506 66.2731C126.48 66.2731 126.457 66.2673 126.433 66.2527L118.33 61.5634C118.286 61.5371 118.257 61.4905 118.257 61.441L118.099 53.2099C118.093 52.8807 118.26 52.5836 118.544 52.4147C118.828 52.2458 119.171 52.2429 119.458 52.4031L125.789 55.9623C126.331 56.2681 126.667 56.8419 126.667 57.4623L126.65 66.1275C126.65 66.1799 126.621 66.2265 126.577 66.2527C126.553 66.2644 126.53 66.2731 126.503 66.2731H126.506ZM118.55 61.3536L126.36 65.8741L126.378 57.4623C126.378 56.9468 126.099 56.4691 125.648 56.2157L119.317 52.6565C119.121 52.5458 118.89 52.5487 118.696 52.6623C118.503 52.7759 118.392 52.9798 118.395 53.2011L118.55 61.3507V61.3536Z" fill="white"/>
<path d="M37.7791 98.9153H38.8303V114.457C38.8303 114.737 38.6019 114.964 38.3208 114.964H38.2886C38.0075 114.964 37.7791 114.737 37.7791 114.457V98.9153Z" fill="white"/>
<path d="M38.3207 115.113H38.2885C37.9254 115.113 37.6326 114.819 37.6326 114.46V98.9183C37.6326 98.8368 37.697 98.7727 37.779 98.7727H38.8303C38.9123 98.7727 38.9767 98.8368 38.9767 98.9183V114.46C38.9767 114.821 38.6809 115.113 38.3207 115.113ZM37.9254 99.0611V114.457C37.9254 114.658 38.0894 114.819 38.2885 114.819H38.3207C38.5199 114.819 38.6839 114.655 38.6839 114.457V99.0611H37.9254Z" fill="white"/>
<path d="M55.9348 108.11H56.9861V124.934C56.9861 125.213 56.7577 125.44 56.4766 125.44H56.4444C56.1632 125.44 55.9348 125.213 55.9348 124.934V108.11Z" fill="white"/>
<path d="M56.4767 125.589H56.4445C56.0814 125.589 55.7886 125.295 55.7886 124.937V108.113C55.7886 108.032 55.853 107.968 55.935 107.968H56.9863C57.0683 107.968 57.1327 108.032 57.1327 108.113V124.937C57.1327 125.298 56.8369 125.589 56.4767 125.589ZM56.0814 108.256V124.934C56.0814 125.135 56.2454 125.295 56.4445 125.295H56.4767C56.6759 125.295 56.8399 125.132 56.8399 124.934V108.256H56.0814Z" fill="white"/>
<path d="M128.74 70.4062H129.792V84.8705C129.792 85.1501 129.563 85.3773 129.282 85.3773H129.25C128.969 85.3773 128.74 85.1501 128.74 84.8705V70.4062Z" fill="white"/>
<path d="M129.282 85.5257H129.25C128.887 85.5257 128.594 85.2316 128.594 84.8733V70.4091C128.594 70.3275 128.659 70.2634 128.741 70.2634H129.792C129.874 70.2634 129.938 70.3275 129.938 70.4091V84.8733C129.938 85.2345 129.643 85.5257 129.282 85.5257ZM128.887 70.5518V84.8704C128.887 85.0714 129.051 85.2316 129.25 85.2316H129.282C129.482 85.2316 129.646 85.0684 129.646 84.8704V70.5518H128.887Z" fill="white"/>
<path d="M58.4563 113.001L133.988 69.6166L110.06 55.9126L34.2415 99.3607L58.4563 113.001Z" fill="#2F3C63"/>
<path d="M58.4565 113.146C58.4331 113.146 58.4067 113.141 58.3833 113.129L34.1684 99.4889C34.1216 99.4627 34.0952 99.4161 34.0952 99.3637C34.0952 99.3113 34.1216 99.2618 34.1684 99.2355L109.987 55.7904C110.031 55.7642 110.087 55.7642 110.134 55.7904L134.062 69.4915C134.109 69.5177 134.135 69.5644 134.135 69.6168C134.135 69.6692 134.109 69.7158 134.062 69.742L58.5297 113.126C58.5063 113.138 58.4828 113.146 58.4565 113.146ZM34.5374 99.3608L58.4565 112.835L133.696 69.6197L110.061 56.0846L34.5374 99.3608Z" fill="white"/>
<path d="M44.4852 128.007C44.3242 128.007 44.1924 127.876 44.1924 127.716V119.464C44.1924 119.304 44.3242 119.173 44.4852 119.173C44.6463 119.173 44.7781 119.304 44.7781 119.464V127.716C44.7781 127.876 44.6463 128.007 44.4852 128.007Z" fill="white"/>
<path d="M35.1171 123.352C34.956 123.352 34.8242 123.221 34.8242 123.061V114.064C34.8242 113.904 34.956 113.772 35.1171 113.772C35.2781 113.772 35.4099 113.904 35.4099 114.064V123.061C35.4099 123.221 35.2781 123.352 35.1171 123.352Z" fill="white"/>
<path d="M51.9935 122.848C51.8325 122.848 51.7007 122.717 51.7007 122.557V114.646C51.7007 114.486 51.8325 114.355 51.9935 114.355C52.1546 114.355 52.2864 114.486 52.2864 114.646V122.557C52.2864 122.717 52.1546 122.848 51.9935 122.848Z" fill="white"/>
<path d="M44.4089 119.473C44.4089 119.473 50.0783 116.313 51.8792 115.139C52.2482 114.897 52.2453 114.361 51.8792 114.122L44.567 109.829C44.1629 109.567 43.6446 109.558 43.2288 109.806L43.2376 109.002" fill="#2F3C63"/>
<path d="M44.4088 119.619C44.3591 119.619 44.3093 119.592 44.28 119.543C44.2419 119.473 44.2654 119.386 44.3356 119.345C44.3913 119.313 50.0196 116.176 51.7972 115.014C51.9319 114.926 52.008 114.787 52.0051 114.626C52.0051 114.469 51.9289 114.326 51.7942 114.239L44.4879 109.949C44.1277 109.716 43.665 109.707 43.3019 109.925C43.2551 109.952 43.1994 109.954 43.1526 109.925C43.1057 109.896 43.0793 109.85 43.0793 109.797L43.0852 108.996C43.0852 108.918 43.1526 108.851 43.2316 108.851C43.3136 108.851 43.378 108.918 43.378 108.996L43.3722 109.564C43.788 109.407 44.2624 109.454 44.6402 109.698L51.9465 113.989C52.1661 114.131 52.295 114.367 52.295 114.621C52.295 114.877 52.1691 115.11 51.9524 115.25C50.166 116.415 44.5318 119.557 44.4733 119.59C44.4498 119.601 44.4264 119.607 44.403 119.607L44.4088 119.619Z" fill="white"/>
<path d="M44.4088 119.472L42.9944 106.866C42.9622 106.575 42.7924 106.316 42.5376 106.167L33.5357 100.945C33.0965 100.689 32.5576 101.067 32.6514 101.565L34.9911 114.011L44.4088 119.475V119.472Z" fill="#2F3C63"/>
<path d="M44.409 119.618C44.3826 119.618 44.3592 119.612 44.3358 119.598L34.9181 114.134C34.8829 114.113 34.8566 114.075 34.8478 114.035L32.508 101.589C32.4553 101.3 32.5695 101.018 32.8096 100.852C33.0498 100.683 33.3572 100.671 33.6091 100.817L42.611 106.039C42.9038 106.208 43.1029 106.511 43.141 106.849L44.5554 119.455C44.5613 119.51 44.5349 119.563 44.491 119.592C44.4676 119.606 44.4383 119.615 44.4119 119.615L44.409 119.618ZM35.1231 113.915L44.2333 119.199L42.8511 106.881C42.8247 106.636 42.6783 106.415 42.4645 106.29L33.4627 101.067C33.3075 100.977 33.1259 100.986 32.9795 101.088C32.8331 101.19 32.7628 101.359 32.7979 101.533L35.126 113.915H35.1231Z" fill="white"/>
<path d="M123.291 100.231C123.13 100.231 122.998 100.1 122.998 99.94V91.6885C122.998 91.5283 123.13 91.3972 123.291 91.3972C123.452 91.3972 123.584 91.5283 123.584 91.6885V99.94C123.584 100.1 123.452 100.231 123.291 100.231Z" fill="white"/>
<path d="M132.656 95.577C132.495 95.577 132.363 95.446 132.363 95.2858V86.2886C132.363 86.1284 132.495 85.9973 132.656 85.9973C132.817 85.9973 132.949 86.1284 132.949 86.2886V95.2858C132.949 95.446 132.817 95.577 132.656 95.577Z" fill="white"/>
<path d="M115.783 95.0761C115.622 95.0761 115.49 94.945 115.49 94.7848V86.874C115.49 86.7138 115.622 86.5828 115.783 86.5828C115.944 86.5828 116.075 86.7138 116.075 86.874V94.7848C116.075 94.945 115.944 95.0761 115.783 95.0761Z" fill="white"/>
<path d="M123.367 91.6975C123.367 91.6975 117.698 88.5373 115.897 87.3635C115.528 87.1218 115.531 86.5858 115.897 86.347L123.209 82.0538C123.613 81.7916 124.131 81.7829 124.547 82.0305L124.538 81.2266" fill="#2F3C63"/>
<path d="M123.367 91.8429C123.343 91.8429 123.317 91.837 123.297 91.8254C123.241 91.7933 117.604 88.6506 115.817 87.4855C115.604 87.3457 115.475 87.1098 115.475 86.8564C115.475 86.6001 115.604 86.3671 115.82 86.2273L123.138 81.9311C123.513 81.6893 123.988 81.6427 124.401 81.8L124.395 81.2321C124.395 81.1505 124.459 81.0864 124.541 81.0864C124.62 81.0864 124.688 81.1505 124.688 81.2321L124.696 82.033C124.696 82.0855 124.67 82.135 124.623 82.1612C124.576 82.1874 124.521 82.1874 124.474 82.1612C124.111 81.9427 123.648 81.9544 123.291 82.1816L115.973 86.4778C115.844 86.5622 115.768 86.702 115.768 86.8622C115.768 87.0195 115.844 87.1622 115.976 87.2496C117.753 88.4088 123.382 91.5487 123.437 91.5807C123.507 91.6215 123.534 91.7089 123.493 91.7788C123.466 91.8254 123.417 91.8545 123.364 91.8545L123.367 91.8429Z" fill="white"/>
<path d="M123.367 91.6973L124.781 79.0913C124.814 78.8 124.983 78.5408 125.238 78.3923L134.24 73.1699C134.679 72.9136 135.218 73.2922 135.124 73.7903L132.785 86.236L123.367 91.7002V91.6973Z" fill="#2F3C63"/>
<path d="M123.367 91.8429C123.34 91.8429 123.311 91.8342 123.288 91.8197C123.241 91.7905 123.215 91.7352 123.223 91.6828L124.638 79.0768C124.676 78.7389 124.875 78.4389 125.168 78.2671L134.17 73.0447C134.424 72.8961 134.729 72.9107 134.969 73.0796C135.209 73.2486 135.323 73.5311 135.271 73.8165L132.931 86.2623C132.922 86.3031 132.899 86.341 132.861 86.3613L123.443 91.8255C123.42 91.84 123.393 91.8459 123.37 91.8459L123.367 91.8429ZM134.542 73.2311C134.465 73.2311 134.386 73.2515 134.316 73.2923L125.314 78.5147C125.1 78.6399 124.957 78.8583 124.928 79.1059L123.545 91.4235L132.656 86.14L134.984 73.7583C135.016 73.5806 134.949 73.4146 134.802 73.3127C134.723 73.2573 134.635 73.2282 134.544 73.2282L134.542 73.2311Z" fill="white"/>
<path d="M110.324 107.834C110.163 107.834 110.031 107.703 110.031 107.543V99.291C110.031 99.1308 110.163 98.9998 110.324 98.9998C110.485 98.9998 110.617 99.1308 110.617 99.291V107.543C110.617 107.703 110.485 107.834 110.324 107.834Z" fill="white"/>
<path d="M119.692 103.179C119.531 103.179 119.399 103.048 119.399 102.888V93.8909C119.399 93.7307 119.531 93.5996 119.692 93.5996C119.853 93.5996 119.985 93.7307 119.985 93.8909V102.888C119.985 103.048 119.853 103.179 119.692 103.179Z" fill="white"/>
<path d="M102.816 102.678C102.654 102.678 102.523 102.547 102.523 102.387V94.4763C102.523 94.3161 102.654 94.1851 102.816 94.1851C102.977 94.1851 103.108 94.3161 103.108 94.4763V102.387C103.108 102.547 102.977 102.678 102.816 102.678Z" fill="white"/>
<path d="M110.403 99.2998C110.403 99.2998 104.734 96.1396 102.933 94.9658C102.564 94.7241 102.567 94.1881 102.933 93.9493L110.245 89.6561C110.649 89.3939 111.168 89.3852 111.583 89.6327L111.575 88.8289" fill="#2F3C63"/>
<path d="M110.403 99.4454C110.38 99.4454 110.353 99.4396 110.333 99.4279C110.277 99.3959 104.64 96.2531 102.854 95.0881C102.64 94.9483 102.511 94.7123 102.511 94.4589C102.511 94.2026 102.64 93.9696 102.854 93.8298L110.172 89.5336C110.544 89.2919 111.021 89.2453 111.434 89.4026L111.428 88.8346C111.428 88.753 111.492 88.689 111.574 88.689C111.653 88.689 111.721 88.753 111.721 88.8346L111.73 89.6356C111.73 89.688 111.703 89.7375 111.656 89.7637C111.609 89.7899 111.554 89.7899 111.507 89.7637C111.144 89.5453 110.681 89.554 110.324 89.7841L103.006 94.0803C102.877 94.1648 102.801 94.3046 102.801 94.4648C102.801 94.622 102.877 94.7648 103.009 94.8521C104.786 96.0114 110.415 99.1512 110.47 99.1833C110.541 99.224 110.567 99.3114 110.526 99.3813C110.5 99.4279 110.45 99.457 110.397 99.457L110.403 99.4454Z" fill="white"/>
<path d="M110.403 99.2995L111.817 86.6936C111.85 86.4023 112.02 86.1431 112.274 85.9945L121.276 80.7722C121.715 80.5158 122.254 80.8945 122.161 81.3926L119.821 93.8383L110.403 99.3025V99.2995Z" fill="#2F3C63"/>
<path d="M110.403 99.4453C110.377 99.4453 110.347 99.4366 110.324 99.422C110.277 99.3929 110.251 99.3375 110.259 99.2851L111.674 86.6791C111.712 86.3442 111.908 86.0413 112.204 85.8694L121.206 80.647C121.461 80.5014 121.765 80.513 122.005 80.682C122.245 80.8509 122.36 81.1334 122.307 81.4189L119.967 93.8646C119.958 93.9054 119.935 93.9433 119.897 93.9637L110.479 99.4278C110.456 99.4424 110.429 99.4482 110.406 99.4482L110.403 99.4453ZM121.578 80.8334C121.502 80.8334 121.423 80.8538 121.352 80.8946L112.35 86.117C112.137 86.2422 111.993 86.4607 111.964 86.7083L110.582 99.0288L119.689 93.7423L122.017 81.3606C122.049 81.1859 121.982 81.0169 121.835 80.915C121.756 80.8597 121.669 80.8305 121.578 80.8305V80.8334Z" fill="white"/>
<path d="M97.0907 115.432C96.9296 115.432 96.7979 115.301 96.7979 115.141V106.89C96.7979 106.729 96.9296 106.598 97.0907 106.598C97.2518 106.598 97.3835 106.729 97.3835 106.89V115.141C97.3835 115.301 97.2518 115.432 97.0907 115.432Z" fill="white"/>
<path d="M106.456 110.778C106.295 110.778 106.163 110.647 106.163 110.487V101.49C106.163 101.33 106.295 101.198 106.456 101.198C106.617 101.198 106.749 101.33 106.749 101.49V110.487C106.749 110.647 106.617 110.778 106.456 110.778Z" fill="white"/>
<path d="M89.5824 110.277C89.4213 110.277 89.2896 110.146 89.2896 109.986V102.075C89.2896 101.915 89.4213 101.784 89.5824 101.784C89.7435 101.784 89.8752 101.915 89.8752 102.075V109.986C89.8752 110.146 89.7435 110.277 89.5824 110.277Z" fill="white"/>
<path d="M97.1669 106.898C97.1669 106.898 91.4975 103.738 89.6965 102.564C89.3276 102.323 89.3305 101.787 89.6965 101.548L97.0087 97.2547C97.4128 96.9925 97.9312 96.9838 98.347 97.2314L98.3382 96.4275" fill="#2F3C63"/>
<path d="M97.1667 107.044C97.1433 107.044 97.1169 107.038 97.0964 107.027C97.0407 106.995 91.4036 103.852 89.6173 102.687C89.4035 102.547 89.2747 102.311 89.2747 102.058C89.2747 101.801 89.4035 101.568 89.6173 101.428L96.9353 97.1323C97.3072 96.8905 97.7845 96.8439 98.1975 97.0012L98.1916 96.4332C98.1916 96.3517 98.2561 96.2876 98.338 96.2876C98.4171 96.2876 98.4845 96.3517 98.4845 96.4332L98.4932 97.2342C98.4932 97.2866 98.4669 97.3362 98.42 97.3624C98.3732 97.3886 98.3175 97.3886 98.2707 97.3624C97.9075 97.1439 97.4449 97.1527 97.0876 97.3828L89.7696 101.679C89.6407 101.763 89.5646 101.903 89.5646 102.063C89.5646 102.221 89.6407 102.363 89.7725 102.451C91.55 103.61 97.1784 106.75 97.234 106.782C97.3043 106.823 97.3307 106.91 97.2897 106.98C97.2633 107.027 97.2135 107.056 97.1608 107.056L97.1667 107.044Z" fill="white"/>
<path d="M97.1667 106.899L98.5811 94.2927C98.6134 94.0014 98.7832 93.7422 99.038 93.5937L108.04 88.3713C108.479 88.115 109.018 88.4936 108.924 88.9917L106.584 101.437L97.1667 106.902V106.899Z" fill="#2F3C63"/>
<path d="M97.1667 107.044C97.1403 107.044 97.111 107.035 97.0876 107.021C97.0408 106.992 97.0144 106.936 97.0232 106.884L98.4376 94.278C98.4757 93.943 98.6718 93.6401 98.9676 93.4682L107.969 88.2459C108.221 88.0973 108.529 88.1119 108.769 88.2808C109.009 88.4497 109.123 88.7323 109.071 89.0177L106.731 101.463C106.722 101.504 106.699 101.542 106.661 101.563L97.2428 107.027C97.2194 107.041 97.193 107.047 97.1696 107.047L97.1667 107.044ZM108.341 88.4323C108.265 88.4323 108.186 88.4526 108.113 88.4934L99.1111 93.7158C98.8973 93.8411 98.7539 94.0595 98.7246 94.3042L97.3424 106.625L106.45 101.341L108.778 88.9595C108.81 88.7847 108.743 88.6158 108.596 88.5138C108.517 88.4585 108.429 88.4293 108.338 88.4293L108.341 88.4323Z" fill="white"/>
<path d="M83.1429 123.146C82.9819 123.146 82.8501 123.015 82.8501 122.854V114.603C82.8501 114.443 82.9819 114.312 83.1429 114.312C83.304 114.312 83.4358 114.443 83.4358 114.603V122.854C83.4358 123.015 83.304 123.146 83.1429 123.146Z" fill="white"/>
<path d="M92.5077 118.494C92.3466 118.494 92.2148 118.363 92.2148 118.203V109.205C92.2148 109.045 92.3466 108.914 92.5077 108.914C92.6687 108.914 92.8005 109.045 92.8005 109.205V118.203C92.8005 118.363 92.6687 118.494 92.5077 118.494Z" fill="white"/>
<path d="M75.6344 117.99C75.4733 117.99 75.3416 117.859 75.3416 117.699V109.788C75.3416 109.628 75.4733 109.497 75.6344 109.497C75.7955 109.497 75.9272 109.628 75.9272 109.788V117.699C75.9272 117.859 75.7955 117.99 75.6344 117.99Z" fill="white"/>
<path d="M83.2189 114.614C83.2189 114.614 77.5495 111.454 75.7485 110.28C75.3796 110.038 75.3825 109.502 75.7485 109.264L83.0607 104.97C83.4649 104.708 83.9832 104.699 84.399 104.947L84.3902 104.143" fill="#2F3C63"/>
<path d="M83.2189 114.76C83.1955 114.76 83.1691 114.754 83.1486 114.742C83.093 114.71 77.4559 111.568 75.6695 110.402C75.4558 110.263 75.3269 110.027 75.3269 109.77C75.3269 109.514 75.4558 109.281 75.6725 109.141L82.9905 104.845C83.3624 104.603 83.8397 104.557 84.2526 104.714L84.2468 104.146C84.2468 104.065 84.3112 104 84.3932 104C84.4723 104 84.5396 104.065 84.5396 104.146L84.5455 104.95C84.5455 105.002 84.5191 105.052 84.4723 105.078C84.4254 105.104 84.3698 105.104 84.3229 105.078C83.9598 104.863 83.4971 104.868 83.1398 105.099L75.8218 109.395C75.693 109.479 75.6168 109.619 75.6168 109.776C75.6168 109.934 75.693 110.076 75.8247 110.164C77.6023 111.323 83.2306 114.463 83.2863 114.495C83.3565 114.536 83.3829 114.623 83.3419 114.693C83.3155 114.739 83.2658 114.769 83.2131 114.769L83.2189 114.76Z" fill="white"/>
<path d="M83.2188 114.614L84.6332 102.008C84.6654 101.717 84.8352 101.457 85.09 101.309L94.0919 96.0864C94.5311 95.8301 95.0699 96.2087 94.9762 96.7068L92.6365 109.153L83.2188 114.617V114.614Z" fill="#2F3C63"/>
<path d="M83.2189 114.76C83.1925 114.76 83.1633 114.751 83.1398 114.736C83.093 114.707 83.0666 114.652 83.0754 114.6L84.4898 101.994C84.5279 101.659 84.7241 101.356 85.0199 101.184L94.0217 95.9615C94.2765 95.8159 94.5811 95.8275 94.8212 95.9964C95.0613 96.1654 95.1755 96.4479 95.1228 96.7333L92.783 109.179C92.7742 109.22 92.7508 109.258 92.7127 109.278L83.295 114.742C83.2716 114.757 83.2453 114.763 83.2218 114.763L83.2189 114.76ZM94.3936 96.1479C94.3175 96.1479 94.2384 96.1683 94.1681 96.2091L85.1663 101.431C84.9525 101.557 84.809 101.775 84.7797 102.023L83.3975 114.343L92.5078 109.057L94.8358 96.6751C94.868 96.4974 94.8007 96.3314 94.6543 96.2295C94.5752 96.1741 94.4873 96.145 94.3966 96.145L94.3936 96.1479Z" fill="white"/>
<path d="M68.6471 131.418C68.486 131.418 68.3542 131.287 68.3542 131.126V122.875C68.3542 122.715 68.486 122.583 68.6471 122.583C68.8081 122.583 68.9399 122.715 68.9399 122.875V131.126C68.9399 131.287 68.8081 131.418 68.6471 131.418Z" fill="white"/>
<path d="M78.0121 126.763C77.851 126.763 77.7192 126.632 77.7192 126.472V117.474C77.7192 117.314 77.851 117.183 78.0121 117.183C78.1731 117.183 78.3049 117.314 78.3049 117.474V126.472C78.3049 126.632 78.1731 126.763 78.0121 126.763Z" fill="white"/>
<path d="M61.1356 126.262C60.9746 126.262 60.8428 126.131 60.8428 125.971V118.06C60.8428 117.9 60.9746 117.769 61.1356 117.769C61.2967 117.769 61.4285 117.9 61.4285 118.06V125.971C61.4285 126.131 61.2967 126.262 61.1356 126.262Z" fill="white"/>
<path d="M68.7233 122.883C68.7233 122.883 63.0539 119.723 61.2529 118.549C60.884 118.308 60.8869 117.772 61.2529 117.533L68.5651 113.24C68.9692 112.977 69.4876 112.969 69.9034 113.216L69.8946 112.412" fill="#2F3C63"/>
<path d="M68.7233 123.032C68.6999 123.032 68.6735 123.026 68.653 123.014C68.5974 122.982 62.9603 119.84 61.1739 118.674C60.9602 118.535 60.8313 118.299 60.8313 118.045C60.8313 117.789 60.9601 117.556 61.1768 117.416L68.4949 113.12C68.8668 112.878 69.3441 112.832 69.757 112.989L69.7512 112.421C69.7512 112.339 69.8156 112.275 69.8976 112.275C69.9767 112.275 70.044 112.339 70.044 112.421L70.0499 113.222C70.0499 113.274 70.0235 113.324 69.9767 113.35C69.9298 113.376 69.8742 113.376 69.8273 113.35C69.4642 113.132 69.0015 113.14 68.6442 113.371L61.3262 117.667C61.1973 117.751 61.1212 117.891 61.1212 118.051C61.1212 118.208 61.1974 118.351 61.3291 118.439C63.1067 119.598 68.735 122.738 68.7907 122.77C68.8609 122.81 68.8873 122.898 68.8463 122.968C68.8199 123.014 68.7702 123.043 68.7174 123.043L68.7233 123.032Z" fill="white"/>
<path d="M68.7231 122.883L70.1376 110.277C70.1698 109.986 70.3396 109.726 70.5944 109.578L79.5963 104.355C80.0355 104.099 80.5743 104.478 80.4806 104.976L78.1409 117.422L68.7231 122.886V122.883Z" fill="#2F3C63"/>
<path d="M68.7233 123.032C68.6969 123.032 68.6676 123.023 68.6442 123.008C68.5974 122.979 68.571 122.924 68.5798 122.872L69.9942 110.266C70.0323 109.931 70.2314 109.628 70.5243 109.456L79.5261 104.233C79.7809 104.088 80.0854 104.099 80.3256 104.268C80.5657 104.437 80.6799 104.72 80.6272 105.005L78.2874 117.451C78.2786 117.492 78.2552 117.53 78.2171 117.55L68.7994 123.014C68.776 123.029 68.7496 123.035 68.7262 123.035L68.7233 123.032ZM79.898 104.42C79.8219 104.42 79.7428 104.44 79.6725 104.481L70.6707 109.703C70.4569 109.829 70.3134 110.047 70.2841 110.295L68.9019 122.612L78.0122 117.326L80.3402 104.944C80.3724 104.766 80.3051 104.6 80.1586 104.499C80.0796 104.443 79.9917 104.414 79.9009 104.414L79.898 104.42Z" fill="white"/>
</svg>
