<svg width="150" height="155" viewBox="0 0 150 155" fill="none" xmlns="http://www.w3.org/2000/svg">
<g clip-path="url(#clip0_396_6484)">
<path d="M68.9669 62.4556L2.13965 101.637L80.9189 147.414L147.718 108.528L68.9669 62.4556Z" fill="#8DAEFF"/>
<path d="M80.9474 147.594C80.9154 147.594 80.8869 147.587 80.8584 147.569L2.07558 101.792C2.01862 101.76 1.98657 101.702 1.98657 101.637C1.98657 101.572 2.01862 101.515 2.07558 101.482L68.9064 62.3007C68.9634 62.2683 69.031 62.2683 69.0844 62.3007L147.835 108.377C147.892 108.409 147.924 108.467 147.924 108.531C147.924 108.596 147.889 108.654 147.835 108.686L81.0364 147.573C81.008 147.587 80.9795 147.598 80.9474 147.598V147.594ZM2.52062 101.634L80.9474 147.205L147.39 108.528L68.9954 62.6611L2.52062 101.634Z" fill="white"/>
<path d="M147.547 108.614C147.518 108.614 147.486 108.607 147.458 108.589L68.9955 62.6647L2.39969 101.706C2.31424 101.756 2.20743 101.727 2.15758 101.641C2.10774 101.554 2.13622 101.446 2.22167 101.396L68.903 62.3007C68.9599 62.2683 69.0276 62.2683 69.081 62.3007L147.632 108.279C147.718 108.33 147.746 108.438 147.696 108.524C147.664 108.582 147.604 108.614 147.543 108.614H147.547Z" fill="white"/>
<path d="M80.9475 155C80.9155 155 80.887 154.993 80.8585 154.975L0.0890081 107.706C0.0320429 107.674 0 107.616 0 107.551V40.3604C0 40.2955 0.0320429 40.2378 0.0890081 40.2054L68.5149 0.025547C68.5718 -0.00688806 68.6395 -0.00688806 68.6929 0.025547L149.907 47.4889C149.961 47.5213 149.996 47.579 149.996 47.6438V114.247C149.996 114.312 149.964 114.37 149.907 114.402L81.033 154.975C81.0045 154.99 80.9724 155 80.944 155H80.9475ZM0.356032 107.447L80.9475 154.611L149.644 114.143V47.7483L68.6074 0.389541L0.356032 40.4613V107.447Z" fill="white"/>
<path d="M80.9476 147.594C80.8871 147.594 80.8266 147.562 80.7945 147.504C80.7447 147.418 80.7732 147.309 80.8586 147.259L149.733 107.09C149.819 107.04 149.925 107.068 149.975 107.155C150.025 107.241 149.997 107.349 149.911 107.4L81.0367 147.569C81.0082 147.583 80.9761 147.594 80.9476 147.594Z" fill="white"/>
<path d="M80.9476 147.594C80.9191 147.594 80.8871 147.587 80.8586 147.569L0.199452 100.433C0.114005 100.383 0.085522 100.275 0.135367 100.188C0.185211 100.102 0.292021 100.073 0.377469 100.123L81.0366 147.262C81.122 147.313 81.1505 147.421 81.1007 147.507C81.0686 147.565 81.0081 147.598 80.9476 147.598V147.594Z" fill="white"/>
<path d="M77.0667 67.4039L10.4174 106.42L2.35327 101.461L2.4138 75.9668L77.0667 42.2739V67.4039Z" fill="#2F3C63"/>
<path d="M147.632 48.8905C147.604 48.8905 147.572 48.8833 147.543 48.8653L66.5425 1.52812C66.457 1.47767 66.4285 1.36955 66.4784 1.28306C66.5282 1.19656 66.6386 1.16773 66.7205 1.21819L147.721 48.5554C147.807 48.6058 147.835 48.7139 147.785 48.8004C147.753 48.8581 147.693 48.8905 147.632 48.8905Z" fill="white"/>
<path d="M147.625 108.405C147.526 108.405 147.447 108.326 147.447 108.225V48.7105C147.447 48.6096 147.526 48.5303 147.625 48.5303C147.725 48.5303 147.803 48.6096 147.803 48.7105V108.225C147.803 108.326 147.725 108.405 147.625 108.405Z" fill="white"/>
<path d="M2.31058 101.817C2.2109 101.817 2.13257 101.738 2.13257 101.637V41.7332C2.13613 41.6683 2.17173 41.6107 2.22514 41.5782L70.2736 1.05241C70.3591 1.00196 70.4659 1.03079 70.5157 1.11728C70.5656 1.20378 70.5371 1.3119 70.4516 1.36235L2.49216 41.8341V101.634C2.4886 101.734 2.40671 101.814 2.31058 101.814V101.817Z" fill="white"/>
<path d="M147.632 48.8906C147.565 48.8906 147.504 48.8546 147.472 48.7897C147.429 48.6996 147.465 48.5915 147.554 48.5482L149.744 47.4815C149.833 47.4382 149.939 47.4779 149.982 47.5644C150.025 47.6545 149.989 47.7626 149.9 47.8058L147.711 48.8726C147.686 48.8834 147.661 48.8906 147.632 48.8906Z" fill="white"/>
<path d="M80.9475 147.414V154.82L149.822 114.247V107.249L80.9475 147.414Z" fill="#FCE72D"/>
<path d="M80.9475 155C80.9155 155 80.887 154.993 80.8585 154.975C80.8016 154.943 80.7695 154.885 80.7695 154.82V147.414C80.7695 147.349 80.8051 147.291 80.8585 147.259L149.733 107.09C149.786 107.058 149.858 107.058 149.911 107.09C149.968 107.122 150 107.18 150 107.245V114.244C150 114.309 149.968 114.366 149.911 114.399L81.0366 154.971C81.0081 154.986 80.976 154.997 80.9475 154.997V155ZM81.1256 147.519V154.506L149.644 114.143V107.559L81.1256 147.519Z" fill="white"/>
<path d="M2.35703 41.8521C2.32854 41.8521 2.2965 41.8449 2.26802 41.8268L0.0891008 40.5511C0.00365302 40.5006 -0.0248296 40.3925 0.025015 40.306C0.0748595 40.2195 0.181669 40.1907 0.267117 40.2411L2.44604 41.5169C2.53148 41.5674 2.55997 41.6755 2.51012 41.762C2.47808 41.8196 2.41755 41.8521 2.35703 41.8521Z" fill="white"/>
<path d="M0.288349 100.279L80.9475 147.414V154.82L0.177979 107.551L0.288349 100.279Z" fill="#FCE72D"/>
<path d="M80.9475 155C80.9155 155 80.887 154.993 80.8585 154.975L0.0890081 107.706C0.0320429 107.674 0 107.613 0 107.548L0.11037 100.275C0.11037 100.21 0.145973 100.152 0.199378 100.12C0.256343 100.088 0.320429 100.088 0.377394 100.12L81.0365 147.259C81.0899 147.291 81.1255 147.349 81.1255 147.414V154.82C81.1255 154.885 81.0899 154.943 81.0365 154.975C81.008 154.989 80.9796 155 80.9475 155ZM0.356032 107.447L80.7659 154.506V147.518L0.462842 100.585L0.359593 107.447H0.356032Z" fill="white"/>
<path d="M63.2029 91.921L60.554 87.8522C59.6283 86.4286 56.189 87.3693 54.1241 89.6145C52.2763 91.6183 51.6283 93.7121 52.4543 94.9843L55.6301 99.8676C55.9754 100.397 57.2749 100.019 58.0048 99.1756L62.7934 93.3697C63.267 92.822 63.4236 92.267 63.1993 91.9246L63.2029 91.921Z" fill="#5B80FF"/>
<path d="M110.683 100.235L108.533 103.396C108.383 103.616 108.476 103.918 108.722 104.016L116.191 107.043C116.387 107.119 116.604 107.036 116.7 106.848L118.345 102.628C118.455 102.412 118.356 102.142 118.131 102.052L111.171 100.088C110.993 100.019 110.794 100.08 110.687 100.239L110.683 100.235Z" fill="#5B80FF"/>
<path d="M27.1866 59.9292C27.1545 59.9292 27.126 59.922 27.0976 59.904C27.0441 59.8716 27.0085 59.8139 27.0085 59.749V42.4035C27.0085 42.3386 27.0441 42.2774 27.0976 42.2449L47.3059 30.7665C47.3594 30.7341 47.427 30.7341 47.484 30.7665C47.5374 30.7989 47.573 30.8566 47.573 30.9215V48.267C47.573 48.3319 47.5374 48.3932 47.484 48.4256L27.2756 59.904C27.2471 59.9184 27.2186 59.9256 27.1866 59.9256V59.9292ZM27.3646 42.5116V59.4427L47.2169 48.1661V31.235L27.3646 42.5116Z" fill="white"/>
<path d="M10.6525 86.3746C10.5919 86.3746 10.5314 86.3422 10.4994 86.2845C10.4495 86.198 10.478 86.0899 10.5635 86.0394L77.0383 47.2074C77.1237 47.157 77.2305 47.1858 77.2804 47.2723C77.3302 47.3588 77.3017 47.4669 77.2163 47.5174L10.7415 86.353C10.713 86.371 10.681 86.3782 10.6525 86.3782V86.3746Z" fill="white"/>
<path d="M2.41395 81.4733C2.35342 81.4733 2.2929 81.4409 2.26085 81.3832C2.21101 81.2967 2.23949 81.1886 2.32494 81.1381L68.7392 42.3854C68.8247 42.335 68.9315 42.3638 68.9813 42.4503C69.0312 42.5368 69.0027 42.6449 68.9172 42.6954L2.50296 81.4481C2.47447 81.4625 2.44243 81.4733 2.41395 81.4733Z" fill="white"/>
<path d="M10.6525 106.535C10.5919 106.535 10.5314 106.502 10.4994 106.445C10.4495 106.358 10.478 106.25 10.5635 106.2L77.1308 67.2956C77.2163 67.2451 77.3231 67.274 77.3729 67.3605C77.4228 67.4469 77.3943 67.5551 77.3089 67.6055L10.7415 106.51C10.713 106.528 10.681 106.535 10.6525 106.535Z" fill="white"/>
<path d="M10.6526 106.535C10.5529 106.535 10.4746 106.455 10.4746 106.355V86.1944C10.4746 86.0934 10.5529 86.0142 10.6526 86.0142C10.7523 86.0142 10.8306 86.0934 10.8306 86.1944V106.355C10.8306 106.455 10.7523 106.535 10.6526 106.535Z" fill="white"/>
<path d="M77.1272 67.4541C77.0275 67.4541 76.9492 67.3748 76.9492 67.2739V47.3623C76.9492 47.2614 77.0275 47.1821 77.1272 47.1821C77.2269 47.1821 77.3053 47.2614 77.3053 47.3623V67.2739C77.3053 67.3748 77.2269 67.4541 77.1272 67.4541Z" fill="white"/>
<path d="M10.6526 86.3746C10.6241 86.3746 10.5921 86.3674 10.5636 86.3494L2.36059 81.585C2.27514 81.5346 2.24665 81.4264 2.2965 81.3399C2.34634 81.2534 2.45315 81.2246 2.5386 81.2751L10.7416 86.0394C10.827 86.0899 10.8555 86.198 10.8057 86.2845C10.7736 86.3421 10.7131 86.3746 10.6526 86.3746Z" fill="white"/>
<path d="M77.1274 47.5426C77.0989 47.5426 77.0668 47.5354 77.0384 47.5174L68.7392 42.6954C68.6538 42.6449 68.6253 42.5368 68.6752 42.4503C68.725 42.3638 68.8318 42.335 68.9173 42.3854L77.2164 47.2074C77.3018 47.2579 77.3303 47.366 77.2805 47.4525C77.2484 47.5102 77.1879 47.5426 77.1274 47.5426Z" fill="white"/>
<path d="M18.3677 83.2355L30.6259 75.9736V93.3192L18.3677 100.581V83.2355Z" fill="#2F3C63"/>
<path d="M18.3677 100.761C18.3357 100.761 18.3072 100.754 18.2787 100.736C18.2217 100.704 18.1897 100.646 18.1897 100.581V83.2356C18.1897 83.1707 18.2217 83.113 18.2787 83.0806L30.5369 75.8188C30.5939 75.7863 30.6615 75.7863 30.7149 75.8188C30.7719 75.8512 30.8039 75.9089 30.8039 75.9737V93.3193C30.8039 93.3842 30.7719 93.4418 30.7149 93.4742L18.4567 100.736C18.4282 100.754 18.3962 100.761 18.3677 100.761ZM18.5457 83.3401V100.268L30.4479 93.2148V76.2873L18.5457 83.3401Z" fill="white"/>
<path d="M31.6335 75.361L43.8917 68.0991V85.4447L31.6335 92.7065V75.361Z" fill="#2F3C63"/>
<path d="M31.6336 92.8868C31.6015 92.8868 31.5731 92.8796 31.5446 92.8616C31.4876 92.8292 31.4556 92.7715 31.4556 92.7066V75.3611C31.4556 75.2962 31.4876 75.2385 31.5446 75.2061L43.8028 67.9442C43.8597 67.9118 43.9274 67.9118 43.9808 67.9442C44.0342 67.9767 44.0698 68.0343 44.0698 68.0992V85.4448C44.0698 85.5096 44.0378 85.5673 43.9808 85.5997L31.7226 92.8616C31.6941 92.8796 31.6621 92.8868 31.6336 92.8868ZM31.8116 75.4656V92.3931L43.7138 85.3403V68.4128L31.8116 75.4656Z" fill="white"/>
<path d="M44.8352 67.5441L57.0934 60.2822V77.6278L44.8352 84.8896V67.5441Z" fill="#2F3C63"/>
<path d="M44.8352 85.0699C44.8032 85.0699 44.7747 85.0627 44.7462 85.0447C44.6893 85.0123 44.6572 84.9546 44.6572 84.8897V67.5442C44.6572 67.4793 44.6893 67.4216 44.7462 67.3892L57.0044 60.1274C57.0614 60.0949 57.129 60.0949 57.1824 60.1274C57.2394 60.1598 57.2715 60.2175 57.2715 60.2823V77.6279C57.2715 77.6927 57.2394 77.7504 57.1824 77.7828L44.9243 85.0447C44.8958 85.0627 44.8637 85.0699 44.8352 85.0699ZM45.0133 67.6487V84.5762L56.9154 77.5234V60.5959L45.0133 67.6487Z" fill="white"/>
<path d="M58.1687 59.7238L70.4233 52.4619V69.8075L58.1687 77.0693V59.7238Z" fill="#2F3C63"/>
<path d="M58.1687 77.2496C58.1367 77.2496 58.1082 77.2424 58.0797 77.2244C58.0228 77.1919 57.9907 77.1343 57.9907 77.0694V59.7239C57.9907 59.659 58.0228 59.6013 58.0797 59.5689L70.3379 52.307C70.3949 52.2746 70.4625 52.2746 70.5159 52.307C70.5729 52.3395 70.6049 52.3971 70.6049 52.462V69.8076C70.6049 69.8724 70.5729 69.9301 70.5159 69.9625L58.2577 77.2244C58.2293 77.2424 58.1972 77.2496 58.1687 77.2496ZM58.3468 59.8284V76.7559L70.2489 69.7031V52.7755L58.3468 59.8284Z" fill="white"/>
<path d="M58.9804 105.627C58.7276 105.627 58.4855 105.493 58.3573 105.255C58.1687 104.906 58.2933 104.47 58.6351 104.275L73.3712 96.0366C73.7166 95.8456 74.1474 95.9718 74.3396 96.3178C74.5283 96.6673 74.4037 97.1034 74.0619 97.298L59.3258 105.537C59.2154 105.598 59.0979 105.627 58.984 105.627H58.9804Z" fill="white"/>
<path d="M73.1718 105.511C73.0578 105.511 72.9439 105.483 72.8371 105.428L57.9727 97.4242C57.6274 97.2368 57.4957 96.8008 57.6772 96.4476C57.8624 96.098 58.2932 95.9647 58.6421 96.1485L73.5064 104.153C73.8518 104.34 73.9835 104.776 73.8019 105.129C73.6738 105.374 73.4281 105.511 73.1718 105.511Z" fill="white"/>
<path d="M65.1184 99.9939C65.0188 99.9939 64.9404 99.9146 64.9404 99.8137V95.9575C64.9404 95.8566 65.0188 95.7773 65.1184 95.7773C65.2181 95.7773 65.2965 95.8566 65.2965 95.9575V99.8137C65.2965 99.9146 65.2181 99.9939 65.1184 99.9939Z" fill="white"/>
<path d="M66.8702 100.43C66.7705 100.43 66.6921 100.351 66.6921 100.25V97.0279C66.6921 96.9269 66.7705 96.8477 66.8702 96.8477C66.9698 96.8477 67.0482 96.9269 67.0482 97.0279V100.25C67.0482 100.351 66.9698 100.43 66.8702 100.43Z" fill="white"/>
<path d="M60.6895 84.5078C60.6895 84.5078 60.6895 88.4648 60.6895 88.3639C60.6895 88.263 62.8078 86.9548 62.8078 86.9548V83.8699L60.6895 84.5078Z" fill="#2F3C63"/>
<path d="M60.6895 88.5442C60.5898 88.5442 60.5115 88.4649 60.5115 88.364V84.5078C60.5115 84.4285 60.5649 84.3564 60.6396 84.3348L62.758 83.6969C62.8114 83.6825 62.872 83.6933 62.9147 83.7258C62.961 83.7582 62.9859 83.8123 62.9859 83.8699V86.9549C62.9859 87.0161 62.9539 87.0774 62.9004 87.1098C61.9926 87.6684 60.9957 88.3135 60.8426 88.4541C60.8141 88.5081 60.7536 88.5478 60.6859 88.5478L60.6895 88.5442ZM60.8675 84.6412V87.9856C61.1559 87.7765 61.6793 87.4378 62.6299 86.8503V84.1078L60.8675 84.6376V84.6412Z" fill="white"/>
<path d="M57.7628 89.755L66.4429 85.4484C66.8808 85.1925 67.4219 85.1889 67.8634 85.4448L76.0985 90.1983C77.0633 90.7569 77.0562 92.166 76.0842 92.7138L67.8563 97.3448C67.4184 97.5899 66.8843 97.5863 66.45 97.334L58.4143 92.6381C57.4637 92.0831 57.5883 90.3064 57.7592 89.755H57.7628Z" fill="#2F3C63"/>
<path d="M67.1621 97.7088C66.8844 97.7088 66.6067 97.6368 66.361 97.4926L58.3254 92.7967C57.3036 92.1985 57.3854 90.3677 57.5919 89.7046C57.6062 89.6577 57.6382 89.6181 57.6845 89.5965L66.3646 85.2898C66.8452 85.0087 67.4576 85.0051 67.9525 85.2898L76.1875 90.0434C76.6966 90.3389 76.9993 90.8686 76.9957 91.4633C76.9921 92.0579 76.6824 92.5841 76.1697 92.8724L67.9418 97.5034C67.6997 97.6404 67.4327 97.7088 67.1621 97.7088ZM57.9088 89.8848C57.7557 90.4902 57.713 92.0255 58.5034 92.4868L66.539 97.1827C66.9164 97.4025 67.39 97.4061 67.7709 97.1935L75.9988 92.5625C76.3976 92.339 76.6397 91.9282 76.6397 91.4633C76.6397 91.002 76.4083 90.5875 76.0095 90.3569L67.7745 85.6034C67.39 85.3835 66.9129 85.3835 66.5319 85.6034L57.9124 89.8812L57.9088 89.8848Z" fill="white"/>
<path d="M58.4179 88.9153L66.4429 84.2267C66.8808 83.9708 67.422 83.9672 67.8635 84.2231L76.0985 88.9766C77.0633 89.5352 77.0562 90.9443 76.0843 91.4921L67.8563 96.1231C67.4184 96.3682 66.8844 96.3646 66.45 96.1123L58.4144 91.4165C57.4638 90.8615 57.4638 89.4703 58.4144 88.9153H58.4179Z" fill="#2F3C63"/>
<path d="M67.162 96.4835C66.8843 96.4835 66.6066 96.4114 66.3609 96.2673L58.3252 91.5714C57.8232 91.2795 57.5242 90.7533 57.5242 90.1659C57.5242 89.5784 57.8232 89.0522 58.3252 88.7603L58.4143 88.9153L58.3252 88.7603L66.3502 84.0717C66.8415 83.7834 67.4539 83.7834 67.9488 84.0681L76.1838 88.8216C76.6929 89.1171 76.9956 89.6469 76.992 90.2415C76.9885 90.8362 76.6787 91.3623 76.166 91.6507L67.9381 96.2817C67.696 96.4186 67.429 96.4871 67.1584 96.4871L67.162 96.4835ZM67.1548 84.2122C66.9377 84.2122 66.724 84.2699 66.5318 84.3816L58.5068 89.0703C58.1152 89.2973 57.8838 89.7082 57.8838 90.1659C57.8838 90.6236 58.1187 91.0308 58.5068 91.2614L66.5425 95.9573C66.9199 96.1772 67.3934 96.1808 67.7743 95.9681L76.0022 91.3371C76.401 91.1137 76.6431 90.7028 76.6431 90.2379C76.6431 89.7766 76.4117 89.3622 76.0129 89.1315L67.7779 84.378C67.5856 84.2663 67.372 84.2122 67.1584 84.2122H67.1548Z" fill="white"/>
<path d="M66.5247 81.3941V71.9843C66.5247 68.6904 63.1424 66.5136 60.198 67.9119C57.5669 69.1589 55.8865 71.8366 55.8865 74.7773V86.0684C55.8865 87.2937 57.1753 88.0793 58.247 87.5027L65.4032 83.2934C66.0975 82.9222 66.5283 82.1906 66.5283 81.3977L66.5247 81.3941Z" fill="#2F3C63"/>
<path d="M57.4887 87.8739C57.1718 87.8739 56.8549 87.7874 56.5737 87.6144C56.0325 87.2864 55.7085 86.7062 55.7085 86.0683V74.7773C55.7085 71.7789 57.4424 69.0219 60.1233 67.7497C61.5617 67.0686 63.2208 67.1767 64.563 68.038C65.9053 68.903 66.7063 70.377 66.7063 71.9843V81.3941C66.7063 82.2554 66.2399 83.0447 65.4851 83.4483L58.336 87.654C58.069 87.7982 57.777 87.8703 57.4887 87.8703V87.8739ZM62.085 67.6668C61.4691 67.6668 60.8532 67.8038 60.2728 68.0777C57.7165 69.2886 56.0645 71.9194 56.0645 74.7773V86.0683C56.0645 86.5801 56.3244 87.045 56.7588 87.3081C57.1931 87.5711 57.7165 87.5856 58.1651 87.3441L65.3142 83.1384C65.9551 82.7924 66.3503 82.1257 66.3503 81.3977V71.9879C66.3503 70.5031 65.6098 69.1408 64.3743 68.3444C63.6765 67.8939 62.8825 67.6668 62.0886 67.6668H62.085Z" fill="white"/>
<path d="M112.77 106.751L110.064 108.171L109.815 109.101L115.219 112.215L120.161 109.551L120.036 108.477L118.712 107.94L118.733 93.1104L115.468 93.341L115.276 105.227L112.77 106.751Z" fill="#2F3C63"/>
<path d="M99.1764 90.1553V105.457L72.1108 121.275C71.1246 121.852 70.0565 122.27 68.935 122.468C60.675 123.924 56.9082 117.185 56.9082 117.185V103.385" fill="#2F3C63"/>
<path d="M66.6669 122.853C59.9557 122.853 56.7906 117.339 56.755 117.275C56.7408 117.246 56.7336 117.217 56.7336 117.184V103.385C56.7336 103.284 56.812 103.205 56.9117 103.205C57.0113 103.205 57.0897 103.284 57.0897 103.385V117.134C57.4172 117.682 61.1983 123.646 68.9064 122.288C69.9638 122.1 71.0105 121.707 72.0217 121.116L98.9982 105.349V90.1516C98.9982 90.0507 99.0766 89.9714 99.1763 89.9714C99.2759 89.9714 99.3543 90.0507 99.3543 90.1516V105.454C99.3543 105.519 99.3187 105.576 99.2653 105.609L72.1997 121.426C71.1529 122.039 70.0635 122.446 68.9669 122.641C68.1587 122.785 67.3932 122.85 66.6669 122.85V122.853Z" fill="white"/>
<path d="M85.4477 78.5398C85.4477 78.5398 55.7582 95.7376 56.1178 95.5898C56.4774 95.4421 50.1756 99.3703 58.8663 104.866C58.8663 104.866 65.4565 108.622 72.0467 106.787C72.4668 106.672 72.8691 106.499 73.2465 106.279L103.082 88.8037V87.8667L85.4477 78.5398Z" fill="#2F3C63"/>
<path d="M68.2441 107.465C63.1422 107.465 58.8342 105.054 58.7808 105.021C55.7937 103.133 54.2129 101.208 54.0776 99.2947C54.0135 98.3541 54.2806 96.9342 55.9325 95.5251C55.9646 95.4962 55.9895 95.4782 56.0002 95.4674H56.0037C56.0037 95.4674 56.0358 95.4458 56.0571 95.4314V95.4206C56.0571 95.4206 56.075 95.4133 56.0856 95.4097C56.2601 95.2872 56.609 95.0818 57.2819 94.6854C58.083 94.2169 59.2258 93.5465 60.6037 92.7465C63.3523 91.1463 67.0194 89.0164 70.6865 86.8865C78.0208 82.6303 85.3622 78.3777 85.3622 78.3777C85.4156 78.3489 85.4797 78.3453 85.5331 78.3777L103.167 87.7046C103.228 87.7371 103.263 87.7983 103.263 87.8632V88.8002C103.263 88.8651 103.231 88.9227 103.174 88.9552L73.339 106.43C72.9509 106.658 72.5343 106.834 72.0964 106.957C70.8005 107.317 69.4974 107.465 68.2441 107.465ZM56.2636 95.7053C56.2352 95.7413 56.196 95.7737 56.1604 95.8026C54.6223 97.1108 54.3696 98.4118 54.4301 99.2695C54.5547 101.061 56.0785 102.891 58.9588 104.711C59.0158 104.744 65.5597 108.405 71.9967 106.611C72.4026 106.499 72.7942 106.333 73.1538 106.121L102.9 88.6957V87.9749L85.4476 78.7453C75.6425 84.4251 57.3068 95.0566 56.2601 95.7089L56.2636 95.7053Z" fill="white"/>
<path d="M85.4477 77.6028C85.4477 77.6028 55.7582 94.8006 56.1178 94.6528C56.4774 94.5051 50.1756 98.4333 58.8663 103.929C58.8663 103.929 65.4565 107.685 72.0467 105.85C72.4668 105.735 72.8691 105.562 73.2465 105.342L103.082 87.8667L85.4477 77.6028Z" fill="#2F3C63"/>
<path d="M68.2442 106.531C63.1422 106.531 58.8342 104.12 58.7808 104.088C55.7937 102.199 54.2129 100.275 54.0776 98.3613C54.01 97.417 54.2806 96.0007 55.9326 94.5916C55.9646 94.5628 55.9895 94.5447 56.0002 94.5339H56.0038C56.0038 94.5339 56.0358 94.5123 56.0572 94.4979V94.4871C56.0572 94.4871 56.075 94.4799 56.0857 94.4763C56.2601 94.3537 56.609 94.1483 57.2819 93.7519C58.083 93.2834 59.2259 92.613 60.6037 91.813C63.3523 90.2129 67.0194 88.083 70.6866 85.953C78.0208 81.6968 85.3622 77.4442 85.3622 77.4442C85.4156 77.4118 85.4833 77.4118 85.5402 77.4442L103.175 87.7081C103.231 87.7406 103.264 87.7982 103.264 87.8631C103.264 87.928 103.231 87.9856 103.175 88.0181L73.339 105.493C72.9509 105.72 72.5344 105.897 72.0964 106.02C70.8005 106.38 69.4974 106.528 68.2442 106.528V106.531ZM56.2637 94.7718C56.2352 94.8078 56.196 94.8403 56.1604 94.8691C54.6224 96.1809 54.3696 97.4783 54.4301 98.336C54.5547 100.127 56.0786 101.958 58.9589 103.778C59.0158 103.81 65.5597 107.472 71.9968 105.677C72.4026 105.565 72.7943 105.4 73.1539 105.187L102.722 87.8667L85.4441 77.8118C75.6354 83.4916 57.3069 94.1231 56.2601 94.7718H56.2637Z" fill="white"/>
<path d="M112.77 90.2344V106.751L109.815 108.304L115.184 111.292L117.989 109.742V93.222" fill="#2F3C63"/>
<path d="M115.18 111.472C115.152 111.472 115.12 111.465 115.095 111.451L109.726 108.459C109.669 108.427 109.633 108.366 109.633 108.301C109.633 108.236 109.672 108.175 109.729 108.142L112.588 106.639V90.2344C112.588 90.1335 112.666 90.0542 112.766 90.0542C112.866 90.0542 112.944 90.1335 112.944 90.2344V106.751C112.944 106.82 112.909 106.881 112.848 106.91L110.188 108.308L115.18 111.087L117.811 109.634V93.222C117.811 93.1211 117.889 93.0418 117.989 93.0418C118.089 93.0418 118.167 93.1211 118.167 93.222V109.742C118.167 109.807 118.132 109.868 118.075 109.901L115.265 111.454C115.241 111.469 115.209 111.476 115.18 111.476V111.472Z" fill="white"/>
<path d="M118.733 109.346C118.701 109.346 118.669 109.339 118.641 109.321C118.587 109.288 118.555 109.23 118.555 109.166V93.6436C118.555 93.5427 118.634 93.4634 118.733 93.4634C118.833 93.4634 118.911 93.5427 118.911 93.6436V108.87L119.958 108.319C120.047 108.272 120.154 108.308 120.196 108.394C120.243 108.484 120.207 108.593 120.122 108.636L118.815 109.328C118.79 109.342 118.762 109.349 118.733 109.349V109.346Z" fill="white"/>
<path d="M115.241 112.398C115.212 112.398 115.18 112.391 115.152 112.373L109.726 109.256C109.669 109.223 109.637 109.166 109.637 109.101V108.308C109.637 108.207 109.715 108.128 109.815 108.128C109.914 108.128 109.993 108.207 109.993 108.308V108.996L115.33 112.06C115.415 112.11 115.444 112.218 115.397 112.305C115.365 112.362 115.305 112.395 115.244 112.395L115.241 112.398Z" fill="white"/>
<path d="M117.718 109.825C117.686 109.825 117.658 109.818 117.629 109.8L112.866 107.003C112.78 106.953 112.752 106.845 112.802 106.758C112.851 106.672 112.962 106.643 113.044 106.693L117.807 109.49C117.893 109.54 117.921 109.648 117.872 109.735C117.839 109.793 117.779 109.825 117.718 109.825Z" fill="white"/>
<path d="M120.043 108.686C120.011 108.686 119.983 108.679 119.954 108.661L118.819 107.994C118.733 107.944 118.705 107.836 118.755 107.749C118.804 107.663 118.915 107.634 118.997 107.684L120.132 108.351C120.218 108.402 120.246 108.51 120.196 108.596C120.164 108.654 120.104 108.686 120.043 108.686Z" fill="white"/>
<path d="M115.23 112.395C115.169 112.395 115.109 112.362 115.077 112.305C115.027 112.218 115.055 112.11 115.141 112.06L119.922 109.267V108.539C119.922 108.438 120.001 108.358 120.1 108.358C120.2 108.358 120.278 108.438 120.278 108.539V109.371C120.278 109.436 120.243 109.494 120.189 109.526L115.319 112.373C115.29 112.391 115.258 112.398 115.23 112.398V112.395Z" fill="white"/>
<path d="M111.577 79.7866L122.706 86.1871L118.733 93.6436L107.657 87.2034L111.577 79.7866Z" fill="#2F3C63"/>
<path d="M118.733 93.8239C118.701 93.8239 118.673 93.8167 118.644 93.7987L107.568 87.3585C107.486 87.3117 107.454 87.2035 107.5 87.117L111.42 79.7002C111.442 79.657 111.481 79.6245 111.527 79.6101C111.573 79.5957 111.623 79.6029 111.666 79.6282L122.799 86.0251C122.884 86.0719 122.913 86.18 122.867 86.2665L118.89 93.723C118.868 93.7662 118.829 93.7987 118.783 93.8095C118.769 93.8131 118.751 93.8167 118.733 93.8167V93.8239ZM107.896 87.1351L118.662 93.395L122.468 86.2557L111.645 80.0354L107.892 87.1351H107.896Z" fill="white"/>
</g>
<defs>
<clipPath id="clip0_396_6484">
<rect width="150" height="155" fill="white"/>
</clipPath>
</defs>
</svg>
