<svg width="165" height="166" viewBox="0 0 165 166" fill="none" xmlns="http://www.w3.org/2000/svg">
<g clip-path="url(#clip0_397_10015)">
<path d="M71.4692 64.0266L1.22803 104.781L93.4717 158.223L162.584 118.333L71.4692 64.0266Z" fill="#8DAEFF"/>
<path d="M93.4717 158.408C93.4385 158.408 93.409 158.4 93.3795 158.382L1.1359 104.94C1.08058 104.907 1.0437 104.848 1.0437 104.781C1.0437 104.715 1.07689 104.656 1.1359 104.622L71.3734 63.8677C71.4324 63.8345 71.5025 63.8345 71.5615 63.8677L162.677 118.178C162.732 118.211 162.769 118.274 162.765 118.337C162.765 118.403 162.728 118.462 162.673 118.495L93.5602 158.385C93.5307 158.4 93.5012 158.411 93.468 158.411L93.4717 158.408ZM1.5969 104.781L93.4717 158.012L162.219 118.333L71.4656 64.2409L1.5969 104.781Z" fill="white"/>
<path d="M162.459 118.447C162.426 118.447 162.393 118.44 162.363 118.421L71.4657 64.2409L1.32038 104.94C1.23187 104.992 1.12123 104.962 1.0696 104.874C1.01796 104.785 1.04747 104.674 1.13598 104.622L71.3735 63.8677C71.4325 63.8345 71.5025 63.8345 71.5616 63.8677L162.555 118.104C162.643 118.155 162.673 118.27 162.618 118.359C162.584 118.418 162.522 118.447 162.459 118.447Z" fill="white"/>
<path d="M93.4717 166C93.4385 166 93.409 165.993 93.3795 165.974L0.0921994 111.945C0.0331918 111.912 0 111.853 0 111.786V41.3495C0 41.283 0.0331918 41.2239 0.0921994 41.1906L70.9714 0.0259148C71.0304 -0.00733618 71.1005 -0.00733618 71.1595 0.0259148L164.911 55.7841C164.967 55.8174 165.004 55.8765 165.004 55.943V124.222C165.004 124.289 164.971 124.348 164.911 124.381L93.5676 165.974C93.5381 165.989 93.5049 166 93.4754 166H93.4717ZM0.368798 111.679L93.4717 165.601L164.631 124.115V56.0464L71.0636 0.399065L0.368798 41.4566V111.679Z" fill="white"/>
<path d="M93.4718 158.408C93.4091 158.408 93.3464 158.374 93.3132 158.315C93.2616 158.227 93.2911 158.116 93.3796 158.064L164.724 116.885C164.812 116.833 164.923 116.862 164.974 116.951C165.026 117.04 164.996 117.151 164.908 117.202L93.564 158.382C93.5345 158.397 93.5013 158.408 93.4718 158.408Z" fill="white"/>
<path d="M93.4717 158.407C93.4422 158.407 93.409 158.4 93.3795 158.382L0.206536 104.489C0.118024 104.437 0.0885205 104.327 0.140152 104.238C0.191784 104.149 0.302423 104.12 0.390934 104.171L93.5639 158.068C93.6525 158.119 93.682 158.23 93.6303 158.319C93.5971 158.378 93.5344 158.411 93.4717 158.411V158.407Z" fill="white"/>
<path d="M162.547 57.2212C162.514 57.2212 162.485 57.2139 162.455 57.1954L68.9245 1.56648C68.836 1.51476 68.8064 1.40023 68.8618 1.31525C68.9134 1.22658 69.0277 1.19702 69.1125 1.25244L162.64 56.8813C162.728 56.9331 162.758 57.0476 162.702 57.1326C162.669 57.1917 162.606 57.2249 162.544 57.2249L162.547 57.2212Z" fill="white"/>
<path d="M162.54 118.233C162.437 118.233 162.356 118.152 162.356 118.048V57.0365C162.356 56.9331 162.437 56.8518 162.54 56.8518C162.643 56.8518 162.725 56.9331 162.725 57.0365V118.048C162.725 118.152 162.643 118.233 162.54 118.233Z" fill="white"/>
<path d="M2.39338 104.378C2.29012 104.378 2.20898 104.297 2.20898 104.194L2.25324 42.72C2.25324 42.6535 2.28643 42.5944 2.34544 42.5612L73.0181 1.29669C73.1066 1.24497 73.2173 1.27452 73.2689 1.36319C73.3205 1.45186 73.291 1.5627 73.2025 1.61442L2.62204 42.8235L2.57778 104.19C2.57778 104.293 2.49665 104.375 2.39338 104.375V104.378Z" fill="white"/>
<path d="M162.547 57.2211C162.477 57.2211 162.415 57.1841 162.381 57.1176C162.337 57.0253 162.374 56.9144 162.466 56.8701L164.734 55.7765C164.827 55.7322 164.937 55.7691 164.981 55.8615C165.026 55.9538 164.989 56.0647 164.897 56.109L162.629 57.2026C162.603 57.2137 162.577 57.2211 162.547 57.2211Z" fill="white"/>
<path d="M93.4718 166C93.3685 166 93.2874 165.919 93.2874 165.815V158.223C93.2874 158.119 93.3685 158.038 93.4718 158.038C93.575 158.038 93.6562 158.119 93.6562 158.223V165.815C93.6562 165.919 93.575 166 93.4718 166Z" fill="white"/>
<path d="M93.4717 158.223V165.815L164.816 124.222V117.047L93.4717 158.223Z" fill="#FCE72D"/>
<path d="M93.4718 166C93.4386 166 93.4091 165.993 93.3796 165.974C93.3205 165.941 93.2874 165.882 93.2874 165.815V158.223C93.2874 158.156 93.3242 158.097 93.3796 158.064L164.723 116.885C164.782 116.851 164.853 116.851 164.908 116.885C164.967 116.918 165 116.977 165 117.043V124.218C165 124.285 164.967 124.344 164.908 124.377L93.564 165.97C93.5344 165.985 93.5013 165.996 93.4718 165.996V166ZM93.6562 158.33V165.494L164.631 124.115V117.365L93.6562 158.33Z" fill="white"/>
<path d="M0.298653 104.33L93.4716 158.223V165.815L0.184326 111.786L0.298653 104.33Z" fill="#FCE72D"/>
<path d="M93.4717 166C93.4385 166 93.409 165.992 93.3795 165.974L0.0921994 111.945C0.0331918 111.912 0 111.849 0 111.782L0.114327 104.327C0.114327 104.26 0.151207 104.201 0.206527 104.168C0.265534 104.135 0.331918 104.135 0.390925 104.168L93.5639 158.064C93.6192 158.097 93.6561 158.156 93.6561 158.223V165.815C93.6561 165.882 93.6192 165.941 93.5639 165.974C93.5344 165.989 93.5049 166 93.4717 166ZM0.368798 111.679L93.2873 165.494V158.33L0.475749 104.648L0.368798 111.682V111.679Z" fill="white"/>
<path d="M71.1041 64.2112C71.0008 64.2112 70.9197 64.1299 70.9197 64.0265V2.64518C70.9197 2.54173 71.0008 2.46045 71.1041 2.46045C71.2073 2.46045 71.2885 2.54173 71.2885 2.64518V64.0265C71.2885 64.1299 71.2073 64.2112 71.1041 64.2112Z" fill="white"/>
<path d="M73.1141 66.7531C73.0108 66.7531 72.9297 66.6718 72.9297 66.5684V3.94938C72.9297 3.84593 73.0108 3.76465 73.1141 3.76465C73.2173 3.76465 73.2985 3.84593 73.2985 3.94938V66.5684C73.2985 66.6718 73.2173 66.7531 73.1141 66.7531Z" fill="white"/>
<path d="M130.831 99.594C130.728 99.594 130.646 99.5127 130.646 99.4093V38.172C130.646 38.0686 130.728 37.9873 130.831 37.9873C130.934 37.9873 131.015 38.0686 131.015 38.172V99.4093C131.015 99.5127 130.934 99.594 130.831 99.594Z" fill="white"/>
<path d="M129.146 98.7257C129.042 98.7257 128.961 98.6444 128.961 98.541V37.3444C128.961 37.2409 129.042 37.1597 129.146 37.1597C129.249 37.1597 129.33 37.2409 129.33 37.3444V98.541C129.33 98.6444 129.249 98.7257 129.146 98.7257Z" fill="white"/>
<path d="M101.895 82.3478C101.792 82.3478 101.71 82.2665 101.71 82.1631V20.9665C101.71 20.863 101.792 20.7817 101.895 20.7817C101.998 20.7817 102.079 20.863 102.079 20.9665V82.1631C102.079 82.2665 101.998 82.3478 101.895 82.3478Z" fill="white"/>
<path d="M100.21 81.2468C100.106 81.2468 100.025 81.1655 100.025 81.062V20.1388C100.025 20.0354 100.106 19.9541 100.21 19.9541C100.313 19.9541 100.394 20.0354 100.394 20.1388V81.062C100.394 81.1655 100.313 81.2468 100.21 81.2468Z" fill="white"/>
<path d="M90.1084 86.5782L43.0351 113.404C42.5151 113.707 41.8733 113.707 41.3533 113.404L22.3935 102.439C22.0173 102.221 22.0173 101.678 22.3935 101.456L69.3119 74.763C69.9093 74.4194 70.6432 74.4157 71.237 74.763L90.1047 85.6767C90.4477 85.8762 90.4514 86.375 90.1047 86.5745L90.1084 86.5782Z" fill="#5B80FF"/>
<path d="M73.4054 122.818C79.9883 122.818 85.3249 119.444 85.3249 115.281C85.3249 111.119 79.9883 107.744 73.4054 107.744C66.8224 107.744 61.4858 111.119 61.4858 115.281C61.4858 119.444 66.8224 122.818 73.4054 122.818Z" fill="#5B80FF"/>
<path d="M108.253 124.329C113.865 124.329 118.414 121.213 118.414 117.368C118.414 113.524 113.865 110.408 108.253 110.408C102.642 110.408 98.0928 113.524 98.0928 117.368C98.0928 121.213 102.642 124.329 108.253 124.329Z" fill="#5B80FF"/>
<path d="M120.693 109.728C119.627 111.443 118.122 112.588 116.54 113.349C114.552 114.31 112.446 114.664 110.945 114.79C109.754 114.89 108.821 115.85 108.74 117.043L108.257 124.325C111.712 124.314 114.294 123.476 115.991 122.659C117.462 121.95 118.565 120.653 119.052 119.094L121.036 112.728C121.773 110.356 121.652 107.766 120.538 105.55C118.255 101.005 113.42 100.381 110.547 100.451C109.271 100.481 108.261 101.537 108.261 102.816V110.408C108.261 110.408 112.937 110.109 116.544 113.353" fill="#5B80FF"/>
<path d="M70.0456 124.477C69.4592 124.802 69.1605 125.364 69.2822 125.921C69.7285 127.976 71.5983 132.176 74.7441 134.26C74.7441 134.26 82.3266 138.11 90.0713 133.776C90.0713 133.776 94.7256 131.101 94.4121 124.466C94.3826 123.86 93.6966 123.405 92.9332 123.487C92.4464 123.538 92.037 123.804 91.8784 124.17L91.1298 125.884C90.761 126.734 89.9386 127.418 88.8764 127.747C85.6937 128.722 77.8863 130.37 72.0187 124.68C71.5356 124.211 70.6689 124.126 70.0456 124.473V124.477Z" fill="#5B80FF"/>
<path d="M77.8977 118.896C77.9859 117.594 76.0378 116.4 73.5463 116.231C71.0549 116.062 68.9637 116.981 68.8755 118.283C68.7873 119.586 70.7355 120.78 73.2269 120.949C75.7183 121.118 77.8095 120.199 77.8977 118.896Z" fill="#2F3C63"/>
<path d="M39.4503 108.572L39.572 108.361L39.3508 108.221L27.2358 101.201L25.4877 100.189L22.9688 98.7295C22.5926 98.5115 22.3603 98.1088 22.3603 97.6728V92.3637L22.3381 92.3379L22.3676 92.3046V81.1101C22.364 80.2382 22.8323 79.4254 23.5847 78.9931L67.9436 53.5044C68.3272 53.2827 68.7661 53.1682 69.2086 53.1682C69.6512 53.1682 70.0974 53.2864 70.4846 53.5118L73.9698 55.529C74.4713 55.8172 74.7811 56.3566 74.7811 56.933L75.1905 68.556L75.4302 68.4821L89.238 76.5954C89.7211 76.8725 90.0235 77.3934 90.0235 77.955L90.1342 81.9525C90.1415 82.3182 90.1563 82.8761 89.4667 83.3342L85.2956 85.7172L85.3287 85.902L83.5806 86.6963L42.858 109.983H42.8175L42.7621 110.002C42.6994 110.027 42.6478 110.038 42.5999 110.038C42.5261 110.038 42.4487 110.016 42.3823 109.979L41.1984 109.292L39.4503 108.572Z" fill="#2F3C63"/>
<path d="M42.5961 110.227C42.4891 110.227 42.3822 110.197 42.2863 110.142L41.1024 109.458L39.181 108.668L39.3175 108.428L39.2474 108.383L22.8691 98.8921C22.4376 98.6408 22.1684 98.1753 22.1684 97.6765V92.4377L22.1094 92.3712L22.1721 92.2566V81.1139C22.1721 80.1754 22.6736 79.3035 23.4887 78.838L67.8476 53.3456C68.6738 52.869 69.7506 52.8727 70.5731 53.3493L74.0582 55.3665C74.6151 55.6879 74.9617 56.2865 74.9617 56.9293L75.36 68.3048L75.4486 68.279L75.5186 68.3196L89.3264 76.4329C89.8649 76.7432 90.2005 77.3269 90.2005 77.9513L90.3111 81.9451C90.3185 82.3294 90.3332 82.9722 89.5624 83.4858L85.4946 85.8096L85.5315 86.0055L83.6543 86.8626L42.8985 110.168H42.8321C42.7473 110.205 42.6698 110.223 42.6035 110.223L42.5961 110.227ZM39.7121 108.483L41.2684 109.126L42.4744 109.821C42.5149 109.843 42.5555 109.854 42.5998 109.854C42.6108 109.854 42.6366 109.854 42.692 109.828L42.7842 109.791H42.81L83.4847 86.5338L85.1147 85.7912L85.0816 85.6212L89.367 83.1717C89.9607 82.7764 89.9497 82.2998 89.9386 81.9562L89.828 77.9587C89.828 77.4599 89.5624 77.0018 89.1346 76.7543L75.3969 68.6817L75.0023 68.8036L74.5856 56.9404C74.5856 56.4232 74.309 55.9466 73.8664 55.6916L70.3813 53.6744C69.6695 53.2606 68.7401 53.2606 68.0247 53.6707L23.6657 79.1631C22.9687 79.5658 22.5335 80.3158 22.5335 81.1213V97.6839C22.5335 98.0534 22.7326 98.397 23.0498 98.5817L39.808 108.313L39.7047 108.494L39.7121 108.483Z" fill="#2F3C63"/>
<path d="M74.0139 121.081C73.7446 121.081 73.4754 121.07 73.1988 121.045C70.4808 120.808 68.4487 119.504 68.5741 118.074C68.6368 117.368 69.2121 116.763 70.2005 116.364C71.1446 115.983 72.369 115.835 73.6414 115.946C76.3594 116.182 78.3915 117.487 78.2661 118.916C78.2034 119.622 77.6281 120.228 76.6397 120.627C75.8984 120.926 74.9875 121.081 74.0139 121.081ZM72.8227 116.279C71.897 116.279 71.034 116.426 70.337 116.707C69.485 117.051 68.9908 117.546 68.9429 118.107C68.8396 119.29 70.8053 120.468 73.232 120.679C74.4491 120.786 75.6108 120.646 76.5033 120.283C77.3552 119.94 77.8494 119.445 77.8973 118.883C78.0006 117.701 76.0349 116.522 73.6082 116.312C73.3427 116.29 73.0808 116.279 72.8227 116.279Z" fill="white"/>
<path d="M72.4207 113.667V119.275C72.4207 119.275 73.007 119.899 73.7594 119.275V113.907" fill="white"/>
<path d="M73.0735 119.737C72.7195 119.737 72.4318 119.556 72.288 119.401C72.2548 119.367 72.2363 119.323 72.2363 119.275V113.667C72.2363 113.563 72.3175 113.482 72.4207 113.482C72.524 113.482 72.6051 113.563 72.6051 113.667V119.194C72.7379 119.305 73.103 119.53 73.5751 119.183V113.907C73.5751 113.803 73.6562 113.722 73.7595 113.722C73.8627 113.722 73.9439 113.803 73.9439 113.907V119.271C73.9439 119.327 73.918 119.378 73.8775 119.412C73.5935 119.648 73.3169 119.733 73.0735 119.733V119.737Z" fill="white"/>
<path d="M108.862 117.365C114.292 117.365 118.694 114.349 118.694 110.63C118.694 106.91 114.292 103.895 108.862 103.895C103.432 103.895 99.0295 106.91 99.0295 110.63C99.0295 114.349 103.432 117.365 108.862 117.365Z" fill="#2F3C63"/>
<path d="M108.862 117.55C103.337 117.55 98.8452 114.446 98.8452 110.63C98.8452 106.813 103.341 103.71 108.862 103.71C114.383 103.71 118.882 106.813 118.882 110.63C118.882 114.446 114.386 117.55 108.862 117.55ZM108.862 104.079C103.54 104.079 99.214 107.016 99.214 110.63C99.214 114.243 103.544 117.18 108.862 117.18C114.18 117.18 118.513 114.239 118.513 110.63C118.513 107.02 114.184 104.079 108.862 104.079Z" fill="white"/>
<path d="M120.899 103.237C119.867 104.896 118.41 106.004 116.879 106.743C114.954 107.67 112.918 108.014 111.465 108.136C110.315 108.232 109.407 109.163 109.33 110.319L108.862 117.365C112.207 117.354 114.703 116.545 116.344 115.754C117.768 115.067 118.838 113.814 119.306 112.303L121.224 106.144C121.939 103.85 121.821 101.342 120.741 99.195C118.531 94.7984 113.855 94.1962 111.071 94.259C109.835 94.2886 108.858 95.3083 108.858 96.546V103.894C108.858 103.894 113.383 103.606 116.872 106.743" fill="#2F3C63"/>
<path d="M108.862 117.55C108.81 117.55 108.762 117.527 108.729 117.49C108.692 117.454 108.677 117.402 108.681 117.35L109.149 110.301C109.234 109.041 110.2 108.051 111.451 107.947C112.767 107.837 114.696 107.526 116.544 106.691C113.184 103.843 108.921 104.072 108.873 104.076C108.828 104.079 108.773 104.061 108.736 104.028C108.699 103.994 108.677 103.943 108.677 103.895V96.5461C108.677 95.216 109.75 94.104 111.071 94.0744C113.77 94.0116 118.631 94.5806 120.907 99.1101C121.983 101.249 122.157 103.765 121.401 106.196L119.483 112.355C118.996 113.918 117.882 115.218 116.426 115.92C114.891 116.659 112.336 117.539 108.862 117.55ZM116.953 106.909C114.98 107.862 112.889 108.202 111.48 108.321C110.414 108.409 109.588 109.255 109.514 110.33L109.057 117.18C112.362 117.14 114.796 116.297 116.263 115.588C117.628 114.93 118.672 113.715 119.129 112.248L121.047 106.089C121.773 103.75 121.607 101.334 120.575 99.28C118.388 94.9315 113.686 94.3847 111.074 94.4476C109.953 94.4734 109.042 95.4192 109.042 96.5498V103.706C109.942 103.691 113.826 103.824 116.905 106.525C118.565 105.701 119.856 104.567 120.737 103.141C120.792 103.056 120.907 103.03 120.991 103.082C121.076 103.137 121.106 103.252 121.05 103.337C120.11 104.851 118.731 106.052 116.957 106.909H116.949H116.953Z" fill="white"/>
<path d="M101.858 124.329C101.836 124.329 101.814 124.329 101.792 124.322C101.593 124.285 101.456 124.093 101.493 123.893L102.832 116.404C102.869 116.205 103.057 116.068 103.26 116.105C103.459 116.142 103.595 116.334 103.558 116.533L102.22 124.022C102.186 124.2 102.032 124.325 101.858 124.325V124.329Z" fill="white"/>
<path d="M114.928 125.774C114.751 125.774 114.593 125.644 114.563 125.463L113.239 117.036C113.21 116.833 113.346 116.644 113.545 116.615C113.745 116.581 113.936 116.722 113.966 116.921L115.29 125.349C115.319 125.552 115.183 125.74 114.984 125.77C114.965 125.77 114.947 125.774 114.925 125.774H114.928Z" fill="white"/>
<path d="M81.1722 131.293C86.6024 131.293 91.0044 128.579 91.0044 125.23C91.0044 121.882 86.6024 119.168 81.1722 119.168C75.7421 119.168 71.3401 121.882 71.3401 125.23C71.3401 128.579 75.7421 131.293 81.1722 131.293Z" fill="#2F3C63"/>
<path d="M81.1686 131.478C75.6441 131.478 71.1521 128.674 71.1521 125.23C71.1521 121.787 75.6477 118.983 81.1686 118.983C86.6895 118.983 91.1889 121.787 91.1889 125.23C91.1889 128.674 86.6932 131.478 81.1686 131.478ZM81.1686 119.349C75.8469 119.349 71.5209 121.987 71.5209 125.227C71.5209 128.467 75.8506 131.105 81.1686 131.105C86.4867 131.105 90.8201 128.467 90.8201 125.227C90.8201 121.987 86.4904 119.349 81.1686 119.349Z" fill="white"/>
<path d="M69.6217 117.45C69.0537 117.852 68.766 118.54 68.8841 119.227C69.3156 121.754 71.1411 128.094 74.1726 129.49C74.1726 129.49 81.5117 134.23 89.0056 128.895C89.0056 128.895 93.5087 125.604 93.2063 117.442C93.1767 116.696 92.5129 116.138 91.7753 116.238C91.3033 116.301 90.9086 116.626 90.7537 117.08L90.0309 119.19C89.6732 120.235 88.8803 121.078 87.8513 121.48C84.7719 122.681 77.2189 124.706 71.5357 117.708C71.0673 117.132 70.2302 117.029 69.6253 117.457L69.6217 117.45Z" fill="#2F3C63"/>
<path d="M81.3272 131.596C77.1746 131.596 74.1209 129.671 74.073 129.642C70.8976 128.182 69.0868 121.484 68.7033 119.256C68.5742 118.506 68.8951 117.738 69.5183 117.298C70.2043 116.814 71.1558 116.94 71.6795 117.586C77.0455 124.196 84.0711 122.751 87.7849 121.303C88.7585 120.923 89.5145 120.128 89.8575 119.127L90.5803 117.017C90.7574 116.497 91.2073 116.127 91.7494 116.053C92.1514 115.998 92.5608 116.116 92.8743 116.378C93.1877 116.641 93.3758 117.025 93.3906 117.431C93.5492 121.691 92.3838 124.617 91.3806 126.32C90.2853 128.175 89.1642 129.006 89.1162 129.043C86.3982 130.979 83.6838 131.596 81.3272 131.596ZM70.4477 117.372C70.2006 117.372 69.9498 117.446 69.7322 117.601C69.227 117.96 68.9651 118.588 69.0721 119.194C69.4446 121.373 71.2 127.913 74.2537 129.32C74.3496 129.379 81.6001 133.939 88.9023 128.744C88.9466 128.714 93.3205 125.404 93.0255 117.446C93.0144 117.143 92.8743 116.855 92.6419 116.659C92.4096 116.463 92.1035 116.375 91.8047 116.415C91.3991 116.471 91.0672 116.744 90.9344 117.132L90.2115 119.242C89.8317 120.346 88.9982 121.222 87.9213 121.643C84.1153 123.128 76.909 124.606 71.3955 117.815C71.1595 117.524 70.8054 117.368 70.4514 117.368L70.4477 117.372Z" fill="white"/>
<path d="M75.1719 139.502C75.1498 139.502 75.124 139.502 75.0982 139.495C74.899 139.454 74.7699 139.262 74.8068 139.059L76.4295 130.901C76.4701 130.702 76.6619 130.569 76.8647 130.61C77.0639 130.65 77.1929 130.842 77.1561 131.046L75.5334 139.203C75.5002 139.38 75.3453 139.499 75.1719 139.499V139.502Z" fill="white"/>
<path d="M89.8281 138.801C89.6585 138.801 89.5073 138.686 89.4704 138.512L87.5379 130.067C87.4936 129.867 87.6153 129.668 87.8145 129.623C88.0099 129.579 88.2128 129.701 88.257 129.9L90.1895 138.346C90.2338 138.546 90.1121 138.745 89.9129 138.79C89.8834 138.797 89.8576 138.801 89.8318 138.801H89.8281Z" fill="white"/>
<path d="M69.9535 131.663C69.8872 131.663 69.8171 131.644 69.7581 131.607C69.5847 131.497 69.5331 131.271 69.6437 131.097L71.709 127.824C71.8197 127.65 72.0446 127.602 72.218 127.71C72.3913 127.82 72.4429 128.046 72.3323 128.219L70.267 131.493C70.1969 131.604 70.0789 131.666 69.9535 131.666V131.663Z" fill="white"/>
<path d="M42.9981 104.833C42.9354 104.833 42.8727 104.8 42.8395 104.741C42.7879 104.652 42.8211 104.541 42.9059 104.489L89.887 77.4932C89.9755 77.4415 90.0862 77.4711 90.1378 77.5597C90.1895 77.6484 90.1563 77.7592 90.0714 77.811L43.0903 104.807C43.0608 104.822 43.0313 104.833 42.9981 104.833Z" fill="white"/>
<path d="M28.1319 95.8219C28.0692 95.8219 28.0065 95.7886 27.9733 95.7295C27.9217 95.6409 27.9549 95.5263 28.0397 95.4783L75.3306 68.3196C75.4191 68.2679 75.5298 68.2975 75.5814 68.3861C75.633 68.4748 75.5998 68.5893 75.515 68.6374L28.2241 95.796C28.1946 95.8108 28.1651 95.8219 28.1319 95.8219Z" fill="white"/>
<path d="M28.1319 83.4932C28.0692 83.4932 28.0065 83.4599 27.9733 83.4008C27.9217 83.3122 27.9549 83.2013 28.0397 83.1496L74.9913 56.1683C75.0798 56.1165 75.1905 56.1461 75.2421 56.2348C75.2937 56.3234 75.2605 56.4343 75.1757 56.486L28.2241 83.4673C28.1946 83.4821 28.1651 83.4932 28.1319 83.4932Z" fill="white"/>
<path d="M38.3475 70.7396C38.2848 70.7396 38.2221 70.7063 38.1889 70.6472C38.1373 70.5586 38.1705 70.4477 38.2553 70.396L54.7405 60.9232C54.829 60.8714 54.9397 60.901 54.9913 60.9897C55.043 61.0783 55.0098 61.1892 54.9249 61.2409L38.4397 70.7137C38.4102 70.7285 38.3807 70.7396 38.3475 70.7396Z" fill="white"/>
<path d="M42.6146 110.415C42.4965 110.415 42.3748 110.386 42.2679 110.319L22.8581 99.0693C22.4008 98.807 22.1205 98.3156 22.1205 97.7873V92.578C22.0689 92.5188 22.0578 92.4339 22.0984 92.3637C22.1057 92.3526 22.1131 92.3415 22.1205 92.3341V81.232C22.1205 80.2677 22.6405 79.3699 23.474 78.8896L38.6979 70.1409C38.7864 70.0892 38.8971 70.1188 38.9487 70.2074C39.0003 70.2961 38.9672 70.4069 38.8823 70.4587L23.6584 79.2074C22.9355 79.6212 22.4893 80.397 22.4893 81.232V92.3784L42.3933 103.85C42.9575 104.175 43.3079 104.785 43.3079 105.435V109.717C43.3079 109.968 43.1788 110.194 42.9612 110.319C42.8543 110.382 42.7326 110.412 42.6146 110.412V110.415ZM22.4856 92.8033V97.7873C22.4856 98.1826 22.6995 98.552 23.0388 98.7479L42.4486 109.998C42.5519 110.057 42.6699 110.057 42.7731 109.998C42.8764 109.939 42.9354 109.832 42.9354 109.717V105.435C42.9354 104.914 42.6551 104.43 42.2052 104.168L22.4819 92.7996L22.4856 92.8033Z" fill="white"/>
<path d="M59.5681 100.791C59.4649 100.791 59.3837 100.71 59.3837 100.606V95.8071C59.3837 95.2862 59.1034 94.8022 58.6535 94.5399L38.6094 82.987C38.5209 82.9353 38.4914 82.8244 38.543 82.7358C38.5946 82.6471 38.7053 82.6175 38.7938 82.6692L58.8379 94.2221C59.4022 94.5472 59.7525 95.1568 59.7525 95.8071V100.606C59.7525 100.71 59.6714 100.791 59.5681 100.791Z" fill="white"/>
<path d="M76.9386 90.7898C76.8354 90.7898 76.7542 90.7085 76.7542 90.6051V86.0903C76.7542 85.5694 76.474 85.0854 76.024 84.8231L61.8069 76.6286C61.7184 76.5769 61.6889 76.466 61.7405 76.3774C61.7921 76.2887 61.9028 76.2591 61.9913 76.3109L76.2084 84.5054C76.7727 84.8305 77.123 85.4401 77.123 86.0903V90.6051C77.123 90.7085 77.0419 90.7898 76.9386 90.7898Z" fill="white"/>
<path d="M42.8837 110.364C42.821 110.364 42.7584 110.33 42.7252 110.271C42.6735 110.183 42.7067 110.072 42.7952 110.02L89.4149 83.3638C89.9939 82.9759 90.0345 82.5362 90.0234 82.0818L89.9128 78.088C89.9128 77.5634 89.6325 77.0757 89.1826 76.817L75.3342 68.6447C75.2457 68.593 75.2162 68.4784 75.2679 68.3935C75.3195 68.3048 75.4338 68.2752 75.5186 68.327L89.367 76.4993C89.9312 76.8244 90.2816 77.4303 90.2816 78.0843L90.3922 82.0744C90.3996 82.4475 90.4181 83.1421 89.6104 83.6815L42.9796 110.345C42.9501 110.36 42.9206 110.371 42.8874 110.371L42.8837 110.364Z" fill="white"/>
<path d="M28.2129 95.9548C28.1097 95.9548 28.0285 95.8735 28.0285 95.7701V84.0473C28.0285 83.5079 27.7372 83.0054 27.2725 82.7394L22.8469 80.1864C22.7584 80.1347 22.7289 80.0239 22.7805 79.9352C22.8322 79.8465 22.9465 79.817 23.0313 79.8687L27.4569 82.4217C28.0359 82.7542 28.3973 83.3822 28.3973 84.051V95.7738C28.3973 95.8772 28.3162 95.9585 28.2129 95.9585V95.9548Z" fill="white"/>
<path d="M45.9079 85.9502C45.8046 85.9502 45.7235 85.8689 45.7235 85.7654V74.0426C45.7235 73.5032 45.4321 73.0007 44.9674 72.7347L39.9739 69.9638C39.8854 69.9158 39.8522 69.8013 39.9001 69.7126C39.9481 69.6239 40.0624 69.5907 40.1509 69.6387L45.1444 72.4133C45.7271 72.7495 46.0886 73.3739 46.0886 74.0463V85.7691C46.0886 85.8726 46.0074 85.9538 45.9042 85.9538L45.9079 85.9502Z" fill="white"/>
<path d="M61.449 76.7285C61.3458 76.7285 61.2647 76.6472 61.2647 76.5437V64.8209C61.2647 64.2815 60.9733 63.7791 60.5086 63.5131L55.6442 60.7274C55.5557 60.6756 55.5262 60.5648 55.5741 60.4761C55.6257 60.3875 55.7364 60.3579 55.8249 60.4059L60.6893 63.1916C61.272 63.5278 61.6298 64.1522 61.6298 64.8209V76.5437C61.6298 76.6472 61.5486 76.7285 61.4454 76.7285H61.449Z" fill="white"/>
<path d="M75.2863 68.4933C75.183 68.4933 75.1019 68.412 75.1019 68.3085V56.9626C75.1019 56.4232 74.8105 55.9207 74.3458 55.6547L70.4477 53.7409C69.6879 53.3013 68.7549 53.2976 68.0025 53.7298L54.4824 61.4995C54.3939 61.5475 54.2833 61.5216 54.2316 61.433C54.18 61.3443 54.2132 61.2335 54.298 61.1817L67.8181 53.4121C68.6848 52.917 69.758 52.917 70.621 53.4158L74.5192 55.3296C75.1093 55.6695 75.4707 56.2939 75.4707 56.9663V68.3122C75.4707 68.4157 75.3895 68.497 75.2863 68.497V68.4933Z" fill="white"/>
<path d="M39.4651 80.0941L46.8079 75.9008C47.7889 75.3245 49.0538 75.7863 49.4374 76.8614L52.1112 84.3983C52.4947 85.3035 52.1444 86.3527 51.2924 86.8441L44.0234 90.9487C42.9797 91.5509 41.6447 91.067 41.228 89.9327L38.5062 82.5067C38.1632 81.5757 38.5763 80.5375 39.4614 80.0941H39.4651Z" fill="#2F3C63"/>
<path d="M43.0572 91.3959C42.8138 91.3959 42.5667 91.3552 42.3307 91.2666C41.7406 91.0523 41.2759 90.5905 41.0583 89.9993L38.3366 82.5733C37.9641 81.5536 38.4104 80.4193 39.3803 79.9354L46.7194 75.7457C47.232 75.4428 47.8516 75.3874 48.4122 75.5943C48.9727 75.8012 49.4116 76.2408 49.6108 76.8061L52.2845 84.343C52.7013 85.322 52.314 86.4747 51.3847 87.0104L44.112 91.1188C43.7874 91.3072 43.4186 91.4033 43.0535 91.4033L43.0572 91.3959ZM47.7262 75.8381C47.4385 75.8381 47.1546 75.9157 46.9001 76.0635L39.5573 80.2568H39.5463C38.7423 80.6632 38.3698 81.6016 38.6796 82.444L41.4013 89.87C41.582 90.3577 41.9619 90.7419 42.4524 90.9193C42.9429 91.0966 43.4813 91.0486 43.9313 90.79L51.204 86.6816C51.9711 86.2383 52.2882 85.2888 51.9416 84.4686L49.2641 76.9206C49.1018 76.4588 48.7441 76.1004 48.2868 75.9342C48.1061 75.8677 47.9143 75.8344 47.7262 75.8344V75.8381Z" fill="white"/>
<path d="M56.0352 70.7394L63.3779 66.5461C64.3589 65.9697 65.6239 66.4316 66.0075 67.5067L68.6812 75.0436C69.0648 75.9487 68.7144 76.998 67.8625 77.4894L60.5935 81.594C59.5498 82.1962 58.2148 81.7122 57.798 80.578L55.0763 73.1519C54.7333 72.2209 55.1464 71.1827 56.0315 70.7394H56.0352Z" fill="#2F3C63"/>
<path d="M59.6273 82.0412C59.3839 82.0412 59.1368 81.9968 58.9008 81.9119C58.3107 81.6976 57.846 81.2357 57.6284 80.6446L54.9067 73.2149C54.5342 72.1952 54.9804 71.0609 55.9504 70.577L63.2894 66.3873C63.8021 66.0844 64.4217 66.029 64.9822 66.2359C65.5428 66.4391 65.9817 66.8824 66.1808 67.4477L68.8546 74.9846C69.2713 75.9636 68.8841 77.1163 67.9547 77.652L60.682 81.7604C60.3575 81.9488 59.9887 82.0449 59.6236 82.0449L59.6273 82.0412ZM64.2963 66.4834C64.0086 66.4834 63.7246 66.561 63.4738 66.7088L56.1274 70.9021H56.1163C55.3124 71.3085 54.9399 72.2469 55.2497 73.0893L57.9714 80.519C58.1521 81.0067 58.5356 81.3909 59.0225 81.5683C59.513 81.7456 60.0514 81.6976 60.5013 81.4389L67.774 77.3306C68.5411 76.8873 68.8583 75.9341 68.5116 75.1176L65.8341 67.5696C65.6719 67.1078 65.3141 66.7494 64.8568 66.5831C64.6761 66.5166 64.4844 66.4834 64.2963 66.4834Z" fill="white"/>
<path d="M24.3848 99.8342V101.249C24.3848 101.249 24.7093 101.863 25.4285 101.452V100.433" fill="white"/>
<path d="M24.9638 101.781C24.8864 101.781 24.8089 101.77 24.7352 101.748C24.3922 101.648 24.2336 101.349 24.2262 101.338C24.2115 101.312 24.2041 101.282 24.2041 101.253V99.8378C24.2041 99.7344 24.2852 99.6531 24.3885 99.6531C24.4918 99.6531 24.5729 99.7344 24.5729 99.8378V101.197C24.6098 101.249 24.702 101.356 24.8421 101.397C24.9601 101.43 25.0966 101.412 25.2478 101.345V100.44C25.2478 100.337 25.3289 100.255 25.4322 100.255C25.5355 100.255 25.6166 100.337 25.6166 100.44V101.46C25.6166 101.526 25.5797 101.585 25.5244 101.619C25.3289 101.729 25.1445 101.785 24.9675 101.785L24.9638 101.781Z" fill="white"/>
<path d="M38.7017 108.166V109.581C38.7017 109.581 39.0262 110.194 39.7454 109.784V108.764" fill="white"/>
<path d="M39.2771 110.109C39.1996 110.109 39.1222 110.098 39.0484 110.076C38.7054 109.976 38.5468 109.677 38.5395 109.665C38.5247 109.64 38.5173 109.61 38.5173 109.58V108.165C38.5173 108.062 38.5985 107.981 38.7017 107.981C38.805 107.981 38.8861 108.062 38.8861 108.165V109.525C38.923 109.577 39.0152 109.684 39.1554 109.721C39.2734 109.754 39.4098 109.736 39.561 109.669V108.764C39.561 108.661 39.6422 108.579 39.7454 108.579C39.8487 108.579 39.9298 108.661 39.9298 108.764V109.784C39.9298 109.85 39.8929 109.913 39.8376 109.943C39.6422 110.053 39.4578 110.109 39.2807 110.109H39.2771Z" fill="white"/>
<path d="M87.947 84.4575V85.8023C87.947 85.8023 87.6225 86.4156 86.9033 86.0055V85.056" fill="white"/>
<path d="M87.3681 86.3343C87.1911 86.3343 87.003 86.2788 86.8112 86.168C86.7522 86.1348 86.719 86.0756 86.719 86.0091V85.0596C86.719 84.9562 86.8001 84.8749 86.9034 84.8749C87.0067 84.8749 87.0878 84.9562 87.0878 85.0596V85.8983C87.239 85.9685 87.3755 85.9833 87.4935 85.95C87.6336 85.9094 87.7221 85.8059 87.7627 85.7505V84.4574C87.7627 84.354 87.8438 84.2727 87.9471 84.2727C88.0504 84.2727 88.1315 84.354 88.1315 84.4574V85.8023C88.1315 85.8318 88.1241 85.8614 88.1094 85.8872C88.102 85.8983 87.9434 86.1976 87.6004 86.2973C87.5267 86.3195 87.4492 86.3306 87.3718 86.3306L87.3681 86.3343Z" fill="white"/>
<path d="M85.5133 107.751C85.8458 103.913 80.8547 100.344 74.3654 99.7801C67.8761 99.2159 62.3459 101.87 62.0134 105.708C61.6809 109.546 66.672 113.114 73.1614 113.679C79.6507 114.243 85.1809 111.589 85.5133 107.751Z" fill="#2F3C63"/>
<path d="M74.8954 113.929C74.3164 113.929 73.73 113.903 73.1399 113.851C66.5606 113.279 61.4823 109.614 61.8252 105.683C61.9912 103.758 63.4 102.066 65.7972 100.917C68.1575 99.7824 71.2074 99.3095 74.3754 99.5866C77.5471 99.8637 80.468 100.854 82.5996 102.376C84.7608 103.92 85.8598 105.83 85.6938 107.755C85.5279 109.68 84.119 111.372 81.7219 112.521C79.8004 113.445 77.4217 113.929 74.8954 113.929ZM72.6199 99.8785C70.149 99.8785 67.8293 100.351 65.9558 101.249C63.684 102.339 62.3489 103.924 62.194 105.712C61.8695 109.444 66.7966 112.928 73.1731 113.482C76.2784 113.752 79.2583 113.29 81.5633 112.185C83.8351 111.095 85.1701 109.51 85.325 107.722C85.4799 105.934 84.4362 104.142 82.3857 102.675C80.3057 101.19 77.4512 100.222 74.3459 99.9524C73.7669 99.9007 73.1916 99.8785 72.6236 99.8785H72.6199Z" fill="white"/>
<path d="M2.43768 42.9047C2.40449 42.9047 2.3713 42.8937 2.33811 42.8752L0.125324 41.4676C0.0405004 41.4121 0.0146845 41.2976 0.0700042 41.2126C0.125324 41.1277 0.239651 41.1018 0.324474 41.1572L2.53726 42.5648C2.62208 42.6203 2.6479 42.7348 2.59258 42.8198C2.55939 42.8752 2.49669 42.9047 2.43768 42.9047Z" fill="white"/>
</g>
<defs>
<clipPath id="clip0_397_10015">
<rect width="165" height="166" fill="white"/>
</clipPath>
</defs>
</svg>
