<svg width="160" height="155" viewBox="0 0 160 155" fill="none" xmlns="http://www.w3.org/2000/svg">
<path d="M81.576 0.169678L159.089 45.1315V108.225L79.3606 154.829L2.27954 110.051V46.4015L81.576 0.169678Z" fill="#2F3C63"/>
<path d="M79.3608 155C79.3302 155 79.303 154.993 79.2758 154.976L2.19481 110.198C2.14044 110.168 2.10986 110.113 2.10986 110.052V46.4017C2.10986 46.3402 2.14044 46.2856 2.19481 46.2549L81.4913 0.0230442C81.5422 -0.00768141 81.6102 -0.00768141 81.6612 0.0230442L159.17 44.9849C159.221 45.0156 159.255 45.0703 159.255 45.1317V108.225C159.255 108.287 159.225 108.341 159.17 108.372L79.4457 154.976C79.4186 154.99 79.3914 155 79.3608 155ZM2.44965 109.953L79.3642 154.631L158.922 108.126V45.2307L81.5796 0.367854L2.44965 46.5007V109.956V109.953Z" fill="white"/>
<path d="M4.31519 104.367L80.6079 59.9448L156.918 102.718" fill="#2F3C63"/>
<path d="M4.31527 104.538C4.2575 104.538 4.19974 104.507 4.16916 104.453C4.12159 104.371 4.14877 104.268 4.23032 104.22L80.523 59.7945C80.574 59.7638 80.6386 59.7638 80.6895 59.7945L156.999 102.568C157.081 102.612 157.111 102.718 157.064 102.8C157.016 102.882 156.914 102.913 156.833 102.865L80.608 60.1393L4.40022 104.514C4.37303 104.531 4.34245 104.538 4.31527 104.538Z" fill="white"/>
<path d="M80.6078 59.9448L4.17578 104.449L79.3608 147.817L157.149 102.787L80.6078 59.9448Z" fill="#8DAEFF"/>
<path d="M79.361 147.987C79.3304 147.987 79.3032 147.981 79.2761 147.963L4.09105 104.596C4.03668 104.565 4.0061 104.511 4.0061 104.449C4.0061 104.388 4.03668 104.333 4.09105 104.302L80.5231 59.7945C80.5741 59.7638 80.6386 59.7638 80.6896 59.7945L157.23 102.636C157.285 102.667 157.319 102.722 157.319 102.783C157.319 102.845 157.288 102.903 157.234 102.933L79.4494 147.963C79.4222 147.977 79.395 147.987 79.3644 147.987H79.361ZM4.51579 104.449L79.3644 147.619L156.806 102.79L80.6114 60.1428L4.51579 104.449Z" fill="white"/>
<path d="M79.3609 147.988C79.3032 147.988 79.2454 147.957 79.2148 147.902C79.1672 147.82 79.1944 147.718 79.276 147.67L159.001 101.449C159.082 101.401 159.184 101.428 159.232 101.51C159.279 101.592 159.252 101.694 159.17 101.742L79.4459 147.964C79.4187 147.981 79.3881 147.988 79.3609 147.988Z" fill="white"/>
<path d="M79.3608 147.988C79.3336 147.988 79.303 147.981 79.2758 147.964L2.29673 103.309C2.21518 103.262 2.188 103.159 2.23557 103.077C2.28314 102.995 2.38507 102.968 2.46662 103.016L79.4457 147.67C79.5273 147.718 79.5545 147.821 79.5069 147.902C79.4763 147.957 79.4185 147.988 79.3608 147.988Z" fill="white"/>
<path d="M156.999 46.3128C156.972 46.3128 156.941 46.306 156.914 46.2889L79.609 1.44651C79.5274 1.39872 79.5003 1.2963 79.5478 1.21436C79.5954 1.13243 79.6973 1.10512 79.7789 1.15291L157.084 45.9953C157.166 46.0431 157.193 46.1455 157.145 46.2274C157.115 46.2821 157.057 46.3128 156.999 46.3128Z" fill="white"/>
<path d="M156.993 102.691C156.898 102.691 156.823 102.616 156.823 102.521V46.1424C156.823 46.0468 156.898 45.9717 156.993 45.9717C157.088 45.9717 157.163 46.0468 157.163 46.1424V102.521C157.163 102.616 157.088 102.691 156.993 102.691Z" fill="white"/>
<path d="M156.999 46.3131C156.935 46.3131 156.877 46.2789 156.846 46.2175C156.806 46.1321 156.839 46.0297 156.924 45.9888L159.014 44.9782C159.099 44.9372 159.201 44.9714 159.242 45.0567C159.283 45.1421 159.249 45.2445 159.164 45.2855L157.074 46.296C157.05 46.3062 157.026 46.3131 156.999 46.3131Z" fill="white"/>
<path d="M79.3611 147.817V154.829L159.089 108.225V101.595L79.3611 147.817Z" fill="#FCE72D"/>
<path d="M79.3611 155C79.3305 155 79.3033 154.993 79.2761 154.976C79.2217 154.945 79.1912 154.89 79.1912 154.829V147.813C79.1912 147.752 79.2251 147.697 79.2761 147.667L159.001 101.445C159.052 101.414 159.12 101.414 159.171 101.445C159.222 101.476 159.256 101.53 159.256 101.592V108.222C159.256 108.283 159.225 108.338 159.171 108.368L79.446 154.972C79.4188 154.986 79.3916 154.996 79.3611 154.996V155ZM79.531 147.912V154.532L158.916 108.126V101.889L79.531 147.912Z" fill="white"/>
<path d="M0 106.733L93.1632 50.9626L96.9587 69.3059L16.3744 116.166L0 106.733Z" fill="#2F3C63"/>
<path d="M4.35962 47.8152C4.33244 47.8152 4.30185 47.8084 4.27467 47.7913L2.19517 46.5827C2.11362 46.5349 2.08643 46.4325 2.134 46.3506C2.18157 46.2687 2.28351 46.2413 2.36506 46.2891L4.44457 47.4977C4.52611 47.5455 4.5533 47.6479 4.50573 47.7298C4.47515 47.7845 4.41738 47.8152 4.35962 47.8152Z" fill="white"/>
<path d="M2.38148 103.162L79.3606 147.817V154.829L2.27954 110.052L2.38148 103.162Z" fill="#FCE72D"/>
<path d="M79.3608 155C79.3302 155 79.303 154.993 79.2758 154.976L2.19481 110.198C2.14044 110.168 2.10986 110.11 2.10986 110.048L2.2152 103.159C2.2152 103.097 2.24918 103.043 2.30014 103.012C2.35451 102.981 2.41567 102.981 2.47004 103.012L79.4491 147.667C79.5001 147.697 79.5341 147.752 79.5341 147.813V154.829C79.5341 154.891 79.5001 154.945 79.4491 154.976C79.422 154.99 79.3948 155 79.3642 155H79.3608ZM2.44965 109.953L79.1909 154.532V147.912L2.54819 103.456L2.44965 109.956V109.953Z" fill="white"/>
<path d="M4.31516 104.62C4.22002 104.62 4.14526 104.545 4.14526 104.45V47.7028C4.14866 47.6414 4.18264 47.5867 4.23361 47.556L83.1699 0.996419C83.248 0.948623 83.3534 0.975935 83.4009 1.05787C83.4485 1.13981 83.4213 1.24222 83.3398 1.29002L4.48845 47.8018V104.45C4.48505 104.545 4.4069 104.62 4.31516 104.62Z" fill="white"/>
<path d="M20.5096 94.593C20.4518 94.593 20.3941 94.5623 20.3635 94.5076C20.3159 94.4257 20.3431 94.3233 20.4247 94.2755L96.7751 50.0033C96.8567 49.9555 96.9586 49.9828 97.0062 50.0647C97.0538 50.1466 97.0266 50.2491 96.945 50.2969L20.5946 94.5725C20.5674 94.5896 20.5368 94.5964 20.5096 94.5964V94.593Z" fill="white"/>
<path d="M39.4019 64.6424C39.3442 64.6424 39.2864 64.6117 39.2558 64.5571C39.2083 64.4751 39.2354 64.3727 39.317 64.3249L80.4416 40.5091C80.5232 40.4613 80.6251 40.4886 80.6727 40.5706C80.7202 40.6525 80.693 40.7549 80.6115 40.8027L39.4869 64.6185C39.4597 64.6322 39.4291 64.6424 39.4019 64.6424Z" fill="white"/>
<path d="M20.5096 113.838C20.4518 113.838 20.3941 113.807 20.3635 113.752C20.3159 113.67 20.3431 113.568 20.4247 113.52L96.8737 69.1556C96.9552 69.1078 97.0572 69.1351 97.1047 69.217C97.1523 69.299 97.1251 69.4014 97.0436 69.4492L20.5946 113.817C20.5674 113.834 20.5368 113.841 20.5096 113.841V113.838Z" fill="white"/>
<path d="M20.5097 113.838C20.4146 113.838 20.3398 113.763 20.3398 113.667V90.0901C20.3398 89.9945 20.4146 89.9194 20.5097 89.9194C20.6049 89.9194 20.6796 89.9945 20.6796 90.0901V113.667C20.6796 113.763 20.6049 113.838 20.5097 113.838Z" fill="white"/>
<path d="M96.9587 69.4763C96.8636 69.4763 96.7888 69.4012 96.7888 69.3056V50.0611C96.7888 49.9655 96.8636 49.8904 96.9587 49.8904C97.0539 49.8904 97.1286 49.9655 97.1286 50.0611V69.3056C97.1286 69.4012 97.0539 69.4763 96.9587 69.4763Z" fill="white"/>
<path d="M20.4316 94.5932C20.4044 94.5932 20.3738 94.5864 20.3467 94.5693L4.42417 85.3891C4.34262 85.3413 4.31544 85.2389 4.36301 85.157C4.41058 85.0751 4.51251 85.0477 4.59406 85.0955L20.5166 94.2757C20.5981 94.3235 20.6253 94.4259 20.5777 94.5078C20.5471 94.5625 20.4894 94.5932 20.4316 94.5932Z" fill="white"/>
<path d="M96.9992 50.2319C96.9721 50.2319 96.9415 50.2251 96.9143 50.208L80.703 40.8606C80.6214 40.8128 80.5942 40.7104 80.6418 40.6284C80.6894 40.5465 80.7913 40.5192 80.8729 40.567L97.0842 49.9144C97.1657 49.9622 97.1929 50.0646 97.1453 50.1465C97.1148 50.2012 97.057 50.2319 96.9992 50.2319Z" fill="white"/>
<path d="M39.531 84.9214L53.5915 76.6528L53.6424 94.4054" fill="#2F3C63"/>
<path d="M53.6425 94.5763C53.5474 94.5763 53.4726 94.5012 53.4726 94.4056L53.4216 76.9534L39.616 85.0718C39.5345 85.1196 39.4326 85.0923 39.385 85.0104C39.3374 84.9284 39.3646 84.826 39.4461 84.7782L53.5066 76.5096C53.561 76.4789 53.6255 76.4789 53.6765 76.5096C53.7275 76.5403 53.7614 76.595 53.7614 76.6564L53.8124 94.4056C53.8124 94.5012 53.7376 94.5763 53.6425 94.5763Z" fill="white"/>
<path d="M53.6423 76.5945L67.7028 68.3259L67.7538 86.0785" fill="#2F3C63"/>
<path d="M67.7539 86.2494C67.6587 86.2494 67.584 86.1743 67.584 86.0787L67.5364 68.6265L53.7308 76.7449C53.6492 76.7927 53.5473 76.7654 53.4997 76.6835C53.4522 76.6015 53.4793 76.4991 53.5609 76.4513L67.6213 68.1827C67.6757 68.152 67.7403 68.152 67.7912 68.1827C67.8422 68.2134 67.8762 68.2681 67.8762 68.3295L67.9271 86.0787C67.9271 86.1743 67.8524 86.2494 67.7573 86.2494H67.7539Z" fill="white"/>
<path d="M67.7537 68.3162L81.8141 60.0476L81.8617 77.947" fill="#2F3C63"/>
<path d="M81.8652 78.1176C81.77 78.1176 81.6953 78.0425 81.6953 77.9469L81.6443 60.3445L67.8387 68.4629C67.7571 68.5107 67.6552 68.4834 67.6076 68.4015C67.5601 68.3196 67.5872 68.2171 67.6688 68.1693L81.7292 59.9007C81.7836 59.87 81.8482 59.87 81.8991 59.9007C81.9535 59.9315 81.9841 59.9861 81.9841 60.0475L82.0351 77.9469C82.0351 78.0425 81.9603 78.1176 81.8652 78.1176Z" fill="white"/>
<path d="M81.8618 60.0577L95.9223 51.7891V69.8318" fill="#2F3C63"/>
<path d="M95.9224 70.0027C95.8272 70.0027 95.7525 69.9276 95.7525 69.832V52.0897L81.9503 60.2081C81.8687 60.2559 81.7668 60.2285 81.7192 60.1466C81.6716 60.0647 81.6988 59.9623 81.7804 59.9145L95.8408 51.6458C95.8952 51.6151 95.9597 51.6151 96.0107 51.6458C96.0651 51.6766 96.0957 51.7312 96.0957 51.7926V69.8354C96.0957 69.931 96.0209 70.0061 95.9258 70.0061L95.9224 70.0027Z" fill="white"/>
<path d="M82.9152 127.801L131.128 99.7312L131.06 99.6527V82.7058L87.6145 96.4982L69.8945 99.7039V120.307" fill="#2F3C63"/>
<path d="M82.9152 127.971C82.8574 127.971 82.7997 127.941 82.7691 127.886C82.7215 127.804 82.7487 127.702 82.8303 127.654L130.89 99.6729C130.89 99.6729 130.89 99.6627 130.89 99.6559V82.9411L87.6654 96.6618L70.0644 99.847V120.31C70.0644 120.406 69.9896 120.481 69.8945 120.481C69.7994 120.481 69.7246 120.406 69.7246 120.31V99.7071C69.7246 99.6251 69.7824 99.5534 69.8639 99.5398L87.5839 96.3341L131.009 82.5485C131.06 82.5314 131.118 82.5417 131.162 82.5724C131.206 82.6031 131.23 82.6543 131.23 82.709V99.5876L131.254 99.6149C131.288 99.6525 131.304 99.7037 131.298 99.7549C131.291 99.8061 131.26 99.8505 131.216 99.8778L83.0035 127.951C82.9764 127.968 82.9458 127.975 82.9186 127.975L82.9152 127.971Z" fill="white"/>
<path d="M95.7933 123.147L102.858 119.064C102.949 119.009 103.061 119.006 103.16 119.047L110.037 122.058C110.289 122.167 110.309 122.519 110.075 122.659L102.841 126.967C102.745 127.025 102.626 127.029 102.525 126.981L95.8171 123.745C95.5724 123.629 95.5588 123.284 95.7967 123.147H95.7933Z" fill="#5B80FF"/>
<path d="M110.292 114.456L117.356 110.373C117.448 110.318 117.56 110.315 117.659 110.356L124.536 113.367C124.787 113.476 124.808 113.828 124.573 113.968L117.339 118.276C117.244 118.334 117.125 118.337 117.023 118.29L110.316 115.053C110.071 114.937 110.058 114.592 110.295 114.456H110.292Z" fill="#5B80FF"/>
<path d="M124.424 107.003L131.488 102.92C131.58 102.865 131.692 102.862 131.79 102.903L138.668 105.914C138.919 106.023 138.939 106.375 138.705 106.515L131.471 110.823C131.376 110.881 131.257 110.885 131.155 110.837L124.447 107.6C124.203 107.484 124.189 107.139 124.427 107.003H124.424Z" fill="#5B80FF"/>
<path d="M69.8945 120.478C69.7994 120.478 69.7246 120.403 69.7246 120.307V103.227C69.7246 103.132 69.7994 103.056 69.8945 103.056C69.9896 103.056 70.0644 103.132 70.0644 103.227V120.307C70.0644 120.403 69.9896 120.478 69.8945 120.478Z" fill="white"/>
<path d="M20.5097 103.302C20.4146 103.302 20.3398 103.227 20.3398 103.132V57.1592C20.3398 57.0636 20.4146 56.9885 20.5097 56.9885C20.6049 56.9885 20.6796 57.0636 20.6796 57.1592V103.132C20.6796 103.227 20.6049 103.302 20.5097 103.302Z" fill="white"/>
<path d="M39.4018 102.708C39.3067 102.708 39.2319 102.633 39.2319 102.537V46.5313C39.2319 46.4357 39.3067 46.3606 39.4018 46.3606C39.497 46.3606 39.5717 46.4357 39.5717 46.5313V102.534C39.5717 102.629 39.497 102.705 39.4018 102.705V102.708Z" fill="white"/>
<path d="M82.9153 127.972C82.8201 127.972 82.7454 127.897 82.7454 127.801V110.574C82.7454 110.479 82.8201 110.404 82.9153 110.404C83.0104 110.404 83.0851 110.479 83.0851 110.574V127.801C83.0851 127.897 83.0104 127.972 82.9153 127.972Z" fill="white"/>
<path d="M135.739 78.6262V79.7016L82.9288 110.574L64.604 100.127V99.1373" fill="#2F3C63"/>
<path d="M82.9288 110.745C82.9016 110.745 82.871 110.738 82.8438 110.721L64.5224 100.274C64.4681 100.243 64.4375 100.189 64.4375 100.127V99.1337C64.4375 99.0381 64.5123 98.963 64.6074 98.963C64.7025 98.963 64.7773 99.0381 64.7773 99.1337V100.028L82.9288 110.379L135.569 79.6024V78.626C135.569 78.5304 135.644 78.4553 135.739 78.4553C135.834 78.4553 135.909 78.5304 135.909 78.626V79.7014C135.909 79.7629 135.878 79.8175 135.824 79.8482L83.0137 110.724C82.9866 110.738 82.9594 110.748 82.9288 110.748V110.745Z" fill="white"/>
<path d="M117.38 68.1519L135.739 78.6259L82.8917 109.546L82.7761 109.495L64.6042 99.0619L117.38 68.1519Z" fill="#2F3C63"/>
<path d="M82.8914 109.717C82.8676 109.717 82.8438 109.714 82.8234 109.704L82.7079 109.652L64.519 99.2125C64.4647 99.1818 64.4341 99.1271 64.4341 99.0657C64.4341 99.0042 64.4647 98.9496 64.519 98.9189L117.295 68.0089C117.346 67.9782 117.411 67.9782 117.465 68.0089L135.824 78.4829C135.878 78.5136 135.909 78.5683 135.909 78.6297C135.909 78.6912 135.878 78.7458 135.824 78.7765L82.9763 109.693C82.9492 109.71 82.9186 109.717 82.8914 109.717ZM64.9438 99.0623L82.8778 109.355L135.396 78.6297L117.38 68.3503L64.9438 99.0623Z" fill="white"/>
<path d="M82.837 127.923C82.8098 127.923 82.7792 127.917 82.752 127.9L69.8129 120.471C69.7313 120.423 69.7042 120.321 69.7483 120.239C69.7959 120.157 69.8978 120.129 69.9794 120.174L82.9185 127.603C83.0001 127.65 83.0273 127.753 82.9831 127.835C82.9525 127.889 82.8948 127.92 82.837 127.92V127.923Z" fill="white"/>
<path d="M20.5095 57.4185C20.4517 57.4185 20.394 57.3878 20.3634 57.3332C20.3158 57.2512 20.3464 57.1488 20.4279 57.101L39.2318 46.289C39.3134 46.2412 39.4153 46.2685 39.4629 46.3539C39.5105 46.4358 39.4799 46.5382 39.3983 46.586L20.5944 57.398C20.5672 57.4117 20.5401 57.4219 20.5095 57.4219V57.4185Z" fill="white"/>
<path d="M39.3136 46.6032C39.2864 46.6032 39.2558 46.5964 39.2286 46.5793L22.6266 37.0066C22.545 36.9588 22.5178 36.8564 22.5654 36.7744C22.613 36.6925 22.7149 36.6652 22.7965 36.713L39.3985 46.2857C39.4801 46.3335 39.5073 46.4359 39.4597 46.5179C39.4291 46.5725 39.3713 46.6032 39.3136 46.6032Z" fill="white"/>
<path d="M20.5096 57.3301C20.479 57.3301 20.4518 57.3233 20.4247 57.3062L4.27451 47.7915C4.19296 47.7437 4.16578 47.6379 4.21335 47.5593C4.26092 47.4774 4.36625 47.4501 4.44441 47.4979L20.5946 57.0126C20.6761 57.0604 20.7033 57.1662 20.6557 57.2447C20.6251 57.2994 20.5674 57.3301 20.5096 57.3301Z" fill="white"/>
<path d="M64.5123 64.53L56.8705 60.126C56.0142 59.6309 56.0142 58.3882 56.8705 57.8932L67.5398 51.7447C67.9306 51.5194 68.4131 51.5159 68.8072 51.7413L76.3811 56.0326C77.2408 56.5208 77.251 57.7601 76.4015 58.2619L65.7967 64.5265C65.3992 64.7621 64.9099 64.7621 64.5089 64.5334L64.5123 64.53Z" fill="#2F3C63"/>
<path d="M65.1511 64.8714C64.9031 64.8714 64.6516 64.8065 64.4308 64.6768L56.7889 60.2728C56.3336 60.0099 56.0618 59.5353 56.0618 59.0096C56.0618 58.4838 56.3336 58.0093 56.7889 57.7464L67.4583 51.5979C67.9 51.3452 68.4505 51.3418 68.8922 51.591L76.4661 55.8824C76.9248 56.1419 77.2 56.6096 77.2034 57.1387C77.2068 57.6679 76.9418 58.1424 76.4865 58.4087L65.8817 64.6733C65.654 64.8065 65.4026 64.8748 65.1477 64.8748L65.1511 64.8714ZM68.182 51.7447C67.9917 51.7447 67.7981 51.7925 67.6282 51.8915L56.9588 58.04C56.6088 58.2414 56.4016 58.6033 56.4016 59.0096C56.4016 59.4159 56.6088 59.7777 56.9588 59.9792L64.6007 64.3832C64.9472 64.5812 65.372 64.5812 65.7152 64.3763L76.32 58.1117C76.6665 57.9069 76.8704 57.545 76.867 57.1387C76.8636 56.7359 76.653 56.374 76.303 56.176L68.7291 51.8847C68.5592 51.7891 68.3723 51.7413 68.182 51.7413V51.7447Z" fill="white"/>
<path d="M58.8784 61.2798L66.7071 56.7665C66.996 56.5992 67.3493 56.5992 67.6348 56.7631L73.1937 59.9108" fill="#2F3C63"/>
<path d="M58.8785 61.4505C58.8207 61.4505 58.763 61.4198 58.7324 61.3652C58.6848 61.2832 58.7154 61.1808 58.7935 61.133L66.6223 56.6198C66.9621 56.4252 67.38 56.4252 67.7198 56.6163L73.2787 59.764C73.3603 59.8118 73.3909 59.9142 73.3433 59.9962C73.2957 60.0781 73.1904 60.1054 73.1122 60.061L67.5533 56.9134C67.3188 56.7802 67.0266 56.7802 66.7922 56.9134L58.9634 61.4266C58.9363 61.4403 58.9091 61.4505 58.8785 61.4505Z" fill="white"/>
<path d="M60.4211 54.8483C61.273 54.8483 61.9637 54.5013 61.9637 54.0733C61.9637 53.6453 61.273 53.2983 60.4211 53.2983C59.5691 53.2983 58.8784 53.6453 58.8784 54.0733C58.8784 54.5013 59.5691 54.8483 60.4211 54.8483Z" fill="#2F3C63"/>
<path d="M60.4213 55.0183C59.4597 55.0183 58.7087 54.6018 58.7087 54.0726C58.7087 53.5435 59.4631 53.127 60.4213 53.127C61.3795 53.127 62.1338 53.54 62.1338 54.0726C62.1338 54.6052 61.3795 55.0183 60.4213 55.0183ZM60.4213 53.4718C59.6126 53.4718 59.0485 53.7893 59.0485 54.076C59.0485 54.3628 59.6126 54.6803 60.4213 54.6803C61.23 54.6803 61.794 54.3628 61.794 54.076C61.794 53.7893 61.23 53.4718 60.4213 53.4718Z" fill="white"/>
<path d="M80.737 40.8268C80.6419 40.8268 80.5671 40.7517 80.5671 40.6561L81.138 2.44707C81.138 2.35147 81.2127 2.27637 81.3079 2.27637C81.403 2.27637 81.4778 2.35147 81.4778 2.44707L80.9069 40.6561C80.9069 40.7517 80.8322 40.8268 80.737 40.8268Z" fill="white"/>
<path d="M108.984 109.283C108.926 109.283 108.868 109.253 108.838 109.198C108.79 109.116 108.821 109.01 108.902 108.966L114.451 105.805C114.533 105.757 114.635 105.788 114.682 105.869C114.73 105.951 114.699 106.057 114.618 106.102L109.069 109.263C109.042 109.277 109.014 109.287 108.984 109.287V109.283Z" fill="white"/>
<path d="M120.227 109.457C120.2 109.457 120.169 109.451 120.146 109.437L114.549 106.317C114.468 106.272 114.437 106.166 114.481 106.084C114.526 106.003 114.631 105.972 114.712 106.016L120.309 109.137C120.39 109.181 120.421 109.287 120.377 109.369C120.346 109.427 120.288 109.457 120.227 109.457Z" fill="white"/>
<path d="M114.896 113.039C114.838 113.039 114.781 113.008 114.75 112.953C114.702 112.871 114.73 112.769 114.811 112.721L120.292 109.533C120.37 109.485 120.475 109.512 120.523 109.594C120.571 109.676 120.543 109.778 120.462 109.826L114.981 113.015C114.954 113.032 114.927 113.039 114.896 113.039Z" fill="white"/>
<path d="M114.896 113.039C114.869 113.039 114.838 113.032 114.811 113.015L108.865 109.594C108.783 109.546 108.756 109.444 108.8 109.362C108.848 109.28 108.95 109.253 109.031 109.297L114.978 112.718C115.059 112.766 115.086 112.868 115.042 112.95C115.012 113.005 114.954 113.036 114.896 113.036V113.039Z" fill="white"/>
<path d="M117.04 97.4917L115.08 102.667L107.873 98.6593V97.7887" fill="#2F3C63"/>
<path d="M115.08 102.838C115.053 102.838 115.022 102.831 114.998 102.817L107.791 98.8094C107.737 98.7787 107.703 98.7207 107.703 98.6592V97.7886C107.703 97.6931 107.778 97.618 107.873 97.618C107.968 97.618 108.043 97.6931 108.043 97.7886V98.5602L114.991 102.425L116.881 97.4336C116.915 97.3448 117.013 97.3039 117.101 97.3346C117.19 97.3687 117.234 97.4677 117.2 97.5565L115.239 102.732C115.222 102.78 115.185 102.814 115.137 102.831C115.117 102.838 115.1 102.841 115.08 102.841V102.838Z" fill="white"/>
<path d="M118.083 96.8051L113.901 94.7908C113.748 94.7191 113.571 94.7225 113.422 94.8011L107.873 97.7849" fill="#2F3C63"/>
<path d="M107.873 97.959C107.812 97.959 107.754 97.9248 107.723 97.8702C107.679 97.7883 107.71 97.6825 107.791 97.6381L113.34 94.6543C113.537 94.5484 113.772 94.545 113.972 94.6406L118.155 96.6549C118.24 96.6958 118.274 96.7982 118.236 96.8836C118.196 96.9689 118.094 97.0031 118.009 96.9655L113.826 94.9513C113.724 94.9035 113.602 94.9035 113.503 94.9581L107.954 97.9419C107.927 97.9556 107.9 97.9624 107.873 97.9624V97.959Z" fill="white"/>
<path d="M115.379 102.053C115.352 102.053 115.324 102.046 115.297 102.032L107.832 97.9389C107.751 97.8945 107.72 97.7887 107.764 97.7068C107.808 97.6248 107.914 97.5941 107.995 97.6385L115.46 101.732C115.542 101.776 115.572 101.882 115.528 101.964C115.498 102.022 115.44 102.053 115.379 102.053Z" fill="white"/>
<path d="M122.755 94.4325L121.087 99.3349L115.083 102.67L117.043 97.4197C117.105 97.2592 117.217 97.1295 117.366 97.0442L122.436 94.1662C122.616 94.0638 122.827 94.2413 122.759 94.4359L122.755 94.4325Z" fill="#2F3C63"/>
<path d="M115.08 102.838C115.039 102.838 115.001 102.824 114.967 102.797C114.913 102.749 114.896 102.674 114.92 102.609L116.881 97.3582C116.955 97.1602 117.095 96.9963 117.278 96.8939L122.348 94.016C122.49 93.934 122.667 93.9511 122.793 94.0569C122.922 94.1628 122.966 94.3335 122.915 94.4905L121.247 99.3929C121.233 99.4339 121.206 99.4681 121.169 99.4885L115.165 102.824C115.137 102.838 115.11 102.844 115.083 102.844L115.08 102.838ZM122.541 94.2993C122.541 94.2993 122.524 94.2993 122.514 94.3061L117.445 97.1875C117.332 97.2524 117.244 97.3548 117.2 97.4743L115.402 102.291L120.948 99.212L122.596 94.371C122.606 94.3403 122.596 94.3198 122.579 94.3096C122.572 94.3027 122.558 94.2959 122.545 94.2959L122.541 94.2993Z" fill="white"/>
<path d="M108.145 114.138C108.145 114.138 108.121 114.138 108.111 114.138C107.924 114.118 107.788 113.95 107.808 113.763L109.249 99.9087C109.269 99.7209 109.432 99.5843 109.623 99.6048C109.81 99.6253 109.945 99.7926 109.925 99.9803L108.484 113.834C108.467 114.008 108.318 114.141 108.148 114.141L108.145 114.138Z" fill="white"/>
<path d="M115.08 116.719C114.9 116.719 114.75 116.579 114.74 116.395L114.009 102.49C113.999 102.302 114.142 102.142 114.332 102.131C114.512 102.121 114.679 102.268 114.689 102.456L115.419 116.361C115.43 116.549 115.287 116.709 115.097 116.719C115.09 116.719 115.083 116.719 115.08 116.719Z" fill="white"/>
<path d="M113.734 110.557C113.551 110.557 113.398 110.41 113.394 110.222L113.228 102.124C113.224 101.937 113.374 101.78 113.561 101.776C113.761 101.776 113.904 101.923 113.907 102.111L114.074 110.209C114.077 110.396 113.928 110.553 113.741 110.557H113.734Z" fill="white"/>
<path d="M120.941 114.582C120.771 114.582 120.625 114.456 120.604 114.282L118.926 100.677C118.902 100.489 119.035 100.319 119.221 100.295C119.408 100.267 119.578 100.404 119.602 100.592L121.281 114.196C121.304 114.384 121.172 114.555 120.985 114.579C120.971 114.579 120.958 114.579 120.944 114.579L120.941 114.582Z" fill="white"/>
<path d="M123.503 102.428C123.445 102.428 123.387 102.398 123.357 102.343C123.309 102.261 123.34 102.155 123.421 102.111L128.97 98.9494C129.052 98.9016 129.154 98.9323 129.201 99.0143C129.249 99.0962 129.218 99.202 129.137 99.2464L123.588 102.408C123.561 102.421 123.533 102.432 123.503 102.432V102.428Z" fill="white"/>
<path d="M134.75 102.602C134.723 102.602 134.692 102.596 134.668 102.582L129.072 99.4616C128.991 99.4173 128.96 99.3114 129.004 99.2295C129.048 99.1475 129.154 99.1168 129.235 99.1612L134.831 102.282C134.913 102.326 134.944 102.432 134.899 102.514C134.869 102.572 134.811 102.602 134.75 102.602Z" fill="white"/>
<path d="M129.415 106.183C129.357 106.183 129.3 106.153 129.269 106.098C129.221 106.016 129.249 105.914 129.33 105.866L134.811 102.677C134.889 102.63 134.994 102.657 135.042 102.739C135.09 102.821 135.062 102.923 134.981 102.971L129.5 106.16C129.473 106.177 129.446 106.183 129.415 106.183Z" fill="white"/>
<path d="M129.415 106.184C129.388 106.184 129.357 106.177 129.33 106.16L123.384 102.739C123.302 102.691 123.275 102.589 123.319 102.507C123.367 102.425 123.469 102.398 123.55 102.442L129.497 105.863C129.578 105.911 129.605 106.013 129.561 106.095C129.531 106.15 129.473 106.18 129.415 106.18V106.184Z" fill="white"/>
<path d="M131.559 90.6362L129.602 95.8118L122.395 91.8038V90.9332" fill="#2F3C63"/>
<path d="M129.602 95.9827C129.575 95.9827 129.544 95.9758 129.521 95.9622L122.314 91.9542C122.259 91.9235 122.225 91.8654 122.225 91.804V90.9334C122.225 90.8378 122.3 90.7627 122.395 90.7627C122.49 90.7627 122.565 90.8378 122.565 90.9334V91.705L129.514 95.5696L131.403 90.5784C131.437 90.4896 131.536 90.4486 131.624 90.4794C131.712 90.5135 131.756 90.6125 131.722 90.7013L129.762 95.8768C129.745 95.9246 129.707 95.9588 129.66 95.9758C129.64 95.9827 129.623 95.9861 129.602 95.9861V95.9827Z" fill="white"/>
<path d="M122.395 90.9332L127.944 87.9494C128.093 87.8709 128.27 87.864 128.423 87.9391L132.606 89.9534L131.953 91.237" fill="#2F3C63"/>
<path d="M131.953 91.4044C131.926 91.4044 131.902 91.3976 131.875 91.3874C131.79 91.3464 131.76 91.2406 131.8 91.1586L132.371 90.032L128.345 88.0929C128.243 88.0451 128.12 88.0451 128.022 88.0997L122.473 91.0835C122.392 91.1279 122.286 91.0972 122.242 91.0152C122.198 90.9333 122.229 90.8275 122.31 90.7831L127.859 87.7993C128.056 87.6935 128.29 87.6901 128.491 87.7856L132.674 89.7999C132.714 89.8204 132.745 89.8545 132.762 89.8989C132.779 89.9433 132.772 89.9911 132.752 90.032L132.099 91.3157C132.069 91.3737 132.011 91.4078 131.947 91.4078L131.953 91.4044Z" fill="white"/>
<path d="M129.898 95.1975C129.87 95.1975 129.843 95.1907 129.816 95.177L122.351 91.0837C122.269 91.0393 122.239 90.9335 122.283 90.8515C122.327 90.7696 122.432 90.7389 122.514 90.7833L129.979 94.8766C130.061 94.921 130.091 95.0268 130.047 95.1088C130.017 95.1668 129.959 95.1975 129.898 95.1975Z" fill="white"/>
<path d="M137.274 87.5775L135.606 92.48L129.602 95.8154L131.563 90.5647C131.624 90.4043 131.736 90.2745 131.885 90.1892L136.955 87.3112C137.135 87.2088 137.346 87.3863 137.278 87.5809L137.274 87.5775Z" fill="#2F3C63"/>
<path d="M129.602 95.9824C129.561 95.9824 129.524 95.9688 129.49 95.9414C129.436 95.8937 129.419 95.8185 129.442 95.7537L131.403 90.503C131.478 90.305 131.617 90.1411 131.801 90.0387L136.87 87.1607C137.016 87.0788 137.19 87.0959 137.315 87.2017C137.444 87.3075 137.489 87.4782 137.434 87.6353L135.766 92.5377C135.752 92.5787 135.725 92.6128 135.688 92.6333L129.684 95.9688C129.656 95.9824 129.629 95.9892 129.602 95.9892V95.9824ZM137.064 87.4441C137.064 87.4441 137.047 87.4441 137.037 87.4509L131.967 90.3289C131.855 90.3938 131.767 90.4962 131.722 90.6157L129.925 95.4328L135.47 92.3534L137.118 87.5124C137.128 87.4816 137.118 87.4612 137.101 87.4509C137.094 87.4441 137.081 87.4373 137.067 87.4373L137.064 87.4441Z" fill="white"/>
<path d="M122.667 107.283C122.667 107.283 122.643 107.283 122.633 107.283C122.446 107.262 122.31 107.095 122.331 106.907L123.771 93.0536C123.792 92.8658 123.955 92.7258 124.145 92.7497C124.332 92.7702 124.468 92.9375 124.448 93.1253L123.007 106.979C122.99 107.153 122.84 107.286 122.67 107.286L122.667 107.283Z" fill="white"/>
<path d="M129.602 109.864C129.422 109.864 129.272 109.724 129.262 109.539L128.532 95.6343C128.521 95.4466 128.664 95.2861 128.854 95.2759C129.041 95.269 129.201 95.4124 129.211 95.6002L129.942 109.505C129.952 109.693 129.809 109.853 129.619 109.864C129.612 109.864 129.605 109.864 129.602 109.864Z" fill="white"/>
<path d="M128.253 103.702C128.07 103.702 127.917 103.555 127.914 103.367L127.747 95.2691C127.744 95.0814 127.893 94.9243 128.08 94.9209H128.087C128.27 94.9209 128.423 95.0677 128.427 95.2555L128.593 103.353C128.597 103.541 128.447 103.698 128.26 103.702H128.253Z" fill="white"/>
<path d="M135.46 107.727C135.29 107.727 135.144 107.601 135.124 107.427L133.445 93.8219C133.421 93.6341 133.554 93.4634 133.741 93.4395C133.928 93.4122 134.098 93.5488 134.121 93.7365L135.8 107.341C135.824 107.529 135.691 107.7 135.504 107.724C135.491 107.724 135.477 107.724 135.463 107.724L135.46 107.727Z" fill="white"/>
<path d="M93.8359 118.163C93.7781 118.163 93.7204 118.133 93.6898 118.078C93.6422 117.996 93.6728 117.89 93.7543 117.846L99.3031 114.685C99.3846 114.637 99.4866 114.667 99.5341 114.749C99.5817 114.831 99.5511 114.937 99.4696 114.982L93.9208 118.143C93.8937 118.157 93.8665 118.167 93.8359 118.167V118.163Z" fill="white"/>
<path d="M105.08 118.337C105.052 118.337 105.022 118.331 104.998 118.317L99.4017 115.196C99.3201 115.152 99.2895 115.046 99.3337 114.964C99.3779 114.882 99.4832 114.852 99.5648 114.896L105.161 118.016C105.243 118.061 105.273 118.167 105.229 118.249C105.198 118.307 105.141 118.337 105.08 118.337Z" fill="white"/>
<path d="M99.7484 121.918C99.6906 121.918 99.6328 121.888 99.6023 121.833C99.5547 121.751 99.5819 121.649 99.6634 121.601L105.144 118.412C105.222 118.364 105.328 118.392 105.375 118.474C105.423 118.556 105.396 118.658 105.314 118.706L99.8333 121.894C99.8061 121.911 99.779 121.918 99.7484 121.918Z" fill="white"/>
<path d="M99.7482 121.919C99.721 121.919 99.6904 121.912 99.6633 121.895L93.717 118.474C93.6354 118.426 93.6082 118.324 93.6524 118.242C93.7 118.16 93.8019 118.133 93.8834 118.177L99.8297 121.598C99.9113 121.645 99.9385 121.748 99.8943 121.83C99.8637 121.884 99.806 121.915 99.7482 121.915V121.919Z" fill="white"/>
<path d="M101.892 106.371L99.9318 111.547L92.7249 107.539V106.668" fill="#2F3C63"/>
<path d="M99.9317 111.718C99.9046 111.718 99.874 111.711 99.8502 111.697L92.6433 107.689C92.5889 107.658 92.5549 107.6 92.5549 107.539V106.668C92.5549 106.573 92.6297 106.498 92.7248 106.498C92.82 106.498 92.8947 106.573 92.8947 106.668V107.44L99.8434 111.304L101.733 106.313C101.767 106.224 101.865 106.184 101.953 106.214C102.042 106.248 102.086 106.347 102.052 106.436L100.091 111.612C100.074 111.659 100.037 111.694 99.9895 111.711C99.9691 111.718 99.9521 111.721 99.9317 111.721V111.718Z" fill="white"/>
<path d="M102.932 105.685L98.7493 103.671C98.5964 103.6 98.4197 103.603 98.2702 103.681L92.7214 106.665" fill="#2F3C63"/>
<path d="M92.7249 106.839C92.6638 106.839 92.606 106.805 92.5754 106.751C92.5312 106.669 92.5618 106.563 92.6434 106.518L98.1921 103.535C98.3892 103.429 98.6236 103.425 98.8241 103.521L103.007 105.535C103.092 105.576 103.126 105.679 103.088 105.764C103.048 105.849 102.946 105.883 102.861 105.846L98.678 103.832C98.5761 103.78 98.4538 103.784 98.3518 103.838L92.8031 106.822C92.7759 106.836 92.7487 106.843 92.7215 106.843L92.7249 106.839Z" fill="white"/>
<path d="M100.231 110.932C100.204 110.932 100.176 110.926 100.149 110.912L92.6841 106.819C92.6026 106.774 92.572 106.668 92.6162 106.586C92.6604 106.504 92.7657 106.474 92.8472 106.518L100.312 110.611C100.394 110.656 100.425 110.762 100.38 110.844C100.35 110.902 100.292 110.932 100.231 110.932Z" fill="white"/>
<path d="M107.607 103.309L105.939 108.211L99.9351 111.547L101.896 106.296C101.957 106.135 102.069 106.006 102.218 105.92L107.288 103.042C107.468 102.94 107.679 103.118 107.611 103.312L107.607 103.309Z" fill="#2F3C63"/>
<path d="M99.9317 111.718C99.8909 111.718 99.8535 111.704 99.8195 111.677C99.7652 111.629 99.7482 111.554 99.772 111.489L101.733 106.238C101.807 106.044 101.947 105.876 102.13 105.774L107.2 102.896C107.342 102.814 107.519 102.831 107.648 102.937C107.777 103.043 107.822 103.214 107.767 103.371L106.099 108.273C106.085 108.314 106.058 108.348 106.021 108.369L100.017 111.704C99.9894 111.718 99.9622 111.725 99.9351 111.725L99.9317 111.718ZM107.393 103.179C107.393 103.179 107.376 103.179 107.366 103.186L102.297 106.064C102.184 106.129 102.096 106.232 102.052 106.351L100.254 111.168L105.8 108.089L107.448 103.248C107.458 103.217 107.448 103.197 107.431 103.186C107.421 103.179 107.41 103.173 107.397 103.173L107.393 103.179Z" fill="white"/>
<path d="M92.9966 123.018C92.9966 123.018 92.9728 123.018 92.9626 123.018C92.7758 122.997 92.6398 122.83 92.6602 122.642L94.1009 108.788C94.1213 108.601 94.2878 108.461 94.4747 108.485C94.6616 108.505 94.7975 108.672 94.7771 108.86L93.3364 122.714C93.3194 122.888 93.1699 123.021 93 123.021L92.9966 123.018Z" fill="white"/>
<path d="M99.9319 125.599C99.7518 125.599 99.6023 125.459 99.5921 125.275L98.8616 111.37C98.8514 111.182 98.9941 111.021 99.1844 111.011C99.3645 110.997 99.531 111.144 99.5412 111.335L100.272 125.241C100.282 125.428 100.139 125.589 99.9489 125.599C99.9421 125.599 99.9353 125.599 99.9319 125.599Z" fill="white"/>
<path d="M98.5862 119.437C98.4027 119.437 98.2498 119.29 98.2464 119.102L98.0799 111.004C98.0765 110.816 98.226 110.659 98.4129 110.656C98.6032 110.649 98.7561 110.803 98.7595 110.991L98.926 119.088C98.9294 119.276 98.7799 119.433 98.593 119.437H98.5862Z" fill="white"/>
<path d="M105.79 123.461C105.62 123.461 105.474 123.335 105.453 123.161L103.775 109.556C103.751 109.368 103.883 109.198 104.07 109.174C104.254 109.147 104.427 109.283 104.451 109.471L106.129 123.076C106.153 123.263 106.021 123.434 105.834 123.458C105.82 123.458 105.807 123.458 105.793 123.458L105.79 123.461Z" fill="white"/>
<path d="M59.4868 53.868V47.8424C59.4868 47.8424 60.0067 46.8182 61.1926 47.8424V53.868" fill="#2F3C63"/>
<path d="M61.1962 54.0388C61.1011 54.0388 61.0263 53.9637 61.0263 53.8681V47.921C60.6797 47.6342 60.3671 47.5147 60.1055 47.5693C59.8574 47.6171 59.7079 47.8117 59.6603 47.8903V53.8681C59.6603 53.9637 59.5856 54.0388 59.4905 54.0388C59.3953 54.0388 59.3206 53.9637 59.3206 53.8681V47.8425C59.3206 47.8151 59.3274 47.7878 59.3375 47.7639C59.3477 47.7469 59.5652 47.3269 60.0375 47.2348C60.4215 47.1597 60.8496 47.3201 61.3049 47.7127C61.3423 47.7434 61.3627 47.7912 61.3627 47.8425V53.8681C61.3627 53.9637 61.2879 54.0388 61.1928 54.0388H61.1962Z" fill="white"/>
<path d="M60.693 49.1157L64.1453 50.9251C64.1453 50.9251 64.7331 51.9937 63.7137 52.2463L60.676 50.5496" fill="#2F3C63"/>
<path d="M63.7139 52.4173C63.6868 52.4173 63.6562 52.4105 63.6324 52.3968L60.5947 50.7001C60.5131 50.6557 60.4825 50.5499 60.5301 50.4679C60.5743 50.386 60.6796 50.3553 60.7612 50.4031L63.7377 52.0657C63.9246 52.0076 64.0435 51.9155 64.1013 51.7823C64.2066 51.5433 64.0911 51.2088 64.0197 51.0517L60.6151 49.2662C60.5301 49.2218 60.4995 49.1194 60.5437 49.0375C60.5879 48.9521 60.6898 48.9214 60.7714 48.9658L64.2236 50.7752C64.2542 50.7923 64.278 50.8162 64.295 50.8435C64.3086 50.8674 64.6212 51.4443 64.4139 51.9189C64.3052 52.1681 64.0843 52.332 63.7581 52.4139C63.7445 52.4139 63.7309 52.4173 63.7173 52.4173H63.7139Z" fill="white"/>
<path d="M60.3431 48.2626C60.8141 48.2626 61.196 48.0562 61.196 47.8017C61.196 47.5472 60.8141 47.3408 60.3431 47.3408C59.8721 47.3408 59.4902 47.5472 59.4902 47.8017C59.4902 48.0562 59.8721 48.2626 60.3431 48.2626Z" fill="#2F3C63"/>
<path d="M60.3433 48.4363C59.7589 48.4363 59.3206 48.1631 59.3206 47.8047C59.3206 47.4462 59.7589 47.1731 60.3433 47.1731C60.9278 47.1731 61.3661 47.4462 61.3661 47.8047C61.3661 48.1631 60.9278 48.4363 60.3433 48.4363ZM60.3433 47.5145C59.9322 47.5145 59.6603 47.6886 59.6603 47.8047C59.6603 47.9208 59.9322 48.0949 60.3433 48.0949C60.7545 48.0949 61.0263 47.9208 61.0263 47.8047C61.0263 47.6886 60.7545 47.5145 60.3433 47.5145Z" fill="white"/>
<path d="M64.3198 51.6173C64.3879 51.2196 64.2557 50.8649 64.0245 50.8249C63.7933 50.785 63.5507 51.075 63.4826 51.4726C63.4146 51.8703 63.5468 52.225 63.778 52.265C64.0091 52.3049 64.2517 52.015 64.3198 51.6173Z" fill="#2F3C63"/>
<path d="M63.8155 52.4309C63.7918 52.4309 63.768 52.4309 63.7442 52.4241C63.4146 52.366 63.2243 51.9324 63.3093 51.434C63.3942 50.9356 63.7204 50.5942 64.05 50.6488C64.3796 50.7068 64.5699 51.1404 64.4849 51.6388C64.4475 51.8608 64.3592 52.0622 64.2369 52.209C64.1146 52.3524 63.965 52.4343 63.8155 52.4343V52.4309ZM63.9752 50.9834C63.8699 50.9834 63.6966 51.1711 63.6422 51.492C63.5845 51.83 63.6966 52.069 63.8019 52.0861C63.8461 52.0963 63.9141 52.0588 63.9752 51.9837C64.0568 51.8847 64.1213 51.7379 64.1485 51.5774C64.2063 51.2428 64.0942 51.0004 63.9888 50.9834C63.9854 50.9834 63.9786 50.9834 63.9752 50.9834Z" fill="white"/>
</svg>
