<svg width="192" height="35" viewBox="0 0 192 35" fill="none" xmlns="http://www.w3.org/2000/svg">
<g clip-path="url(#clip0_396_2608)">
<path d="M9.77087 27.6171C8.67808 27.622 7.59086 27.46 6.54618 27.1365C5.53299 26.8218 4.58029 26.3354 3.7289 25.6982C2.86194 25.0444 2.10731 24.2514 1.4951 23.3509C0.826124 22.362 0.316875 21.2724 -0.0136719 20.1226L4.63347 18.2768C4.92872 19.5196 5.54727 20.6605 6.42534 21.5818C6.86822 22.0211 7.39582 22.364 7.97546 22.5893C8.55509 22.8145 9.17441 22.9173 9.79504 22.8912C10.2955 22.8915 10.7937 22.8236 11.2762 22.6892C11.7317 22.562 12.1641 22.3622 12.5571 22.0972C12.9276 21.8458 13.235 21.5107 13.4547 21.1186C13.6849 20.7013 13.8039 20.2309 13.8 19.7534C13.8064 19.297 13.7195 18.8441 13.5445 18.4231C13.3442 17.9934 13.0503 17.6148 12.6848 17.3156C12.2017 16.9208 11.6731 16.5864 11.1105 16.3196C10.3303 15.944 9.5304 15.6115 8.71439 15.3236L7.10204 14.7315C6.35884 14.4687 5.64209 14.1352 4.96146 13.7355C4.2446 13.3213 3.58617 12.8117 3.00386 12.2206C2.40586 11.6134 1.91645 10.9064 1.55724 10.131C1.16765 9.2815 0.974056 8.35394 0.991023 7.41809C0.98303 6.41961 1.18914 5.4312 1.59522 4.52057C1.99911 3.61951 2.58741 2.81482 3.3215 2.15938C4.10038 1.45837 5.00838 0.918767 5.99377 0.571322C8.22462 -0.181675 10.6358 -0.195099 12.8747 0.533013C13.7611 0.848077 14.5895 1.30941 15.326 1.89819C15.9595 2.41742 16.5062 3.03591 16.9453 3.73003C17.3228 4.31948 17.6299 4.9519 17.8602 5.61411L13.5031 7.45988C13.2355 6.69172 12.7752 6.0066 12.1669 5.47132C11.4265 4.84746 10.4785 4.53119 9.51538 4.58674C8.56806 4.54947 7.63314 4.81387 6.8431 5.34246C6.51491 5.55392 6.24543 5.8461 6.06001 6.19153C5.87459 6.53697 5.77932 6.9243 5.78317 7.31709C5.78577 7.71132 5.881 8.0993 6.06105 8.44921C6.24109 8.79912 6.50083 9.10099 6.81893 9.33003C7.50944 9.88492 8.59585 10.4201 10.0781 10.9355L11.725 11.4892C12.7161 11.8326 13.6769 12.259 14.5975 12.7639C15.4261 13.2155 16.1798 13.7947 16.8313 14.4808C17.4483 15.1371 17.9326 15.9083 18.2572 16.7514C18.6013 17.6906 18.7688 18.6862 18.751 19.6872C18.777 20.9216 18.4893 22.142 17.9154 23.2325C17.3954 24.1933 16.6772 25.0305 15.8094 25.6877C14.9376 26.3351 13.9593 26.822 12.9196 27.126C11.899 27.442 10.8384 27.6074 9.77087 27.6171Z" fill="#1F2C56"/>
<path d="M26.716 11.2976H27.0095C27.566 10.3906 28.3479 9.64626 29.2778 9.13837C30.2778 8.59707 31.3988 8.32368 32.5336 8.34434C33.5492 8.32343 34.5584 8.51185 35.4993 8.89807C36.318 9.24022 37.0411 9.77949 37.6054 10.4687C38.1773 11.1892 38.6 12.0182 38.8483 12.9065C39.139 13.9334 39.2808 14.9974 39.2695 16.0652V27.0284H34.4739V16.6503C34.4739 15.3478 34.1873 14.3797 33.6142 13.7528C33.0411 13.1259 32.2056 12.8125 31.1076 12.8125C30.5055 12.8014 29.9108 12.9478 29.3814 13.2374C28.8787 13.5219 28.4421 13.9114 28.1005 14.3797C27.7302 14.8914 27.4563 15.4675 27.2926 16.0792C27.1062 16.7596 27.0144 17.4628 27.0198 18.1687V27.0284H22.2139V8.95379H26.7022L26.716 11.2976Z" fill="#1F2C56"/>
<path d="M54.0914 25.1059H53.8014C53.2255 25.8063 52.5383 26.4053 51.7678 26.8786C50.8367 27.4051 49.7789 27.6607 48.7123 27.6169C47.8195 27.6219 46.9331 27.465 46.0953 27.1537C45.3102 26.8668 44.5844 26.4358 43.9547 25.8826C43.3446 25.3419 42.8581 24.6742 42.5288 23.9253C42.1794 23.1357 42.0038 22.279 42.0144 21.4144C42.0006 20.5401 42.1886 19.6745 42.5633 18.886C42.9304 18.135 43.4546 17.4732 44.0997 16.9462C44.7892 16.3888 45.5779 15.9692 46.4233 15.7099C47.3663 15.4194 48.3478 15.2761 49.3338 15.285C50.3056 15.2652 51.2765 15.3587 52.227 15.5636C52.8611 15.7092 53.4842 15.9001 54.0914 16.1348V15.5706C54.0992 15.1121 54.0009 14.658 53.8043 14.2445C53.6078 13.831 53.3183 13.4695 52.959 13.1885C52.1594 12.5469 51.1594 12.2135 50.1382 12.2482C49.3243 12.2447 48.5207 12.4315 47.7905 12.7941C47.0602 13.1567 46.4232 13.6851 45.9296 14.3378L42.4528 11.9626C44.3587 9.54806 46.9573 8.34192 50.2487 8.34424C53.0315 8.34424 55.1548 9.00245 56.6187 10.3189C58.0826 11.6353 58.8145 13.5867 58.8145 16.1731V27.0248H54.0914V25.1059ZM54.0914 19.6801C53.5374 19.41 52.9594 19.1931 52.3651 19.0323C51.7257 18.867 51.0676 18.7863 50.4075 18.792C49.2578 18.792 48.374 19.0462 47.7525 19.5477C47.4628 19.7632 47.2274 20.0445 47.0654 20.3688C46.9035 20.6931 46.8195 21.0513 46.8203 21.4144C46.8116 21.7615 46.8888 22.1054 47.0449 22.4149C47.2011 22.7244 47.4312 22.9898 47.7145 23.187C48.3151 23.6295 49.0425 23.8618 49.7861 23.8487C50.3653 23.8551 50.94 23.7461 51.4774 23.5279C52.0148 23.3098 52.5042 22.9869 52.9175 22.5776C53.6756 21.8067 54.1023 20.7658 54.1052 19.6801H54.0914Z" fill="#1F2C56"/>
<path d="M62.4775 8.95363H66.9659V11.1302H67.2559C67.758 10.3081 68.4651 9.63327 69.3067 9.17303C70.3661 8.5993 71.5575 8.3193 72.7592 8.36159C73.8893 8.35801 75.0065 8.60407 76.0323 9.08249C77.0668 9.56029 77.9991 10.2369 78.777 11.0745C79.5927 11.9595 80.2326 12.9939 80.6621 14.1218C81.5921 16.6207 81.5921 19.3751 80.6621 21.874C80.2326 23.0019 79.5927 24.0364 78.777 24.9213C77.9991 25.7589 77.0668 26.4355 76.0323 26.9133C75.0065 27.3918 73.8893 27.6378 72.7592 27.6342C71.5575 27.6765 70.3661 27.3965 69.3067 26.8228C68.4651 26.3625 67.758 25.6877 67.2559 24.8656H66.9659L67.2559 27.4496V35.0173H62.4775V8.95363ZM71.7718 23.1661C72.3947 23.1692 73.0115 23.0435 73.5844 22.7969C74.1535 22.552 74.6696 22.1971 75.1035 21.7521C75.5589 21.2865 75.9191 20.7351 76.1635 20.1292C76.702 18.7531 76.702 17.2219 76.1635 15.8457C75.9191 15.2398 75.5589 14.6884 75.1035 14.2228C74.6687 13.779 74.1529 13.4242 73.5844 13.178C73.0115 12.9314 72.3947 12.8058 71.7718 12.8089C71.1519 12.8039 70.5372 12.9222 69.9627 13.1571C69.393 13.3867 68.8759 13.7316 68.4436 14.1705C67.987 14.6373 67.6257 15.1898 67.3802 15.7969C66.8463 17.198 66.8463 18.749 67.3802 20.1501C67.6257 20.7572 67.987 21.3098 68.4436 21.7765C68.8759 22.2155 69.393 22.5604 69.9627 22.7899C70.5354 23.028 71.149 23.1499 71.7684 23.1487L71.7718 23.1661Z" fill="#1F2C56"/>
<path d="M93.0324 27.6171C91.9408 27.6217 90.8548 27.4596 89.8112 27.1365C88.7983 26.821 87.8457 26.3347 86.9939 25.6982C86.128 25.0443 85.3745 24.2513 84.7636 23.3509C84.0971 22.3615 83.5902 21.2719 83.2617 20.1226L87.9089 18.2768C88.204 19.5204 88.8239 20.6616 89.7042 21.5818C90.1462 22.0213 90.6731 22.3645 91.2523 22.5897C91.8314 22.815 92.4503 22.9176 93.0704 22.8912C93.5709 22.8915 94.0691 22.8236 94.5516 22.6892C95.0073 22.5627 95.4399 22.3628 95.8325 22.0972C96.2039 21.8468 96.5114 21.5115 96.7301 21.1186C96.9619 20.702 97.081 20.2311 97.0754 19.7534C97.0818 19.297 96.9949 18.8441 96.8199 18.4231C96.622 17.9919 96.3278 17.6128 95.9602 17.3156C95.4771 16.9208 94.9485 16.5864 94.3858 16.3196C93.6057 15.944 92.8058 15.6115 91.9898 15.3236L90.3774 14.7315C89.6345 14.468 88.9178 14.1345 88.2368 13.7355C87.5212 13.3195 86.863 12.8101 86.2792 12.2206C85.6824 11.6124 85.1931 10.9057 84.8326 10.131C84.4446 9.28097 84.2511 8.35378 84.2664 7.41809C84.2584 6.41961 84.4645 5.4312 84.8706 4.52057C85.2769 3.62093 85.8649 2.81672 86.5969 2.15938C87.3768 1.45983 88.2845 0.920407 89.2692 0.571322C91.5 -0.181675 93.9112 -0.195099 96.1501 0.533013C97.0368 0.847305 97.8653 1.3087 98.6014 1.89819C99.2318 2.41667 99.774 3.03541 100.207 3.73003C100.584 4.31948 100.891 4.9519 101.122 5.61411L96.7681 7.45988C96.5005 6.69172 96.0402 6.0066 95.432 5.47132C94.6893 4.84909 93.7409 4.5331 92.777 4.58674C91.8281 4.54594 90.8906 4.80794 90.0978 5.3355C89.7696 5.54695 89.5001 5.83914 89.3147 6.18457C89.1293 6.53 89.034 6.91733 89.0378 7.31013C89.041 7.70425 89.1365 8.09204 89.3165 8.44186C89.4965 8.79168 89.7559 9.09362 90.0736 9.32306C90.7641 9.87796 91.8494 10.4131 93.3294 10.9285L94.9762 11.4823C95.9673 11.8256 96.9282 12.252 97.8488 12.7569C98.6781 13.2074 99.4319 13.7868 100.083 14.4738C100.7 15.1301 101.184 15.9014 101.508 16.7445C101.854 17.6832 102.022 18.6791 102.002 19.6803C102.033 20.916 101.748 22.139 101.177 23.2325C100.658 24.1942 99.9398 25.0316 99.071 25.6877C98.1992 26.3351 97.2209 26.822 96.1812 27.126C95.1606 27.442 94.1 27.6074 93.0324 27.6171Z" fill="#1F2C56"/>
<path d="M105.33 8.95363H109.818V11.1302H110.122C110.623 10.3082 111.329 9.63323 112.17 9.17303C113.229 8.5993 114.42 8.3193 115.622 8.36159C116.753 8.3584 117.872 8.60443 118.899 9.08249C119.938 9.56012 120.876 10.2366 121.661 11.0745C122.474 11.9613 123.114 12.9952 123.546 14.1218C124.471 16.6216 124.471 19.3742 123.546 21.874C123.114 23.0006 122.474 24.0346 121.661 24.9213C120.876 25.7592 119.938 26.4357 118.899 26.9133C117.872 27.3914 116.753 27.6374 115.622 27.6342C114.42 27.6765 113.229 27.3965 112.17 26.8228C111.329 26.3626 110.623 25.6876 110.122 24.8656H109.829L110.122 27.4496V35.0173H105.33V8.95363ZM114.628 23.1661C115.25 23.1689 115.865 23.0432 116.437 22.7969C117.006 22.552 117.522 22.1971 117.956 21.7521C118.412 21.2867 118.774 20.7353 119.019 20.1292C119.554 18.7522 119.554 17.2227 119.019 15.8457C118.774 15.2397 118.412 14.6883 117.956 14.2228C117.521 13.779 117.005 13.4242 116.437 13.178C115.865 12.9317 115.25 12.806 114.628 12.8089C114.007 12.8039 113.391 12.9222 112.815 13.1571C112.246 13.3875 111.729 13.7323 111.296 14.1705C110.841 14.6375 110.481 15.19 110.236 15.7969C109.698 17.1972 109.698 18.7499 110.236 20.1501C110.481 20.757 110.841 21.3096 111.296 21.7765C111.729 22.2147 112.246 22.5595 112.815 22.7899C113.39 23.0284 114.006 23.1503 114.628 23.1487V23.1661Z" fill="#1F2C56"/>
<path d="M138.343 25.1059H138.05C137.474 25.8054 136.789 26.4043 136.02 26.8786C135.089 27.4051 134.031 27.6607 132.964 27.6169C132.071 27.6222 131.185 27.4653 130.347 27.1537C129.561 26.8659 128.835 26.4351 128.203 25.8826C127.595 25.3401 127.109 24.6728 126.777 23.9253C126.431 23.135 126.256 22.2786 126.266 21.4144C126.253 20.5401 126.441 19.6745 126.815 18.886C127.183 18.1406 127.708 17.4846 128.352 16.9636C129.041 16.4062 129.83 15.9866 130.675 15.7273C131.618 15.4368 132.6 15.2935 133.586 15.3025C134.556 15.2826 135.526 15.3761 136.476 15.5811C137.111 15.7272 137.735 15.918 138.343 16.1522V15.5706C138.35 15.1118 138.252 14.6577 138.054 14.2442C137.857 13.8307 137.567 13.4693 137.207 13.1885C136.409 12.5471 135.41 12.2138 134.39 12.2482C133.576 12.2442 132.772 12.4308 132.042 12.7934C131.312 13.156 130.675 13.6846 130.182 14.3378L126.694 11.9626C128.598 9.54806 131.197 8.34192 134.49 8.34424C137.273 8.34424 139.395 9.00245 140.857 10.3189C142.318 11.6353 143.05 13.5867 143.053 16.1731V27.0248H138.343V25.1059ZM138.343 19.6801C137.789 19.4107 137.211 19.1939 136.617 19.0323C135.978 18.8667 135.32 18.786 134.659 18.792C133.513 18.792 132.629 19.0462 132.008 19.5477C131.717 19.7626 131.481 20.0437 131.319 20.3681C131.156 20.6924 131.072 21.0509 131.072 21.4144C131.064 21.7619 131.142 22.1059 131.298 22.4155C131.455 22.725 131.686 22.9902 131.97 23.187C132.57 23.6299 133.298 23.8623 134.041 23.8487C134.62 23.8556 135.195 23.7468 135.731 23.5286C136.268 23.3104 136.757 22.9872 137.169 22.5776C137.93 21.8084 138.359 20.7667 138.361 19.6801H138.343Z" fill="#1F2C56"/>
<path d="M163.706 22.4106C162.943 23.9174 161.817 25.2061 160.43 26.1579C159.028 27.1284 157.278 27.6148 155.179 27.6171C153.869 27.6326 152.569 27.3876 151.353 26.8962C150.228 26.4381 149.207 25.7532 148.353 24.8832C147.502 24.0093 146.83 22.9751 146.375 21.8395C145.887 20.6131 145.645 19.3019 145.66 17.9808C145.646 16.6541 145.888 15.3374 146.375 14.1046C146.823 12.9652 147.494 11.9287 148.349 11.0574C149.209 10.1996 150.229 9.52245 151.35 9.06534C152.565 8.57393 153.865 8.32896 155.175 8.34444C157.247 8.34444 158.991 8.82504 160.409 9.78623C161.783 10.6966 162.863 11.9918 163.516 13.5126L159.149 15.3584C158.794 14.5938 158.245 13.9376 157.557 13.4569C156.827 13.0045 155.98 12.7804 155.123 12.8126C154.507 12.8081 153.897 12.9338 153.331 13.1818C152.759 13.4297 152.242 13.7934 151.814 14.2504C151.386 14.7074 151.055 15.2481 150.842 15.839C150.354 17.2244 150.354 18.7371 150.842 20.1226C151.055 20.7135 151.386 21.2541 151.814 21.7111C152.242 22.1681 152.759 22.5318 153.331 22.7798C153.897 23.0277 154.507 23.1534 155.123 23.1489C156.021 23.1739 156.906 22.9316 157.668 22.4524C158.392 21.9613 158.968 21.278 159.332 20.4778L163.706 22.4106Z" fill="#1F2C56"/>
<path d="M183.434 22.6682C182.626 24.1217 181.476 25.3523 180.085 26.2518C178.539 27.2005 176.753 27.6749 174.944 27.617C173.643 27.6319 172.353 27.3869 171.146 26.8961C170.018 26.4362 168.992 25.7513 168.132 24.8825C167.272 24.0136 166.595 22.9786 166.14 21.8394C165.653 20.613 165.41 19.3018 165.425 17.9807C165.418 16.7111 165.652 15.4519 166.116 14.2717C167.008 11.9725 168.764 10.1214 171.001 9.12096C172.182 8.5927 173.462 8.32779 174.754 8.34434C176.07 8.32064 177.377 8.56586 178.597 9.06524C179.67 9.51169 180.632 10.1919 181.414 11.0573C182.187 11.9311 182.774 12.955 183.141 14.0662C183.54 15.2812 183.738 16.5543 183.727 17.8344V18.2767C183.704 18.4101 183.691 18.5452 183.69 18.6807C183.665 18.8151 183.654 18.9515 183.655 19.0881H170.149C170.222 19.7563 170.427 20.4029 170.753 20.9896C171.043 21.5024 171.429 21.954 171.889 22.32C172.329 22.6707 172.832 22.9332 173.37 23.0931C173.904 23.2532 174.459 23.3341 175.017 23.3334C175.981 23.3719 176.934 23.1079 177.744 22.5777C178.45 22.0858 179.033 21.4348 179.446 20.6762L183.434 22.6682ZM179.077 15.6543C179.038 15.282 178.933 14.9198 178.766 14.5851C178.568 14.1691 178.295 13.7936 177.962 13.4777C177.579 13.1148 177.133 12.8266 176.646 12.6279C176.047 12.3861 175.406 12.2677 174.761 12.2797C173.785 12.2633 172.831 12.5758 172.051 13.1677C171.25 13.7892 170.672 14.6573 170.404 15.6404L179.077 15.6543Z" fill="#1F2C56"/>
<path d="M187.864 8.34418C187.311 8.34949 186.763 8.23797 186.255 8.01681C185.764 7.80567 185.318 7.50189 184.94 7.12179C184.563 6.73975 184.261 6.28963 184.049 5.79492C183.837 5.28243 183.728 4.7326 183.728 4.17726C183.728 3.62192 183.837 3.0721 184.049 2.5596C184.259 2.0618 184.561 1.60907 184.94 1.22577C185.318 0.845725 185.765 0.540927 186.255 0.327263C186.763 0.111276 187.308 0 187.859 0C188.41 0 188.955 0.111276 189.462 0.327263C190.46 0.752757 191.254 1.5535 191.675 2.5596C191.89 3.07157 192 3.6216 192 4.17726C192 4.73292 191.89 5.28296 191.675 5.79492C191.464 6.28963 191.161 6.73975 190.785 7.12179C190.405 7.50357 189.956 7.80753 189.462 8.01681C188.958 8.23587 188.413 8.34732 187.864 8.34418ZM187.864 7.47353C188.302 7.47722 188.736 7.38824 189.138 7.21234C189.524 7.03967 189.875 6.79644 190.174 6.49493C190.466 6.1931 190.7 5.83876 190.864 5.45015C191.031 5.04494 191.116 4.61063 191.116 4.17204C191.116 3.73344 191.031 3.29914 190.864 2.89393C190.535 2.09739 189.907 1.46416 189.117 1.13174C188.715 0.963893 188.285 0.877502 187.85 0.877502C187.415 0.877502 186.985 0.963893 186.583 1.13174C186.197 1.29592 185.846 1.53225 185.547 1.82826C185.248 2.1293 185.007 2.48352 184.836 2.87303C184.665 3.27708 184.577 3.71184 184.577 4.15114C184.577 4.59045 184.665 5.0252 184.836 5.42925C185.008 5.81846 185.249 6.17258 185.547 6.47403C185.845 6.77586 186.197 7.01913 186.583 7.19144C186.985 7.3763 187.422 7.47246 187.864 7.47353ZM187.936 6.33124C187.643 6.33781 187.351 6.28204 187.08 6.16756C186.835 6.05294 186.612 5.89355 186.424 5.69741C186.229 5.4983 186.077 5.26134 185.975 5.00089C185.759 4.46267 185.759 3.86052 185.975 3.32229C186.079 3.07041 186.232 2.84192 186.424 2.65015C186.617 2.45362 186.846 2.29637 187.097 2.18696C187.368 2.0689 187.659 2.00957 187.954 2.01283C188.268 2.00111 188.581 2.07064 188.862 2.21482C189.102 2.35382 189.323 2.52484 189.518 2.72328L188.941 3.24915C188.823 3.12599 188.69 3.01939 188.544 2.93224C188.361 2.84121 188.157 2.80038 187.954 2.81383C187.601 2.82024 187.266 2.96638 187.02 3.2206C186.773 3.47482 186.636 3.81664 186.638 4.17204C186.634 4.35296 186.667 4.53285 186.735 4.70017C186.803 4.86749 186.906 5.01856 187.035 5.14368C187.154 5.26793 187.297 5.36655 187.455 5.43359C187.613 5.50063 187.782 5.5347 187.954 5.53373C188.173 5.54064 188.39 5.4877 188.582 5.3805C188.754 5.27129 188.906 5.13216 189.031 4.96955L189.625 5.47104C189.438 5.7238 189.203 5.93683 188.934 6.09791C188.629 6.26574 188.284 6.34641 187.936 6.33124Z" fill="#1F2C56"/>
</g>
<defs>
<clipPath id="clip0_396_2608">
<rect width="192" height="35" fill="white"/>
</clipPath>
</defs>
</svg>
