<?xml version="1.0" standalone="no"?>
<!DOCTYPE svg PUBLIC "-//W3C//DTD SVG 20010904//EN"
 "http://www.w3.org/TR/2001/REC-SVG-20010904/DTD/svg10.dtd">
<svg version="1.0" xmlns="http://www.w3.org/2000/svg"
 width="75" height="75" viewBox="0 0 512.000000 512.000000"
 preserveAspectRatio="xMidYMid meet">

<g transform="translate(0.000000,512.000000) scale(0.100000,-0.100000)"
fill="#ffffff" stroke="none">
<path d="M2513 4956 l-28 -24 -3 -155 -4 -154 -70 -7 c-497 -46 -948 -361
-1178 -824 -74 -150 -112 -289 -146 -539 l-5 -33 -515 0 -515 0 -24 -25 -25
-24 0 -621 0 -621 25 -24 c31 -32 69 -32 100 0 l25 24 0 421 0 420 465 0 465
0 0 -124 c0 -138 12 -168 70 -181 l30 -7 0 -629 0 -629 -25 0 c-14 0 -37 -11
-50 -25 -24 -23 -25 -30 -25 -149 l0 -124 -85 -3 c-118 -5 -119 -6 -125 -172
l-5 -132 -83 -5 c-111 -7 -112 -8 -112 -172 l0 -128 -260 0 -260 0 0 670 0
671 -25 24 c-31 32 -69 32 -100 0 l-25 -24 0 -721 0 -721 25 -24 24 -25 2511
0 2511 0 24 25 25 24 0 721 0 721 -25 24 c-31 32 -69 32 -100 0 l-25 -24 0
-671 0 -670 -260 0 -260 0 0 128 c0 164 -1 165 -112 172 l-83 5 -5 132 c-6
166 -7 167 -125 172 l-85 3 0 124 c0 119 -1 126 -25 149 -13 14 -36 25 -50 25
l-25 0 0 629 0 629 30 7 c58 13 70 43 70 181 l0 124 465 0 465 0 0 -420 0
-421 25 -24 c31 -32 69 -32 100 0 l25 24 0 621 0 621 -25 24 -24 25 -515 0
-515 0 -5 33 c-35 256 -71 388 -151 547 -84 166 -177 292 -313 422 -233 221
-546 365 -860 394 l-70 7 -4 154 -3 155 -28 24 c-15 13 -37 24 -47 24 -10 0
-32 -11 -47 -24z m87 -496 c28 -15 89 -114 126 -205 84 -208 137 -516 160
-917 l6 -118 -332 0 -333 0 7 123 c22 392 77 705 160 912 35 88 97 189 125
205 21 12 58 13 81 0z m-330 -112 c-65 -144 -122 -378 -154 -633 -14 -108 -36
-397 -36 -467 l0 -28 -200 0 -200 0 0 46 c0 70 28 247 56 354 87 333 258 601
473 742 40 26 77 48 82 48 4 0 -5 -28 -21 -62z m615 33 c220 -128 409 -416
499 -761 28 -107 56 -284 56 -354 l0 -46 -199 0 -199 0 -6 123 c-24 429 -91
794 -186 1003 -16 35 -26 64 -22 64 4 0 30 -13 57 -29z m-1008 -123 c-183
-226 -321 -602 -343 -936 l-7 -102 -147 0 -148 0 5 48 c30 328 200 661 446
873 62 54 210 159 224 159 2 0 -11 -19 -30 -42z m1471 -45 c134 -95 273 -252
361 -407 104 -181 143 -305 176 -553 l4 -33 -150 0 -149 0 0 53 c-1 118 -45
354 -97 512 -52 160 -157 358 -252 475 l-36 45 40 -24 c22 -13 68 -43 103 -68z
m-2268 -1218 l0 -75 -465 0 -465 0 0 75 0 75 465 0 465 0 0 -75z m2810 0 l0
-75 -1330 0 -1330 0 0 75 0 75 1330 0 1330 0 0 -75z m1080 0 l0 -75 -465 0
-465 0 0 75 0 75 465 0 465 0 0 -75z m-3282 -302 l-3 -78 -225 0 -225 0 -3 78
-3 77 231 0 231 0 -3 -77z m492 -47 c0 -138 11 -168 70 -179 l30 -6 0 -631 0
-630 -25 0 c-14 0 -37 -11 -50 -25 -24 -23 -25 -30 -25 -150 l0 -125 -169 0
-169 0 -4 131 c-3 123 -4 132 -27 150 -13 10 -34 19 -47 19 l-24 0 0 630 0
631 30 6 c59 11 70 41 70 179 l0 124 170 0 170 0 0 -124z m608 47 l-3 -78
-225 0 -225 0 -3 78 -3 77 231 0 231 0 -3 -77z m492 -47 c0 -138 11 -168 70
-179 l30 -6 0 -631 0 -630 -24 0 c-13 0 -34 -9 -47 -19 -23 -18 -24 -27 -27
-150 l-4 -131 -169 0 -169 0 0 125 c0 120 -1 127 -25 150 -13 14 -36 25 -50
25 l-25 0 0 630 0 631 30 6 c59 11 70 41 70 179 l0 124 170 0 170 0 0 -124z
m608 47 l-3 -78 -225 0 -225 0 -3 78 -3 77 231 0 231 0 -3 -77z m-2298 -863
l0 -630 -130 0 -130 0 0 630 0 630 130 0 130 0 0 -630z m1100 0 l0 -630 -130
0 -130 0 0 630 0 630 130 0 130 0 0 -630z m1100 0 l0 -630 -130 0 -130 0 0
630 0 630 130 0 130 0 0 -630z m-2100 -855 l0 -75 -230 0 -230 0 0 75 0 75
230 0 230 0 0 -75z m1100 0 l0 -75 -230 0 -230 0 0 75 0 75 230 0 230 0 0 -75z
m1100 0 l0 -75 -230 0 -230 0 0 75 0 75 230 0 230 0 0 -75z m210 -305 l0 -80
-1540 0 -1540 0 0 80 0 80 1540 0 1540 0 0 -80z m200 -305 l0 -75 -1740 0
-1740 0 0 75 0 75 1740 0 1740 0 0 -75z"/>
<path d="M299 2591 c-23 -19 -24 -24 -24 -156 0 -132 1 -137 24 -156 30 -25
76 -24 101 1 18 18 20 33 20 154 0 133 0 135 -26 155 -33 26 -65 27 -95 2z"/>
<path d="M562 2587 c-20 -21 -22 -34 -22 -155 0 -119 2 -134 20 -152 38 -38
100 -22 119 31 14 40 14 209 1 245 -22 56 -80 71 -118 31z"/>
<path d="M826 2589 c-26 -20 -26 -22 -26 -153 0 -126 1 -134 23 -154 31 -29
72 -28 103 3 25 25 26 28 22 156 -3 123 -4 132 -27 150 -30 25 -62 24 -95 -2z"/>
<path d="M4195 2585 c-24 -23 -25 -30 -25 -150 0 -120 1 -127 25 -150 31 -32
74 -33 103 -2 20 21 22 34 22 154 0 130 0 132 -26 152 -35 28 -69 26 -99 -4z"/>
<path d="M4468 2596 c-28 -21 -38 -62 -38 -160 0 -101 12 -151 40 -166 30 -16
68 -12 90 10 18 18 20 33 20 153 0 127 -1 135 -23 155 -26 25 -63 28 -89 8z"/>
<path d="M4726 2589 c-26 -20 -26 -22 -26 -155 0 -121 2 -136 20 -154 25 -25
71 -26 101 -1 23 19 24 24 24 156 0 132 -1 137 -24 156 -30 25 -62 24 -95 -2z"/>
<path d="M300 2022 l-30 -30 0 -121 c0 -110 2 -122 23 -145 32 -36 74 -39 107
-6 18 18 20 33 20 149 0 142 -8 164 -62 177 -22 5 -33 0 -58 -24z"/>
<path d="M590 2043 c-46 -17 -50 -30 -50 -173 0 -155 6 -170 72 -170 64 0 73
22 73 172 l0 130 -28 24 c-28 24 -39 27 -67 17z"/>
<path d="M843 2040 c-36 -15 -43 -43 -43 -174 0 -113 2 -128 20 -146 33 -33
75 -30 108 6 20 23 22 35 22 139 0 123 -9 157 -47 174 -28 13 -30 13 -60 1z"/>
<path d="M4214 2039 c-35 -18 -44 -53 -44 -174 0 -104 2 -116 23 -139 32 -36
74 -39 107 -6 18 18 20 33 20 149 0 108 -3 132 -17 149 -22 26 -61 35 -89 21z"/>
<path d="M4464 2027 l-29 -25 0 -130 c0 -151 9 -172 75 -172 63 0 70 17 70
172 0 147 -4 159 -61 173 -20 5 -33 0 -55 -18z"/>
<path d="M4743 2040 c-36 -15 -43 -43 -43 -173 0 -104 3 -128 18 -146 26 -33
79 -31 109 3 21 25 23 36 23 147 0 120 0 121 -29 150 -31 31 -42 33 -78 19z"/>
<path d="M299 1461 c-23 -19 -24 -24 -24 -156 0 -132 1 -137 24 -156 30 -25
62 -24 95 2 26 20 26 22 26 153 0 126 -1 134 -23 154 -29 27 -67 28 -98 3z"/>
<path d="M560 1460 c-18 -18 -20 -33 -20 -155 0 -125 1 -136 22 -155 40 -37
97 -21 118 34 13 36 13 205 -1 245 -19 53 -81 69 -119 31z"/>
<path d="M822 1457 c-20 -21 -22 -34 -22 -154 0 -130 0 -132 26 -152 33 -26
65 -27 95 -2 23 18 24 27 27 150 4 128 3 131 -22 156 -32 32 -75 33 -104 2z"/>
<path d="M4195 1455 c-24 -23 -25 -30 -25 -150 0 -120 1 -127 25 -150 30 -30
64 -32 99 -4 26 20 26 22 26 153 0 126 -1 134 -23 154 -31 29 -72 28 -102 -3z"/>
<path d="M4467 1468 c-27 -21 -37 -65 -37 -163 0 -99 10 -140 38 -161 25 -20
65 -17 90 6 21 19 22 30 22 155 0 122 -2 137 -20 155 -23 23 -68 26 -93 8z"/>
<path d="M4722 1460 c-21 -19 -22 -30 -22 -155 0 -132 0 -134 26 -154 33 -26
65 -27 95 -2 23 19 24 24 24 156 0 132 -1 137 -24 156 -30 25 -72 24 -99 -1z"/>
</g>
</svg>
