<svg width="13" height="16" viewBox="0 0 13 16" fill="none" xmlns="http://www.w3.org/2000/svg">
<circle cx="6.5" cy="6.5" r="6.5" fill="#C6D6FF"/>
<path d="M5.88 7.54V7.21C5.88 7.05 5.89667 6.90333 5.93 6.77C5.96333 6.63 6.01333 6.49667 6.08 6.37C6.15333 6.24333 6.24667 6.11667 6.36 5.99C6.48 5.86333 6.62667 5.72667 6.8 5.58C6.98 5.42 7.12 5.27333 7.22 5.14C7.32 5.00667 7.37 4.84333 7.37 4.65C7.37 4.45 7.29333 4.27333 7.14 4.12C6.99333 3.96667 6.79 3.89 6.53 3.89C6.39 3.89 6.26333 3.91333 6.15 3.96C6.03667 4.00667 5.93667 4.07 5.85 4.15C5.76333 4.23 5.69 4.32 5.63 4.42C5.57667 4.52 5.53667 4.62333 5.51 4.73L4.36 4.25C4.41333 4.06333 4.49667 3.87667 4.61 3.69C4.73 3.50333 4.87667 3.33667 5.05 3.19C5.23 3.03667 5.44 2.91333 5.68 2.82C5.92 2.72667 6.19 2.68 6.49 2.68C6.81 2.68 7.10333 2.73 7.37 2.83C7.63667 2.92333 7.86333 3.05667 8.05 3.23C8.24333 3.39667 8.39333 3.59667 8.5 3.83C8.60667 4.06333 8.66 4.31333 8.66 4.58C8.66 4.77333 8.63667 4.94667 8.59 5.1C8.54333 5.25333 8.48 5.39667 8.4 5.53C8.32 5.66333 8.22667 5.79 8.12 5.91C8.01333 6.02333 7.9 6.13667 7.78 6.25C7.66667 6.35667 7.57 6.45333 7.49 6.54C7.41667 6.62667 7.35667 6.71333 7.31 6.8C7.27 6.88 7.24 6.96667 7.22 7.06C7.2 7.15333 7.19 7.26 7.19 7.38V7.54H5.88ZM6.52 10.06C6.28 10.06 6.07667 9.97667 5.91 9.81C5.74333 9.63667 5.66 9.43 5.66 9.19C5.66 8.95 5.74333 8.74667 5.91 8.58C6.07667 8.41333 6.28 8.33 6.52 8.33C6.76 8.33 6.96333 8.41333 7.13 8.58C7.30333 8.74667 7.39 8.95 7.39 9.19C7.39 9.43 7.30333 9.63667 7.13 9.81C6.96333 9.97667 6.76 10.06 6.52 10.06Z" fill="#1F2C56"/>
</svg>
