<svg width="202" height="211" viewBox="0 0 202 211" fill="none" xmlns="http://www.w3.org/2000/svg">
<g clip-path="url(#clip0_396_2705)">
<path d="M160.507 107.067V1.51172H159.869H83.5704H0.694336V149.861V211H117.043V149.861H124.37H159.869H201.307V107.067H160.507Z" fill="white"/>
<path d="M40.2031 130.863V148.71" stroke="#1F2C56" stroke-linecap="square" stroke-linejoin="round"/>
<path d="M40.3281 130.516C50.5697 130.516 58.8684 138.809 58.8684 149.042" stroke="#1F2C56" stroke-width="0.5" stroke-linecap="round" stroke-linejoin="round"/>
<path d="M40.2588 39.6318V57.4648" stroke="#1F2C56" stroke-linecap="square" stroke-linejoin="round"/>
<path d="M40.3838 39.2852C50.6253 39.2852 58.924 47.5776 58.924 57.8114" stroke="#1F2C56" stroke-width="0.5" stroke-linecap="round" stroke-linejoin="round"/>
<path d="M77.5332 130.863V148.71" stroke="#1F2C56" stroke-linecap="square" stroke-linejoin="round"/>
<path d="M77.4084 130.516C67.1669 130.516 58.8682 138.809 58.8682 149.042" stroke="#1F2C56" stroke-width="0.5" stroke-linecap="round" stroke-linejoin="round"/>
<path d="M40.2034 57.8115H0.694336V0.693359H91.314V57.8115H58.9241" stroke="#1F2C56" stroke-linecap="round" stroke-linejoin="round"/>
<path d="M78.4913 149.042H117.043V210.182H0.694336V149.042H40.2034" stroke="#1F2C56" stroke-linecap="round" stroke-linejoin="round"/>
<path d="M0.694336 29.2593V168.747" stroke="#1F2C56" stroke-linecap="round" stroke-linejoin="round"/>
<path d="M91.3135 11.0103V89.0952" stroke="#1F2C56" stroke-linecap="round" stroke-linejoin="round"/>
<path d="M101 149.042H201.307V106.249H160.507V0.693359H83.5703" stroke="#1F2C56" stroke-linecap="round" stroke-linejoin="round"/>
</g>
<defs>
<clipPath id="clip0_396_2705">
<rect width="202" height="211" fill="white"/>
</clipPath>
</defs>
</svg>
