<svg width="240" height="134" viewBox="0 0 240 134" fill="none" xmlns="http://www.w3.org/2000/svg">
<g clip-path="url(#clip0_396_4321)">
<path d="M111.379 18.6338C106.352 18.6338 101.81 20.76 98.6108 24.1573C98.6051 24.163 98.5937 24.1687 98.588 24.1744C98.588 24.1744 98.588 24.1801 98.588 24.1858C95.6572 27.3152 93.8577 31.5105 93.8577 36.122C93.8577 36.2417 93.9548 36.3386 94.0748 36.3386H102.587C102.707 36.3386 102.804 36.2417 102.804 36.122C102.804 31.3965 106.655 27.5489 111.396 27.5489C116.138 27.5489 119.989 31.3908 119.989 36.122C119.989 36.2417 120.086 36.3386 120.206 36.3386H128.718C128.838 36.3386 128.935 36.2417 128.935 36.122C128.935 26.4772 121.074 18.6338 111.408 18.6338H111.379ZM123.651 24.2542C123.616 24.2599 123.588 24.2713 123.559 24.2941L117.315 29.2532C117.315 29.2532 117.275 29.2931 117.264 29.3159C115.732 27.9992 113.761 27.1841 111.596 27.1328V19.0613C116.321 19.1183 120.588 21.0963 123.651 24.2485V24.2542ZM111.168 19.067V27.1385C108.985 27.1898 106.992 28.0163 105.461 29.3615L99.0793 24.2941C102.147 21.1191 106.426 19.1297 111.168 19.067ZM102.364 35.9111H94.2804C94.3318 31.5561 96.0286 27.5888 98.7765 24.6019L105.129 29.6465C103.473 31.2369 102.421 33.4543 102.364 35.9111ZM120.394 35.9111C120.337 33.4258 119.257 31.1913 117.566 29.5952C117.566 29.5952 117.572 29.5952 117.578 29.5952L123.822 24.6361C123.862 24.6076 123.885 24.562 123.896 24.5164C126.696 27.5147 128.427 31.5162 128.478 35.9168H120.394V35.9111Z" fill="#C6D6FF"/>
<path d="M100.85 52.5558H121.908C122.028 52.5558 122.125 52.4589 122.125 52.3392V41.771C122.125 41.6513 122.028 41.5544 121.908 41.5544H100.85C100.73 41.5544 100.633 41.6513 100.633 41.771V52.3392C100.633 52.4589 100.73 52.5558 100.85 52.5558ZM101.067 41.9877H121.697V52.1283H101.067V41.9877Z" fill="#C6D6FF"/>
<path d="M128.695 94.0874H120.183C120.063 94.0874 119.966 94.1843 119.966 94.304C119.966 99.0295 116.115 102.877 111.374 102.877C106.632 102.877 102.781 99.0352 102.781 94.304C102.781 94.1843 102.684 94.0874 102.564 94.0874H94.0519C93.932 94.0874 93.8348 94.1843 93.8348 94.304C93.8348 103.949 101.696 111.792 111.362 111.792C121.028 111.792 128.889 103.949 128.889 94.304C128.889 94.1843 128.792 94.0874 128.672 94.0874H128.695ZM102.364 94.5149C102.421 97.0002 103.501 99.2347 105.192 100.831C105.192 100.831 105.186 100.831 105.181 100.831L98.9365 105.79C98.8965 105.818 98.8736 105.864 98.8622 105.91C96.0629 102.911 94.3319 98.9098 94.2804 94.5092H102.364V94.5149ZM99.1022 106.16C99.1364 106.155 99.1707 106.149 99.1993 106.126L105.444 101.167C105.444 101.167 105.483 101.127 105.495 101.104C107.026 102.421 108.997 103.236 111.162 103.288V111.359C106.432 111.302 102.164 109.318 99.1022 106.166V106.16ZM111.591 111.353V103.282C113.773 103.231 115.767 102.404 117.298 101.059L123.679 106.126C120.611 109.301 116.332 111.291 111.591 111.353ZM123.976 105.818L117.623 100.774C119.28 99.1834 120.331 96.966 120.389 94.5092H128.472C128.421 98.8642 126.724 102.831 123.976 105.818Z" fill="#C6D6FF"/>
<path d="M100.639 88.6493C100.639 88.769 100.736 88.8659 100.856 88.8659H121.914C122.034 88.8659 122.131 88.769 122.131 88.6493V78.0811C122.131 77.9614 122.034 77.8645 121.914 77.8645H100.856C100.736 77.8645 100.639 77.9614 100.639 78.0811V88.6493ZM101.067 78.2977H121.697V88.4383H101.067V78.2977Z" fill="#C6D6FF"/>
<path d="M34.6717 15.3392H21.0292C20.9093 15.3392 20.8121 15.4361 20.8121 15.5558V36.6123C20.8121 36.732 20.9093 36.8289 21.0292 36.8289H34.6717C34.7917 36.8289 34.8888 36.732 34.8888 36.6123V15.5501C34.8888 15.4304 34.7917 15.3335 34.6717 15.3335V15.3392ZM21.2406 15.7667H27.6334V36.3957H21.2406V15.7667ZM34.4546 36.3957H28.0618V15.7667H34.4546V36.3957Z" fill="#C6D6FF"/>
<path d="M19.6353 18.5256C19.5896 18.4857 19.5211 18.4686 19.4582 18.48C18.0928 18.7251 17.1045 19.8025 17.1045 21.0394C17.1045 22.2764 18.1043 23.3651 19.4811 23.6045C19.4925 23.6045 19.5039 23.6045 19.5153 23.6045C19.5668 23.6045 19.6125 23.5874 19.6525 23.5532C19.6982 23.5133 19.7267 23.4506 19.7267 23.3879L19.7039 18.6852C19.7039 18.6225 19.6753 18.5598 19.6239 18.5199L19.6353 18.5256Z" fill="#C6D6FF"/>
<path d="M19.6353 28.6606C19.5896 28.6207 19.5211 28.6036 19.4582 28.615C18.0928 28.8601 17.1045 29.9375 17.1045 31.1744C17.1045 32.4114 18.1043 33.5001 19.4811 33.7395C19.4925 33.7395 19.5039 33.7395 19.5153 33.7395C19.5668 33.7395 19.6125 33.7224 19.6525 33.6882C19.6982 33.6483 19.7267 33.5856 19.7267 33.5229L19.7039 28.8202C19.7039 28.7575 19.6753 28.6948 19.6239 28.6549L19.6353 28.6606Z" fill="#C6D6FF"/>
<path d="M36.2085 28.615C36.1457 28.6036 36.0828 28.6207 36.0314 28.6606C35.9857 28.7005 35.9572 28.7632 35.9572 28.8259L35.98 33.5286C35.98 33.5913 36.0086 33.654 36.06 33.6939C36.1 33.7281 36.1457 33.7452 36.1971 33.7452C36.2085 33.7452 36.2199 33.7452 36.2371 33.7452C37.6025 33.5001 38.5908 32.4228 38.5908 31.1858C38.5908 29.9489 37.5911 28.8601 36.2142 28.6207L36.2085 28.615Z" fill="#C6D6FF"/>
<path d="M36.2085 18.48C36.1457 18.4686 36.0828 18.4857 36.0314 18.5256C35.9857 18.5655 35.9572 18.6282 35.9572 18.6909L35.98 23.3936C35.98 23.4563 36.0086 23.519 36.06 23.5589C36.1 23.5931 36.1457 23.6102 36.1971 23.6102C36.2085 23.6102 36.2199 23.6102 36.2371 23.6102C37.6025 23.3651 38.5908 22.2878 38.5908 21.0508C38.5908 19.8139 37.5911 18.7251 36.2142 18.4857L36.2085 18.48Z" fill="#C6D6FF"/>
<path d="M67.6182 15.3392H53.9758C53.8558 15.3392 53.7587 15.4361 53.7587 15.5558V36.6123C53.7587 36.732 53.8558 36.8289 53.9758 36.8289H67.6182C67.7382 36.8289 67.8353 36.732 67.8353 36.6123V15.5501C67.8353 15.4304 67.7382 15.3335 67.6182 15.3335V15.3392ZM54.1871 15.7667H60.5799V36.3957H54.1871V15.7667ZM67.4011 36.3957H61.0084V15.7667H67.4011V36.3957Z" fill="#C6D6FF"/>
<path d="M52.5817 18.5256C52.5303 18.4857 52.4675 18.4686 52.4046 18.48C51.0392 18.7251 50.0509 19.8025 50.0509 21.0394C50.0509 22.2764 51.0507 23.3651 52.4275 23.6045C52.4389 23.6045 52.4503 23.6045 52.4618 23.6045C52.5132 23.6045 52.5589 23.5874 52.5989 23.5532C52.6446 23.5133 52.6731 23.4506 52.6731 23.3879L52.6503 18.6852C52.6503 18.6225 52.6217 18.5598 52.5703 18.5199L52.5817 18.5256Z" fill="#C6D6FF"/>
<path d="M52.5817 28.6606C52.5303 28.6207 52.4675 28.6036 52.4046 28.615C51.0392 28.8601 50.0509 29.9375 50.0509 31.1744C50.0509 32.4114 51.0507 33.5001 52.4275 33.7395C52.4389 33.7395 52.4503 33.7395 52.4618 33.7395C52.5132 33.7395 52.5589 33.7224 52.5989 33.6882C52.6446 33.6483 52.6731 33.5856 52.6731 33.5229L52.6503 28.8202C52.6503 28.7575 52.6217 28.6948 52.5703 28.6549L52.5817 28.6606Z" fill="#C6D6FF"/>
<path d="M69.1607 28.615C69.0978 28.6036 69.035 28.6207 68.9836 28.6606C68.9379 28.7005 68.9093 28.7632 68.9093 28.8259L68.9322 33.5286C68.9322 33.5913 68.9607 33.654 69.0121 33.6939C69.0521 33.7281 69.0978 33.7452 69.1492 33.7452C69.1607 33.7452 69.1721 33.7452 69.1892 33.7452C70.5546 33.5001 71.543 32.4228 71.543 31.1858C71.543 29.9489 70.5432 28.8601 69.1664 28.6207L69.1607 28.615Z" fill="#C6D6FF"/>
<path d="M69.1607 18.48C69.0978 18.4686 69.035 18.4857 68.9836 18.5256C68.9379 18.5655 68.9093 18.6282 68.9093 18.6909L68.9322 23.3936C68.9322 23.4563 68.9607 23.519 69.0121 23.5589C69.0521 23.5931 69.0978 23.6102 69.1492 23.6102C69.1607 23.6102 69.1721 23.6102 69.1892 23.6102C70.5546 23.3651 71.543 22.2878 71.543 21.0508C71.543 19.8139 70.5432 18.7251 69.1664 18.4857L69.1607 18.48Z" fill="#C6D6FF"/>
<path d="M34.6717 54.4709H21.0292C20.9093 54.4709 20.8121 54.5679 20.8121 54.6876V75.744C20.8121 75.8638 20.9093 75.9607 21.0292 75.9607H34.6717C34.7917 75.9607 34.8888 75.8638 34.8888 75.744V54.6876C34.8888 54.5679 34.7917 54.4709 34.6717 54.4709ZM21.2406 54.8985H27.6334V75.5274H21.2406V54.8985ZM34.4546 75.5274H28.0618V54.8985H34.4546V75.5274Z" fill="#C6D6FF"/>
<path d="M19.6353 57.6575C19.5896 57.6176 19.5211 57.6005 19.4582 57.6119C18.0928 57.857 17.1045 58.9343 17.1045 60.1712C17.1045 61.4082 18.1043 62.4969 19.4811 62.7363C19.4925 62.7363 19.5039 62.7363 19.5153 62.7363C19.5668 62.7363 19.6125 62.7192 19.6525 62.685C19.6982 62.6451 19.7267 62.5824 19.7267 62.5197L19.7039 57.8171C19.7039 57.7544 19.6753 57.6917 19.6239 57.6518L19.6353 57.6575Z" fill="#C6D6FF"/>
<path d="M19.6353 67.7981C19.5896 67.7582 19.5211 67.7411 19.4582 67.7525C18.0928 67.9976 17.1045 69.0749 17.1045 70.3119C17.1045 71.5488 18.1043 72.6376 19.4811 72.877C19.4925 72.877 19.5039 72.877 19.5153 72.877C19.5668 72.877 19.6125 72.8599 19.6525 72.8257C19.6982 72.7858 19.7267 72.7231 19.7267 72.6604L19.7039 67.9577C19.7039 67.895 19.6753 67.8323 19.6239 67.7924L19.6353 67.7981Z" fill="#C6D6FF"/>
<path d="M36.2085 67.7466C36.1457 67.7352 36.0828 67.7523 36.0314 67.7922C35.9857 67.8321 35.9572 67.8948 35.9572 67.9575L35.98 72.6602C35.98 72.7229 36.0086 72.7856 36.06 72.8255C36.1 72.8597 36.1457 72.8768 36.1971 72.8768C36.2085 72.8768 36.2199 72.8768 36.2371 72.8768C37.6025 72.6317 38.5908 71.5544 38.5908 70.3174C38.5908 69.0805 37.5911 67.9917 36.2142 67.7523L36.2085 67.7466Z" fill="#C6D6FF"/>
<path d="M36.2085 57.6119C36.1457 57.6005 36.0828 57.6176 36.0314 57.6575C35.9857 57.6974 35.9572 57.7601 35.9572 57.8228L35.98 62.5254C35.98 62.5881 36.0086 62.6508 36.06 62.6907C36.1 62.7249 36.1457 62.742 36.1971 62.742C36.2085 62.742 36.2199 62.742 36.2371 62.742C37.6025 62.4969 38.5908 61.4196 38.5908 60.1827C38.5908 58.9457 37.5911 57.857 36.2142 57.6176L36.2085 57.6119Z" fill="#C6D6FF"/>
<path d="M67.6182 54.4709H53.9758C53.8558 54.4709 53.7587 54.5679 53.7587 54.6876V75.744C53.7587 75.8638 53.8558 75.9607 53.9758 75.9607H67.6182C67.7382 75.9607 67.8353 75.8638 67.8353 75.744V54.6876C67.8353 54.5679 67.7382 54.4709 67.6182 54.4709ZM54.1871 54.8985H60.5799V75.5274H54.1871V54.8985ZM67.4011 75.5274H61.0084V54.8985H67.4011V75.5274Z" fill="#C6D6FF"/>
<path d="M52.5817 57.6575C52.5303 57.6176 52.4675 57.6005 52.4046 57.6119C51.0392 57.857 50.0509 58.9343 50.0509 60.1712C50.0509 61.4082 51.0507 62.4969 52.4275 62.7363C52.4389 62.7363 52.4503 62.7363 52.4618 62.7363C52.5132 62.7363 52.5589 62.7192 52.5989 62.685C52.6446 62.6451 52.6731 62.5824 52.6731 62.5197L52.6503 57.8171C52.6503 57.7544 52.6217 57.6917 52.5703 57.6518L52.5817 57.6575Z" fill="#C6D6FF"/>
<path d="M52.5817 67.7981C52.5303 67.7582 52.4675 67.7411 52.4046 67.7525C51.0392 67.9976 50.0509 69.0749 50.0509 70.3119C50.0509 71.5488 51.0507 72.6376 52.4275 72.877C52.4389 72.877 52.4503 72.877 52.4618 72.877C52.5132 72.877 52.5589 72.8599 52.5989 72.8257C52.6446 72.7858 52.6731 72.7231 52.6731 72.6604L52.6503 67.9577C52.6503 67.895 52.6217 67.8323 52.5703 67.7924L52.5817 67.7981Z" fill="#C6D6FF"/>
<path d="M69.1607 67.7466C69.0978 67.7352 69.035 67.7523 68.9836 67.7922C68.9379 67.8321 68.9093 67.8948 68.9093 67.9575L68.9322 72.6602C68.9322 72.7229 68.9607 72.7856 69.0121 72.8255C69.0521 72.8597 69.0978 72.8768 69.1492 72.8768C69.1607 72.8768 69.1721 72.8768 69.1892 72.8768C70.5546 72.6317 71.543 71.5544 71.543 70.3174C71.543 69.0805 70.5432 67.9917 69.1664 67.7523L69.1607 67.7466Z" fill="#C6D6FF"/>
<path d="M69.1607 57.6119C69.0978 57.6005 69.035 57.6176 68.9836 57.6575C68.9379 57.6974 68.9093 57.7601 68.9093 57.8228L68.9322 62.5254C68.9322 62.5881 68.9607 62.6508 69.0121 62.6907C69.0521 62.7249 69.0978 62.742 69.1492 62.742C69.1607 62.742 69.1721 62.742 69.1892 62.742C70.5546 62.4969 71.543 61.4196 71.543 60.1827C71.543 58.9457 70.5432 57.857 69.1664 57.6176L69.1607 57.6119Z" fill="#C6D6FF"/>
<path d="M34.6717 93.0557H21.0292C20.9093 93.0557 20.8121 93.1526 20.8121 93.2723V114.329C20.8121 114.448 20.9093 114.545 21.0292 114.545H34.6717C34.7917 114.545 34.8888 114.448 34.8888 114.329V93.2723C34.8888 93.1526 34.7917 93.0557 34.6717 93.0557ZM21.2406 93.4832H27.6334V114.112H21.2406V93.4832ZM34.4546 114.112H28.0618V93.4832H34.4546V114.112Z" fill="#C6D6FF"/>
<path d="M19.6353 96.2476C19.5896 96.2077 19.5211 96.1906 19.4582 96.202C18.0928 96.4471 17.1045 97.5244 17.1045 98.7613C17.1045 99.9983 18.1043 101.087 19.4811 101.326C19.4925 101.326 19.5039 101.326 19.5153 101.326C19.5668 101.326 19.6125 101.309 19.6525 101.275C19.6982 101.235 19.7267 101.173 19.7267 101.11L19.7039 96.4072C19.7039 96.3445 19.6753 96.2818 19.6239 96.2419L19.6353 96.2476Z" fill="#C6D6FF"/>
<path d="M19.6353 106.383C19.5896 106.343 19.5211 106.326 19.4582 106.337C18.0928 106.582 17.1045 107.659 17.1045 108.896C17.1045 110.133 18.1043 111.222 19.4811 111.461C19.4925 111.461 19.5039 111.461 19.5153 111.461C19.5668 111.461 19.6125 111.444 19.6525 111.41C19.6982 111.37 19.7267 111.308 19.7267 111.245L19.7039 106.542C19.7039 106.479 19.6753 106.417 19.6239 106.377L19.6353 106.383Z" fill="#C6D6FF"/>
<path d="M36.2085 106.337C36.1457 106.326 36.0828 106.343 36.0314 106.383C35.9857 106.422 35.9572 106.485 35.9572 106.548L35.98 111.251C35.98 111.313 36.0086 111.376 36.06 111.416C36.1 111.45 36.1457 111.467 36.1971 111.467C36.2085 111.467 36.2199 111.467 36.2371 111.467C37.6025 111.222 38.5908 110.145 38.5908 108.908C38.5908 107.671 37.5911 106.582 36.2142 106.343L36.2085 106.337Z" fill="#C6D6FF"/>
<path d="M36.2085 96.202C36.1457 96.1906 36.0828 96.2077 36.0314 96.2476C35.9857 96.2875 35.9572 96.3502 35.9572 96.4129L35.98 101.116C35.98 101.178 36.0086 101.241 36.06 101.281C36.1 101.315 36.1457 101.332 36.1971 101.332C36.2085 101.332 36.2199 101.332 36.2371 101.332C37.6025 101.087 38.5908 100.01 38.5908 98.7727C38.5908 97.5358 37.5911 96.4471 36.2142 96.2077L36.2085 96.202Z" fill="#C6D6FF"/>
<path d="M67.6182 93.0557H53.9758C53.8558 93.0557 53.7587 93.1526 53.7587 93.2723V114.329C53.7587 114.448 53.8558 114.545 53.9758 114.545H67.6182C67.7382 114.545 67.8353 114.448 67.8353 114.329V93.2723C67.8353 93.1526 67.7382 93.0557 67.6182 93.0557ZM54.1871 93.4832H60.5799V114.112H54.1871V93.4832ZM67.4011 114.112H61.0084V93.4832H67.4011V114.112Z" fill="#C6D6FF"/>
<path d="M52.5817 96.2476C52.5303 96.2077 52.4675 96.1906 52.4046 96.202C51.0392 96.4471 50.0509 97.5244 50.0509 98.7613C50.0509 99.9983 51.0507 101.087 52.4275 101.326C52.4389 101.326 52.4503 101.326 52.4618 101.326C52.5132 101.326 52.5589 101.309 52.5989 101.275C52.6446 101.235 52.6731 101.173 52.6731 101.11L52.6503 96.4072C52.6503 96.3445 52.6217 96.2818 52.5703 96.2419L52.5817 96.2476Z" fill="#C6D6FF"/>
<path d="M52.5817 106.383C52.5303 106.343 52.4675 106.326 52.4046 106.337C51.0392 106.582 50.0509 107.659 50.0509 108.896C50.0509 110.133 51.0507 111.222 52.4275 111.461C52.4389 111.461 52.4503 111.461 52.4618 111.461C52.5132 111.461 52.5589 111.444 52.5989 111.41C52.6446 111.37 52.6731 111.308 52.6731 111.245L52.6503 106.542C52.6503 106.479 52.6217 106.417 52.5703 106.377L52.5817 106.383Z" fill="#C6D6FF"/>
<path d="M69.1607 106.337C69.0978 106.326 69.035 106.343 68.9836 106.383C68.9379 106.422 68.9093 106.485 68.9093 106.548L68.9322 111.251C68.9322 111.313 68.9607 111.376 69.0121 111.416C69.0521 111.45 69.0978 111.467 69.1492 111.467C69.1607 111.467 69.1721 111.467 69.1892 111.467C70.5546 111.222 71.543 110.145 71.543 108.908C71.543 107.671 70.5432 106.582 69.1664 106.343L69.1607 106.337Z" fill="#C6D6FF"/>
<path d="M69.1607 96.202C69.0978 96.1906 69.035 96.2077 68.9836 96.2476C68.9379 96.2875 68.9093 96.3502 68.9093 96.4129L68.9322 101.116C68.9322 101.178 68.9607 101.241 69.0121 101.281C69.0521 101.315 69.0978 101.332 69.1492 101.332C69.1607 101.332 69.1721 101.332 69.1892 101.332C70.5546 101.087 71.543 100.01 71.543 98.7727C71.543 97.5358 70.5432 96.4471 69.1664 96.2077L69.1607 96.202Z" fill="#C6D6FF"/>
<path d="M169.103 65.136V51.524C169.103 51.4043 169.006 51.3074 168.886 51.3074H147.782C147.662 51.3074 147.565 51.4043 147.565 51.524V65.136C147.565 65.2557 147.662 65.3526 147.782 65.3526H168.886C169.006 65.3526 169.103 65.2557 169.103 65.136ZM168.674 51.7349V58.1134H147.999V51.7349H168.674ZM147.999 64.9194V58.5409H168.674V64.9194H147.999Z" fill="#C6D6FF"/>
<path d="M163.39 47.6136C162.139 47.6136 161.059 48.6111 160.819 49.9849C160.807 50.0476 160.825 50.1103 160.865 50.1616C160.905 50.2072 160.967 50.2357 161.03 50.2357L165.743 50.2129C165.806 50.2129 165.869 50.1844 165.909 50.1331C165.949 50.0875 165.966 50.0191 165.955 49.9564C165.709 48.594 164.629 47.6079 163.39 47.6079V47.6136Z" fill="#C6D6FF"/>
<path d="M153.232 47.6136C151.981 47.6136 150.901 48.6111 150.661 49.9849C150.65 50.0476 150.667 50.1103 150.707 50.1616C150.747 50.2072 150.81 50.2357 150.873 50.2357L155.586 50.2129C155.649 50.2129 155.711 50.1844 155.751 50.1331C155.791 50.0875 155.809 50.0191 155.797 49.9564C155.551 48.594 154.472 47.6079 153.232 47.6079V47.6136Z" fill="#C6D6FF"/>
<path d="M153.226 69.0405C154.477 69.0405 155.557 68.043 155.797 66.6693C155.809 66.6066 155.791 66.5439 155.751 66.4926C155.711 66.447 155.637 66.4185 155.586 66.4185L150.873 66.4413C150.81 66.4413 150.747 66.4698 150.707 66.5211C150.667 66.5667 150.65 66.6351 150.661 66.6978C150.907 68.0601 151.987 69.0462 153.226 69.0462V69.0405Z" fill="#C6D6FF"/>
<path d="M165.743 66.4243L161.03 66.4471C160.967 66.4471 160.905 66.4756 160.865 66.5269C160.825 66.5725 160.807 66.6409 160.819 66.7036C161.065 68.066 162.144 69.0521 163.384 69.0521C164.624 69.0521 165.715 68.0546 165.955 66.6808C165.966 66.6181 165.949 66.5554 165.909 66.5041C165.869 66.4528 165.801 66.43 165.743 66.43V66.4243Z" fill="#C6D6FF"/>
<path d="M147.788 34.5033H168.891C169.011 34.5033 169.108 34.4064 169.108 34.2867V20.6746C169.108 20.5549 169.011 20.458 168.891 20.458H147.788C147.668 20.458 147.571 20.5549 147.571 20.6746V34.2867C147.571 34.4064 147.668 34.5033 147.788 34.5033ZM148.005 34.0758V27.6972H168.68V34.0758H148.005ZM168.68 20.8912V27.2697H148.005V20.8912H168.68Z" fill="#C6D6FF"/>
<path d="M161.03 19.3863L165.743 19.3635C165.806 19.3635 165.869 19.335 165.909 19.2837C165.949 19.2381 165.966 19.1697 165.955 19.107C165.709 17.7447 164.629 16.7585 163.39 16.7585C162.15 16.7585 161.059 17.7561 160.819 19.1298C160.807 19.1925 160.825 19.2552 160.865 19.3065C160.905 19.3521 160.967 19.3806 161.03 19.3806V19.3863Z" fill="#C6D6FF"/>
<path d="M150.873 19.3863L155.586 19.3635C155.649 19.3635 155.711 19.335 155.751 19.2837C155.791 19.2381 155.809 19.1697 155.797 19.107C155.551 17.7447 154.472 16.7585 153.232 16.7585C151.992 16.7585 150.901 17.7561 150.661 19.1298C150.65 19.1925 150.667 19.2552 150.707 19.3065C150.747 19.3521 150.81 19.3806 150.873 19.3806V19.3863Z" fill="#C6D6FF"/>
<path d="M155.746 35.6547C155.706 35.6091 155.643 35.5806 155.58 35.5806L150.867 35.6034C150.804 35.6034 150.741 35.6319 150.701 35.6832C150.661 35.7288 150.644 35.7972 150.656 35.8599C150.901 37.2222 151.981 38.2084 153.221 38.2084C154.46 38.2084 155.552 37.2108 155.792 35.8371C155.803 35.7744 155.786 35.7117 155.746 35.6604V35.6547Z" fill="#C6D6FF"/>
<path d="M165.909 35.6547C165.869 35.6091 165.806 35.5806 165.743 35.5806L161.03 35.6034C160.967 35.6034 160.905 35.6319 160.865 35.6832C160.825 35.7288 160.807 35.7972 160.819 35.8599C161.065 37.2222 162.144 38.2084 163.384 38.2084C164.624 38.2084 165.715 37.2108 165.955 35.8371C165.966 35.7744 165.949 35.7117 165.909 35.6604V35.6547Z" fill="#C6D6FF"/>
<path d="M214.218 50.2129H193.114C192.994 50.2129 192.897 50.3098 192.897 50.4295V64.0415C192.897 64.1613 192.994 64.2582 193.114 64.2582H214.218C214.338 64.2582 214.435 64.1613 214.435 64.0415V50.4295C214.435 50.3098 214.338 50.2129 214.218 50.2129ZM214.001 50.6404V57.0189H193.325V50.6404H214.001ZM193.325 63.8249V57.4464H214.001V63.8249H193.325Z" fill="#C6D6FF"/>
<path d="M206.151 48.8848C206.14 48.9475 206.157 49.0102 206.197 49.0615C206.237 49.1071 206.299 49.1356 206.362 49.1356L211.075 49.1128C211.138 49.1128 211.201 49.0843 211.241 49.033C211.281 48.9874 211.298 48.919 211.287 48.8563C211.041 47.4939 209.961 46.5078 208.722 46.5078C207.482 46.5078 206.391 47.5053 206.151 48.8791V48.8848Z" fill="#C6D6FF"/>
<path d="M195.993 48.8848C195.982 48.9475 195.999 49.0102 196.039 49.0615C196.079 49.1071 196.142 49.1356 196.205 49.1356L200.918 49.1128C200.981 49.1128 201.043 49.0843 201.083 49.033C201.123 48.9874 201.141 48.919 201.129 48.8563C200.883 47.4939 199.804 46.5078 198.564 46.5078C197.324 46.5078 196.233 47.5053 195.993 48.8791V48.8848Z" fill="#C6D6FF"/>
<path d="M200.918 65.3242L196.205 65.347C196.142 65.347 196.079 65.3755 196.039 65.4268C195.999 65.4724 195.982 65.5408 195.993 65.6035C196.239 66.9659 197.319 67.952 198.558 67.952C199.798 67.952 200.889 66.9545 201.129 65.5807C201.141 65.518 201.123 65.4553 201.083 65.404C201.043 65.3584 200.981 65.3299 200.918 65.3299V65.3242Z" fill="#C6D6FF"/>
<path d="M211.075 65.3242L206.362 65.347C206.299 65.347 206.237 65.3755 206.197 65.4268C206.157 65.4724 206.14 65.5408 206.151 65.6035C206.397 66.9659 207.476 67.952 208.716 67.952C209.956 67.952 211.047 66.9545 211.287 65.5807C211.298 65.518 211.281 65.4553 211.241 65.404C211.201 65.3584 211.138 65.3299 211.075 65.3299V65.3242Z" fill="#C6D6FF"/>
<path d="M239.572 0H0.428469C0.194239 0 0 0.193806 0 0.427514V133.572C0 133.806 0.194239 134 0.428469 134H239.572C239.806 134 240 133.806 240 133.572V0.427514C240 0.193806 239.806 0 239.572 0ZM162.424 95.2159V94.3609H151.535C151.724 88.7291 156.306 84.1918 161.967 84.0721C162.007 84.1234 162.064 84.1633 162.139 84.1633C162.241 84.1633 162.321 84.0949 162.344 83.998C162.384 83.9581 162.413 83.9068 162.413 83.844C162.413 83.787 162.39 83.7414 162.356 83.7015V77.7335H239.137V133.145H162.356V95.2159H162.424ZM189.012 0.855028H228.26V11.2693H189.012V0.855028ZM228.774 0.855028H239.143V11.2693H228.86C228.831 11.2693 228.797 11.275 228.774 11.2864V0.855028ZM228.774 11.6797C228.774 11.6797 228.831 11.6968 228.86 11.6968H239.143V39.7987H228.774V11.6797ZM0.856939 0.855028H188.584V11.4859C188.584 11.6056 188.681 11.7025 188.801 11.7025H228.346V40.021C228.346 40.1407 228.443 40.2376 228.563 40.2376H239.149V77.3173H162.15C162.03 77.3173 161.933 77.4142 161.933 77.534V83.6617C156.054 83.8042 151.301 88.5182 151.113 94.378H151.084V95.233H161.933V133.162H0.856939V0.855028Z" fill="#C6D6FF"/>
<path d="M189.121 30.1541H221.084C221.204 30.1541 221.302 30.0572 221.302 29.9375V20.441C221.302 20.3213 221.204 20.2244 221.084 20.2244H189.121C189.001 20.2244 188.904 20.3213 188.904 20.441V29.9375C188.904 30.0572 189.001 30.1541 189.121 30.1541ZM189.338 20.6576H220.873V29.7266H189.338V20.6576Z" fill="#C6D6FF"/>
<path d="M197.479 31.5847L192.766 31.6075C192.703 31.6075 192.64 31.636 192.6 31.6873C192.56 31.7329 192.543 31.8013 192.554 31.864C192.8 33.2264 193.88 34.2125 195.119 34.2125C196.359 34.2125 197.45 33.215 197.69 31.8412C197.702 31.7785 197.684 31.7158 197.644 31.6645C197.604 31.6189 197.542 31.5904 197.479 31.5904V31.5847Z" fill="#C6D6FF"/>
<path d="M204.346 31.8355C204.357 31.7728 204.34 31.7101 204.3 31.6588C204.26 31.6132 204.197 31.5847 204.134 31.5847L199.421 31.6075C199.358 31.6075 199.295 31.636 199.255 31.6873C199.215 31.7329 199.198 31.8013 199.21 31.864C199.455 33.2264 200.535 34.2125 201.775 34.2125C203.015 34.2125 204.106 33.215 204.346 31.8412V31.8355Z" fill="#C6D6FF"/>
<path d="M210.795 31.5847L206.082 31.6075C206.019 31.6075 205.957 31.636 205.917 31.6873C205.877 31.7329 205.859 31.8013 205.871 31.864C206.117 33.2264 207.196 34.2125 208.436 34.2125C209.676 34.2125 210.767 33.215 211.007 31.8412C211.018 31.7785 211.001 31.7158 210.961 31.6645C210.921 31.6189 210.858 31.5904 210.795 31.5904V31.5847Z" fill="#C6D6FF"/>
<path d="M217.211 31.5847L212.498 31.6075C212.435 31.6075 212.372 31.636 212.332 31.6873C212.292 31.7329 212.275 31.8013 212.287 31.864C212.532 33.2264 213.612 34.2125 214.852 34.2125C216.091 34.2125 217.183 33.215 217.423 31.8412C217.434 31.7785 217.417 31.7158 217.377 31.6645C217.337 31.6189 217.274 31.5904 217.211 31.5904V31.5847Z" fill="#C6D6FF"/>
<path d="M188.359 110.139C188.131 110.766 188.051 111.427 188.136 112.077C188.274 113.063 188.771 113.889 189.553 114.403C190.079 114.75 190.684 114.927 191.318 114.927C191.621 114.927 191.935 114.887 192.25 114.802C193.072 114.585 193.809 114.095 194.369 113.411C195.792 113.889 197.328 114.243 198.951 114.471C199.242 116.306 200.665 117.703 202.373 117.703C204.081 117.703 205.447 116.369 205.778 114.596C207.789 114.391 209.686 113.981 211.411 113.399C211.971 114.089 212.708 114.579 213.536 114.802C213.85 114.887 214.164 114.927 214.467 114.927C215.101 114.927 215.707 114.75 216.233 114.403C217.01 113.889 217.512 113.063 217.649 112.077C217.741 111.421 217.655 110.743 217.415 110.11C219.512 108.303 220.751 106.092 220.751 103.698C220.751 101.303 219.552 99.1659 217.518 97.376C217.878 95.8997 217.398 94.372 216.187 93.5683C214.85 92.6791 213.039 92.9584 211.782 94.1269C210.085 93.5227 208.212 93.0838 206.229 92.8501C205.812 91.2084 204.47 90 202.881 90C201.293 90 199.951 91.2084 199.534 92.8501C197.58 93.0781 195.74 93.5056 194.066 94.0927C192.804 92.8444 190.936 92.5252 189.565 93.4372C188.325 94.258 187.851 95.8427 188.262 97.3532C186.211 99.1488 185 101.338 185 103.698C185 106.057 186.251 108.32 188.371 110.139H188.359ZM188.336 97.6439C188.376 97.6097 188.411 97.5812 188.451 97.547C188.491 97.5128 188.531 97.4786 188.571 97.4444C190.005 96.2246 191.85 95.1929 193.975 94.4233C194.021 94.4062 194.072 94.3891 194.118 94.372C194.164 94.3549 194.215 94.3378 194.261 94.3207C195.855 93.7735 197.603 93.3688 199.454 93.1465C199.505 93.1408 199.551 93.1351 199.602 93.1294C199.654 93.1237 199.705 93.118 199.751 93.1123C200.762 93.004 201.802 92.9413 202.859 92.9413C203.915 92.9413 204.961 93.004 205.972 93.1123C206.024 93.1123 206.075 93.1237 206.121 93.1294C206.172 93.1351 206.218 93.1408 206.269 93.1465C208.149 93.3745 209.92 93.7849 211.537 94.3492C211.582 94.3663 211.634 94.3834 211.679 94.4005C211.731 94.4176 211.782 94.4347 211.828 94.4518C213.93 95.2214 215.753 96.2474 217.169 97.4615C217.209 97.4957 217.249 97.5299 217.289 97.5641C217.329 97.5983 217.369 97.6325 217.409 97.6667C219.323 99.3882 220.443 101.463 220.443 103.698C220.443 105.932 219.272 108.092 217.284 109.837C217.249 109.871 217.209 109.899 217.169 109.934C217.129 109.968 217.095 109.996 217.055 110.03C215.581 111.267 213.685 112.299 211.502 113.057C211.451 113.074 211.405 113.091 211.354 113.109C211.308 113.126 211.262 113.143 211.211 113.16C209.548 113.713 207.726 114.1 205.795 114.3C205.744 114.3 205.698 114.311 205.647 114.317C205.595 114.323 205.549 114.328 205.498 114.334C204.63 114.414 203.744 114.459 202.841 114.459C201.585 114.459 200.356 114.374 199.174 114.22C199.122 114.214 199.077 114.209 199.025 114.197C198.974 114.192 198.928 114.186 198.877 114.174C197.334 113.958 195.872 113.616 194.512 113.171C194.466 113.154 194.415 113.137 194.369 113.126C194.318 113.109 194.272 113.091 194.221 113.074C192.038 112.322 190.142 111.29 188.662 110.065C188.622 110.03 188.588 109.996 188.548 109.968C188.508 109.934 188.473 109.905 188.433 109.871C186.428 108.121 185.24 105.995 185.24 103.703C185.24 101.412 186.371 99.3711 188.302 97.6497L188.336 97.6439Z" fill="#C6D6FF"/>
<path d="M194.491 2.1604C192.874 2.1604 191.56 3.47144 191.56 5.0846C191.56 6.69775 192.874 8.00879 194.491 8.00879C196.108 8.00879 197.422 6.69775 197.422 5.0846C197.422 3.47144 196.108 2.1604 194.491 2.1604ZM194.491 7.58128C193.114 7.58128 191.989 6.46404 191.989 5.0846C191.989 3.70515 193.108 2.58791 194.491 2.58791C195.873 2.58791 196.993 3.70515 196.993 5.0846C196.993 6.46404 195.873 7.58128 194.491 7.58128Z" fill="#C6D6FF"/>
<path d="M198.484 6.95435C197.861 6.95435 197.353 7.46166 197.353 8.08298C197.353 8.7043 197.861 9.21162 198.484 9.21162C199.107 9.21162 199.615 8.7043 199.615 8.08298C199.615 7.46166 199.107 6.95435 198.484 6.95435ZM198.484 8.78411C198.096 8.78411 197.781 8.4706 197.781 8.08298C197.781 7.69537 198.096 7.38186 198.484 7.38186C198.873 7.38186 199.187 7.69537 199.187 8.08298C199.187 8.4706 198.873 8.78411 198.484 8.78411Z" fill="#C6D6FF"/>
<path d="M216.588 2.04639H208.242C207.082 2.04639 206.145 2.98692 206.145 4.13836V7.77508C206.145 8.93221 207.088 9.86704 208.242 9.86704H216.588C217.748 9.86704 218.685 8.92651 218.685 7.77508V4.13836C218.685 2.98122 217.743 2.04639 216.588 2.04639ZM218.257 7.77508C218.257 8.69281 217.508 9.43953 216.588 9.43953H208.242C207.322 9.43953 206.574 8.69281 206.574 7.77508V4.13836C206.574 3.22063 207.322 2.4739 208.242 2.4739H216.588C217.508 2.4739 218.257 3.22063 218.257 4.13836V7.77508Z" fill="#C6D6FF"/>
</g>
<defs>
<clipPath id="clip0_396_4321">
<rect width="240" height="134" fill="white"/>
</clipPath>
</defs>
</svg>
