<svg width="242" height="135" viewBox="0 0 242 135" fill="none" xmlns="http://www.w3.org/2000/svg">
<g clip-path="url(#clip0_396_4439)">
<path d="M34.9549 17.4694H21.1988C21.0778 17.4694 20.9799 17.567 20.9799 17.6876V38.9012C20.9799 39.0218 21.0778 39.1194 21.1988 39.1194H34.9549C35.0759 39.1194 35.1738 39.0218 35.1738 38.9012V17.6818C35.1738 17.5613 35.0759 17.4636 34.9549 17.4636V17.4694ZM21.4119 17.9001H27.8579V38.683H21.4119V17.9001ZM34.736 38.683H28.29V17.9001H34.736V38.683Z" fill="#C6D6FF"/>
<path d="M19.799 20.6796C19.7471 20.6394 19.6837 20.6221 19.6204 20.6336C18.2436 20.8806 17.247 21.9659 17.247 23.2121C17.247 24.4583 18.2551 25.5551 19.6434 25.7963C19.6549 25.7963 19.6665 25.7963 19.678 25.7963C19.7298 25.7963 19.7759 25.7791 19.8162 25.7446C19.8623 25.7044 19.8911 25.6413 19.8911 25.5781L19.8681 20.8404C19.8681 20.7772 19.8393 20.714 19.7874 20.6738L19.799 20.6796Z" fill="#C6D6FF"/>
<path d="M19.799 30.89C19.7471 30.8498 19.6837 30.8326 19.6204 30.8441C18.2436 31.091 17.247 32.1764 17.247 33.4226C17.247 34.6687 18.2551 35.7656 19.6434 36.0068C19.6549 36.0068 19.6665 36.0068 19.678 36.0068C19.7298 36.0068 19.7759 35.9896 19.8162 35.9551C19.8623 35.9149 19.8911 35.8517 19.8911 35.7886L19.8681 31.0508C19.8681 30.9876 19.8393 30.9245 19.7874 30.8843L19.799 30.89Z" fill="#C6D6FF"/>
<path d="M36.5103 30.8441C36.4469 30.8326 36.3835 30.8498 36.3317 30.89C36.2856 30.9302 36.2568 30.9934 36.2568 31.0566L36.2798 35.7943C36.2798 35.8575 36.3087 35.9206 36.3605 35.9608C36.4008 35.9953 36.4469 36.0125 36.4987 36.0125C36.5103 36.0125 36.5218 36.0125 36.5391 36.0125C37.9158 35.7656 38.9124 34.6802 38.9124 33.434C38.9124 32.1879 37.9043 31.091 36.516 30.8498L36.5103 30.8441Z" fill="#C6D6FF"/>
<path d="M36.5103 20.6336C36.4469 20.6221 36.3835 20.6394 36.3317 20.6796C36.2856 20.7198 36.2568 20.7829 36.2568 20.8461L36.2798 25.5838C36.2798 25.647 36.3087 25.7102 36.3605 25.7504C36.4008 25.7848 36.4469 25.8021 36.4987 25.8021C36.5103 25.8021 36.5218 25.8021 36.5391 25.8021C37.9158 25.5551 38.9124 24.4698 38.9124 23.2236C38.9124 21.9774 37.9043 20.8806 36.516 20.6394L36.5103 20.6336Z" fill="#C6D6FF"/>
<path d="M68.1817 17.4694H54.4255C54.3045 17.4694 54.2066 17.567 54.2066 17.6876V38.9012C54.2066 39.0218 54.3045 39.1194 54.4255 39.1194H68.1817C68.3026 39.1194 68.4006 39.0218 68.4006 38.9012V17.6818C68.4006 17.5613 68.3026 17.4636 68.1817 17.4636V17.4694ZM54.6386 17.9001H61.0847V38.683H54.6386V17.9001ZM67.9628 38.683H61.5167V17.9001H67.9628V38.683Z" fill="#C6D6FF"/>
<path d="M53.0199 20.6796C52.9681 20.6394 52.9047 20.6221 52.8414 20.6336C51.4646 20.8806 50.468 21.9659 50.468 23.2121C50.468 24.4583 51.4761 25.5551 52.8644 25.7963C52.8759 25.7963 52.8874 25.7963 52.899 25.7963C52.9508 25.7963 52.9969 25.7791 53.0372 25.7446C53.0833 25.7044 53.1121 25.6413 53.1121 25.5781L53.0891 20.8404C53.0891 20.7772 53.0603 20.714 53.0084 20.6738L53.0199 20.6796Z" fill="#C6D6FF"/>
<path d="M53.0199 30.89C52.9681 30.8498 52.9047 30.8326 52.8414 30.8441C51.4646 31.091 50.468 32.1764 50.468 33.4226C50.468 34.6687 51.4761 35.7656 52.8644 36.0068C52.8759 36.0068 52.8874 36.0068 52.899 36.0068C52.9508 36.0068 52.9969 35.9896 53.0372 35.9551C53.0833 35.9149 53.1121 35.8517 53.1121 35.7886L53.0891 31.0508C53.0891 30.9876 53.0603 30.9245 53.0084 30.8843L53.0199 30.89Z" fill="#C6D6FF"/>
<path d="M69.737 30.8441C69.6736 30.8326 69.6103 30.8498 69.5584 30.89C69.5124 30.9302 69.4836 30.9934 69.4836 31.0566L69.5066 35.7943C69.5066 35.8575 69.5354 35.9206 69.5872 35.9608C69.6276 35.9953 69.6736 36.0125 69.7255 36.0125C69.737 36.0125 69.7485 36.0125 69.7658 36.0125C71.1426 35.7656 72.1392 34.6802 72.1392 33.434C72.1392 32.1879 71.1311 31.091 69.7428 30.8498L69.737 30.8441Z" fill="#C6D6FF"/>
<path d="M69.737 20.6336C69.6736 20.6221 69.6103 20.6394 69.5584 20.6796C69.5124 20.7198 69.4836 20.7829 69.4836 20.8461L69.5066 25.5838C69.5066 25.647 69.5354 25.7102 69.5872 25.7504C69.6276 25.7848 69.6736 25.8021 69.7255 25.8021C69.737 25.8021 69.7485 25.8021 69.7658 25.8021C71.1426 25.5551 72.1392 24.4698 72.1392 23.2236C72.1392 21.9774 71.1311 20.8806 69.7428 20.6394L69.737 20.6336Z" fill="#C6D6FF"/>
<path d="M103.119 17.4694H89.3632C89.2422 17.4694 89.1443 17.567 89.1443 17.6876V38.9012C89.1443 39.0218 89.2422 39.1194 89.3632 39.1194H103.119C103.24 39.1194 103.338 39.0218 103.338 38.9012V17.6818C103.338 17.5613 103.24 17.4636 103.119 17.4636V17.4694ZM89.5763 17.9001H96.0224V38.683H89.5763V17.9001ZM102.9 38.683H96.4544V17.9001H102.9V38.683Z" fill="#C6D6FF"/>
<path d="M87.9634 20.6796C87.9115 20.6394 87.8481 20.6221 87.7848 20.6336C86.408 20.8806 85.4114 21.9659 85.4114 23.2121C85.4114 24.4583 86.4195 25.5551 87.8078 25.7963C87.8193 25.7963 87.8309 25.7963 87.8424 25.7963C87.8942 25.7963 87.9403 25.7791 87.9806 25.7446C88.0267 25.7044 88.0555 25.6413 88.0555 25.5781L88.0325 20.8404C88.0325 20.7772 88.0037 20.714 87.9518 20.6738L87.9634 20.6796Z" fill="#C6D6FF"/>
<path d="M87.9634 30.89C87.9115 30.8498 87.8481 30.8326 87.7848 30.8441C86.408 31.091 85.4114 32.1764 85.4114 33.4226C85.4114 34.6687 86.4195 35.7656 87.8078 36.0068C87.8193 36.0068 87.8309 36.0068 87.8424 36.0068C87.8942 36.0068 87.9403 35.9896 87.9806 35.9551C88.0267 35.9149 88.0555 35.8517 88.0555 35.7886L88.0325 31.0508C88.0325 30.9876 88.0037 30.9245 87.9518 30.8843L87.9634 30.89Z" fill="#C6D6FF"/>
<path d="M104.675 30.8441C104.611 30.8326 104.548 30.8498 104.496 30.89C104.45 30.9302 104.421 30.9934 104.421 31.0566L104.444 35.7943C104.444 35.8575 104.473 35.9206 104.525 35.9608C104.565 35.9953 104.611 36.0125 104.663 36.0125C104.675 36.0125 104.686 36.0125 104.703 36.0125C106.08 35.7656 107.077 34.6802 107.077 33.434C107.077 32.1879 106.069 31.091 104.68 30.8498L104.675 30.8441Z" fill="#C6D6FF"/>
<path d="M104.675 20.6336C104.611 20.6221 104.548 20.6394 104.496 20.6796C104.45 20.7198 104.421 20.7829 104.421 20.8461L104.444 25.5838C104.444 25.647 104.473 25.7102 104.525 25.7504C104.565 25.7848 104.611 25.8021 104.663 25.8021C104.675 25.8021 104.686 25.8021 104.703 25.8021C106.08 25.5551 107.077 24.4698 107.077 23.2236C107.077 21.9774 106.069 20.8806 104.68 20.6394L104.675 20.6336Z" fill="#C6D6FF"/>
<path d="M139.221 17.4694H125.464C125.343 17.4694 125.246 17.567 125.246 17.6876V38.9012C125.246 39.0218 125.343 39.1194 125.464 39.1194H139.221C139.342 39.1194 139.439 39.0218 139.439 38.9012V17.6818C139.439 17.5613 139.342 17.4636 139.221 17.4636V17.4694ZM125.678 17.9001H132.124V38.683H125.678V17.9001ZM139.002 38.683H132.556V17.9001H139.002V38.683Z" fill="#C6D6FF"/>
<path d="M124.059 20.6796C124.007 20.6394 123.944 20.6221 123.88 20.6336C122.503 20.8806 121.507 21.9659 121.507 23.2121C121.507 24.4583 122.515 25.5551 123.903 25.7963C123.915 25.7963 123.926 25.7963 123.938 25.7963C123.99 25.7963 124.036 25.7791 124.076 25.7446C124.122 25.7044 124.151 25.6413 124.151 25.5781L124.128 20.8404C124.128 20.7772 124.099 20.714 124.047 20.6738L124.059 20.6796Z" fill="#C6D6FF"/>
<path d="M124.059 30.89C124.007 30.8498 123.944 30.8326 123.88 30.8441C122.503 31.091 121.507 32.1764 121.507 33.4226C121.507 34.6687 122.515 35.7656 123.903 36.0068C123.915 36.0068 123.926 36.0068 123.938 36.0068C123.99 36.0068 124.036 35.9896 124.076 35.9551C124.122 35.9149 124.151 35.8517 124.151 35.7886L124.128 31.0508C124.128 30.9876 124.099 30.9245 124.047 30.8843L124.059 30.89Z" fill="#C6D6FF"/>
<path d="M140.77 30.8441C140.707 30.8326 140.643 30.8498 140.592 30.89C140.545 30.9302 140.517 30.9934 140.517 31.0566L140.54 35.7943C140.54 35.8575 140.569 35.9206 140.62 35.9608C140.661 35.9953 140.707 36.0125 140.759 36.0125C140.77 36.0125 140.782 36.0125 140.799 36.0125C142.176 35.7656 143.172 34.6802 143.172 33.434C143.172 32.1879 142.164 31.091 140.776 30.8498L140.77 30.8441Z" fill="#C6D6FF"/>
<path d="M140.77 20.6336C140.707 20.6221 140.643 20.6394 140.592 20.6796C140.545 20.7198 140.517 20.7829 140.517 20.8461L140.54 25.5838C140.54 25.647 140.569 25.7102 140.62 25.7504C140.661 25.7848 140.707 25.8021 140.759 25.8021C140.77 25.8021 140.782 25.8021 140.799 25.8021C142.176 25.5551 143.172 24.4698 143.172 23.2236C143.172 21.9774 142.164 20.8806 140.776 20.6394L140.77 20.6336Z" fill="#C6D6FF"/>
<path d="M167.378 65.915H181.134C181.255 65.915 181.353 65.8173 181.353 65.6967V44.4831C181.353 44.3625 181.255 44.2649 181.134 44.2649H167.378C167.257 44.2649 167.159 44.3625 167.159 44.4831V65.6967C167.159 65.8173 167.257 65.915 167.378 65.915ZM180.921 65.4843H174.475V44.7013H180.921V65.4843ZM167.597 44.7013H174.043V65.4843H167.597V44.7013Z" fill="#C6D6FF"/>
<path d="M165.823 52.5977C165.823 52.5977 165.846 52.5977 165.857 52.5977C165.909 52.5977 165.955 52.5805 165.996 52.546C166.042 52.5058 166.07 52.4427 166.07 52.3795L166.047 47.6418C166.047 47.5786 166.019 47.5154 165.967 47.4752C165.915 47.435 165.851 47.4178 165.788 47.4293C164.411 47.6762 163.415 48.7616 163.415 50.0078C163.415 51.2539 164.423 52.3508 165.811 52.592L165.823 52.5977Z" fill="#C6D6FF"/>
<path d="M165.823 62.8082C165.823 62.8082 165.846 62.8082 165.857 62.8082C165.909 62.8082 165.955 62.7909 165.996 62.7565C166.042 62.7163 166.07 62.6531 166.07 62.59L166.047 57.8522C166.047 57.789 166.019 57.7259 165.967 57.6857C165.915 57.6455 165.851 57.6282 165.788 57.6397C164.411 57.8867 163.415 58.972 163.415 60.2182C163.415 61.4644 164.423 62.5612 165.811 62.8024L165.823 62.8082Z" fill="#C6D6FF"/>
<path d="M182.534 62.7622C182.574 62.7967 182.62 62.8139 182.672 62.8139C182.684 62.8139 182.695 62.8139 182.713 62.8139C184.089 62.567 185.086 61.4816 185.086 60.2354C185.086 58.9893 184.078 57.8924 182.69 57.6512C182.626 57.6397 182.563 57.6569 182.511 57.6971C182.465 57.7373 182.436 57.8005 182.436 57.8637L182.459 62.6014C182.459 62.6646 182.488 62.7278 182.54 62.768L182.534 62.7622Z" fill="#C6D6FF"/>
<path d="M182.534 52.5518C182.574 52.5862 182.62 52.6035 182.672 52.6035C182.684 52.6035 182.695 52.6035 182.713 52.6035C184.089 52.3565 185.086 51.2711 185.086 50.025C185.086 48.7788 184.078 47.6819 182.69 47.4407C182.626 47.4293 182.563 47.4465 182.511 47.4867C182.465 47.5269 182.436 47.5901 182.436 47.6532L182.459 52.391C182.459 52.4542 182.488 52.5173 182.54 52.5575L182.534 52.5518Z" fill="#C6D6FF"/>
<path d="M34.9549 56.4739H21.1988C21.0778 56.4739 20.9799 56.5715 20.9799 56.6921V77.9057C20.9799 78.0263 21.0778 78.124 21.1988 78.124H34.9549C35.0759 78.124 35.1738 78.0263 35.1738 77.9057V56.6921C35.1738 56.5715 35.0759 56.4739 34.9549 56.4739ZM21.4119 56.9046H27.8579V77.6875H21.4119V56.9046ZM34.736 77.6875H28.29V56.9046H34.736V77.6875Z" fill="#C6D6FF"/>
<path d="M19.799 59.6842C19.7471 59.644 19.6837 59.6268 19.6204 59.6383C18.2436 59.8852 17.247 60.9706 17.247 62.2167C17.247 63.4629 18.2551 64.5598 19.6434 64.801C19.6549 64.801 19.6665 64.801 19.678 64.801C19.7298 64.801 19.7759 64.7837 19.8162 64.7493C19.8623 64.7091 19.8911 64.6459 19.8911 64.5827L19.8681 59.845C19.8681 59.7818 19.8393 59.7187 19.7874 59.6785L19.799 59.6842Z" fill="#C6D6FF"/>
<path d="M19.799 69.8947C19.7471 69.8545 19.6837 69.8372 19.6204 69.8487C18.2436 70.0956 17.247 71.181 17.247 72.4272C17.247 73.6734 18.2551 74.7702 19.6434 75.0114C19.6549 75.0114 19.6665 75.0114 19.678 75.0114C19.7298 75.0114 19.7759 74.9942 19.8162 74.9597C19.8623 74.9195 19.8911 74.8564 19.8911 74.7932L19.8681 70.0554C19.8681 69.9923 19.8393 69.9291 19.7874 69.8889L19.799 69.8947Z" fill="#C6D6FF"/>
<path d="M36.5103 69.8487C36.4469 69.8372 36.3835 69.8545 36.3317 69.8947C36.2856 69.9348 36.2568 69.998 36.2568 70.0612L36.2798 74.7989C36.2798 74.8621 36.3087 74.9253 36.3605 74.9655C36.4008 74.9999 36.4469 75.0172 36.4987 75.0172C36.5103 75.0172 36.5218 75.0172 36.5391 75.0172C37.9158 74.7702 38.9124 73.6848 38.9124 72.4387C38.9124 71.1925 37.9043 70.0956 36.516 69.8545L36.5103 69.8487Z" fill="#C6D6FF"/>
<path d="M36.5103 59.6383C36.4469 59.6268 36.3835 59.644 36.3317 59.6842C36.2856 59.7244 36.2568 59.7876 36.2568 59.8507L36.2798 64.5885C36.2798 64.6517 36.3087 64.7148 36.3605 64.755C36.4008 64.7895 36.4469 64.8067 36.4987 64.8067C36.5103 64.8067 36.5218 64.8067 36.5391 64.8067C37.9158 64.5598 38.9124 63.4744 38.9124 62.2282C38.9124 60.9821 37.9043 59.8852 36.516 59.644L36.5103 59.6383Z" fill="#C6D6FF"/>
<path d="M68.1817 56.4739H54.4255C54.3045 56.4739 54.2066 56.5715 54.2066 56.6921V77.9057C54.2066 78.0263 54.3045 78.124 54.4255 78.124H68.1817C68.3026 78.124 68.4006 78.0263 68.4006 77.9057V56.6921C68.4006 56.5715 68.3026 56.4739 68.1817 56.4739ZM54.6386 56.9046H61.0847V77.6875H54.6386V56.9046ZM67.9628 77.6875H61.5167V56.9046H67.9628V77.6875Z" fill="#C6D6FF"/>
<path d="M53.0199 59.6842C52.9681 59.644 52.9047 59.6268 52.8414 59.6383C51.4646 59.8852 50.468 60.9706 50.468 62.2167C50.468 63.4629 51.4761 64.5598 52.8644 64.801C52.8759 64.801 52.8874 64.801 52.899 64.801C52.9508 64.801 52.9969 64.7837 53.0372 64.7493C53.0833 64.7091 53.1121 64.6459 53.1121 64.5827L53.0891 59.845C53.0891 59.7818 53.0603 59.7187 53.0084 59.6785L53.0199 59.6842Z" fill="#C6D6FF"/>
<path d="M53.0199 69.8947C52.9681 69.8545 52.9047 69.8372 52.8414 69.8487C51.4646 70.0956 50.468 71.181 50.468 72.4272C50.468 73.6734 51.4761 74.7702 52.8644 75.0114C52.8759 75.0114 52.8874 75.0114 52.899 75.0114C52.9508 75.0114 52.9969 74.9942 53.0372 74.9597C53.0833 74.9195 53.1121 74.8564 53.1121 74.7932L53.0891 70.0554C53.0891 69.9923 53.0603 69.9291 53.0084 69.8889L53.0199 69.8947Z" fill="#C6D6FF"/>
<path d="M69.737 69.8487C69.6736 69.8372 69.6103 69.8545 69.5584 69.8947C69.5124 69.9348 69.4836 69.998 69.4836 70.0612L69.5066 74.7989C69.5066 74.8621 69.5354 74.9253 69.5872 74.9655C69.6276 74.9999 69.6736 75.0172 69.7255 75.0172C69.737 75.0172 69.7485 75.0172 69.7658 75.0172C71.1426 74.7702 72.1392 73.6848 72.1392 72.4387C72.1392 71.1925 71.1311 70.0956 69.7428 69.8545L69.737 69.8487Z" fill="#C6D6FF"/>
<path d="M69.737 59.6383C69.6736 59.6268 69.6103 59.644 69.5584 59.6842C69.5124 59.7244 69.4836 59.7876 69.4836 59.8507L69.5066 64.5885C69.5066 64.6517 69.5354 64.7148 69.5872 64.755C69.6276 64.7895 69.6736 64.8067 69.7255 64.8067C69.737 64.8067 69.7485 64.8067 69.7658 64.8067C71.1426 64.5598 72.1392 63.4744 72.1392 62.2282C72.1392 60.9821 71.1311 59.8852 69.7428 59.644L69.737 59.6383Z" fill="#C6D6FF"/>
<path d="M103.119 56.4739H89.3632C89.2422 56.4739 89.1443 56.5715 89.1443 56.6921V77.9057C89.1443 78.0263 89.2422 78.124 89.3632 78.124H103.119C103.24 78.124 103.338 78.0263 103.338 77.9057V56.6921C103.338 56.5715 103.24 56.4739 103.119 56.4739ZM89.5763 56.9046H96.0224V77.6875H89.5763V56.9046ZM102.9 77.6875H96.4544V56.9046H102.9V77.6875Z" fill="#C6D6FF"/>
<path d="M87.9634 59.6842C87.9115 59.644 87.8481 59.6268 87.7848 59.6383C86.408 59.8852 85.4114 60.9706 85.4114 62.2167C85.4114 63.4629 86.4195 64.5598 87.8078 64.801C87.8193 64.801 87.8309 64.801 87.8424 64.801C87.8942 64.801 87.9403 64.7837 87.9806 64.7493C88.0267 64.7091 88.0555 64.6459 88.0555 64.5827L88.0325 59.845C88.0325 59.7818 88.0037 59.7187 87.9518 59.6785L87.9634 59.6842Z" fill="#C6D6FF"/>
<path d="M87.9634 69.8947C87.9115 69.8545 87.8481 69.8372 87.7848 69.8487C86.408 70.0956 85.4114 71.181 85.4114 72.4272C85.4114 73.6734 86.4195 74.7702 87.8078 75.0114C87.8193 75.0114 87.8309 75.0114 87.8424 75.0114C87.8942 75.0114 87.9403 74.9942 87.9806 74.9597C88.0267 74.9195 88.0555 74.8564 88.0555 74.7932L88.0325 70.0554C88.0325 69.9923 88.0037 69.9291 87.9518 69.8889L87.9634 69.8947Z" fill="#C6D6FF"/>
<path d="M104.675 69.8487C104.611 69.8372 104.548 69.8545 104.496 69.8947C104.45 69.9348 104.421 69.998 104.421 70.0612L104.444 74.7989C104.444 74.8621 104.473 74.9253 104.525 74.9655C104.565 74.9999 104.611 75.0172 104.663 75.0172C104.675 75.0172 104.686 75.0172 104.703 75.0172C106.08 74.7702 107.077 73.6848 107.077 72.4387C107.077 71.1925 106.069 70.0956 104.68 69.8545L104.675 69.8487Z" fill="#C6D6FF"/>
<path d="M104.675 59.6383C104.611 59.6268 104.548 59.644 104.496 59.6842C104.45 59.7244 104.421 59.7876 104.421 59.8507L104.444 64.5885C104.444 64.6517 104.473 64.7148 104.525 64.755C104.565 64.7895 104.611 64.8067 104.663 64.8067C104.675 64.8067 104.686 64.8067 104.703 64.8067C106.08 64.5598 107.077 63.4744 107.077 62.2282C107.077 60.9821 106.069 59.8852 104.68 59.644L104.675 59.6383Z" fill="#C6D6FF"/>
<path d="M139.221 56.4739H125.464C125.343 56.4739 125.246 56.5715 125.246 56.6921V77.9057C125.246 78.0263 125.343 78.124 125.464 78.124H139.221C139.342 78.124 139.439 78.0263 139.439 77.9057V56.6921C139.439 56.5715 139.342 56.4739 139.221 56.4739ZM125.678 56.9046H132.124V77.6875H125.678V56.9046ZM139.002 77.6875H132.556V56.9046H139.002V77.6875Z" fill="#C6D6FF"/>
<path d="M124.059 59.6842C124.007 59.644 123.944 59.6268 123.88 59.6383C122.503 59.8852 121.507 60.9706 121.507 62.2167C121.507 63.4629 122.515 64.5598 123.903 64.801C123.915 64.801 123.926 64.801 123.938 64.801C123.99 64.801 124.036 64.7837 124.076 64.7493C124.122 64.7091 124.151 64.6459 124.151 64.5827L124.128 59.845C124.128 59.7818 124.099 59.7187 124.047 59.6785L124.059 59.6842Z" fill="#C6D6FF"/>
<path d="M124.059 69.8947C124.007 69.8545 123.944 69.8372 123.88 69.8487C122.503 70.0956 121.507 71.181 121.507 72.4272C121.507 73.6734 122.515 74.7702 123.903 75.0114C123.915 75.0114 123.926 75.0114 123.938 75.0114C123.99 75.0114 124.036 74.9942 124.076 74.9597C124.122 74.9195 124.151 74.8564 124.151 74.7932L124.128 70.0554C124.128 69.9923 124.099 69.9291 124.047 69.8889L124.059 69.8947Z" fill="#C6D6FF"/>
<path d="M140.77 69.8487C140.707 69.8372 140.643 69.8545 140.592 69.8947C140.545 69.9348 140.517 69.998 140.517 70.0612L140.54 74.7989C140.54 74.8621 140.569 74.9253 140.62 74.9655C140.661 74.9999 140.707 75.0172 140.759 75.0172C140.77 75.0172 140.782 75.0172 140.799 75.0172C142.176 74.7702 143.172 73.6848 143.172 72.4387C143.172 71.1925 142.164 70.0956 140.776 69.8545L140.77 69.8487Z" fill="#C6D6FF"/>
<path d="M140.77 59.6383C140.707 59.6268 140.643 59.644 140.592 59.6842C140.545 59.7244 140.517 59.7876 140.517 59.8507L140.54 64.5885C140.54 64.6517 140.569 64.7148 140.62 64.755C140.661 64.7895 140.707 64.8067 140.759 64.8067C140.77 64.8067 140.782 64.8067 140.799 64.8067C142.176 64.5598 143.172 63.4744 143.172 62.2282C143.172 60.9821 142.164 59.8852 140.776 59.644L140.77 59.6383Z" fill="#C6D6FF"/>
<path d="M216.262 44.2708H202.506C202.385 44.2708 202.287 44.3684 202.287 44.489V65.7026C202.287 65.8232 202.385 65.9208 202.506 65.9208H216.262C216.383 65.9208 216.481 65.8232 216.481 65.7026V44.489C216.481 44.3684 216.383 44.2708 216.262 44.2708ZM202.719 44.7015H209.165V65.4844H202.719V44.7015ZM216.043 65.4844H209.597V44.7015H216.043V65.4844Z" fill="#C6D6FF"/>
<path d="M201.1 47.4808C201.048 47.4406 200.985 47.4234 200.922 47.4349C199.545 47.6818 198.548 48.7672 198.548 50.0134C198.548 51.2595 199.556 52.3564 200.945 52.5976C200.956 52.5976 200.968 52.5976 200.979 52.5976C201.031 52.5976 201.077 52.5804 201.118 52.5459C201.164 52.5057 201.192 52.4425 201.192 52.3794L201.169 47.6416C201.169 47.5785 201.141 47.5153 201.089 47.4751L201.1 47.4808Z" fill="#C6D6FF"/>
<path d="M201.1 57.6971C201.048 57.6569 200.985 57.6397 200.922 57.6512C199.545 57.8981 198.548 58.9835 198.548 60.2297C198.548 61.4759 199.556 62.5727 200.945 62.8139C200.956 62.8139 200.968 62.8139 200.979 62.8139C201.031 62.8139 201.077 62.7967 201.118 62.7622C201.164 62.722 201.192 62.6589 201.192 62.5957L201.169 57.8579C201.169 57.7948 201.141 57.7316 201.089 57.6914L201.1 57.6971Z" fill="#C6D6FF"/>
<path d="M217.812 57.6456C217.748 57.6341 217.685 57.6513 217.633 57.6915C217.587 57.7317 217.558 57.7949 217.558 57.8581L217.581 62.5958C217.581 62.659 217.61 62.7222 217.662 62.7624C217.702 62.7968 217.748 62.814 217.8 62.814C217.812 62.814 217.823 62.814 217.84 62.814C219.217 62.5671 220.214 61.4817 220.214 60.2356C220.214 58.9894 219.206 57.8925 217.817 57.6513L217.812 57.6456Z" fill="#C6D6FF"/>
<path d="M217.812 47.4349C217.748 47.4234 217.685 47.4406 217.633 47.4808C217.587 47.521 217.558 47.5842 217.558 47.6474L217.581 52.3851C217.581 52.4483 217.61 52.5115 217.662 52.5517C217.702 52.5861 217.748 52.6033 217.8 52.6033C217.812 52.6033 217.823 52.6033 217.84 52.6033C219.217 52.3564 220.214 51.271 220.214 50.0249C220.214 48.7787 219.206 47.6818 217.817 47.4406L217.812 47.4349Z" fill="#C6D6FF"/>
<path d="M34.9549 95.4729H21.1988C21.0778 95.4729 20.9799 95.5705 20.9799 95.6911V116.905C20.9799 117.025 21.0778 117.123 21.1988 117.123H34.9549C35.0759 117.123 35.1738 117.025 35.1738 116.905V95.6911C35.1738 95.5705 35.0759 95.4729 34.9549 95.4729ZM21.4119 95.9036H27.8579V116.687H21.4119V95.9036ZM34.736 116.687H28.29V95.9036H34.736V116.687Z" fill="#C6D6FF"/>
<path d="M19.799 98.6888C19.7471 98.6486 19.6837 98.6314 19.6204 98.6429C18.2436 98.8898 17.247 99.9752 17.247 101.221C17.247 102.468 18.2551 103.564 19.6434 103.806C19.6549 103.806 19.6665 103.806 19.678 103.806C19.7298 103.806 19.7759 103.788 19.8162 103.754C19.8623 103.714 19.8911 103.651 19.8911 103.587L19.8681 98.8496C19.8681 98.7865 19.8393 98.7233 19.7874 98.6831L19.799 98.6888Z" fill="#C6D6FF"/>
<path d="M19.799 108.899C19.7471 108.859 19.6837 108.842 19.6204 108.853C18.2436 109.1 17.247 110.186 17.247 111.432C17.247 112.678 18.2551 113.775 19.6434 114.016C19.6549 114.016 19.6665 114.016 19.678 114.016C19.7298 114.016 19.7759 113.999 19.8162 113.964C19.8623 113.924 19.8911 113.861 19.8911 113.798L19.8681 109.06C19.8681 108.997 19.8393 108.934 19.7874 108.894L19.799 108.899Z" fill="#C6D6FF"/>
<path d="M36.5103 108.853C36.4469 108.842 36.3835 108.859 36.3317 108.899C36.2856 108.939 36.2568 109.003 36.2568 109.066L36.2798 113.804C36.2798 113.867 36.3087 113.93 36.3605 113.97C36.4008 114.005 36.4469 114.022 36.4987 114.022C36.5103 114.022 36.5218 114.022 36.5391 114.022C37.9158 113.775 38.9124 112.689 38.9124 111.443C38.9124 110.197 37.9043 109.1 36.516 108.859L36.5103 108.853Z" fill="#C6D6FF"/>
<path d="M36.5103 98.6429C36.4469 98.6314 36.3835 98.6486 36.3317 98.6888C36.2856 98.729 36.2568 98.7922 36.2568 98.8554L36.2798 103.593C36.2798 103.656 36.3087 103.719 36.3605 103.76C36.4008 103.794 36.4469 103.811 36.4987 103.811C36.5103 103.811 36.5218 103.811 36.5391 103.811C37.9158 103.564 38.9124 102.479 38.9124 101.233C38.9124 99.9867 37.9043 98.8898 36.516 98.6486L36.5103 98.6429Z" fill="#C6D6FF"/>
<path d="M68.1817 95.4729H54.4255C54.3045 95.4729 54.2066 95.5705 54.2066 95.6911V116.905C54.2066 117.025 54.3045 117.123 54.4255 117.123H68.1817C68.3026 117.123 68.4006 117.025 68.4006 116.905V95.6911C68.4006 95.5705 68.3026 95.4729 68.1817 95.4729ZM54.6386 95.9036H61.0847V116.687H54.6386V95.9036ZM67.9628 116.687H61.5167V95.9036H67.9628V116.687Z" fill="#C6D6FF"/>
<path d="M53.0199 98.6888C52.9681 98.6486 52.9047 98.6314 52.8414 98.6429C51.4646 98.8898 50.468 99.9752 50.468 101.221C50.468 102.468 51.4761 103.564 52.8644 103.806C52.8759 103.806 52.8874 103.806 52.899 103.806C52.9508 103.806 52.9969 103.788 53.0372 103.754C53.0833 103.714 53.1121 103.651 53.1121 103.587L53.0891 98.8496C53.0891 98.7865 53.0603 98.7233 53.0084 98.6831L53.0199 98.6888Z" fill="#C6D6FF"/>
<path d="M53.0199 108.899C52.9681 108.859 52.9047 108.842 52.8414 108.853C51.4646 109.1 50.468 110.186 50.468 111.432C50.468 112.678 51.4761 113.775 52.8644 114.016C52.8759 114.016 52.8874 114.016 52.899 114.016C52.9508 114.016 52.9969 113.999 53.0372 113.964C53.0833 113.924 53.1121 113.861 53.1121 113.798L53.0891 109.06C53.0891 108.997 53.0603 108.934 53.0084 108.894L53.0199 108.899Z" fill="#C6D6FF"/>
<path d="M69.737 108.853C69.6736 108.842 69.6103 108.859 69.5584 108.899C69.5124 108.939 69.4836 109.003 69.4836 109.066L69.5066 113.804C69.5066 113.867 69.5354 113.93 69.5872 113.97C69.6276 114.005 69.6736 114.022 69.7255 114.022C69.737 114.022 69.7485 114.022 69.7658 114.022C71.1426 113.775 72.1392 112.689 72.1392 111.443C72.1392 110.197 71.1311 109.1 69.7428 108.859L69.737 108.853Z" fill="#C6D6FF"/>
<path d="M69.737 98.6429C69.6736 98.6314 69.6103 98.6486 69.5584 98.6888C69.5124 98.729 69.4836 98.7922 69.4836 98.8554L69.5066 103.593C69.5066 103.656 69.5354 103.719 69.5872 103.76C69.6276 103.794 69.6736 103.811 69.7255 103.811C69.737 103.811 69.7485 103.811 69.7658 103.811C71.1426 103.564 72.1392 102.479 72.1392 101.233C72.1392 99.9867 71.1311 98.8898 69.7428 98.6486L69.737 98.6429Z" fill="#C6D6FF"/>
<path d="M103.119 95.4729H89.3632C89.2422 95.4729 89.1443 95.5705 89.1443 95.6911V116.905C89.1443 117.025 89.2422 117.123 89.3632 117.123H103.119C103.24 117.123 103.338 117.025 103.338 116.905V95.6911C103.338 95.5705 103.24 95.4729 103.119 95.4729ZM89.5763 95.9036H96.0224V116.687H89.5763V95.9036ZM102.9 116.687H96.4544V95.9036H102.9V116.687Z" fill="#C6D6FF"/>
<path d="M87.9634 98.6888C87.9115 98.6486 87.8481 98.6314 87.7848 98.6429C86.408 98.8898 85.4114 99.9752 85.4114 101.221C85.4114 102.468 86.4195 103.564 87.8078 103.806C87.8193 103.806 87.8309 103.806 87.8424 103.806C87.8942 103.806 87.9403 103.788 87.9806 103.754C88.0267 103.714 88.0555 103.651 88.0555 103.587L88.0325 98.8496C88.0325 98.7865 88.0037 98.7233 87.9518 98.6831L87.9634 98.6888Z" fill="#C6D6FF"/>
<path d="M87.9634 108.899C87.9115 108.859 87.8481 108.842 87.7848 108.853C86.408 109.1 85.4114 110.186 85.4114 111.432C85.4114 112.678 86.4195 113.775 87.8078 114.016C87.8193 114.016 87.8309 114.016 87.8424 114.016C87.8942 114.016 87.9403 113.999 87.9806 113.964C88.0267 113.924 88.0555 113.861 88.0555 113.798L88.0325 109.06C88.0325 108.997 88.0037 108.934 87.9518 108.894L87.9634 108.899Z" fill="#C6D6FF"/>
<path d="M104.675 108.853C104.611 108.842 104.548 108.859 104.496 108.899C104.45 108.939 104.421 109.003 104.421 109.066L104.444 113.804C104.444 113.867 104.473 113.93 104.525 113.97C104.565 114.005 104.611 114.022 104.663 114.022C104.675 114.022 104.686 114.022 104.703 114.022C106.08 113.775 107.077 112.689 107.077 111.443C107.077 110.197 106.069 109.1 104.68 108.859L104.675 108.853Z" fill="#C6D6FF"/>
<path d="M104.675 98.6429C104.611 98.6314 104.548 98.6486 104.496 98.6888C104.45 98.729 104.421 98.7922 104.421 98.8554L104.444 103.593C104.444 103.656 104.473 103.719 104.525 103.76C104.565 103.794 104.611 103.811 104.663 103.811C104.675 103.811 104.686 103.811 104.703 103.811C106.08 103.564 107.077 102.479 107.077 101.233C107.077 99.9867 106.069 98.8898 104.68 98.6486L104.675 98.6429Z" fill="#C6D6FF"/>
<path d="M139.221 95.4729H125.464C125.343 95.4729 125.246 95.5705 125.246 95.6911V116.905C125.246 117.025 125.343 117.123 125.464 117.123H139.221C139.342 117.123 139.439 117.025 139.439 116.905V95.6911C139.439 95.5705 139.342 95.4729 139.221 95.4729ZM125.678 95.9036H132.124V116.687H125.678V95.9036ZM139.002 116.687H132.556V95.9036H139.002V116.687Z" fill="#C6D6FF"/>
<path d="M124.059 98.6888C124.007 98.6486 123.944 98.6314 123.88 98.6429C122.503 98.8898 121.507 99.9752 121.507 101.221C121.507 102.468 122.515 103.564 123.903 103.806C123.915 103.806 123.926 103.806 123.938 103.806C123.99 103.806 124.036 103.788 124.076 103.754C124.122 103.714 124.151 103.651 124.151 103.587L124.128 98.8496C124.128 98.7865 124.099 98.7233 124.047 98.6831L124.059 98.6888Z" fill="#C6D6FF"/>
<path d="M124.059 108.899C124.007 108.859 123.944 108.842 123.88 108.853C122.503 109.1 121.507 110.186 121.507 111.432C121.507 112.678 122.515 113.775 123.903 114.016C123.915 114.016 123.926 114.016 123.938 114.016C123.99 114.016 124.036 113.999 124.076 113.964C124.122 113.924 124.151 113.861 124.151 113.798L124.128 109.06C124.128 108.997 124.099 108.934 124.047 108.894L124.059 108.899Z" fill="#C6D6FF"/>
<path d="M140.77 108.853C140.707 108.842 140.643 108.859 140.592 108.899C140.545 108.939 140.517 109.003 140.517 109.066L140.54 113.804C140.54 113.867 140.569 113.93 140.62 113.97C140.661 114.005 140.707 114.022 140.759 114.022C140.77 114.022 140.782 114.022 140.799 114.022C142.176 113.775 143.172 112.689 143.172 111.443C143.172 110.197 142.164 109.1 140.776 108.859L140.77 108.853Z" fill="#C6D6FF"/>
<path d="M140.77 98.6429C140.707 98.6314 140.643 98.6486 140.592 98.6888C140.545 98.729 140.517 98.7922 140.517 98.8554L140.54 103.593C140.54 103.656 140.569 103.719 140.62 103.76C140.661 103.794 140.707 103.811 140.759 103.811C140.77 103.811 140.782 103.811 140.799 103.811C142.176 103.564 143.172 102.479 143.172 101.233C143.172 99.9867 142.164 98.8898 140.776 98.6486L140.77 98.6429Z" fill="#C6D6FF"/>
<path d="M241.568 0H0.43204C0.195858 0 0 0.195253 0 0.430704V134.569C0 134.805 0.195858 135 0.43204 135H241.568C241.804 135 242 134.805 242 134.569V0.430704C242 0.195253 241.804 0 241.568 0ZM163.778 95.892V95.0306H152.798C152.988 89.3568 157.608 84.7856 163.317 84.665C163.357 84.7167 163.415 84.7569 163.49 84.7569C163.593 84.7569 163.674 84.688 163.697 84.5904C163.737 84.5502 163.766 84.4985 163.766 84.4353C163.766 84.3779 163.743 84.3319 163.709 84.2917V78.2791H241.13V134.139H163.709V95.8863H163.778V95.892ZM229.805 0.867152V11.5773H190.23V0.867152H229.805ZM230.323 0.867152H241.067V11.5773H230.416C230.387 11.5773 230.352 11.5831 230.329 11.5946V0.867152H230.323ZM230.323 11.9851C230.323 11.9851 230.381 12.0023 230.41 12.0023H241.061V40.3139H230.318V11.9908L230.323 11.9851ZM0.86408 0.861409H189.798V11.7898C189.798 11.9104 189.896 12.008 190.017 12.008H229.891V40.5379C229.891 40.6585 229.989 40.7561 230.11 40.7561H241.142V77.8484H163.501C163.38 77.8484 163.282 77.946 163.282 78.0666V84.24C157.355 84.3836 152.562 89.1329 152.372 95.0364H152.343V95.8978H163.282V134.15H0.86408V0.861409Z" fill="#C6D6FF"/>
<path d="M190.697 30.379H222.927C223.048 30.379 223.146 30.2813 223.146 30.1607V20.5876C223.146 20.467 223.048 20.3694 222.927 20.3694H190.697C190.576 20.3694 190.478 20.467 190.478 20.5876V30.1607C190.478 30.2813 190.576 30.379 190.697 30.379ZM190.916 20.8058H222.714V29.9483H190.916V20.8058Z" fill="#C6D6FF"/>
<path d="M199.286 31.9008C199.245 31.8549 199.182 31.8262 199.119 31.8262L194.366 31.8491C194.303 31.8491 194.239 31.8779 194.199 31.9295C194.159 31.9755 194.142 32.0444 194.153 32.1076C194.401 33.4801 195.489 34.4736 196.74 34.4736C197.99 34.4736 199.09 33.4686 199.332 32.0846C199.343 32.0214 199.326 31.9583 199.286 31.9066V31.9008Z" fill="#C6D6FF"/>
<path d="M206.049 32.0732C206.06 32.0101 206.043 31.9469 206.002 31.8952C205.962 31.8493 205.899 31.8206 205.835 31.8206L201.083 31.8435C201.02 31.8435 200.956 31.8722 200.916 31.9239C200.876 31.9699 200.858 32.0388 200.87 32.102C201.118 33.4745 202.206 34.468 203.456 34.468C204.706 34.468 205.807 33.463 206.049 32.079V32.0732Z" fill="#C6D6FF"/>
<path d="M212.765 32.0732C212.777 32.0101 212.76 31.9469 212.719 31.8952C212.679 31.8493 212.616 31.8206 212.552 31.8206L207.8 31.8435C207.736 31.8435 207.673 31.8722 207.633 31.9239C207.592 31.9699 207.575 32.0388 207.587 32.102C207.834 33.4745 208.923 34.468 210.173 34.468C211.423 34.468 212.523 33.463 212.765 32.079V32.0732Z" fill="#C6D6FF"/>
<path d="M219.234 32.0732C219.246 32.0101 219.229 31.9469 219.188 31.8952C219.148 31.8493 219.085 31.8206 219.021 31.8206L214.269 31.8435C214.205 31.8435 214.142 31.8722 214.102 31.9239C214.061 31.9699 214.044 32.0388 214.056 32.102C214.303 33.4745 215.392 34.468 216.642 34.468C217.892 34.468 218.992 33.463 219.234 32.079V32.0732Z" fill="#C6D6FF"/>
<path d="M190.109 110.72C189.879 111.351 189.798 112.018 189.884 112.672C190.023 113.666 190.524 114.498 191.313 115.015C191.843 115.366 192.454 115.544 193.093 115.544C193.398 115.544 193.715 115.503 194.032 115.417C194.862 115.199 195.605 114.705 196.169 114.016C197.604 114.498 199.153 114.854 200.789 115.084C201.083 116.933 202.517 118.34 204.24 118.34C205.962 118.34 207.339 116.997 207.673 115.211C209.701 115.004 211.613 114.59 213.353 114.005C213.917 114.699 214.66 115.193 215.496 115.417C215.813 115.503 216.129 115.544 216.435 115.544C217.074 115.544 217.685 115.366 218.215 115.015C218.998 114.498 219.505 113.666 219.643 112.672C219.736 112.012 219.649 111.328 219.407 110.691C221.521 108.871 222.771 106.642 222.771 104.23C222.771 101.818 221.562 99.665 219.511 97.8618C219.874 96.3744 219.39 94.8353 218.169 94.0256C216.821 93.1297 214.995 93.4111 213.727 94.5884C212.016 93.9797 210.127 93.5375 208.128 93.302C207.708 91.6481 206.354 90.4307 204.752 90.4307C203.151 90.4307 201.797 91.6481 201.377 93.302C199.407 93.5317 197.552 93.9624 195.864 94.5539C194.591 93.2963 192.707 92.9747 191.325 93.8935C190.075 94.7205 189.596 96.317 190.011 97.8388C187.943 99.6477 186.722 101.853 186.722 104.23C186.722 106.608 187.983 108.888 190.121 110.72H190.109ZM190.086 98.1317C190.126 98.0972 190.161 98.0685 190.201 98.034C190.242 97.9996 190.282 97.9651 190.322 97.9307C191.768 96.7017 193.629 95.6623 195.772 94.887C195.818 94.8698 195.87 94.8526 195.916 94.8353C195.962 94.8181 196.014 94.8009 196.06 94.7837C197.667 94.2323 199.43 93.8246 201.296 93.6007C201.348 93.5949 201.394 93.5892 201.446 93.5834C201.498 93.5777 201.55 93.5719 201.596 93.5662C202.615 93.4571 203.664 93.3939 204.729 93.3939C205.795 93.3939 206.849 93.4571 207.869 93.5662C207.921 93.5662 207.973 93.5777 208.019 93.5834C208.07 93.5892 208.117 93.5949 208.168 93.6007C210.064 93.8304 211.849 94.2438 213.48 94.8124C213.526 94.8296 213.578 94.8468 213.624 94.864C213.675 94.8813 213.727 94.8985 213.773 94.9157C215.893 95.691 217.731 96.7247 219.159 97.9479C219.2 97.9823 219.24 98.0168 219.28 98.0513C219.321 98.0857 219.361 98.1202 219.401 98.1546C221.331 99.8889 222.46 101.979 222.46 104.23C222.46 106.482 221.279 108.658 219.275 110.415C219.24 110.45 219.2 110.479 219.159 110.513C219.119 110.547 219.085 110.576 219.044 110.611C217.558 111.857 215.646 112.896 213.445 113.66C213.393 113.677 213.347 113.694 213.295 113.712C213.249 113.729 213.203 113.746 213.151 113.763C211.475 114.32 209.637 114.711 207.69 114.912C207.638 114.912 207.592 114.923 207.54 114.929C207.489 114.935 207.443 114.941 207.391 114.946C206.515 115.027 205.622 115.073 204.712 115.073C203.445 115.073 202.206 114.987 201.014 114.832C200.962 114.826 200.916 114.82 200.864 114.809C200.812 114.803 200.766 114.797 200.714 114.786C199.159 114.567 197.684 114.223 196.313 113.775C196.267 113.758 196.215 113.74 196.169 113.729C196.117 113.712 196.071 113.694 196.019 113.677C193.819 112.919 191.906 111.88 190.414 110.645C190.374 110.611 190.34 110.576 190.299 110.547C190.259 110.513 190.224 110.484 190.184 110.45C188.162 108.687 186.964 106.545 186.964 104.236C186.964 101.928 188.104 99.8717 190.052 98.1374L190.086 98.1317Z" fill="#C6D6FF"/>
<path d="M195.754 8.28681C197.385 8.28681 198.71 6.96599 198.71 5.34079C198.71 3.7156 197.385 2.39478 195.754 2.39478C194.124 2.39478 192.799 3.7156 192.799 5.34079C192.799 6.96599 194.124 8.28681 195.754 8.28681ZM195.754 2.82548C197.143 2.82548 198.278 3.95105 198.278 5.34079C198.278 6.73053 197.149 7.85611 195.754 7.85611C194.36 7.85611 193.231 6.73053 193.231 5.34079C193.231 3.95105 194.36 2.82548 195.754 2.82548Z" fill="#C6D6FF"/>
<path d="M199.775 9.5041C200.403 9.5041 200.916 8.993 200.916 8.36704C200.916 7.74108 200.403 7.22998 199.775 7.22998C199.147 7.22998 198.635 7.74108 198.635 8.36704C198.635 8.993 199.147 9.5041 199.775 9.5041ZM199.775 7.66068C200.167 7.66068 200.484 7.97653 200.484 8.36704C200.484 8.75755 200.167 9.0734 199.775 9.0734C199.384 9.0734 199.067 8.75755 199.067 8.36704C199.067 7.97653 199.384 7.66068 199.775 7.66068Z" fill="#C6D6FF"/>
<path d="M209.62 10.1647H218.036C219.206 10.1647 220.15 9.21711 220.15 8.05708V4.39323C220.15 3.22745 219.2 2.28564 218.036 2.28564H209.62C208.451 2.28564 207.506 3.23319 207.506 4.39323V8.05708C207.506 9.22286 208.456 10.1647 209.62 10.1647ZM207.938 4.39323C207.938 3.46865 208.693 2.71635 209.62 2.71635H218.036C218.964 2.71635 219.718 3.46865 219.718 4.39323V8.05708C219.718 8.98166 218.964 9.73396 218.036 9.73396H209.62C208.693 9.73396 207.938 8.98166 207.938 8.05708V4.39323Z" fill="#C6D6FF"/>
</g>
<defs>
<clipPath id="clip0_396_4439">
<rect width="242" height="135" fill="white"/>
</clipPath>
</defs>
</svg>
