<svg width="240" height="135" viewBox="0 0 240 135" fill="none" xmlns="http://www.w3.org/2000/svg">
<g clip-path="url(#clip0_396_4578)">
<path d="M34.7575 17.4694H21.115C20.9951 17.4694 20.8979 17.567 20.8979 17.6876V38.9012C20.8979 39.0218 20.9951 39.1194 21.115 39.1194H34.7575C34.8775 39.1194 34.9746 39.0218 34.9746 38.9012V17.6818C34.9746 17.5613 34.8775 17.4636 34.7575 17.4636V17.4694ZM21.3264 17.9001H27.7192V38.683H21.3264V17.9001ZM34.5404 38.683H28.1477V17.9001H34.5404V38.683Z" fill="#C6D6FF"/>
<path d="M19.7266 20.6796C19.6752 20.6394 19.6124 20.6221 19.5495 20.6336C18.1841 20.8806 17.1958 21.9659 17.1958 23.2121C17.1958 24.4583 18.1956 25.5551 19.5724 25.7963C19.5838 25.7963 19.5952 25.7963 19.6067 25.7963C19.6581 25.7963 19.7038 25.7791 19.7438 25.7446C19.7895 25.7044 19.818 25.6413 19.818 25.5781L19.7952 20.8404C19.7952 20.7772 19.7666 20.714 19.7152 20.6738L19.7266 20.6796Z" fill="#C6D6FF"/>
<path d="M19.7266 30.89C19.6752 30.8498 19.6124 30.8326 19.5495 30.8441C18.1841 31.091 17.1958 32.1764 17.1958 33.4226C17.1958 34.6687 18.1956 35.7656 19.5724 36.0068C19.5838 36.0068 19.5952 36.0068 19.6067 36.0068C19.6581 36.0068 19.7038 35.9896 19.7438 35.9551C19.7895 35.9149 19.818 35.8517 19.818 35.7886L19.7952 31.0508C19.7952 30.9876 19.7666 30.9245 19.7152 30.8843L19.7266 30.89Z" fill="#C6D6FF"/>
<path d="M36.3 30.8441C36.2371 30.8326 36.1743 30.8498 36.1229 30.89C36.0771 30.9302 36.0486 30.9934 36.0486 31.0566L36.0714 35.7943C36.0714 35.8575 36.1 35.9206 36.1514 35.9608C36.1914 35.9953 36.2371 36.0125 36.2885 36.0125C36.3 36.0125 36.3114 36.0125 36.3285 36.0125C37.6939 35.7656 38.6822 34.6802 38.6822 33.434C38.6822 32.1879 37.6825 31.091 36.3057 30.8498L36.3 30.8441Z" fill="#C6D6FF"/>
<path d="M36.3 20.6336C36.2371 20.6221 36.1743 20.6394 36.1229 20.6796C36.0771 20.7198 36.0486 20.7829 36.0486 20.8461L36.0714 25.5838C36.0714 25.647 36.1 25.7102 36.1514 25.7504C36.1914 25.7848 36.2371 25.8021 36.2885 25.8021C36.3 25.8021 36.3114 25.8021 36.3285 25.8021C37.6939 25.5551 38.6822 24.4698 38.6822 23.2236C38.6822 21.9774 37.6825 20.8806 36.3057 20.6394L36.3 20.6336Z" fill="#C6D6FF"/>
<path d="M67.7097 17.4694H54.0672C53.9472 17.4694 53.8501 17.567 53.8501 17.6876V38.9012C53.8501 39.0218 53.9472 39.1194 54.0672 39.1194H67.7097C67.8296 39.1194 67.9267 39.0218 67.9267 38.9012V17.6818C67.9267 17.5613 67.8296 17.4636 67.7097 17.4636V17.4694ZM54.2786 17.9001H60.6713V38.683H54.2786V17.9001ZM67.4926 38.683H61.0998V17.9001H67.4926V38.683Z" fill="#C6D6FF"/>
<path d="M52.6732 20.6796C52.6217 20.6394 52.5589 20.6221 52.4961 20.6336C51.1307 20.8806 50.1423 21.9659 50.1423 23.2121C50.1423 24.4583 51.1421 25.5551 52.5189 25.7963C52.5303 25.7963 52.5418 25.7963 52.5532 25.7963C52.6046 25.7963 52.6503 25.7791 52.6903 25.7446C52.736 25.7044 52.7646 25.6413 52.7646 25.5781L52.7417 20.8404C52.7417 20.7772 52.7132 20.714 52.6617 20.6738L52.6732 20.6796Z" fill="#C6D6FF"/>
<path d="M52.6732 30.89C52.6217 30.8498 52.5589 30.8326 52.4961 30.8441C51.1307 31.091 50.1423 32.1764 50.1423 33.4226C50.1423 34.6687 51.1421 35.7656 52.5189 36.0068C52.5303 36.0068 52.5418 36.0068 52.5532 36.0068C52.6046 36.0068 52.6503 35.9896 52.6903 35.9551C52.736 35.9149 52.7646 35.8517 52.7646 35.7886L52.7417 31.0508C52.7417 30.9876 52.7132 30.9245 52.6617 30.8843L52.6732 30.89Z" fill="#C6D6FF"/>
<path d="M69.2521 30.8441C69.1893 30.8326 69.1264 30.8498 69.075 30.89C69.0293 30.9302 69.0007 30.9934 69.0007 31.0566L69.0236 35.7943C69.0236 35.8575 69.0521 35.9206 69.1036 35.9608C69.1436 35.9953 69.1893 36.0125 69.2407 36.0125C69.2521 36.0125 69.2635 36.0125 69.2807 36.0125C70.6461 35.7656 71.6344 34.6802 71.6344 33.434C71.6344 32.1879 70.6346 31.091 69.2578 30.8498L69.2521 30.8441Z" fill="#C6D6FF"/>
<path d="M69.2521 20.6336C69.1893 20.6221 69.1264 20.6394 69.075 20.6796C69.0293 20.7198 69.0007 20.7829 69.0007 20.8461L69.0236 25.5838C69.0236 25.647 69.0521 25.7102 69.1036 25.7504C69.1436 25.7848 69.1893 25.8021 69.2407 25.8021C69.2521 25.8021 69.2635 25.8021 69.2807 25.8021C70.6461 25.5551 71.6344 24.4698 71.6344 23.2236C71.6344 21.9774 70.6346 20.8806 69.2578 20.6394L69.2521 20.6336Z" fill="#C6D6FF"/>
<path d="M34.7575 54.8774H21.115C20.9951 54.8774 20.8979 54.9751 20.8979 55.0957V76.3093C20.8979 76.4299 20.9951 76.5275 21.115 76.5275H34.7575C34.8775 76.5275 34.9746 76.4299 34.9746 76.3093V55.0957C34.9746 54.9751 34.8775 54.8774 34.7575 54.8774ZM21.3264 55.3081H27.7192V76.0911H21.3264V55.3081ZM34.5404 76.0911H28.1477V55.3081H34.5404V76.0911Z" fill="#C6D6FF"/>
<path d="M19.7266 58.0878C19.6752 58.0476 19.6124 58.0303 19.5495 58.0418C18.1841 58.2888 17.1958 59.3741 17.1958 60.6203C17.1958 61.8665 18.1956 62.9633 19.5724 63.2045C19.5838 63.2045 19.5952 63.2045 19.6067 63.2045C19.6581 63.2045 19.7038 63.1873 19.7438 63.1529C19.7895 63.1127 19.818 63.0495 19.818 62.9863L19.7952 58.2486C19.7952 58.1854 19.7666 58.1222 19.7152 58.082L19.7266 58.0878Z" fill="#C6D6FF"/>
<path d="M19.7266 68.3041C19.6752 68.2639 19.6124 68.2466 19.5495 68.2581C18.1841 68.5051 17.1958 69.5904 17.1958 70.8366C17.1958 72.0828 18.1956 73.1796 19.5724 73.4208C19.5838 73.4208 19.5952 73.4208 19.6067 73.4208C19.6581 73.4208 19.7038 73.4036 19.7438 73.3692C19.7895 73.329 19.818 73.2658 19.818 73.2026L19.7952 68.4649C19.7952 68.4017 19.7666 68.3385 19.7152 68.2983L19.7266 68.3041Z" fill="#C6D6FF"/>
<path d="M36.3 68.2523C36.2371 68.2408 36.1743 68.258 36.1229 68.2982C36.0771 68.3384 36.0486 68.4016 36.0486 68.4648L36.0714 73.2025C36.0714 73.2657 36.1 73.3288 36.1514 73.369C36.1914 73.4035 36.2371 73.4207 36.2885 73.4207C36.3 73.4207 36.3114 73.4207 36.3285 73.4207C37.6939 73.1738 38.6822 72.0884 38.6822 70.8422C38.6822 69.5961 37.6825 68.4992 36.3057 68.258L36.3 68.2523Z" fill="#C6D6FF"/>
<path d="M36.3 58.0418C36.2371 58.0303 36.1743 58.0476 36.1229 58.0878C36.0771 58.128 36.0486 58.1911 36.0486 58.2543L36.0714 62.9921C36.0714 63.0552 36.1 63.1184 36.1514 63.1586C36.1914 63.1931 36.2371 63.2103 36.2885 63.2103C36.3 63.2103 36.3114 63.2103 36.3285 63.2103C37.6939 62.9633 38.6822 61.878 38.6822 60.6318C38.6822 59.3856 37.6825 58.2888 36.3057 58.0476L36.3 58.0418Z" fill="#C6D6FF"/>
<path d="M67.7097 54.8774H54.0672C53.9472 54.8774 53.8501 54.9751 53.8501 55.0957V76.3093C53.8501 76.4299 53.9472 76.5275 54.0672 76.5275H67.7097C67.8296 76.5275 67.9267 76.4299 67.9267 76.3093V55.0957C67.9267 54.9751 67.8296 54.8774 67.7097 54.8774ZM54.2786 55.3081H60.6713V76.0911H54.2786V55.3081ZM67.4926 76.0911H61.0998V55.3081H67.4926V76.0911Z" fill="#C6D6FF"/>
<path d="M52.6732 58.0878C52.6217 58.0476 52.5589 58.0303 52.4961 58.0418C51.1307 58.2888 50.1423 59.3741 50.1423 60.6203C50.1423 61.8665 51.1421 62.9633 52.5189 63.2045C52.5303 63.2045 52.5418 63.2045 52.5532 63.2045C52.6046 63.2045 52.6503 63.1873 52.6903 63.1529C52.736 63.1127 52.7646 63.0495 52.7646 62.9863L52.7417 58.2486C52.7417 58.1854 52.7132 58.1222 52.6617 58.082L52.6732 58.0878Z" fill="#C6D6FF"/>
<path d="M52.6732 68.3041C52.6217 68.2639 52.5589 68.2466 52.4961 68.2581C51.1307 68.5051 50.1423 69.5904 50.1423 70.8366C50.1423 72.0828 51.1421 73.1796 52.5189 73.4208C52.5303 73.4208 52.5418 73.4208 52.5532 73.4208C52.6046 73.4208 52.6503 73.4036 52.6903 73.3692C52.736 73.329 52.7646 73.2658 52.7646 73.2026L52.7417 68.4649C52.7417 68.4017 52.7132 68.3385 52.6617 68.2983L52.6732 68.3041Z" fill="#C6D6FF"/>
<path d="M69.2521 68.2523C69.1893 68.2408 69.1264 68.258 69.075 68.2982C69.0293 68.3384 69.0007 68.4016 69.0007 68.4648L69.0236 73.2025C69.0236 73.2657 69.0521 73.3288 69.1036 73.369C69.1436 73.4035 69.1893 73.4207 69.2407 73.4207C69.2521 73.4207 69.2635 73.4207 69.2807 73.4207C70.6461 73.1738 71.6344 72.0884 71.6344 70.8422C71.6344 69.5961 70.6346 68.4992 69.2578 68.258L69.2521 68.2523Z" fill="#C6D6FF"/>
<path d="M69.2521 58.0418C69.1893 58.0303 69.1264 58.0476 69.075 58.0878C69.0293 58.128 69.0007 58.1911 69.0007 58.2543L69.0236 62.9921C69.0236 63.0552 69.0521 63.1184 69.1036 63.1586C69.1436 63.1931 69.1893 63.2103 69.2407 63.2103C69.2521 63.2103 69.2635 63.2103 69.2807 63.2103C70.6461 62.9633 71.6344 61.878 71.6344 60.6318C71.6344 59.3856 70.6346 58.2888 69.2578 58.0476L69.2521 58.0418Z" fill="#C6D6FF"/>
<path d="M34.7575 94.3242H21.115C20.9951 94.3242 20.8979 94.4218 20.8979 94.5424V115.756C20.8979 115.877 20.9951 115.974 21.115 115.974H34.7575C34.8775 115.974 34.9746 115.877 34.9746 115.756V94.5424C34.9746 94.4218 34.8775 94.3242 34.7575 94.3242ZM21.3264 94.7549H27.7192V115.538H21.3264V94.7549ZM34.5404 115.538H28.1477V94.7549H34.5404V115.538Z" fill="#C6D6FF"/>
<path d="M19.7266 97.5402C19.6752 97.5 19.6124 97.4827 19.5495 97.4942C18.1841 97.7412 17.1958 98.8265 17.1958 100.073C17.1958 101.319 18.1956 102.416 19.5724 102.657C19.5838 102.657 19.5952 102.657 19.6067 102.657C19.6581 102.657 19.7038 102.64 19.7438 102.605C19.7895 102.565 19.818 102.502 19.818 102.439L19.7952 97.701C19.7952 97.6378 19.7666 97.5746 19.7152 97.5344L19.7266 97.5402Z" fill="#C6D6FF"/>
<path d="M19.7266 107.751C19.6752 107.711 19.6124 107.693 19.5495 107.705C18.1841 107.952 17.1958 109.037 17.1958 110.283C17.1958 111.53 18.1956 112.626 19.5724 112.868C19.5838 112.868 19.5952 112.868 19.6067 112.868C19.6581 112.868 19.7038 112.85 19.7438 112.816C19.7895 112.776 19.818 112.713 19.818 112.649L19.7952 107.912C19.7952 107.848 19.7666 107.785 19.7152 107.745L19.7266 107.751Z" fill="#C6D6FF"/>
<path d="M36.3 107.705C36.2371 107.693 36.1743 107.711 36.1229 107.751C36.0771 107.791 36.0486 107.854 36.0486 107.917L36.0714 112.655C36.0714 112.718 36.1 112.781 36.1514 112.822C36.1914 112.856 36.2371 112.873 36.2885 112.873C36.3 112.873 36.3114 112.873 36.3285 112.873C37.6939 112.626 38.6822 111.541 38.6822 110.295C38.6822 109.049 37.6825 107.952 36.3057 107.711L36.3 107.705Z" fill="#C6D6FF"/>
<path d="M36.3 97.4942C36.2371 97.4827 36.1743 97.5 36.1229 97.5402C36.0771 97.5804 36.0486 97.6435 36.0486 97.7067L36.0714 102.444C36.0714 102.508 36.1 102.571 36.1514 102.611C36.1914 102.645 36.2371 102.663 36.2885 102.663C36.3 102.663 36.3114 102.663 36.3285 102.663C37.6939 102.416 38.6822 101.33 38.6822 100.084C38.6822 98.838 37.6825 97.7411 36.3057 97.5L36.3 97.4942Z" fill="#C6D6FF"/>
<path d="M67.7097 94.3242H54.0672C53.9472 94.3242 53.8501 94.4218 53.8501 94.5424V115.756C53.8501 115.877 53.9472 115.974 54.0672 115.974H67.7097C67.8296 115.974 67.9267 115.877 67.9267 115.756V94.5424C67.9267 94.4218 67.8296 94.3242 67.7097 94.3242ZM54.2786 94.7549H60.6713V115.538H54.2786V94.7549ZM67.4926 115.538H61.0998V94.7549H67.4926V115.538Z" fill="#C6D6FF"/>
<path d="M52.6732 97.5402C52.6217 97.5 52.5589 97.4827 52.4961 97.4942C51.1307 97.7412 50.1423 98.8265 50.1423 100.073C50.1423 101.319 51.1421 102.416 52.5189 102.657C52.5303 102.657 52.5418 102.657 52.5532 102.657C52.6046 102.657 52.6503 102.64 52.6903 102.605C52.736 102.565 52.7646 102.502 52.7646 102.439L52.7417 97.701C52.7417 97.6378 52.7132 97.5746 52.6617 97.5344L52.6732 97.5402Z" fill="#C6D6FF"/>
<path d="M52.6732 107.751C52.6217 107.711 52.5589 107.693 52.4961 107.705C51.1307 107.952 50.1423 109.037 50.1423 110.283C50.1423 111.53 51.1421 112.626 52.5189 112.868C52.5303 112.868 52.5418 112.868 52.5532 112.868C52.6046 112.868 52.6503 112.85 52.6903 112.816C52.736 112.776 52.7646 112.713 52.7646 112.649L52.7417 107.912C52.7417 107.848 52.7132 107.785 52.6617 107.745L52.6732 107.751Z" fill="#C6D6FF"/>
<path d="M69.2521 107.705C69.1893 107.693 69.1264 107.711 69.075 107.751C69.0293 107.791 69.0007 107.854 69.0007 107.917L69.0236 112.655C69.0236 112.718 69.0521 112.781 69.1036 112.822C69.1436 112.856 69.1893 112.873 69.2407 112.873C69.2521 112.873 69.2635 112.873 69.2807 112.873C70.6461 112.626 71.6344 111.541 71.6344 110.295C71.6344 109.049 70.6346 107.952 69.2578 107.711L69.2521 107.705Z" fill="#C6D6FF"/>
<path d="M69.2521 97.4942C69.1893 97.4827 69.1264 97.5 69.075 97.5402C69.0293 97.5804 69.0007 97.6435 69.0007 97.7067L69.0236 102.444C69.0236 102.508 69.0521 102.571 69.1036 102.611C69.1436 102.645 69.1893 102.663 69.2407 102.663C69.2521 102.663 69.2635 102.663 69.2807 102.663C70.6461 102.416 71.6344 101.33 71.6344 100.084C71.6344 98.838 70.6346 97.7411 69.2578 97.5L69.2521 97.4942Z" fill="#C6D6FF"/>
<path d="M239.572 0H0.428469C0.194239 0 0 0.195253 0 0.430704V134.569C0 134.805 0.194239 135 0.428469 135H239.572C239.806 135 240 134.805 240 134.569V0.430704C240 0.195253 239.806 0 239.572 0ZM162.413 95.9265V95.0651H151.524C151.712 89.3913 156.294 84.8201 161.956 84.6995C161.996 84.7512 162.053 84.7913 162.127 84.7913C162.23 84.7913 162.31 84.7224 162.333 84.6248C162.373 84.5846 162.401 84.5329 162.401 84.4697C162.401 84.4123 162.378 84.3664 162.344 84.3262V78.3135H239.143V134.139H162.344V95.9265H162.413ZM188.909 0.861409H228.157V11.3878H188.909V0.861409ZM228.671 0.861409H239.143V11.3878H228.757C228.728 11.3878 228.694 11.3936 228.671 11.4051V0.861409ZM228.671 11.8013C228.671 11.8013 228.728 11.8185 228.757 11.8185H239.143V40.1302H228.671V11.8013ZM0.856939 0.861409H188.481V11.606C188.481 11.7266 188.578 11.8243 188.698 11.8243H228.243V40.3541C228.243 40.4747 228.34 40.5724 228.46 40.5724H239.149V77.8943H162.139C162.019 77.8943 161.921 77.992 161.921 78.1126V84.286C156.043 84.4296 151.29 89.1788 151.101 95.0823H151.073V95.9437H161.921V134.156H0.856939V0.861409Z" fill="#C6D6FF"/>
<path d="M112.11 21.1333C107.077 21.1333 102.536 23.2811 99.3363 26.7095C99.3363 26.7095 99.3249 26.7152 99.3249 26.721C96.3884 29.8795 94.5889 34.1061 94.5889 38.7577C94.5889 38.8783 94.686 38.976 94.806 38.976H103.318C103.438 38.976 103.535 38.8783 103.535 38.7577C103.535 33.997 107.386 30.1207 112.128 30.1207C116.869 30.1207 120.72 33.9913 120.72 38.7577C120.72 38.8783 120.817 38.976 120.937 38.976H129.449C129.569 38.976 129.666 38.8783 129.666 38.7577C129.666 29.041 121.805 21.139 112.139 21.139L112.11 21.1333ZM124.382 26.7956C124.347 26.8014 124.319 26.8129 124.29 26.8358L118.046 31.832C118.046 31.832 118.006 31.8722 117.995 31.8952C116.464 30.5686 114.493 29.7474 112.327 29.6957V21.564C117.052 21.6214 121.32 23.6142 124.382 26.7899V26.7956ZM111.899 21.5697V29.7014C109.717 29.7531 107.723 30.5858 106.192 31.9411L99.8105 26.8358C102.878 23.6371 107.157 21.6329 111.899 21.5697ZM103.095 38.5395H95.0116C95.063 34.1521 96.7598 30.1551 99.5077 27.1459L105.86 32.2282C104.204 33.8305 103.153 36.0644 103.095 38.5395ZM121.125 38.5395C121.068 36.0357 119.989 33.7845 118.298 32.1766C118.298 32.1766 118.303 32.1766 118.309 32.1766L124.553 27.1804C124.593 27.1517 124.616 27.1057 124.627 27.0598C127.427 30.0805 129.158 34.1119 129.209 38.5452H121.125V38.5395Z" fill="#C6D6FF"/>
<path d="M101.582 55.3081H122.639C122.759 55.3081 122.857 55.2104 122.857 55.0898V44.4428C122.857 44.3222 122.759 44.2246 122.639 44.2246H101.582C101.462 44.2246 101.365 44.3222 101.365 44.4428V55.0898C101.365 55.2104 101.462 55.3081 101.582 55.3081ZM101.799 44.6611H122.428V54.8774H101.799V44.6611Z" fill="#C6D6FF"/>
<path d="M129.426 97.1498H120.914C120.794 97.1498 120.697 97.2474 120.697 97.368C120.697 102.129 116.847 106.005 112.105 106.005C107.363 106.005 103.513 102.134 103.513 97.368C103.513 97.2474 103.415 97.1498 103.296 97.1498H94.7833C94.6633 97.1498 94.5662 97.2474 94.5662 97.368C94.5662 107.085 102.427 114.987 112.093 114.987C117.127 114.987 121.668 112.839 124.868 109.416C124.873 109.411 124.879 109.411 124.885 109.399C124.885 109.399 124.885 109.393 124.885 109.388C127.815 106.235 129.621 102.008 129.621 97.3623C129.621 97.2417 129.524 97.144 129.404 97.144L129.426 97.1498ZM103.096 97.5805C103.153 100.084 104.232 102.335 105.923 103.943C105.923 103.943 105.918 103.943 105.912 103.943L99.6678 108.94C99.6278 108.968 99.605 109.014 99.5935 109.06C96.7942 106.04 95.0632 102.008 95.0118 97.5747H103.096V97.5805ZM99.8335 109.313C99.8678 109.307 99.902 109.301 99.9306 109.278L106.175 104.282C106.175 104.282 106.215 104.242 106.226 104.219C107.757 105.546 109.728 106.367 111.893 106.419V114.55C107.163 114.493 102.896 112.494 99.8335 109.319V109.313ZM112.322 114.545V106.413C114.504 106.361 116.498 105.528 118.029 104.173L124.41 109.278C121.343 112.477 117.064 114.481 112.322 114.545ZM124.708 108.968L118.355 103.886C120.012 102.284 121.063 100.05 121.12 97.5747H129.204C129.152 101.962 127.455 105.959 124.708 108.968Z" fill="#C6D6FF"/>
<path d="M101.37 91.6711C101.37 91.7917 101.467 91.8894 101.587 91.8894H122.645C122.765 91.8894 122.862 91.7917 122.862 91.6711V81.0241C122.862 80.9035 122.765 80.8059 122.645 80.8059H101.587C101.467 80.8059 101.37 80.9035 101.37 81.0241V91.6711ZM101.799 81.2424H122.428V91.4587H101.799V81.2424Z" fill="#C6D6FF"/>
<path d="M184.653 118.691C184.653 118.691 184.665 118.708 184.676 118.719C184.676 118.719 184.682 118.719 184.687 118.719C187.835 121.74 192.097 123.601 196.782 123.601C196.902 123.601 196.999 123.503 196.999 123.382V114.826C196.999 114.705 196.902 114.608 196.782 114.608C192.046 114.608 188.189 110.737 188.189 105.97C188.189 101.204 192.04 97.3334 196.782 97.3334C196.902 97.3334 196.999 97.2358 196.999 97.1152V88.5586C196.999 88.438 196.902 88.3403 196.782 88.3403C187.115 88.3403 179.254 96.2423 179.254 105.959C179.254 110.949 181.334 115.457 184.659 118.668L184.653 118.691ZM196.565 115.044V123.17C192.137 123.113 188.115 121.361 185.104 118.53L190.28 112.259C191.874 113.924 194.097 114.987 196.565 115.044ZM189.995 111.931L184.796 118.225C181.688 115.153 179.74 110.898 179.683 106.194H187.772C187.824 108.388 188.652 110.387 189.995 111.931ZM196.565 96.92C194.074 96.9774 191.834 98.0628 190.235 99.7626C190.235 99.7626 190.235 99.7569 190.235 99.7511L185.264 93.4743C185.236 93.4341 185.19 93.4112 185.144 93.3997C188.149 90.5857 192.16 88.8457 196.57 88.794V96.92H196.565ZM184.882 93.6466C184.887 93.6811 184.899 93.7098 184.922 93.7385L189.892 100.015C189.892 100.015 189.932 100.055 189.955 100.067C188.635 101.606 187.818 103.587 187.767 105.764H179.677C179.734 101.015 181.717 96.7247 184.876 93.6466H184.882Z" fill="#C6D6FF"/>
<path d="M202.443 116.784H213.035C213.155 116.784 213.252 116.686 213.252 116.566V95.3981C213.252 95.2776 213.155 95.1799 213.035 95.1799H202.443C202.323 95.1799 202.226 95.2776 202.226 95.3981V116.566C202.226 116.686 202.323 116.784 202.443 116.784ZM202.66 95.6164H212.824V116.353H202.66V95.6164Z" fill="#C6D6FF"/>
<path d="M171.513 58.5472V20.4384C171.513 20.3178 171.416 20.2202 171.296 20.2202H148.987C148.867 20.2202 148.77 20.3178 148.77 20.4384V58.5472C148.77 58.6678 148.867 58.7654 148.987 58.7654H171.296C171.416 58.7654 171.513 58.6678 171.513 58.5472ZM171.085 58.3289H149.204V20.6509H171.085V58.3289Z" fill="#C6D6FF"/>
<path d="M189.212 30.379H221.176C221.296 30.379 221.393 30.2813 221.393 30.1607V20.5876C221.393 20.467 221.296 20.3694 221.176 20.3694H189.212C189.092 20.3694 188.995 20.467 188.995 20.5876V30.1607C188.995 30.2813 189.092 30.379 189.212 30.379ZM189.429 20.8058H220.965V29.9483H189.429V20.8058Z" fill="#C6D6FF"/>
<path d="M230.711 129.355H232.676C232.796 129.355 232.893 129.257 232.893 129.137V82.4829C232.893 82.3623 232.796 82.2646 232.676 82.2646H230.711C230.591 82.2646 230.494 82.3623 230.494 82.4829V129.137C230.494 129.257 230.591 129.355 230.711 129.355ZM230.928 82.7011H232.465V128.924H230.928V82.7011Z" fill="#C6D6FF"/>
<path d="M146.451 21.9543H145.24C144.874 21.9543 144.577 22.2526 144.577 22.6205V28.2484C144.577 28.6163 144.874 28.9145 145.24 28.9145H146.451C146.817 28.9145 147.113 28.6163 147.113 28.2484V22.6205C147.113 22.2526 146.817 21.9543 146.451 21.9543Z" fill="#C6D6FF"/>
<path d="M145.24 31.3267H146.451C146.816 31.3267 147.113 31.6253 147.113 31.9928V37.6207C147.113 37.9882 146.816 38.2868 146.451 38.2868H145.24C144.874 38.2868 144.577 37.9882 144.577 37.6207V31.9928C144.577 31.6253 144.874 31.3267 145.24 31.3267Z" fill="#C6D6FF"/>
<path d="M145.24 40.6987H146.451C146.816 40.6987 147.113 40.9973 147.113 41.3649V46.9928C147.113 47.3603 146.816 47.6589 146.451 47.6589H145.24C144.874 47.6589 144.577 47.3603 144.577 46.9928V41.3649C144.577 40.9973 144.874 40.6987 145.24 40.6987Z" fill="#C6D6FF"/>
<path d="M145.24 50.0708H146.451C146.816 50.0708 147.113 50.3694 147.113 50.737V56.3648C147.113 56.7324 146.816 57.031 146.451 57.031H145.24C144.874 57.031 144.577 56.7324 144.577 56.3648V50.737C144.577 50.3694 144.874 50.0708 145.24 50.0708Z" fill="#C6D6FF"/>
<path d="M174.564 21.9543H173.353C172.987 21.9543 172.69 22.2526 172.69 22.6205V28.2484C172.69 28.6163 172.987 28.9145 173.353 28.9145H174.564C174.93 28.9145 175.227 28.6163 175.227 28.2484V22.6205C175.227 22.2526 174.93 21.9543 174.564 21.9543Z" fill="#C6D6FF"/>
<path d="M173.353 31.3267H174.564C174.93 31.3267 175.227 31.6253 175.227 31.9928V37.6207C175.227 37.9882 174.93 38.2868 174.564 38.2868H173.353C172.988 38.2868 172.69 37.9882 172.69 37.6207V31.9928C172.69 31.6253 172.988 31.3267 173.353 31.3267Z" fill="#C6D6FF"/>
<path d="M173.353 40.6987H174.564C174.93 40.6987 175.227 40.9973 175.227 41.3649V46.9928C175.227 47.3603 174.93 47.6589 174.564 47.6589H173.353C172.988 47.6589 172.69 47.3603 172.69 46.9928V41.3649C172.69 40.9973 172.988 40.6987 173.353 40.6987Z" fill="#C6D6FF"/>
<path d="M173.353 50.0708H174.564C174.93 50.0708 175.227 50.3694 175.227 50.737V56.3648C175.227 56.7324 174.93 57.031 174.564 57.031H173.353C172.988 57.031 172.69 56.7324 172.69 56.3648V50.737C172.69 50.3694 172.988 50.0708 173.353 50.0708Z" fill="#C6D6FF"/>
<path d="M197.57 31.8206L192.857 31.8435C192.794 31.8435 192.731 31.8722 192.691 31.9239C192.651 31.9699 192.634 32.0388 192.646 32.102C192.891 33.4745 193.971 34.468 195.211 34.468C196.45 34.468 197.542 33.463 197.781 32.079C197.793 32.0158 197.776 31.9526 197.736 31.901C197.696 31.855 197.633 31.8263 197.57 31.8263V31.8206Z" fill="#C6D6FF"/>
<path d="M204.226 31.8204L199.512 31.8434C199.45 31.8434 199.387 31.8721 199.347 31.9238C199.307 31.9697 199.29 32.0386 199.301 32.1018C199.547 33.4743 200.626 34.4678 201.866 34.4678C203.106 34.4678 204.197 33.4628 204.437 32.0788C204.448 32.0157 204.431 31.9525 204.391 31.9008C204.351 31.8491 204.288 31.8032 204.226 31.8261V31.8204Z" fill="#C6D6FF"/>
<path d="M210.887 31.8206L206.174 31.8435C206.111 31.8435 206.048 31.8722 206.008 31.9239C205.968 31.9699 205.951 32.0388 205.962 32.102C206.208 33.4745 207.288 34.468 208.528 34.468C209.767 34.468 210.858 33.463 211.098 32.079C211.11 32.0158 211.093 31.9526 211.053 31.901C211.013 31.855 210.938 31.8033 210.887 31.8263V31.8206Z" fill="#C6D6FF"/>
<path d="M217.297 31.8204L212.584 31.8434C212.521 31.8434 212.458 31.8721 212.418 31.9238C212.378 31.9697 212.361 32.0386 212.372 32.1018C212.618 33.4743 213.698 34.4678 214.937 34.4678C216.177 34.4678 217.268 33.4628 217.508 32.0788C217.52 32.0157 217.503 31.9525 217.463 31.9008C217.423 31.8491 217.36 31.8032 217.297 31.8261V31.8204Z" fill="#C6D6FF"/>
<path d="M194.388 2.21094C192.771 2.21094 191.457 3.53176 191.457 5.15696C191.457 6.78215 192.771 8.10297 194.388 8.10297C196.005 8.10297 197.319 6.78215 197.319 5.15696C197.319 3.53176 196.005 2.21094 194.388 2.21094ZM194.388 7.67227C193.011 7.67227 191.886 6.5467 191.886 5.15696C191.886 3.76722 193.005 2.64164 194.388 2.64164C195.771 2.64164 196.89 3.76722 196.89 5.15696C196.89 6.5467 195.771 7.67227 194.388 7.67227Z" fill="#C6D6FF"/>
<path d="M198.381 7.04053C197.759 7.04053 197.25 7.55163 197.25 8.17759C197.25 8.80354 197.759 9.31465 198.381 9.31465C199.004 9.31465 199.513 8.80354 199.513 8.17759C199.513 7.55163 199.004 7.04053 198.381 7.04053ZM198.381 8.88394C197.993 8.88394 197.679 8.56809 197.679 8.17759C197.679 7.78708 197.993 7.47123 198.381 7.47123C198.77 7.47123 199.084 7.78708 199.084 8.17759C199.084 8.56809 198.77 8.88394 198.381 8.88394Z" fill="#C6D6FF"/>
<path d="M216.491 2.09033H208.145C206.985 2.09033 206.048 3.03788 206.048 4.19791V7.86177C206.048 9.02754 206.991 9.96935 208.145 9.96935H216.491C217.651 9.96935 218.588 9.0218 218.588 7.86177V4.20366C218.588 3.03788 217.645 2.09607 216.491 2.09607V2.09033ZM218.159 7.86177C218.159 8.78635 217.411 9.53865 216.491 9.53865H208.145C207.225 9.53865 206.477 8.78635 206.477 7.86177V4.20366C206.477 3.27908 207.225 2.52678 208.145 2.52678H216.491C217.411 2.52678 218.159 3.27908 218.159 4.20366V7.86751V7.86177Z" fill="#C6D6FF"/>
</g>
<defs>
<clipPath id="clip0_396_4578">
<rect width="240" height="135" fill="white"/>
</clipPath>
</defs>
</svg>
